<svg width="60" height="60" viewBox="0 0 60 60" fill="none" xmlns="http://www.w3.org/2000/svg">
<path d="M4 30C4 33.4144 4.67251 36.7953 5.97913 39.9498C7.28575 43.1042 9.2009 45.9705 11.6152 48.3848C14.0295 50.7991 16.8958 52.7142 20.0502 54.0209C23.2047 55.3275 26.5856 56 30 56C33.4144 56 36.7953 55.3275 39.9498 54.0209C43.1042 52.7142 45.9705 50.7991 48.3848 48.3848C50.7991 45.9705 52.7142 43.1042 54.0209 39.9498C55.3275 36.7953 56 33.4144 56 30C56 26.5856 55.3275 23.2047 54.0209 20.0502C52.7142 16.8958 50.7991 14.0295 48.3848 11.6152C45.9705 9.2009 43.1042 7.28575 39.9498 5.97913C36.7953 4.67251 33.4144 4 30 4C26.5856 4 23.2047 4.67251 20.0502 5.97913C16.8958 7.28575 14.0295 9.2009 11.6152 11.6152C9.2009 14.0295 7.28575 16.8958 5.97913 20.0502C4.67251 23.2047 4 26.5856 4 30Z" stroke="#98A2B3" stroke-width="2" stroke-linecap="round" stroke-linejoin="round" stroke-dasharray="5.55 5.55"/>
<path d="M21.333 24.2222H21.3619" stroke="#98A2B3" stroke-width="3" stroke-linecap="round" stroke-linejoin="round"/>
<path d="M38.667 24.2222H38.6959" stroke="#98A2B3" stroke-width="3" stroke-linecap="round" stroke-linejoin="round"/>
<path d="M22.7773 39.3888C23.7188 38.428 24.8425 37.6646 26.0826 37.1435C27.3227 36.6224 28.6544 36.354 29.9996 36.354C31.3447 36.354 32.6764 36.6224 33.9165 37.1435C35.1567 37.6646 36.2804 38.428 37.2218 39.3888" stroke="#98A2B3" stroke-width="2" stroke-linecap="round" stroke-linejoin="round"/>
</svg>
