<svg width="22" height="22" viewBox="0 0 22 22" fill="none" xmlns="http://www.w3.org/2000/svg">
<path d="M10.67 19.8515C10.771 19.9074 10.8845 19.937 11 19.9375L19.25 15.4609V6.89216L11 2.0625L2.81016 6.61115C2.77053 6.69953 2.75003 6.7953 2.75 6.89216V15.1112C2.75028 15.2343 2.7836 15.3551 2.84649 15.4609C2.90937 15.5667 2.99951 15.6537 3.1075 15.7128L10.67 19.8515Z" fill="#D0D5DD"/>
<path d="M19.2225 5.68457L11.66 1.54668C11.4579 1.43503 11.2309 1.37646 11 1.37646C10.7691 1.37646 10.5421 1.43503 10.34 1.54668L2.7775 5.68629C2.56153 5.80445 2.38125 5.97844 2.25547 6.19007C2.1297 6.40171 2.06306 6.64323 2.0625 6.88941V15.1085C2.06306 15.3547 2.1297 15.5962 2.25547 15.8078C2.38125 16.0194 2.56153 16.1934 2.7775 16.3116L10.34 20.4512C10.5421 20.5629 10.7691 20.6214 11 20.6214C11.2309 20.6214 11.4579 20.5629 11.66 20.4512L19.2225 16.3116C19.4385 16.1934 19.6188 16.0194 19.7445 15.8078C19.8703 15.5962 19.9369 15.3547 19.9375 15.1085V6.89027C19.9374 6.64365 19.871 6.40159 19.7452 6.18946C19.6194 5.97734 19.4389 5.80295 19.2225 5.68457ZM11 2.7498L17.9042 6.53105L11 10.3123L4.09578 6.53105L11 2.7498ZM3.4375 7.73418L10.3125 11.4965V18.8691L3.4375 15.1093V7.73418ZM11.6875 18.8691V11.5L18.5625 7.73418V15.1059L11.6875 18.8691Z" fill="#667085"/>
</svg>
