<svg width="639" height="244" viewBox="0 0 639 244" fill="none" xmlns="http://www.w3.org/2000/svg">
<path d="M124.526 258V199.52H0.0860039V171.98L123.846 4.69998H155.806V171.98H188.786V199.52H155.806V258H124.526ZM25.246 183.88L20.486 171.98H124.526V32.58L134.386 35.3L25.246 183.88ZM318.902 262.08C298.729 262.08 281.049 256.64 265.862 245.76C250.902 234.653 239.229 219.353 230.842 199.86C222.456 180.14 218.262 157.247 218.262 131.18C218.262 105.113 222.456 82.3333 230.842 62.84C239.229 43.12 250.902 27.82 265.862 16.94C280.822 6.05999 298.389 0.61999 318.562 0.61999C338.736 0.61999 356.302 6.05999 371.262 16.94C386.222 27.82 397.896 43.12 406.282 62.84C414.896 82.3333 419.202 105.113 419.202 131.18C419.202 157.247 415.009 180.14 406.622 199.86C398.236 219.58 386.449 234.88 371.262 245.76C356.302 256.64 338.849 262.08 318.902 262.08ZM318.902 231.14C332.502 231.14 344.289 227.06 354.262 218.9C364.236 210.513 371.942 198.84 377.382 183.88C383.049 168.92 385.882 151.353 385.882 131.18C385.882 111.007 383.049 93.44 377.382 78.48C371.942 63.52 364.122 51.96 353.922 43.8C343.949 35.64 332.162 31.56 318.562 31.56C304.962 31.56 293.176 35.64 283.202 43.8C273.229 51.96 265.409 63.52 259.742 78.48C254.302 93.44 251.582 111.007 251.582 131.18C251.582 151.127 254.302 168.58 259.742 183.54C265.409 198.5 273.229 210.173 283.202 218.56C293.402 226.947 305.302 231.14 318.902 231.14ZM573.778 258V199.52H449.338V171.98L573.098 4.69998H605.058V171.98H638.038V199.52H605.058V258H573.778ZM474.498 183.88L469.738 171.98H573.778V32.58L583.638 35.3L474.498 183.88Z" fill="#EAECF0"/>
</svg>
