<svg width="22" height="22" viewBox="0 0 22 22" fill="none" xmlns="http://www.w3.org/2000/svg">
<path d="M19.2429 17.875H2.75662C2.6592 17.8757 2.56275 17.8556 2.47366 17.8162C2.38458 17.7767 2.30489 17.7188 2.23988 17.6463C2.17488 17.5737 2.12604 17.4881 2.0966 17.3953C2.06716 17.3024 2.05779 17.2043 2.06912 17.1076L3.29373 6.79508C3.31448 6.62737 3.39583 6.47304 3.52245 6.36114C3.64908 6.24923 3.81224 6.18748 3.98123 6.1875H18.0183C18.1872 6.18748 18.3504 6.24923 18.477 6.36114C18.6037 6.47304 18.685 6.62737 18.7058 6.79508L19.9304 17.1076C19.9417 17.2043 19.9323 17.3024 19.9029 17.3953C19.8734 17.4881 19.8246 17.5737 19.7596 17.6463C19.6946 17.7188 19.6149 17.7767 19.5258 17.8162C19.4367 17.8556 19.3403 17.8757 19.2429 17.875Z" fill="#D0D5DD"/>
<path d="M20.6154 17.0259L19.3899 6.71344C19.3502 6.37744 19.1879 6.06789 18.9342 5.84402C18.6806 5.62014 18.3532 5.49766 18.0149 5.5H15.1248C15.1248 4.40598 14.6902 3.35677 13.9166 2.58318C13.1431 1.8096 12.0938 1.375 10.9998 1.375C9.90581 1.375 8.8566 1.8096 8.08302 2.58318C7.30943 3.35677 6.87483 4.40598 6.87483 5.5H3.98132C3.64298 5.49766 3.31566 5.62014 3.06198 5.84402C2.8083 6.06789 2.64606 6.37744 2.60632 6.71344L1.38085 17.0259C1.35839 17.2184 1.37687 17.4135 1.43507 17.5983C1.49328 17.7831 1.58989 17.9536 1.71858 18.0984C1.8482 18.2439 2.00704 18.3605 2.18473 18.4404C2.36242 18.5204 2.55498 18.562 2.74983 18.5625H19.243C19.439 18.5629 19.6328 18.5218 19.8118 18.4418C19.9907 18.3618 20.1507 18.2448 20.2811 18.0984C20.4092 17.9533 20.5051 17.7827 20.5628 17.5979C20.6204 17.4131 20.6383 17.2182 20.6154 17.0259ZM10.9998 2.75C11.7292 2.75 12.4286 3.03973 12.9444 3.55546C13.4601 4.07118 13.7498 4.77065 13.7498 5.5H8.24983C8.24983 4.77065 8.53956 4.07118 9.05529 3.55546C9.57101 3.03973 10.2705 2.75 10.9998 2.75ZM2.74983 17.1875L3.98132 6.875H6.87483V8.9375C6.87483 9.11984 6.94726 9.2947 7.0762 9.42364C7.20513 9.55257 7.37999 9.625 7.56233 9.625C7.74467 9.625 7.91954 9.55257 8.04847 9.42364C8.1774 9.2947 8.24983 9.11984 8.24983 8.9375V6.875H13.7498V8.9375C13.7498 9.11984 13.8223 9.2947 13.9512 9.42364C14.0801 9.55257 14.255 9.625 14.4373 9.625C14.6197 9.625 14.7945 9.55257 14.9235 9.42364C15.0524 9.2947 15.1248 9.11984 15.1248 8.9375V6.875H18.0252L19.243 17.1875H2.74983Z" fill="#101828"/>
</svg>
