<svg width="22" height="22" viewBox="0 0 22 22" fill="none" xmlns="http://www.w3.org/2000/svg">
<path d="M2.75 12.0313C2.75 11.6913 2.8508 11.359 3.03966 11.0764C3.22852 10.7937 3.49695 10.5734 3.81101 10.4433C4.12507 10.3132 4.47066 10.2792 4.80406 10.3455C5.13747 10.4118 5.44372 10.5755 5.68409 10.8159C5.92446 11.0563 6.08816 11.3625 6.15447 11.6959C6.22079 12.0293 6.18676 12.3749 6.05667 12.689C5.92658 13.003 5.70628 13.2715 5.42364 13.4603C5.14099 13.6492 4.80869 13.75 4.46875 13.75C4.01291 13.75 3.57574 13.5689 3.25341 13.2466C2.93108 12.9243 2.75 12.4871 2.75 12.0313ZM11 16.5C5.5 16.5 2.0625 19.25 2.0625 19.25H19.9375C19.9375 19.25 16.5 16.5 11 16.5Z" fill="#6172F3"/>
<path d="M20.4743 19.6796C20.4179 19.7501 20.3482 19.8089 20.269 19.8525C20.1899 19.8961 20.103 19.9237 20.0132 19.9336C19.9234 19.9436 19.8325 19.9358 19.7457 19.9106C19.659 19.8855 19.578 19.8434 19.5075 19.787C19.4757 19.7612 16.1714 17.1874 10.9997 17.1874C5.82798 17.1874 2.52282 19.7655 2.49188 19.7878C2.42129 19.8443 2.34028 19.8862 2.25347 19.9114C2.16666 19.9365 2.07575 19.9442 1.98593 19.9342C1.80454 19.914 1.63862 19.8226 1.52466 19.68C1.4107 19.5374 1.35804 19.3554 1.37826 19.174C1.39849 18.9926 1.48995 18.8267 1.63251 18.7128C1.77259 18.601 4.94282 16.1123 10.0793 15.8382C9.81211 14.7736 9.71667 13.6732 9.79657 12.5785C9.9461 10.7128 10.735 8.22753 13.4919 6.34979C13.0697 6.24717 12.6372 6.19325 12.2028 6.18909H12.0593C10.4265 6.24237 9.4004 7.19542 8.92259 9.10409C8.88516 9.25383 8.79845 9.38662 8.67639 9.48108C8.55433 9.57555 8.40403 9.6262 8.2497 9.62487C8.19347 9.62516 8.13744 9.61823 8.08298 9.60425C7.90613 9.56 7.75409 9.44733 7.66029 9.29101C7.5665 9.13469 7.53863 8.94752 7.58282 8.77065C8.37774 5.59526 10.4282 4.86737 12.0086 4.81753C12.6363 4.80387 13.2629 4.87468 13.8717 5.02807C13.5426 4.48409 13.0613 3.9169 12.3927 3.63159C11.5334 3.26721 10.4875 3.4262 9.27235 4.1051C9.11281 4.19399 8.92449 4.21586 8.74882 4.1659C8.57315 4.11594 8.42452 3.99824 8.33563 3.8387C8.24675 3.67915 8.22488 3.49083 8.27484 3.31516C8.3248 3.1395 8.4425 2.99087 8.60204 2.90198C10.2125 2.00393 11.6717 1.82432 12.9402 2.36917C14.0135 2.82979 14.7217 3.72526 15.1634 4.5176C15.6945 3.68917 16.3562 3.128 17.0875 2.88995C18.1067 2.55737 19.205 2.82807 20.3531 3.69518C20.4922 3.80726 20.5822 3.96906 20.604 4.14631C20.6259 4.32356 20.5779 4.50236 20.4702 4.64486C20.3626 4.78736 20.2037 4.88238 20.0272 4.90979C19.8507 4.93721 19.6705 4.89487 19.5247 4.79174C18.759 4.21339 18.0835 4.01315 17.5181 4.1962C16.8916 4.39815 16.412 5.05557 16.1113 5.62362C16.7296 5.74898 17.3246 5.97021 17.8747 6.27932C19.1302 6.9969 20.6247 8.51799 20.6247 11.6882C20.6247 11.8706 20.5523 12.0454 20.4233 12.1744C20.2944 12.3033 20.1195 12.3757 19.9372 12.3757C19.7549 12.3757 19.58 12.3033 19.4511 12.1744C19.3221 12.0454 19.2497 11.8706 19.2497 11.6882C19.2497 9.67214 18.5562 8.25073 17.1872 7.47729C17.0277 7.38672 16.8627 7.30635 16.6931 7.23667C17.1259 8.11669 17.2777 9.10854 17.1279 10.0778C17.0198 10.7948 16.7603 11.4806 16.3665 12.0896C16.2611 12.2374 16.1015 12.3375 15.9226 12.3681C15.7437 12.3987 15.5599 12.3573 15.4114 12.2529C15.2629 12.1485 15.1617 11.9896 15.1299 11.8109C15.0981 11.6322 15.1382 11.4482 15.2416 11.2989C15.3052 11.2053 16.6449 9.20378 14.9614 7.0562C12.6411 8.36331 11.3615 10.2574 11.1664 12.6928C11.0904 13.7479 11.2019 14.8082 11.4956 15.8244C16.8795 15.9799 20.2199 18.6028 20.3643 18.7171C20.506 18.8305 20.597 18.9953 20.6176 19.1756C20.6382 19.3559 20.5867 19.5371 20.4743 19.6796ZM2.0622 12.0311C2.0622 11.5552 2.20332 11.09 2.46772 10.6943C2.73213 10.2986 3.10793 9.99016 3.54761 9.80803C3.9873 9.62591 4.47112 9.57826 4.93788 9.6711C5.40465 9.76395 5.8334 9.99312 6.16992 10.3296C6.50644 10.6662 6.73562 11.0949 6.82846 11.5617C6.92131 12.0285 6.87366 12.5123 6.69153 12.952C6.50941 13.3916 6.20099 13.7674 5.80529 14.0318C5.40958 14.2962 4.94436 14.4374 4.46845 14.4374C3.83027 14.4374 3.21823 14.1839 2.76697 13.7326C2.31571 13.2813 2.0622 12.6693 2.0622 12.0311ZM3.4372 12.0311C3.4372 12.2351 3.49768 12.4345 3.61099 12.6041C3.72431 12.7736 3.88537 12.9058 4.0738 12.9839C4.26224 13.0619 4.46959 13.0823 4.66963 13.0426C4.86968 13.0028 5.05343 12.9045 5.19765 12.7603C5.34187 12.6161 5.44009 12.4323 5.47988 12.2323C5.51967 12.0323 5.49925 11.8249 5.4212 11.6365C5.34315 11.448 5.21097 11.287 5.04138 11.1737C4.87179 11.0604 4.67241 10.9999 4.46845 10.9999C4.19494 10.9999 3.93264 11.1085 3.73924 11.3019C3.54585 11.4953 3.4372 11.7576 3.4372 12.0311Z" fill="#C7D7FE"/>
</svg>
