<svg width="22" height="22" viewBox="0 0 22 22" fill="none" xmlns="http://www.w3.org/2000/svg">
<path d="M2.75 12.0313C2.75 11.6913 2.8508 11.359 3.03966 11.0764C3.22852 10.7937 3.49695 10.5734 3.81101 10.4433C4.12507 10.3132 4.47066 10.2792 4.80406 10.3455C5.13747 10.4118 5.44372 10.5755 5.68409 10.8159C5.92446 11.0563 6.08816 11.3625 6.15447 11.6959C6.22079 12.0293 6.18676 12.3749 6.05667 12.689C5.92658 13.003 5.70628 13.2715 5.42364 13.4603C5.14099 13.6492 4.80869 13.75 4.46875 13.75C4.01291 13.75 3.57574 13.5689 3.25341 13.2466C2.93108 12.9243 2.75 12.4871 2.75 12.0313ZM11 16.5C5.5 16.5 2.0625 19.25 2.0625 19.25H19.9375C19.9375 19.25 16.5 16.5 11 16.5Z" fill="#D0D5DD"/>
<path d="M20.4748 19.6796C20.4184 19.7501 20.3486 19.8089 20.2695 19.8525C20.1904 19.8961 20.1034 19.9237 20.0137 19.9336C19.9239 19.9436 19.833 19.9358 19.7462 19.9106C19.6595 19.8855 19.5785 19.8434 19.508 19.787C19.4762 19.7612 16.1719 17.1874 11.0002 17.1874C5.82847 17.1874 2.52331 19.7655 2.49237 19.7878C2.42178 19.8443 2.34077 19.8862 2.25396 19.9114C2.16715 19.9365 2.07624 19.9442 1.98642 19.9342C1.80503 19.914 1.63911 19.8226 1.52515 19.68C1.41119 19.5374 1.35853 19.3554 1.37875 19.174C1.39898 18.9926 1.49043 18.8267 1.633 18.7128C1.77308 18.601 4.94331 16.1123 10.0798 15.8382C9.8126 14.7736 9.71715 13.6732 9.79706 12.5785C9.94659 10.7128 10.7355 8.22753 13.4924 6.34979C13.0702 6.24717 12.6377 6.19325 12.2033 6.18909H12.0598C10.427 6.24237 9.40089 7.19542 8.92308 9.10409C8.88565 9.25383 8.79893 9.38662 8.67688 9.48108C8.55482 9.57555 8.40452 9.6262 8.25019 9.62487C8.19396 9.62516 8.13793 9.61823 8.08347 9.60425C7.90661 9.56 7.75457 9.44733 7.66078 9.29101C7.56699 9.13469 7.53912 8.94752 7.58331 8.77065C8.37823 5.59526 10.4287 4.86737 12.0091 4.81753C12.6368 4.80387 13.2634 4.87468 13.8722 5.02807C13.5431 4.48409 13.0618 3.9169 12.3932 3.63159C11.5339 3.26721 10.488 3.4262 9.27284 4.1051C9.1133 4.19399 8.92498 4.21586 8.74931 4.1659C8.57364 4.11594 8.42501 3.99824 8.33612 3.8387C8.24723 3.67915 8.22536 3.49083 8.27532 3.31516C8.32529 3.1395 8.44298 2.99087 8.60253 2.90198C10.213 2.00393 11.6722 1.82432 12.9407 2.36917C14.014 2.82979 14.7221 3.72526 15.1639 4.5176C15.695 3.68917 16.3567 3.128 17.088 2.88995C18.1072 2.55737 19.2055 2.82807 20.3536 3.69518C20.4927 3.80726 20.5826 3.96906 20.6045 4.14631C20.6264 4.32356 20.5784 4.50236 20.4707 4.64486C20.3631 4.78736 20.2042 4.88238 20.0277 4.90979C19.8512 4.93721 19.671 4.89487 19.5252 4.79174C18.7595 4.21339 18.084 4.01315 17.5185 4.1962C16.8921 4.39815 16.4125 5.05557 16.1117 5.62362C16.7301 5.74898 17.3251 5.97021 17.8752 6.27932C19.1307 6.9969 20.6252 8.51799 20.6252 11.6882C20.6252 11.8706 20.5528 12.0454 20.4238 12.1744C20.2949 12.3033 20.12 12.3757 19.9377 12.3757C19.7554 12.3757 19.5805 12.3033 19.4515 12.1744C19.3226 12.0454 19.2502 11.8706 19.2502 11.6882C19.2502 9.67214 18.5567 8.25073 17.1877 7.47729C17.0282 7.38672 16.8632 7.30635 16.6935 7.23667C17.1264 8.11669 17.2782 9.10854 17.1284 10.0778C17.0203 10.7948 16.7608 11.4806 16.367 12.0896C16.2616 12.2374 16.102 12.3375 15.9231 12.3681C15.7442 12.3987 15.5604 12.3573 15.4119 12.2529C15.2634 12.1485 15.1622 11.9896 15.1304 11.8109C15.0985 11.6322 15.1387 11.4482 15.2421 11.2989C15.3057 11.2053 16.6454 9.20378 14.9619 7.0562C12.6416 8.36331 11.362 10.2574 11.1669 12.6928C11.0909 13.7479 11.2023 14.8082 11.496 15.8244C16.88 15.9799 20.2204 18.6028 20.3648 18.7171C20.5065 18.8305 20.5975 18.9953 20.6181 19.1756C20.6387 19.3559 20.5872 19.5371 20.4748 19.6796ZM2.06269 12.0311C2.06269 11.5552 2.20381 11.09 2.46821 10.6943C2.73261 10.2986 3.10842 9.99016 3.5481 9.80803C3.98779 9.62591 4.4716 9.57826 4.93837 9.6711C5.40514 9.76395 5.83389 9.99312 6.17041 10.3296C6.50693 10.6662 6.7361 11.0949 6.82895 11.5617C6.9218 12.0285 6.87414 12.5123 6.69202 12.952C6.5099 13.3916 6.20148 13.7674 5.80578 14.0318C5.41007 14.2962 4.94485 14.4374 4.46894 14.4374C3.83076 14.4374 3.21872 14.1839 2.76746 13.7326C2.3162 13.2813 2.06269 12.6693 2.06269 12.0311ZM3.43769 12.0311C3.43769 12.2351 3.49817 12.4345 3.61148 12.6041C3.7248 12.7736 3.88586 12.9058 4.07429 12.9839C4.26273 13.0619 4.47008 13.0823 4.67012 13.0426C4.87017 13.0028 5.05392 12.9045 5.19814 12.7603C5.34236 12.6161 5.44058 12.4323 5.48037 12.2323C5.52016 12.0323 5.49974 11.8249 5.42169 11.6365C5.34363 11.448 5.21146 11.287 5.04187 11.1737C4.87228 11.0604 4.6729 10.9999 4.46894 10.9999C4.19543 10.9999 3.93313 11.1085 3.73973 11.3019C3.54633 11.4953 3.43769 11.7576 3.43769 12.0311Z" fill="#101828"/>
</svg>
