<svg width="24" height="24" viewBox="0 0 24 24" fill="none" xmlns="http://www.w3.org/2000/svg">
<path d="M9.44067 12.8751C9.52812 11.3066 10.2921 9.92478 11.4446 8.94522C12.5749 7.98308 14.0962 7.39502 15.7561 7.39502C17.4143 7.39502 18.9356 7.98308 20.0667 8.94522C21.2184 9.92478 21.9823 11.3066 22.0706 12.8734C22.1581 14.485 21.5138 15.9821 20.3835 17.0919C19.231 18.2208 17.5917 18.9291 15.7561 18.9291C13.9204 18.9291 12.2778 18.2208 11.1261 17.0919C9.99507 15.9821 9.35239 14.485 9.44067 12.8751Z" fill="white"/>
<path d="M12.511 13.0169C12.5558 12.2121 12.9478 11.5031 13.5392 11.0005C14.1191 10.5068 14.8997 10.2051 15.7514 10.2051C16.6023 10.2051 17.3829 10.5068 17.9632 11.0005C18.5542 11.5031 18.9462 12.2121 18.9915 13.0161C19.0363 13.843 18.7057 14.6112 18.1258 15.1806C17.5344 15.7598 16.6933 16.1233 15.7514 16.1233C14.8096 16.1233 13.9667 15.7598 13.3758 15.1806C12.7954 14.6112 12.4657 13.843 12.511 13.0169Z" fill="#265787"/>
<path d="M7.35101 14.6468C7.35651 14.9618 7.45641 15.5738 7.60627 16.0517C7.92121 17.0633 8.45543 17.9992 9.19877 18.824C9.96158 19.6717 10.9009 20.3527 11.9859 20.8361C13.1263 21.3439 14.3619 21.6026 15.6454 21.6005C16.9268 21.5988 18.1624 21.3349 19.3029 20.8234C20.3878 20.3352 21.3263 19.6513 22.0878 18.8031C22.8307 17.9749 23.3641 17.0373 23.6799 16.0257C23.8387 15.5146 23.939 14.9958 23.9792 14.4753C24.0186 13.9625 24.0021 13.4488 23.9297 12.9355C23.7883 11.9354 23.4441 10.997 22.9141 10.1416C22.4294 9.35551 21.8046 8.66734 21.0617 8.08812L21.0634 8.08685L13.5661 2.29929C13.5593 2.29418 13.5538 2.28865 13.5466 2.28397C13.0547 1.90435 12.2276 1.90563 11.6866 2.2861C11.1397 2.67083 11.077 3.30708 11.5638 3.7084L11.5617 3.71053L14.6887 6.26704L5.15782 6.27725H5.14512C4.35734 6.2781 3.60003 6.79774 3.45017 7.45442C3.29609 8.12344 3.83115 8.6784 4.65027 8.68138L4.649 8.68437L9.47985 8.675L0.859491 15.3273C0.848484 15.3354 0.83663 15.3439 0.826471 15.352C0.0132852 15.9781 -0.249586 17.019 0.262623 17.6779C0.782452 18.3477 1.88772 18.349 2.70938 17.6817L7.41408 13.8105C7.41408 13.8105 7.34551 14.3332 7.35101 14.6468ZM19.4404 16.3968C18.471 17.3897 17.1139 17.9528 15.6454 17.9558C14.1748 17.9583 12.8177 17.4004 11.8483 16.4092C11.3746 15.9261 11.0266 15.3703 10.812 14.7783C10.6016 14.1966 10.5199 13.579 10.5741 12.956C10.6253 12.347 10.8057 11.766 11.0935 11.2404C11.3763 10.7238 11.7657 10.2569 12.2466 9.86196C13.1889 9.08995 14.3886 8.67202 15.6433 8.67031C16.8993 8.66861 18.0981 9.08271 19.0412 9.85217C19.5213 10.2454 19.9103 10.7106 20.1931 11.2264C20.4822 11.7516 20.6613 12.3304 20.7146 12.9411C20.7679 13.5633 20.6862 14.18 20.4759 14.7622C20.2608 15.3559 19.9141 15.9117 19.4404 16.3968Z" fill="#EA7600"/>
</svg>
