<svg width="60" height="60" viewBox="0 0 60 60" fill="none" xmlns="http://www.w3.org/2000/svg">
<path d="M5 30C5 16.25 16.25 5 30 5C43.75 5 55 16.25 55 30C55 43.75 43.75 55 30 55C25.5 55 21.25 53.75 17.5 51.5L5 55L8.25 42.5C6.25 38.75 5 34.5 5 30Z" fill="#F9FAFB" stroke="#98A2B3" stroke-width="2" stroke-linecap="round" stroke-linejoin="round" stroke-dasharray="5.55 5.55"/>
<path d="M30.0018 40.5H30.024" stroke="#98A2B3" stroke-width="2" stroke-linecap="round" stroke-linejoin="round"/>
<path d="M25.5573 25.0333C25.6462 24.3889 25.9129 23.1889 26.8018 22.1222C27.0462 21.8333 27.4684 21.3222 28.2018 20.9444C29.0684 20.5 29.8684 20.5 30.224 20.5C30.6462 20.5 31.5795 20.5444 32.5573 21.1889C33.7573 21.9889 34.1351 23.1444 34.2462 23.5C34.3129 23.6778 34.6462 24.8556 34.2462 26.2111C34.0018 27.0556 33.5573 27.5889 33.1573 28.0333C31.6018 29.8778 30.2462 29.7222 30.0018 30.9222C29.9795 31.0111 30.0018 31.6778 30.0018 32.9889C30.0018 33.3444 30.0018 33.6333 30.0018 33.8333" stroke="#98A2B3" stroke-width="2" stroke-linecap="round" stroke-linejoin="round"/>
</svg>
