<svg width="22" height="22" viewBox="0 0 22 22" fill="none" xmlns="http://www.w3.org/2000/svg">
<path d="M14.0882 6.88467C15.1276 6.94111 16.1361 7.25886 17.0201 7.8085C17.904 8.35813 18.6347 9.12229 19.1451 10.0294C19.6555 10.9366 19.9291 11.9581 19.94 12.999C19.9508 14.0397 19.6988 15.0664 19.2075 15.984L19.9084 18.3667C19.9432 18.4851 19.9456 18.611 19.9151 18.7306C19.8846 18.8502 19.8225 18.9595 19.7352 19.0468C19.6479 19.1341 19.5386 19.1962 19.419 19.2268C19.2994 19.2573 19.1735 19.2555 19.0551 19.2207L16.6723 18.5191C15.8851 18.9401 15.0162 19.1858 14.1251 19.2395C13.2341 19.2933 12.3421 19.1539 11.51 18.8307C10.678 18.5073 9.92555 18.0076 9.30454 17.3664C8.68354 16.7251 8.20851 15.9572 7.91208 15.1152C8.02457 15.1212 8.13711 15.1246 8.25046 15.1246C9.23937 15.1247 10.214 14.8879 11.0924 14.4337C11.971 13.9795 12.7282 13.3212 13.3 12.5142C13.8717 11.7073 14.2417 10.7745 14.3789 9.79513C14.516 8.81581 14.4161 7.81757 14.0882 6.88467Z" fill="#D0D5DD"/>
<path d="M4.97208 4.52542C6.0313 3.73974 7.33739 3.36035 8.65262 3.45724C9.96798 3.55421 11.2052 4.12117 12.1378 5.0538C13.0703 5.98639 13.6367 7.22304 13.7337 8.53829C13.8306 9.85362 13.4519 11.1602 12.6662 12.2195C11.8804 13.2788 10.7398 14.02 9.45291 14.3089C8.166 14.5977 6.81797 14.4145 5.65488 13.7926C5.55494 13.7373 5.44278 13.7077 5.32858 13.7066C5.26298 13.7068 5.19763 13.7161 5.13455 13.7342L2.75046 14.4371L3.45273 12.0517C3.50265 11.8793 3.48299 11.6942 3.39835 11.536C2.77643 10.3729 2.59322 9.02492 2.88205 7.738C3.1709 6.45115 3.91281 5.31115 4.97208 4.52542Z" fill="#D0D5DD"/>
<path d="M19.9429 16.0497C20.4179 15.0644 20.651 13.98 20.6228 12.8866C20.5945 11.7931 20.3058 10.7221 19.7806 9.76268C19.2553 8.80321 18.5087 7.98291 17.6028 7.36993C16.6969 6.75695 15.6578 6.36898 14.5718 6.23824C14.2104 5.39809 13.6851 4.63847 13.0265 4.00389C12.3679 3.3693 11.5893 2.87249 10.7364 2.54255C9.88337 2.21262 8.97313 2.05618 8.05894 2.08242C7.14475 2.10865 6.24498 2.31703 5.41232 2.69533C4.57967 3.07364 3.83086 3.61428 3.20975 4.2856C2.58865 4.95691 2.10772 5.7454 1.79515 6.60489C1.48257 7.46439 1.34463 8.37761 1.38939 9.29108C1.43415 10.2046 1.66072 11.0999 2.05584 11.9247L1.43107 14.0482C1.36122 14.2853 1.35654 14.5368 1.41755 14.7763C1.47855 15.0158 1.60298 15.2344 1.77773 15.4092C1.95248 15.5839 2.1711 15.7083 2.41059 15.7693C2.65008 15.8303 2.90159 15.8257 3.13865 15.7558L5.26216 15.1311C5.94402 15.4587 6.67505 15.672 7.42607 15.7627C7.79094 16.6176 8.32539 17.3896 8.9971 18.0322C9.66881 18.6747 10.4638 19.1743 11.3341 19.5008C12.2044 19.8273 13.1318 19.974 14.0604 19.9319C14.989 19.8899 15.8994 19.6599 16.7365 19.2561L18.8601 19.8808C19.097 19.9506 19.3484 19.9552 19.5878 19.8943C19.8272 19.8333 20.0457 19.709 20.2205 19.5343C20.3952 19.3597 20.5196 19.1412 20.5807 18.9019C20.6418 18.6625 20.6373 18.4111 20.5676 18.1741L19.9429 16.0497ZM5.32748 13.7071C5.26178 13.7072 5.19642 13.7165 5.13326 13.7346L2.74935 14.4375L3.45146 12.0519C3.5014 11.8796 3.48197 11.6945 3.39732 11.5363C2.7754 10.3732 2.59215 9.02534 2.88098 7.73842C3.1698 6.4515 3.91148 5.31123 4.97079 4.52546C6.0301 3.73969 7.33651 3.36076 8.65187 3.45773C9.96723 3.55471 11.2039 4.12114 12.1366 5.05376C13.0692 5.98638 13.6356 7.2231 13.7326 8.53846C13.8296 9.85382 13.4506 11.1602 12.6649 12.2195C11.8791 13.2789 10.7388 14.0205 9.45191 14.3094C8.16499 14.5982 6.81713 14.4149 5.65404 13.793C5.55402 13.7377 5.44178 13.7081 5.32748 13.7071ZM18.5438 16.1761L19.2494 18.5625L16.8637 17.8604C16.6914 17.8105 16.5063 17.8299 16.3481 17.9146C15.0821 18.5906 13.6021 18.7454 12.2236 18.346C10.8451 17.9466 9.67716 17.0246 8.96865 15.7764C9.90999 15.6782 10.8209 15.3865 11.6441 14.9196C12.4674 14.4527 13.1853 13.8207 13.7528 13.0632C14.3203 12.3058 14.7252 11.4393 14.942 10.518C15.1587 9.59667 15.1828 8.64052 15.0126 7.70949C15.8328 7.90282 16.5976 8.28202 17.248 8.81783C17.8983 9.35364 18.4169 10.0317 18.7636 10.7997C19.1103 11.5678 19.276 12.4052 19.2477 13.2474C19.2194 14.0895 18.998 14.914 18.6005 15.657C18.515 15.8162 18.4955 16.0026 18.5464 16.1761H18.5438Z" fill="#101828"/>
</svg>
