<svg width="24" height="24" viewBox="0 0 24 24" fill="none" xmlns="http://www.w3.org/2000/svg">
<path d="M6.64645 6.35368C6.84444 6.15569 7.15556 6.15569 7.35355 6.35368L17.9602 16.9603C18.1581 17.1583 18.1581 17.4694 17.9602 17.6674C17.7622 17.8654 17.451 17.8654 17.253 17.6674L6.64645 7.06078C6.44846 6.86279 6.44846 6.55167 6.64645 6.35368Z" stroke="white" stroke-width="1.5" stroke-miterlimit="10" stroke-linecap="round" stroke-linejoin="round"/>
<path d="M6.35355 17.3537C6.15556 17.1557 6.15556 16.8446 6.35355 16.6466L16.9602 6.03997C17.1581 5.84198 17.4693 5.84198 17.6673 6.03997C17.8653 6.23796 17.8653 6.54908 17.6673 6.74707L7.06066 17.3537C6.86267 17.5517 6.55154 17.5517 6.35355 17.3537Z" stroke="white" stroke-width="1.5" stroke-miterlimit="10" stroke-linecap="round" stroke-linejoin="round"/>
</svg>
