<svg width="21" height="20" viewBox="0 0 21 20" fill="none" xmlns="http://www.w3.org/2000/svg">
<path d="M19.25 10L15.5 13.125H5.5L1.75 10L5.5 6.875H15.5L19.25 10Z" fill="#475467"/>
<path d="M5.89993 7.35549L2.7265 10L5.89993 12.6446C5.96481 12.6965 6.01868 12.7608 6.05839 12.8339C6.0981 12.9069 6.12285 12.9871 6.13119 13.0697C6.13953 13.1524 6.1313 13.2359 6.10697 13.3154C6.08264 13.3949 6.04271 13.4687 5.98951 13.5325C5.93632 13.5964 5.87092 13.649 5.79715 13.6873C5.72337 13.7255 5.64271 13.7487 5.55988 13.7554C5.47704 13.7621 5.3937 13.7523 5.31472 13.7264C5.23575 13.7005 5.16273 13.6591 5.09993 13.6047L1.34993 10.4797C1.27957 10.4211 1.22296 10.3476 1.18411 10.2647C1.14526 10.1817 1.12512 10.0912 1.12512 9.99963C1.12512 9.90802 1.14526 9.81754 1.18411 9.73458C1.22296 9.65161 1.27957 9.57821 1.34993 9.51955L5.09993 6.39455C5.22736 6.28847 5.39171 6.23734 5.55683 6.25244C5.72195 6.26753 5.87432 6.34759 5.9804 6.47502C6.08649 6.60245 6.13761 6.7668 6.12252 6.93192C6.10743 7.09704 6.02736 7.2494 5.89993 7.35549ZM19.6499 9.51955L15.8999 6.39455C15.8368 6.34202 15.764 6.30244 15.6856 6.27805C15.6072 6.25367 15.5248 6.24496 15.443 6.25244C15.3613 6.25991 15.2818 6.28341 15.2091 6.3216C15.1364 6.35979 15.072 6.41192 15.0195 6.47502C14.9134 6.60245 14.8623 6.7668 14.8773 6.93192C14.8924 7.09704 14.9725 7.2494 15.0999 7.35549L18.2734 10L15.0999 12.6446C15.0351 12.6965 14.9812 12.7608 14.9415 12.8339C14.9018 12.9069 14.877 12.9871 14.8687 13.0697C14.8603 13.1524 14.8686 13.2359 14.8929 13.3154C14.9172 13.3949 14.9572 13.4687 15.0104 13.5325C15.0636 13.5964 15.129 13.649 15.2027 13.6873C15.2765 13.7255 15.3572 13.7487 15.44 13.7554C15.5228 13.7621 15.6062 13.7523 15.6851 13.7264C15.7641 13.7005 15.8371 13.6591 15.8999 13.6047L19.6499 10.4797C19.7203 10.4211 19.7769 10.3476 19.8158 10.2647C19.8546 10.1817 19.8747 10.0912 19.8747 9.99963C19.8747 9.90802 19.8546 9.81754 19.8158 9.73458C19.7769 9.65161 19.7203 9.57821 19.6499 9.51955ZM13.2132 2.53752C13.1361 2.50951 13.0542 2.49697 12.9722 2.50062C12.8902 2.50426 12.8097 2.52403 12.7353 2.55878C12.661 2.59353 12.5942 2.64258 12.5388 2.70314C12.4834 2.76371 12.4404 2.83459 12.4124 2.91174L7.41243 16.6617C7.3843 16.7389 7.37167 16.8209 7.37526 16.903C7.37885 16.9851 7.39858 17.0657 7.43334 17.1401C7.4681 17.2146 7.51719 17.2814 7.57782 17.3369C7.63844 17.3923 7.70941 17.4353 7.78665 17.4633C7.85513 17.4876 7.92727 17.5001 7.99994 17.5C8.12829 17.5 8.25353 17.4605 8.35864 17.3868C8.46375 17.3132 8.54363 17.2089 8.58743 17.0883L13.5874 3.3383C13.6154 3.26115 13.628 3.17924 13.6243 3.09724C13.6207 3.01524 13.6009 2.93477 13.5662 2.86041C13.5314 2.78605 13.4824 2.71926 13.4218 2.66386C13.3612 2.60846 13.2904 2.56553 13.2132 2.53752Z" fill="#D0D5DD"/>
</svg>
