<svg width="22" height="22" viewBox="0 0 22 22" fill="none" xmlns="http://www.w3.org/2000/svg">
<path d="M11 8.9375L7.5625 5.5L11 2.0625L14.4375 5.5L11 8.9375ZM7.5625 16.5L11 19.9375L14.4375 16.5L11 13.0625L7.5625 16.5ZM16.5 7.5625L13.0625 11L16.5 14.4375L19.9375 11L16.5 7.5625ZM5.5 7.5625L2.0625 11L5.5 14.4375L8.9375 11L5.5 7.5625Z" fill="#6172F3"/>
<path d="M10.5141 9.42396C10.578 9.48788 10.6538 9.53859 10.7373 9.57319C10.8207 9.60779 10.9102 9.62559 11.0005 9.62559C11.0909 9.62559 11.1804 9.60779 11.2638 9.57319C11.3473 9.53859 11.4231 9.48788 11.4869 9.42396L14.9244 5.98646C14.9884 5.92261 15.0391 5.84679 15.0737 5.76332C15.1083 5.67986 15.1261 5.5904 15.1261 5.50005C15.1261 5.4097 15.1083 5.32024 15.0737 5.23678C15.0391 5.15332 14.9884 5.0775 14.9244 5.01365L11.4869 1.57615C11.4231 1.51223 11.3473 1.46152 11.2638 1.42692C11.1804 1.39232 11.0909 1.37451 11.0005 1.37451C10.9102 1.37451 10.8207 1.39232 10.7373 1.42692C10.6538 1.46152 10.578 1.51223 10.5141 1.57615L7.07663 5.01365C7.01271 5.0775 6.962 5.15332 6.92741 5.23678C6.89281 5.32024 6.875 5.4097 6.875 5.50005C6.875 5.5904 6.89281 5.67986 6.92741 5.76332C6.962 5.84679 7.01271 5.92261 7.07663 5.98646L10.5141 9.42396ZM11.0005 3.03451L13.4661 5.50005L11.0005 7.9656L8.53499 5.50005L11.0005 3.03451ZM11.4869 12.5736C11.4231 12.5096 11.3473 12.4589 11.2638 12.4243C11.1804 12.3897 11.0909 12.3719 11.0005 12.3719C10.9102 12.3719 10.8207 12.3897 10.7373 12.4243C10.6538 12.4589 10.578 12.5096 10.5141 12.5736L7.07663 16.0111C7.01271 16.0749 6.962 16.1507 6.92741 16.2342C6.89281 16.3177 6.875 16.4071 6.875 16.4975C6.875 16.5878 6.89281 16.6773 6.92741 16.7607C6.962 16.8442 7.01271 16.92 7.07663 16.9839L10.5141 20.4214C10.578 20.4853 10.6538 20.536 10.7373 20.5706C10.8207 20.6052 10.9102 20.623 11.0005 20.623C11.0909 20.623 11.1804 20.6052 11.2638 20.5706C11.3473 20.536 11.4231 20.4853 11.4869 20.4214L14.9244 16.9839C14.9884 16.92 15.0391 16.8442 15.0737 16.7607C15.1083 16.6773 15.1261 16.5878 15.1261 16.4975C15.1261 16.4071 15.1083 16.3177 15.0737 16.2342C15.0391 16.1507 14.9884 16.0749 14.9244 16.0111L11.4869 12.5736ZM11.0005 18.9656L8.53499 16.5001L11.0005 14.0345L13.4661 16.5001L11.0005 18.9656ZM20.4244 10.5136L16.9869 7.07615C16.9231 7.01222 16.8473 6.96152 16.7638 6.92692C16.6803 6.89232 16.5909 6.87451 16.5005 6.87451C16.4102 6.87451 16.3207 6.89232 16.2373 6.92692C16.1538 6.96152 16.078 7.01222 16.0141 7.07615L12.5766 10.5136C12.5127 10.5775 12.462 10.6533 12.4274 10.7368C12.3928 10.8202 12.375 10.9097 12.375 11.0001C12.375 11.0904 12.3928 11.1799 12.4274 11.2633C12.462 11.3468 12.5127 11.4226 12.5766 11.4865L16.0141 14.924C16.078 14.9879 16.1538 15.0386 16.2373 15.0732C16.3207 15.1078 16.4102 15.1256 16.5005 15.1256C16.5909 15.1256 16.6803 15.1078 16.7638 15.0732C16.8473 15.0386 16.9231 14.9879 16.9869 14.924L20.4244 11.4865C20.4884 11.4226 20.5391 11.3468 20.5737 11.2633C20.6083 11.1799 20.6261 11.0904 20.6261 11.0001C20.6261 10.9097 20.6083 10.8202 20.5737 10.7368C20.5391 10.6533 20.4884 10.5775 20.4244 10.5136ZM16.5005 13.4656L14.035 11.0001L16.5005 8.53451L18.9661 11.0001L16.5005 13.4656ZM9.42445 10.5136L5.98695 7.07615C5.9231 7.01222 5.84727 6.96152 5.76381 6.92692C5.68035 6.89232 5.59089 6.87451 5.50054 6.87451C5.41019 6.87451 5.32073 6.89232 5.23727 6.92692C5.15381 6.96152 5.07798 7.01222 5.01413 7.07615L1.57663 10.5136C1.51271 10.5775 1.462 10.6533 1.42741 10.7368C1.39281 10.8202 1.375 10.9097 1.375 11.0001C1.375 11.0904 1.39281 11.1799 1.42741 11.2633C1.462 11.3468 1.51271 11.4226 1.57663 11.4865L5.01413 14.924C5.07798 14.9879 5.15381 15.0386 5.23727 15.0732C5.32073 15.1078 5.41019 15.1256 5.50054 15.1256C5.59089 15.1256 5.68035 15.1078 5.76381 15.0732C5.84727 15.0386 5.9231 14.9879 5.98695 14.924L9.42445 11.4865C9.48837 11.4226 9.53908 11.3468 9.57367 11.2633C9.60827 11.1799 9.62608 11.0904 9.62608 11.0001C9.62608 10.9097 9.60827 10.8202 9.57367 10.7368C9.53908 10.6533 9.48837 10.5775 9.42445 10.5136ZM5.50054 13.4656L3.03499 11.0001L5.50054 8.53451L7.96609 11.0001L5.50054 13.4656Z" fill="#C7D7FE"/>
</svg>
