<svg width="22" height="22" viewBox="0 0 22 22" fill="none" xmlns="http://www.w3.org/2000/svg">
<path d="M11 8.9375L7.5625 5.5L11 2.0625L14.4375 5.5L11 8.9375ZM7.5625 16.5L11 19.9375L14.4375 16.5L11 13.0625L7.5625 16.5ZM16.5 7.5625L13.0625 11L16.5 14.4375L19.9375 11L16.5 7.5625ZM5.5 7.5625L2.0625 11L5.5 14.4375L8.9375 11L5.5 7.5625Z" fill="#D0D5DD"/>
<path d="M10.5136 9.42396C10.5775 9.48788 10.6533 9.53859 10.7368 9.57319C10.8202 9.60779 10.9097 9.62559 11.0001 9.62559C11.0904 9.62559 11.1799 9.60779 11.2633 9.57319C11.3468 9.53859 11.4226 9.48788 11.4865 9.42396L14.924 5.98646C14.9879 5.92261 15.0386 5.84679 15.0732 5.76332C15.1078 5.67986 15.1256 5.5904 15.1256 5.50005C15.1256 5.4097 15.1078 5.32024 15.0732 5.23678C15.0386 5.15332 14.9879 5.0775 14.924 5.01365L11.4865 1.57615C11.4226 1.51223 11.3468 1.46152 11.2633 1.42692C11.1799 1.39232 11.0904 1.37451 11.0001 1.37451C10.9097 1.37451 10.8202 1.39232 10.7368 1.42692C10.6533 1.46152 10.5775 1.51223 10.5136 1.57615L7.07615 5.01365C7.01222 5.0775 6.96152 5.15332 6.92692 5.23678C6.89232 5.32024 6.87451 5.4097 6.87451 5.50005C6.87451 5.5904 6.89232 5.67986 6.92692 5.76332C6.96152 5.84679 7.01222 5.92261 7.07615 5.98646L10.5136 9.42396ZM11.0001 3.03451L13.4656 5.50005L11.0001 7.9656L8.5345 5.50005L11.0001 3.03451ZM11.4865 12.5736C11.4226 12.5096 11.3468 12.4589 11.2633 12.4243C11.1799 12.3897 11.0904 12.3719 11.0001 12.3719C10.9097 12.3719 10.8202 12.3897 10.7368 12.4243C10.6533 12.4589 10.5775 12.5096 10.5136 12.5736L7.07615 16.0111C7.01222 16.0749 6.96152 16.1507 6.92692 16.2342C6.89232 16.3177 6.87451 16.4071 6.87451 16.4975C6.87451 16.5878 6.89232 16.6773 6.92692 16.7607C6.96152 16.8442 7.01222 16.92 7.07615 16.9839L10.5136 20.4214C10.5775 20.4853 10.6533 20.536 10.7368 20.5706C10.8202 20.6052 10.9097 20.623 11.0001 20.623C11.0904 20.623 11.1799 20.6052 11.2633 20.5706C11.3468 20.536 11.4226 20.4853 11.4865 20.4214L14.924 16.9839C14.9879 16.92 15.0386 16.8442 15.0732 16.7607C15.1078 16.6773 15.1256 16.5878 15.1256 16.4975C15.1256 16.4071 15.1078 16.3177 15.0732 16.2342C15.0386 16.1507 14.9879 16.0749 14.924 16.0111L11.4865 12.5736ZM11.0001 18.9656L8.5345 16.5001L11.0001 14.0345L13.4656 16.5001L11.0001 18.9656ZM20.424 10.5136L16.9865 7.07615C16.9226 7.01222 16.8468 6.96152 16.7633 6.92692C16.6799 6.89232 16.5904 6.87451 16.5001 6.87451C16.4097 6.87451 16.3202 6.89232 16.2368 6.92692C16.1533 6.96152 16.0775 7.01222 16.0136 7.07615L12.5761 10.5136C12.5122 10.5775 12.4615 10.6533 12.4269 10.7368C12.3923 10.8202 12.3745 10.9097 12.3745 11.0001C12.3745 11.0904 12.3923 11.1799 12.4269 11.2633C12.4615 11.3468 12.5122 11.4226 12.5761 11.4865L16.0136 14.924C16.0775 14.9879 16.1533 15.0386 16.2368 15.0732C16.3202 15.1078 16.4097 15.1256 16.5001 15.1256C16.5904 15.1256 16.6799 15.1078 16.7633 15.0732C16.8468 15.0386 16.9226 14.9879 16.9865 14.924L20.424 11.4865C20.4879 11.4226 20.5386 11.3468 20.5732 11.2633C20.6078 11.1799 20.6256 11.0904 20.6256 11.0001C20.6256 10.9097 20.6078 10.8202 20.5732 10.7368C20.5386 10.6533 20.4879 10.5775 20.424 10.5136ZM16.5001 13.4656L14.0345 11.0001L16.5001 8.53451L18.9656 11.0001L16.5001 13.4656ZM9.42396 10.5136L5.98646 7.07615C5.92261 7.01222 5.84679 6.96152 5.76332 6.92692C5.67986 6.89232 5.5904 6.87451 5.50005 6.87451C5.4097 6.87451 5.32024 6.89232 5.23678 6.92692C5.15332 6.96152 5.0775 7.01222 5.01365 7.07615L1.57615 10.5136C1.51222 10.5775 1.46152 10.6533 1.42692 10.7368C1.39232 10.8202 1.37451 10.9097 1.37451 11.0001C1.37451 11.0904 1.39232 11.1799 1.42692 11.2633C1.46152 11.3468 1.51222 11.4226 1.57615 11.4865L5.01365 14.924C5.0775 14.9879 5.15332 15.0386 5.23678 15.0732C5.32024 15.1078 5.4097 15.1256 5.50005 15.1256C5.5904 15.1256 5.67986 15.1078 5.76332 15.0732C5.84679 15.0386 5.92261 14.9879 5.98646 14.924L9.42396 11.4865C9.48788 11.4226 9.53859 11.3468 9.57319 11.2633C9.60778 11.1799 9.62559 11.0904 9.62559 11.0001C9.62559 10.9097 9.60778 10.8202 9.57319 10.7368C9.53859 10.6533 9.48788 10.5775 9.42396 10.5136ZM5.50005 13.4656L3.03451 11.0001L5.50005 8.53451L7.9656 11.0001L5.50005 13.4656Z" fill="#667085"/>
</svg>
