<svg width="22" height="22" viewBox="0 0 22 22" fill="none" xmlns="http://www.w3.org/2000/svg">
<path d="M19.25 10.3125C19.2505 11.8926 18.7972 13.4396 17.9441 14.7695C17.091 16.0995 15.8739 17.1565 14.4375 17.8148V18.5625C14.4375 18.7448 14.3651 18.9197 14.2361 19.0486C14.1072 19.1776 13.9323 19.25 13.75 19.25H8.25C8.06766 19.25 7.8928 19.1776 7.76386 19.0486C7.63493 18.9197 7.5625 18.7448 7.5625 18.5625V17.8148C6.12612 17.1565 4.90901 16.0995 4.05589 14.7695C3.20276 13.4396 2.7495 11.8926 2.75 10.3125H19.25Z" fill="#6172F3"/>
<path d="M7.02711 4.72657C7.48687 4.15423 7.60031 3.76751 7.55305 3.59735C7.51695 3.46931 7.34594 3.40313 7.34422 3.40313C7.1886 3.35199 7.05635 3.24696 6.9713 3.10696C6.88624 2.96696 6.85397 2.8012 6.8803 2.63952C6.90662 2.47783 6.98981 2.33087 7.11488 2.22508C7.23996 2.11929 7.39869 2.06164 7.5625 2.06251C7.63184 2.06259 7.70077 2.07302 7.76703 2.09345C7.85297 2.12009 8.61867 2.37962 8.86617 3.19001C9.07758 3.88353 8.81891 4.68962 8.09789 5.58681C7.63813 6.15915 7.52469 6.54587 7.57195 6.71603C7.60805 6.84407 7.77563 6.90853 7.77734 6.90938C7.93268 6.96044 8.06473 7.06519 8.1498 7.20482C8.23487 7.34446 8.26738 7.50985 8.24151 7.6713C8.21564 7.83275 8.13307 7.97969 8.00862 8.08575C7.88418 8.19181 7.72601 8.25005 7.5625 8.25001C7.49316 8.24993 7.42423 8.2395 7.35797 8.21907C7.27203 8.19243 6.50633 7.9329 6.25883 7.12251C6.04742 6.42899 6.30609 5.6229 7.02711 4.72657ZM9.69633 7.12337C9.94383 7.93376 10.7095 8.19329 10.7955 8.21993C10.8618 8.24007 10.9307 8.25021 11 8.25001C11.1635 8.25005 11.3217 8.19181 11.4461 8.08575C11.5706 7.97969 11.6531 7.83275 11.679 7.6713C11.7049 7.50985 11.6724 7.34446 11.5873 7.20482C11.5022 7.06519 11.3702 6.96044 11.2148 6.90938C11.2148 6.90938 11.043 6.84407 11.0095 6.71603C10.9622 6.54415 11.0756 6.15915 11.5354 5.58681C12.2564 4.68962 12.5151 3.88353 12.3037 3.19001C12.0562 2.37962 11.2913 2.12009 11.2045 2.09345C11.1383 2.07302 11.0693 2.06259 11 2.06251C10.8367 2.06227 10.6786 2.1202 10.554 2.22591C10.4295 2.33163 10.3467 2.47823 10.3204 2.63946C10.2942 2.80068 10.3262 2.96598 10.4107 3.10576C10.4952 3.24554 10.6267 3.35065 10.7817 3.40228C10.7817 3.40228 10.9536 3.46845 10.9905 3.59649C11.0378 3.76837 10.9244 4.15337 10.4646 4.72571C9.74359 5.6229 9.48492 6.42899 9.69633 7.12251V7.12337ZM13.1338 7.12337C13.3813 7.93376 14.147 8.19329 14.233 8.21993C14.2993 8.24007 14.3682 8.25021 14.4375 8.25001C14.601 8.25005 14.7592 8.19181 14.8836 8.08575C15.0081 7.97969 15.0906 7.83275 15.1165 7.6713C15.1424 7.50985 15.1099 7.34446 15.0248 7.20482C14.9397 7.06519 14.8077 6.96044 14.6523 6.90938C14.6523 6.90938 14.4805 6.84407 14.447 6.71603C14.3997 6.54415 14.5131 6.15915 14.9729 5.58681C15.6939 4.68962 15.9526 3.88353 15.7412 3.19001C15.4937 2.37962 14.7288 2.12009 14.642 2.09345C14.5758 2.07302 14.5068 2.06259 14.4375 2.06251C14.2742 2.06227 14.1161 2.1202 13.9915 2.22591C13.867 2.33163 13.7842 2.47823 13.7579 2.63946C13.7317 2.80068 13.7637 2.96598 13.8482 3.10576C13.9327 3.24554 14.0642 3.35065 14.2192 3.40228C14.2192 3.40228 14.3911 3.46845 14.428 3.59649C14.4753 3.76837 14.3619 4.15337 13.9021 4.72571C13.1811 5.6229 12.9224 6.42899 13.1338 7.12251V7.12337ZM19.9375 10.3125C19.9345 11.9475 19.4845 13.5505 18.6363 14.9483C17.7881 16.346 16.5739 17.4853 15.125 18.2428V18.5625C15.125 18.9272 14.9801 19.2769 14.7223 19.5348C14.4644 19.7926 14.1147 19.9375 13.75 19.9375H8.25C7.88533 19.9375 7.53559 19.7926 7.27773 19.5348C7.01987 19.2769 6.875 18.9272 6.875 18.5625V18.2428C5.42611 17.4853 4.21191 16.346 3.36369 14.9483C2.51547 13.5505 2.06552 11.9475 2.0625 10.3125C2.0625 10.1302 2.13493 9.95531 2.26386 9.82637C2.3928 9.69744 2.56766 9.62501 2.75 9.62501H19.25C19.4323 9.62501 19.6072 9.69744 19.7361 9.82637C19.8651 9.95531 19.9375 10.1302 19.9375 10.3125ZM18.5307 11H3.4693C3.59299 12.3252 4.06307 13.5945 4.83236 14.6805C5.60164 15.7666 6.64307 16.6312 7.85211 17.1875C7.97142 17.2429 8.07232 17.3314 8.14285 17.4424C8.21338 17.5535 8.25057 17.6824 8.25 17.814V18.5625H13.75V17.814C13.75 17.6825 13.7877 17.5537 13.8587 17.4429C13.9297 17.3322 14.0309 17.2441 14.1505 17.1892C15.3593 16.6324 16.4003 15.7674 17.1692 14.681C17.938 13.5947 18.4075 12.3252 18.5307 11Z" fill="#C7D7FE"/>
</svg>
