<svg width="22" height="22" viewBox="0 0 22 22" fill="none" xmlns="http://www.w3.org/2000/svg">
<path d="M19.9376 13.0624C19.9387 14.076 19.7672 15.0823 19.4305 16.0384C19.3835 16.1734 19.2956 16.2904 19.179 16.3731C19.0624 16.4558 18.923 16.5001 18.78 16.4999H3.21929C3.07607 16.4992 2.93657 16.4542 2.82005 16.3709C2.70352 16.2876 2.61571 16.1702 2.56875 16.0349C2.22512 15.0578 2.05385 14.0285 2.06257 12.9928C2.10039 8.07799 6.16437 4.08104 11.086 4.12487C13.4415 4.14752 15.6927 5.09913 17.3503 6.77279C19.0079 8.44645 19.9377 10.7068 19.9376 13.0624Z" fill="#D0D5DD"/>
<path d="M9.82631 13.2636L18.0763 5.01359C18.1402 4.94972 18.216 4.89905 18.2995 4.86448C18.3829 4.82991 18.4724 4.81212 18.5627 4.81212C18.6531 4.81212 18.7425 4.82991 18.826 4.86448C18.9094 4.89905 18.9852 4.94972 19.0491 5.01359C19.113 5.07747 19.1637 5.1533 19.1982 5.23676C19.2328 5.32022 19.2506 5.40967 19.2506 5.5C19.2506 5.59033 19.2328 5.67978 19.1982 5.76324C19.1637 5.8467 19.113 5.92253 19.0491 5.98641L10.7991 14.2364C10.7352 14.3003 10.6594 14.351 10.576 14.3855C10.4925 14.4201 10.4031 14.4379 10.3127 14.4379C10.2224 14.4379 10.1329 14.4201 10.0495 14.3855C9.96602 14.351 9.89019 14.3003 9.82631 14.2364C9.76243 14.1725 9.71176 14.0967 9.6772 14.0132C9.64263 13.9298 9.62483 13.8403 9.62483 13.75C9.62483 13.6597 9.64263 13.5702 9.6772 13.4868C9.71176 13.4033 9.76243 13.3275 9.82631 13.2636ZM11.0002 7.5625C11.5974 7.56174 12.1907 7.6584 12.7568 7.84867C12.8427 7.87914 12.9339 7.89221 13.0249 7.88712C13.116 7.88202 13.2051 7.85887 13.2871 7.819C13.3691 7.77914 13.4424 7.72335 13.5026 7.6549C13.5628 7.58645 13.6089 7.5067 13.638 7.42029C13.6671 7.33388 13.6788 7.24254 13.6723 7.15159C13.6657 7.06063 13.6412 6.97188 13.6001 6.8905C13.5589 6.80913 13.502 6.73675 13.4326 6.67758C13.3632 6.61841 13.2828 6.57363 13.1959 6.54586C12.1003 6.1765 10.9293 6.08942 9.79109 6.29266C8.65291 6.49591 7.58437 6.98291 6.68432 7.70862C5.78427 8.43434 5.08177 9.37532 4.64182 10.4445C4.20187 11.5137 4.03867 12.6766 4.16733 13.8256C4.18592 13.9937 4.26579 14.149 4.39167 14.2618C4.51754 14.3747 4.6806 14.4373 4.84967 14.4375C4.87459 14.4375 4.90037 14.4375 4.92615 14.4332C5.10734 14.4131 5.27312 14.3219 5.38706 14.1796C5.501 14.0373 5.55375 13.8556 5.53373 13.6744C5.51136 13.4712 5.50017 13.2669 5.50022 13.0625C5.50181 11.6043 6.08178 10.2063 7.11289 9.17517C8.14399 8.14407 9.54201 7.56409 11.0002 7.5625ZM19.5716 8.67969C19.5304 8.59933 19.4738 8.52788 19.405 8.46941C19.3362 8.41094 19.2566 8.36659 19.1706 8.3389C19.0847 8.31121 18.9941 8.30072 18.9041 8.30802C18.8141 8.31533 18.7264 8.34029 18.6461 8.38148C18.5657 8.42268 18.4943 8.47929 18.4358 8.5481C18.3773 8.6169 18.333 8.69655 18.3053 8.7825C18.2776 8.86844 18.2671 8.959 18.2744 9.049C18.2817 9.139 18.3067 9.22668 18.3479 9.30703C18.8565 10.3059 19.1569 11.3976 19.2307 12.5161C19.3046 13.6345 19.1504 14.7563 18.7776 15.8134L3.21428 15.8073C2.78006 14.5626 2.64966 13.2322 2.83395 11.9269C3.01824 10.6216 3.51188 9.37921 4.27372 8.30338C5.03556 7.22755 6.04354 6.34941 7.21361 5.74218C8.38368 5.13494 9.68196 4.81619 11.0002 4.8125H11.0758C12.3562 4.82055 13.6168 5.12966 14.7557 5.71484C14.8363 5.75919 14.9249 5.78691 15.0164 5.79638C15.1079 5.80585 15.2003 5.79687 15.2883 5.76997C15.3762 5.74307 15.4579 5.6988 15.5284 5.63977C15.5989 5.58075 15.6569 5.50817 15.6989 5.42634C15.7409 5.34451 15.766 5.25509 15.7728 5.16337C15.7796 5.07166 15.7679 4.97951 15.7385 4.89238C15.709 4.80526 15.6624 4.72492 15.6013 4.65614C15.5403 4.58736 15.466 4.53153 15.383 4.49195C14.0534 3.80797 12.5814 3.44673 11.0862 3.4375H11.0002C9.4612 3.43811 7.94474 3.80761 6.57794 4.51502C5.21113 5.22243 4.0338 6.24715 3.14461 7.50331C2.25541 8.75946 1.68026 10.2104 1.46735 11.7347C1.25444 13.2589 1.40997 14.8119 1.92092 16.2637C2.01539 16.5329 2.19096 16.7663 2.42348 16.9318C2.65601 17.0972 2.93407 17.1865 3.21943 17.1875H18.7801C19.0653 17.1877 19.3435 17.0992 19.5761 16.9343C19.8088 16.7694 19.9844 16.5362 20.0787 16.2671C20.5123 15.0338 20.6909 13.7253 20.6038 12.4209C20.5166 11.1166 20.1655 9.84346 19.5716 8.67883V8.67969Z" fill="#101828"/>
</svg>
