<svg width="22" height="22" viewBox="0 0 22 22" fill="none" xmlns="http://www.w3.org/2000/svg">
<path d="M19.9378 13.0625C19.9389 14.0761 19.7674 15.0825 19.4308 16.0385C19.3838 16.1735 19.2959 16.2905 19.1793 16.3732C19.0627 16.4559 18.9232 16.5003 18.7802 16.5H3.21954C3.07631 16.4994 2.93681 16.4543 2.82029 16.371C2.70376 16.2878 2.61596 16.1704 2.56899 16.0351C2.22536 15.058 2.05409 14.0286 2.06282 12.9929C2.10063 8.07812 6.16461 4.08116 11.0863 4.12499C13.4417 4.14764 15.693 5.09926 17.3505 6.77291C19.0081 8.44657 19.9379 10.7069 19.9378 13.0625Z" fill="#6172F3"/>
<path d="M9.82607 13.2636L18.0761 5.01359C18.1399 4.94972 18.2158 4.89905 18.2992 4.86448C18.3827 4.82991 18.4721 4.81212 18.5625 4.81212C18.6528 4.81212 18.7423 4.82991 18.8257 4.86448C18.9092 4.89905 18.985 4.94972 19.0489 5.01359C19.1128 5.07747 19.1634 5.1533 19.198 5.23676C19.2326 5.32022 19.2504 5.40967 19.2504 5.5C19.2504 5.59033 19.2326 5.67978 19.198 5.76324C19.1634 5.8467 19.1128 5.92253 19.0489 5.98641L10.7989 14.2364C10.735 14.3003 10.6592 14.351 10.5757 14.3855C10.4923 14.4201 10.4028 14.4379 10.3125 14.4379C10.2221 14.4379 10.1327 14.4201 10.0492 14.3855C9.96577 14.351 9.88994 14.3003 9.82607 14.2364C9.76219 14.1725 9.71152 14.0967 9.67695 14.0132C9.64238 13.9298 9.62459 13.8403 9.62459 13.75C9.62459 13.6597 9.64238 13.5702 9.67695 13.4868C9.71152 13.4033 9.76219 13.3275 9.82607 13.2636ZM11 7.5625C11.5972 7.56174 12.1905 7.6584 12.7565 7.84867C12.8425 7.87914 12.9336 7.89221 13.0247 7.88712C13.1157 7.88202 13.2048 7.85887 13.2868 7.819C13.3689 7.77914 13.4421 7.72335 13.5024 7.6549C13.5626 7.58645 13.6086 7.5067 13.6378 7.42029C13.6669 7.33388 13.6785 7.24254 13.672 7.15159C13.6655 7.06063 13.641 6.97188 13.5998 6.8905C13.5587 6.80913 13.5018 6.73675 13.4324 6.67758C13.363 6.61841 13.2825 6.57363 13.1957 6.54586C12.1001 6.1765 10.929 6.08942 9.79085 6.29266C8.65267 6.49591 7.58413 6.98291 6.68407 7.70862C5.78402 8.43434 5.08153 9.37532 4.64157 10.4445C4.20162 11.5137 4.03843 12.6766 4.16708 13.8256C4.18568 13.9937 4.26555 14.149 4.39142 14.2618C4.5173 14.3747 4.68035 14.4373 4.84943 14.4375C4.87435 14.4375 4.90013 14.4375 4.92591 14.4332C5.10709 14.4131 5.27288 14.3219 5.38682 14.1796C5.50075 14.0373 5.55351 13.8556 5.53349 13.6744C5.51111 13.4712 5.49993 13.2669 5.49997 13.0625C5.50156 11.6043 6.08154 10.2063 7.11264 9.17517C8.14375 8.14407 9.54177 7.56409 11 7.5625ZM19.5714 8.67969C19.5302 8.59933 19.4736 8.52788 19.4048 8.46941C19.336 8.41094 19.2563 8.36659 19.1704 8.3389C19.0844 8.31121 18.9939 8.30072 18.9039 8.30802C18.8139 8.31533 18.7262 8.34029 18.6458 8.38148C18.5655 8.42268 18.494 8.47929 18.4356 8.5481C18.3771 8.6169 18.3327 8.69655 18.305 8.7825C18.2774 8.86844 18.2669 8.959 18.2742 9.049C18.2815 9.139 18.3064 9.22668 18.3476 9.30703C18.8563 10.3059 19.1566 11.3976 19.2305 12.5161C19.3044 13.6345 19.1502 14.7563 18.7773 15.8134L3.21403 15.8073C2.77981 14.5626 2.64941 13.2322 2.8337 11.9269C3.01799 10.6216 3.51164 9.37921 4.27348 8.30338C5.03532 7.22755 6.04329 6.34941 7.21337 5.74218C8.38344 5.13494 9.68172 4.81619 11 4.8125H11.0756C12.356 4.82055 13.6166 5.12966 14.7554 5.71484C14.836 5.75919 14.9247 5.78691 15.0161 5.79638C15.1076 5.80585 15.2001 5.79687 15.288 5.76997C15.376 5.74307 15.4576 5.6988 15.5282 5.63977C15.5987 5.58075 15.6567 5.50817 15.6986 5.42634C15.7406 5.34451 15.7657 5.25509 15.7725 5.16337C15.7793 5.07166 15.7677 4.97951 15.7382 4.89238C15.7088 4.80526 15.6621 4.72492 15.6011 4.65614C15.54 4.58736 15.4658 4.53153 15.3828 4.49195C14.0532 3.80797 12.5811 3.44673 11.0859 3.4375H11C9.46095 3.43811 7.9445 3.80761 6.57769 4.51502C5.21089 5.22243 4.03356 6.24715 3.14436 7.50331C2.25517 8.75946 1.68001 10.2104 1.4671 11.7347C1.25419 13.2589 1.40973 14.8119 1.92068 16.2637C2.01515 16.5329 2.19071 16.7663 2.42324 16.9318C2.65576 17.0972 2.93382 17.1865 3.21919 17.1875H18.7799C19.0651 17.1877 19.3432 17.0992 19.5759 16.9343C19.8085 16.7694 19.9841 16.5362 20.0784 16.2671C20.512 15.0338 20.6907 13.7253 20.6035 12.4209C20.5164 11.1166 20.1652 9.84346 19.5714 8.67883V8.67969Z" fill="#C7D7FE"/>
</svg>
