<svg width="20" height="20" viewBox="0 0 20 20" fill="none" xmlns="http://www.w3.org/2000/svg">
<path d="M2.35733 5.53787C2.19416 5.15715 1.75325 4.98079 1.37253 5.14395C0.991807 5.30712 0.815443 5.74803 0.97861 6.12875L1.66797 5.83331L2.35733 5.53787ZM12.9906 11.1072L12.7159 10.4093V10.4093L12.9906 11.1072ZM7.64062 11.5163C7.86652 11.1691 7.76821 10.7045 7.42102 10.4786C7.07383 10.2527 6.60925 10.351 6.38334 10.6982L7.01198 11.1072L7.64062 11.5163ZM5.206 12.5076C4.98009 12.8548 5.07841 13.3194 5.4256 13.5453C5.77278 13.7712 6.23737 13.6729 6.46327 13.3257L5.83464 12.9166L5.206 12.5076ZM19.024 6.12875C19.1872 5.74803 19.0108 5.30712 18.6301 5.14395C18.2494 4.98079 17.8084 5.15715 17.6453 5.53787L18.3346 5.83331L19.024 6.12875ZM15.8346 9.27401L15.3214 8.72716V8.72716L15.8346 9.27401ZM16.5543 11.0543C16.8472 11.3472 17.3221 11.3472 17.615 11.0543C17.9079 10.7614 17.9079 10.2866 17.615 9.99368L17.0846 10.524L16.5543 11.0543ZM9.2513 13.75C9.2513 14.1642 9.58709 14.5 10.0013 14.5C10.4155 14.5 10.7513 14.1642 10.7513 13.75H10.0013H9.2513ZM13.5393 13.3257C13.7652 13.6729 14.2298 13.7712 14.577 13.5453C14.9242 13.3194 15.0225 12.8548 14.7966 12.5076L14.168 12.9166L13.5393 13.3257ZM4.6983 9.80434C4.99119 9.51145 4.99119 9.03657 4.6983 8.74368C4.40541 8.45079 3.93053 8.45079 3.63764 8.74368L4.16797 9.27401L4.6983 9.80434ZM2.38764 9.99368C2.09475 10.2866 2.09475 10.7614 2.38764 11.0543C2.68053 11.3472 3.15541 11.3472 3.4483 11.0543L2.91797 10.524L2.38764 9.99368ZM10.0013 11.6666V10.9166C7.36074 10.9166 5.46263 9.60292 4.19673 8.23964C3.564 7.55824 3.09976 6.87448 2.79421 6.36116C2.64186 6.10521 2.53013 5.8936 2.4576 5.74855C2.42137 5.67609 2.39501 5.62041 2.37834 5.58432C2.37001 5.56629 2.36411 5.55316 2.36061 5.5453C2.35886 5.54137 2.35772 5.53875 2.35717 5.5375C2.3569 5.53687 2.35677 5.53659 2.3568 5.53665C2.35681 5.53668 2.35686 5.5368 2.35695 5.537C2.357 5.5371 2.35709 5.53732 2.35711 5.53737C2.35721 5.53761 2.35733 5.53787 1.66797 5.83331C0.97861 6.12875 0.978742 6.12906 0.978883 6.12939C0.978943 6.12953 0.979094 6.12988 0.979214 6.13016C0.979455 6.13072 0.979735 6.13137 0.980053 6.1321C0.98069 6.13358 0.981484 6.1354 0.982435 6.13758C0.984336 6.14194 0.986865 6.14769 0.990025 6.1548C0.996344 6.16901 1.00519 6.18864 1.01659 6.21332C1.03939 6.26268 1.07244 6.33233 1.11596 6.41937C1.20295 6.59334 1.3321 6.83746 1.50527 7.12838C1.85076 7.70881 2.3761 8.48338 3.09754 9.26032C4.53998 10.8137 6.80853 12.4166 10.0013 12.4166V11.6666ZM12.9906 11.1072L12.7159 10.4093C11.9212 10.7222 11.0197 10.9166 10.0013 10.9166V11.6666V12.4166C11.2162 12.4166 12.3037 12.1836 13.2653 11.8051L12.9906 11.1072ZM7.01198 11.1072L6.38334 10.6982L5.206 12.5076L5.83464 12.9166L6.46327 13.3257L7.64062 11.5163L7.01198 11.1072ZM18.3346 5.83331C17.6453 5.53787 17.6453 5.53772 17.6454 5.53758C17.6454 5.53754 17.6455 5.5374 17.6455 5.53732C17.6456 5.53716 17.6456 5.53703 17.6457 5.53693C17.6458 5.53672 17.6458 5.53663 17.6458 5.53664C17.6458 5.53667 17.6456 5.53713 17.6452 5.53801C17.6444 5.53978 17.6429 5.54325 17.6406 5.54836C17.6361 5.55859 17.6285 5.57536 17.6178 5.5982C17.5965 5.64388 17.563 5.71371 17.5171 5.80375C17.4252 5.98399 17.2839 6.2442 17.0914 6.55321C16.705 7.17338 16.1193 7.97816 15.3214 8.72716L15.8346 9.27401L16.3479 9.82086C17.2654 8.95968 17.9298 8.0441 18.3645 7.34647C18.5825 6.99658 18.7446 6.69853 18.8534 6.48523C18.9078 6.3785 18.949 6.29274 18.9773 6.23203C18.9915 6.20166 19.0024 6.17754 19.0102 6.16016C19.0141 6.15148 19.0172 6.14447 19.0195 6.13922C19.0206 6.13659 19.0216 6.1344 19.0223 6.13265C19.0227 6.13178 19.023 6.13101 19.0233 6.13036C19.0234 6.13004 19.0236 6.12974 19.0237 6.12947C19.0237 6.12934 19.0238 6.12916 19.0238 6.12909C19.0239 6.12892 19.024 6.12875 18.3346 5.83331ZM15.8346 9.27401L15.3214 8.72716C14.6145 9.39062 13.7494 10.0026 12.7159 10.4093L12.9906 11.1072L13.2653 11.8051C14.511 11.3148 15.5334 10.5854 16.3479 9.82086L15.8346 9.27401ZM15.8346 9.27401L15.3043 9.80434L16.5543 11.0543L17.0846 10.524L17.615 9.99368L16.365 8.74368L15.8346 9.27401ZM10.0013 11.6666H9.2513V13.75H10.0013H10.7513V11.6666H10.0013ZM12.9906 11.1072L12.362 11.5163L13.5393 13.3257L14.168 12.9166L14.7966 12.5076L13.6193 10.6982L12.9906 11.1072ZM4.16797 9.27401L3.63764 8.74368L2.38764 9.99368L2.91797 10.524L3.4483 11.0543L4.6983 9.80434L4.16797 9.27401Z" fill="#98A2B3"/>
</svg>
