<svg width="28" height="29" viewBox="0 0 28 29" fill="none" xmlns="http://www.w3.org/2000/svg">
<g filter="url(#filter0_dd_4113_10838)">
<rect x="2" y="1" width="24" height="24" rx="6" fill="url(#paint0_linear_4113_10838)"/>
<rect x="2.3" y="1.3" width="23.4" height="23.4" rx="5.7" stroke="white" stroke-width="0.6"/>
<path d="M5.12012 12.6997H22.8799C23.2206 12.6997 23.4586 12.7002 23.6436 12.7153C23.7799 12.7265 23.8731 12.7445 23.9443 12.77L24.0088 12.7983C24.1358 12.8631 24.2451 12.9565 24.3281 13.0708L24.4023 13.1909C24.4426 13.2699 24.4695 13.3746 24.4844 13.5562C24.4995 13.7412 24.5 13.9789 24.5 14.3198V16.1196C24.5 17.4687 24.4997 18.4632 24.4355 19.2485C24.3796 19.9324 24.277 20.4382 24.0938 20.8647L24.0098 21.0425C23.6324 21.7832 23.0582 22.4031 22.3535 22.8354L22.043 23.0093C21.5789 23.2457 21.0299 23.3712 20.248 23.4351C19.4627 23.4992 18.469 23.4995 17.1201 23.4995H10.8799C9.53097 23.4995 8.53725 23.4992 7.75195 23.4351C7.06802 23.3792 6.56229 23.2765 6.13574 23.0933L5.95703 23.0093C5.21627 22.6318 4.59638 22.0578 4.16406 21.353L3.99023 21.0425C3.75399 20.5786 3.62832 20.0299 3.56445 19.2485C3.50029 18.4632 3.5 17.4687 3.5 16.1196V14.3198C3.5 13.9789 3.50051 13.7412 3.51562 13.5562C3.52674 13.4202 3.5449 13.3275 3.57031 13.2563L3.59863 13.1909C3.66341 13.064 3.75684 12.9546 3.87109 12.8716L3.99121 12.7983C4.07021 12.7581 4.17491 12.7302 4.35645 12.7153C4.54148 12.7002 4.77918 12.6997 5.12012 12.6997Z" fill="url(#paint1_linear_4113_10838)" stroke="#2B589C" stroke-width="0.6"/>
<path d="M3.2002 9.8798C3.2002 10.5519 3.2002 10.8879 3.33099 11.1446C3.44604 11.3704 3.62961 11.554 3.85541 11.669C4.1121 11.7998 4.44813 11.7998 5.1202 11.7998H22.8802C23.5523 11.7998 23.8883 11.7998 24.145 11.669C24.3708 11.554 24.5544 11.3704 24.6694 11.1446C24.8002 10.8879 24.8002 10.5519 24.8002 9.8798C24.8002 7.19155 24.8002 5.84743 24.277 4.82065C23.8168 3.91747 23.0825 3.18317 22.1793 2.72297C21.1526 2.1998 19.8084 2.1998 17.1202 2.1998H10.8802C8.19195 2.1998 6.84782 2.1998 5.82104 2.72297C4.91786 3.18317 4.18356 3.91747 3.72336 4.82065C3.2002 5.84743 3.2002 7.19155 3.2002 9.8798Z" fill="url(#paint2_linear_4113_10838)"/>
<g filter="url(#filter1_di_4113_10838)">
<path d="M8.18797 19.8999V15.0999H11.4645V16.0421H9.34812V17.0265H11.2559V17.971H9.34812V19.8999H8.18797ZM11.9662 19.8999V15.0999H13.9678C14.3271 15.0999 14.6279 15.1507 14.8701 15.2522C15.1139 15.3538 15.2967 15.496 15.4186 15.6788C15.542 15.8616 15.6037 16.0733 15.6037 16.314C15.6037 16.4968 15.5654 16.6601 15.4889 16.8038C15.4123 16.946 15.3068 17.064 15.1725 17.1577C15.0381 17.2515 14.8826 17.3171 14.7061 17.3546V17.4015C14.8998 17.4108 15.0787 17.4632 15.2428 17.5585C15.4084 17.6538 15.5412 17.7866 15.6412 17.9569C15.7412 18.1257 15.7912 18.3257 15.7912 18.5569C15.7912 18.8147 15.7256 19.0452 15.5943 19.2483C15.4631 19.4499 15.2732 19.6093 15.0248 19.7265C14.7764 19.8421 14.4748 19.8999 14.1201 19.8999H11.9662ZM13.1264 18.9647H13.8436C14.0951 18.9647 14.2803 18.9171 14.399 18.8218C14.5193 18.7265 14.5795 18.5937 14.5795 18.4233C14.5795 18.2999 14.5506 18.1937 14.4928 18.1046C14.435 18.014 14.3529 17.9444 14.2467 17.896C14.1404 17.846 14.0131 17.821 13.8646 17.821H13.1264V18.9647ZM13.1264 17.0733H13.7686C13.8951 17.0733 14.0076 17.0522 14.1061 17.0101C14.2045 16.9679 14.2811 16.9069 14.3357 16.8272C14.392 16.7476 14.4201 16.6515 14.4201 16.539C14.4201 16.378 14.3631 16.2515 14.249 16.1593C14.135 16.0671 13.9811 16.021 13.7873 16.021H13.1264V17.0733ZM17.4407 15.0999L18.3173 16.6163H18.3548L19.2407 15.0999H20.5392L19.0907 17.4999L20.5861 19.8999H19.2548L18.3548 18.3671H18.3173L17.4173 19.8999H16.0954L17.5837 17.4999L16.1329 15.0999H17.4407Z" fill="url(#paint3_linear_4113_10838)" shape-rendering="crispEdges"/>
</g>
</g>
<defs>
<filter id="filter0_dd_4113_10838" x="0.8" y="0" width="26.4" height="28.6" filterUnits="userSpaceOnUse" color-interpolation-filters="sRGB">
<feFlood flood-opacity="0" result="BackgroundImageFix"/>
<feColorMatrix in="SourceAlpha" type="matrix" values="0 0 0 0 0 0 0 0 0 0 0 0 0 0 0 0 0 0 127 0" result="hardAlpha"/>
<feMorphology radius="2.4" operator="erode" in="SourceAlpha" result="effect1_dropShadow_4113_10838"/>
<feOffset dy="2.4"/>
<feGaussianBlur stdDeviation="1.8"/>
<feComposite in2="hardAlpha" operator="out"/>
<feColorMatrix type="matrix" values="0 0 0 0 0 0 0 0 0 0 0 0 0 0 0 0 0 0 0.2 0"/>
<feBlend mode="normal" in2="BackgroundImageFix" result="effect1_dropShadow_4113_10838"/>
<feColorMatrix in="SourceAlpha" type="matrix" values="0 0 0 0 0 0 0 0 0 0 0 0 0 0 0 0 0 0 127 0" result="hardAlpha"/>
<feMorphology radius="1" operator="dilate" in="SourceAlpha" result="effect2_dropShadow_4113_10838"/>
<feOffset/>
<feComposite in2="hardAlpha" operator="out"/>
<feColorMatrix type="matrix" values="0 0 0 0 0.727754 0 0 0 0 0.726176 0 0 0 0 0.726176 0 0 0 1 0"/>
<feBlend mode="normal" in2="effect1_dropShadow_4113_10838" result="effect2_dropShadow_4113_10838"/>
<feBlend mode="normal" in="SourceGraphic" in2="effect2_dropShadow_4113_10838" result="shape"/>
</filter>
<filter id="filter1_di_4113_10838" x="8.18799" y="14.5001" width="12.3979" height="5.9998" filterUnits="userSpaceOnUse" color-interpolation-filters="sRGB">
<feFlood flood-opacity="0" result="BackgroundImageFix"/>
<feColorMatrix in="SourceAlpha" type="matrix" values="0 0 0 0 0 0 0 0 0 0 0 0 0 0 0 0 0 0 127 0" result="hardAlpha"/>
<feOffset dy="0.6"/>
<feComposite in2="hardAlpha" operator="out"/>
<feColorMatrix type="matrix" values="0 0 0 0 0.168627 0 0 0 0 0.345098 0 0 0 0 0.611765 0 0 0 1 0"/>
<feBlend mode="normal" in2="BackgroundImageFix" result="effect1_dropShadow_4113_10838"/>
<feBlend mode="normal" in="SourceGraphic" in2="effect1_dropShadow_4113_10838" result="shape"/>
<feColorMatrix in="SourceAlpha" type="matrix" values="0 0 0 0 0 0 0 0 0 0 0 0 0 0 0 0 0 0 127 0" result="hardAlpha"/>
<feOffset dy="-0.6"/>
<feGaussianBlur stdDeviation="0.6"/>
<feComposite in2="hardAlpha" operator="arithmetic" k2="-1" k3="1"/>
<feColorMatrix type="matrix" values="0 0 0 0 1 0 0 0 0 1 0 0 0 0 1 0 0 0 1 0"/>
<feBlend mode="normal" in2="shape" result="effect2_innerShadow_4113_10838"/>
</filter>
<linearGradient id="paint0_linear_4113_10838" x1="14" y1="1" x2="14" y2="25" gradientUnits="userSpaceOnUse">
<stop stop-color="white"/>
<stop offset="1" stop-color="#F1F1F1"/>
</linearGradient>
<linearGradient id="paint1_linear_4113_10838" x1="14.0002" y1="12.3999" x2="14.0002" y2="23.7999" gradientUnits="userSpaceOnUse">
<stop stop-color="#2B589C"/>
<stop offset="1" stop-color="#4571B5"/>
</linearGradient>
<linearGradient id="paint2_linear_4113_10838" x1="14.0002" y1="2.1998" x2="14.0002" y2="11.7998" gradientUnits="userSpaceOnUse">
<stop stop-color="#EAEAEA"/>
<stop offset="1" stop-color="#F4F4F4" stop-opacity="0"/>
</linearGradient>
<linearGradient id="paint3_linear_4113_10838" x1="14.3003" y1="14.9666" x2="14.3003" y2="19.4999" gradientUnits="userSpaceOnUse">
<stop stop-color="white"/>
<stop offset="1" stop-color="white" stop-opacity="0.4"/>
</linearGradient>
</defs>
</svg>
