<svg width="24" height="24" viewBox="0 0 24 24" fill="none" xmlns="http://www.w3.org/2000/svg">
<path d="M12 12.0003C12 9.81368 13.7726 8.04102 15.9593 8.04102C18.1459 8.04102 19.9186 9.81368 19.9186 12.0003C19.9186 14.187 18.1459 15.9596 15.9593 15.9596C13.7726 15.9596 12 14.187 12 12.0003Z" fill="#1ABCFE"/>
<path d="M4.08154 19.9183C4.08154 17.7317 5.85417 15.959 8.04082 15.959H12.0001V19.9183C12.0001 22.1049 10.2275 23.8775 8.04082 23.8775C5.85417 23.8775 4.08154 22.1049 4.08154 19.9183Z" fill="#0ACF83"/>
<path d="M12 0.12207V8.0406H15.9593C18.1459 8.0406 19.9186 6.26799 19.9186 4.08134C19.9186 1.8947 18.1459 0.12207 15.9593 0.12207H12Z" fill="#FF7262"/>
<path d="M4.08154 4.08135C4.08154 6.26799 5.85417 8.0406 8.04082 8.0406H12.0001V0.12207H8.04082C5.85417 0.12207 4.08154 1.8947 4.08154 4.08135Z" fill="#F24E1E"/>
<path d="M4.08154 12.0003C4.08154 14.187 5.85417 15.9596 8.04082 15.9596H12.0001V8.04102H8.04082C5.85417 8.04102 4.08154 9.81368 4.08154 12.0003Z" fill="#A259FF"/>
</svg>
