<svg width="22" height="22" viewBox="0 0 22 22" fill="none" xmlns="http://www.w3.org/2000/svg">
<path d="M17.9441 14.082C18.7972 12.7521 19.2505 11.2051 19.25 9.625H17.9441C17.5773 7.33333 15.6062 2.75 10.6562 2.75C5.70625 2.75 4.19351 7.33333 4.05589 9.625H2.75C2.7495 11.2051 3.20276 12.7521 4.05589 14.082C4.90901 15.412 6.12612 16.469 7.5625 17.1273V17.875C7.5625 18.0573 7.63493 18.2322 7.76386 18.3611C7.8928 18.4901 8.06767 18.5625 8.25 18.5625H13.75C13.9323 18.5625 14.1072 18.4901 14.2361 18.3611C14.3651 18.2322 14.4375 18.0573 14.4375 17.875V17.1273C15.8739 16.469 17.091 15.412 17.9441 14.082Z" fill="#D0D5DD"/>
<path d="M19.25 8.93761H18.5307C18.358 7.05977 17.4899 5.31421 16.0967 4.04331C14.7035 2.77241 12.8858 2.06787 11 2.06787C9.11423 2.06787 7.29649 2.77241 5.90331 4.04331C4.51014 5.31421 3.64204 7.05977 3.4693 8.93761H2.75C2.56766 8.93761 2.3928 9.01004 2.26386 9.13897C2.13493 9.26791 2.0625 9.44277 2.0625 9.62511C2.06552 11.2601 2.51547 12.8631 3.36369 14.2609C4.21191 15.6586 5.42611 16.7979 6.875 17.5554V17.8751C6.875 18.2398 7.01987 18.5895 7.27773 18.8474C7.53559 19.1052 7.88533 19.2501 8.25 19.2501H13.75C14.1147 19.2501 14.4644 19.1052 14.7223 18.8474C14.9801 18.5895 15.125 18.2398 15.125 17.8751V17.5554C16.5739 16.7979 17.7881 15.6586 18.6363 14.2609C19.4845 12.8631 19.9345 11.2601 19.9375 9.62511C19.9375 9.44277 19.8651 9.26791 19.7361 9.13897C19.6072 9.01004 19.4323 8.93761 19.25 8.93761ZM14.9084 4.83238C15.066 4.96128 15.217 5.09735 15.3613 5.24058C13.5312 5.88438 12.0188 7.20752 11.1375 8.93589H8.60234C9.03204 7.73142 9.82312 6.68897 10.8675 5.95098C11.9119 5.21298 13.1587 4.81542 14.4375 4.81261C14.5948 4.81261 14.752 4.82035 14.9084 4.83238ZM16.2757 6.39644C16.7505 7.16872 17.0484 8.03655 17.148 8.93761H12.7291C13.5626 7.68712 14.8236 6.7836 16.2757 6.39644ZM11 3.43761C11.5517 3.43798 12.1008 3.51226 12.6328 3.65847C11.3372 3.97985 10.1493 4.63707 9.18867 5.56389C8.22806 6.49071 7.52873 7.65438 7.16117 8.93761H4.85203C5.02257 7.42585 5.74348 6.02972 6.87733 5.01537C8.01117 4.00103 9.47865 3.43942 11 3.43761ZM14.1505 16.5001C14.0305 16.5552 13.929 16.6437 13.858 16.7549C13.787 16.8661 13.7495 16.9955 13.75 17.1275V17.8751H8.25V17.1275C8.2505 16.9955 8.21301 16.8661 8.142 16.7549C8.07099 16.6437 7.96946 16.5552 7.84953 16.5001C6.64049 15.9438 5.59907 15.0792 4.82978 13.9931C4.06049 12.9071 3.59041 11.6378 3.46672 10.3126H18.5307C18.4073 11.6375 17.9376 12.9066 17.1687 13.9926C16.3999 15.0787 15.359 15.9434 14.1505 16.5001Z" fill="#101828"/>
</svg>
