<svg width="1050" height="248" viewBox="0 0 1050 248" fill="none" xmlns="http://www.w3.org/2000/svg">
<path d="M0 243.228V25H44.4013V204.05H148.548V243.228H0Z" fill="url(#paint0_linear_4095_2896)"/>
<path d="M237.014 247.145C223.302 247.145 211.331 244.098 201.101 238.004C191.089 231.91 183.363 223.421 177.921 212.538C172.698 201.656 170.086 188.923 170.086 174.34V65.6225H212.855V170.749C212.855 178.149 214.269 184.679 217.099 190.338C220.146 195.779 224.39 200.132 229.832 203.397C235.491 206.444 241.803 207.968 248.767 207.968C255.732 207.968 261.935 206.444 267.377 203.397C272.818 200.132 277.062 195.67 280.11 190.011C283.157 184.352 284.68 177.605 284.68 169.77V65.6225H327.449V243.228H286.966V208.294L290.557 214.497C286.421 225.38 279.565 233.542 269.989 238.983C260.63 244.425 249.638 247.145 237.014 247.145Z" fill="url(#paint1_linear_4095_2896)"/>
<path d="M367.206 243.228V65.6225H407.363V106.759L402.792 99.9029C406.057 87.0613 412.586 77.4846 422.381 71.1726C432.175 64.8607 443.711 61.7047 456.988 61.7047C471.57 61.7047 484.412 65.5136 495.512 73.1315C506.613 80.7494 513.795 90.7614 517.06 103.168L504.98 104.147C510.422 89.9996 518.583 79.4435 529.466 72.4786C540.349 65.296 552.864 61.7047 567.011 61.7047C579.635 61.7047 590.844 64.5342 600.639 70.1932C610.651 75.8522 618.486 83.7965 624.145 94.0262C629.804 104.038 632.634 115.683 632.634 128.96V243.228H589.865V139.08C589.865 131.245 588.45 124.498 585.621 118.839C582.791 113.18 578.873 108.827 573.867 105.78C568.861 102.515 562.767 100.882 555.585 100.882C548.837 100.882 542.852 102.515 537.628 105.78C532.404 108.827 528.378 113.18 525.548 118.839C522.719 124.498 521.304 131.245 521.304 139.08V243.228H478.535V139.08C478.535 131.245 477.121 124.498 474.291 118.839C471.462 113.18 467.435 108.827 462.211 105.78C457.205 102.515 451.22 100.882 444.255 100.882C437.508 100.882 431.522 102.515 426.299 105.78C421.075 108.827 417.048 113.18 414.219 118.839C411.389 124.498 409.975 131.245 409.975 139.08V243.228H367.206Z" fill="url(#paint2_linear_4095_2896)"/>
<path d="M675.403 247.145L697.047 70.8641H739.816L718.172 247.145H675.403ZM654.279 70.8641L659.849 25.4976H702.618L697.047 70.8641L654.279 70.8641Z" fill="url(#paint3_linear_4095_2896)"/>
<path d="M778.035 243.227V65.6224H818.192V105.126L814.927 99.2498C819.062 85.9729 825.483 76.7227 834.189 71.499C843.113 66.2753 853.778 63.6635 866.184 63.6635H876.632V101.535H861.287C849.098 101.535 839.304 105.344 831.904 112.962C824.504 120.362 820.804 130.81 820.804 144.304V243.227H778.035Z" fill="url(#paint4_linear_4095_2896)"/>
<path d="M954.015 247.145C941.609 247.145 930.835 245.077 921.693 240.942C912.552 236.807 905.478 230.93 900.472 223.312C895.466 215.477 892.963 206.444 892.963 196.214C892.963 186.42 895.14 177.714 899.493 170.096C903.846 162.26 910.593 155.731 919.735 150.507C928.876 145.283 940.412 141.583 954.341 139.407L1012.45 129.939V162.587L962.503 171.075C954.015 172.599 947.703 175.32 943.568 179.237C939.432 183.155 937.364 188.27 937.364 194.582C937.364 200.676 939.65 205.573 944.221 209.274C949.009 212.756 954.886 214.497 961.85 214.497C970.774 214.497 978.61 212.647 985.357 208.947C992.322 205.029 997.654 199.697 1001.35 192.95C1005.27 186.202 1007.23 178.802 1007.23 170.749V125.042C1007.23 117.424 1004.18 111.112 998.09 106.106C992.213 100.882 984.378 98.2703 974.583 98.2703C965.442 98.2703 957.28 100.773 950.097 105.779C943.132 110.568 938.017 116.989 934.753 125.042L899.819 108.065C903.302 98.7057 908.743 90.6525 916.143 83.9052C923.761 76.9403 932.685 71.499 942.915 67.5812C953.144 63.6635 964.245 61.7046 976.216 61.7046C990.798 61.7046 1003.64 64.4253 1014.74 69.8666C1025.84 75.0903 1034.44 82.4905 1040.53 92.0672C1046.84 101.426 1050 112.418 1050 125.042V243.227H1009.52V212.865L1018.66 212.212C1014.09 219.83 1008.65 226.25 1002.33 231.474C996.022 236.48 988.839 240.398 980.786 243.227C972.733 245.839 963.809 247.145 954.015 247.145Z" fill="url(#paint5_linear_4095_2896)"/>
<defs>
<linearGradient id="paint0_linear_4095_2896" x1="316.317" y1="2.45561e-06" x2="316.317" y2="247.145" gradientUnits="userSpaceOnUse">
<stop stop-color="white"/>
<stop offset="1" stop-color="white" stop-opacity="0"/>
</linearGradient>
<linearGradient id="paint1_linear_4095_2896" x1="316.317" y1="2.45561e-06" x2="316.317" y2="247.145" gradientUnits="userSpaceOnUse">
<stop stop-color="white"/>
<stop offset="1" stop-color="white" stop-opacity="0"/>
</linearGradient>
<linearGradient id="paint2_linear_4095_2896" x1="316.317" y1="2.45561e-06" x2="316.317" y2="247.145" gradientUnits="userSpaceOnUse">
<stop stop-color="white"/>
<stop offset="1" stop-color="white" stop-opacity="0"/>
</linearGradient>
<linearGradient id="paint3_linear_4095_2896" x1="702.618" y1="25.4976" x2="702.618" y2="247.145" gradientUnits="userSpaceOnUse">
<stop stop-color="white"/>
<stop offset="1" stop-color="white" stop-opacity="0"/>
</linearGradient>
<linearGradient id="paint4_linear_4095_2896" x1="914.017" y1="61.7046" x2="914.017" y2="247.145" gradientUnits="userSpaceOnUse">
<stop stop-color="white"/>
<stop offset="1" stop-color="white" stop-opacity="0"/>
</linearGradient>
<linearGradient id="paint5_linear_4095_2896" x1="914.017" y1="61.7046" x2="914.017" y2="247.145" gradientUnits="userSpaceOnUse">
<stop stop-color="white"/>
<stop offset="1" stop-color="white" stop-opacity="0"/>
</linearGradient>
</defs>
</svg>
