<svg width="28" height="29" viewBox="0 0 28 29" fill="none" xmlns="http://www.w3.org/2000/svg">
<g filter="url(#filter0_dd_4113_10835)">
<rect x="2" y="1" width="24" height="24" rx="6" fill="url(#paint0_linear_4113_10835)"/>
<rect x="2.3" y="1.3" width="23.4" height="23.4" rx="5.7" stroke="white" stroke-width="0.6"/>
<path d="M5.11963 12.6997H22.8794C23.2202 12.6997 23.4581 12.7002 23.6431 12.7153C23.7794 12.7265 23.8726 12.7445 23.9438 12.77L24.0083 12.7983C24.1353 12.8631 24.2446 12.9565 24.3276 13.0708L24.4019 13.1909C24.4421 13.2699 24.4691 13.3746 24.4839 13.5562C24.499 13.7412 24.4995 13.9789 24.4995 14.3198V16.1196C24.4995 17.4687 24.4992 18.4632 24.4351 19.2485C24.3792 19.9324 24.2766 20.4382 24.0933 20.8647L24.0093 21.0425C23.6319 21.7832 23.0577 22.4031 22.353 22.8354L22.0425 23.0093C21.5785 23.2457 21.0294 23.3712 20.2476 23.4351C19.4622 23.4992 18.4685 23.4995 17.1196 23.4995H10.8794C9.53048 23.4995 8.53676 23.4992 7.75146 23.4351C7.06753 23.3792 6.5618 23.2765 6.13525 23.0933L5.95654 23.0093C5.21578 22.6318 4.5959 22.0578 4.16357 21.353L3.98975 21.0425C3.7535 20.5786 3.62783 20.0299 3.56396 19.2485C3.4998 18.4632 3.49951 17.4687 3.49951 16.1196V14.3198C3.49951 13.9789 3.50002 13.7412 3.51514 13.5562C3.52625 13.4202 3.54442 13.3275 3.56982 13.2563L3.59814 13.1909C3.66292 13.064 3.75636 12.9546 3.87061 12.8716L3.99072 12.7983C4.06973 12.7581 4.17442 12.7302 4.35596 12.7153C4.541 12.7002 4.77869 12.6997 5.11963 12.6997Z" fill="url(#paint1_linear_4113_10835)" stroke="#217346" stroke-width="0.6"/>
<path d="M3.19971 9.8798C3.19971 10.5519 3.19971 10.8879 3.3305 11.1446C3.44555 11.3704 3.62912 11.554 3.85492 11.669C4.11161 11.7998 4.44764 11.7998 5.11971 11.7998H22.8797C23.5518 11.7998 23.8878 11.7998 24.1445 11.669C24.3703 11.554 24.5539 11.3704 24.6689 11.1446C24.7997 10.8879 24.7997 10.5519 24.7997 9.8798C24.7997 7.19155 24.7997 5.84743 24.2765 4.82065C23.8163 3.91747 23.082 3.18317 22.1789 2.72297C21.1521 2.1998 19.808 2.1998 17.1197 2.1998H10.8797C8.19146 2.1998 6.84733 2.1998 5.82055 2.72297C4.91737 3.18317 4.18307 3.91747 3.72288 4.82065C3.19971 5.84743 3.19971 7.19155 3.19971 9.8798Z" fill="url(#paint2_linear_4113_10835)"/>
<g filter="url(#filter1_di_4113_10835)">
<path d="M10.3957 16.6679C10.3691 16.5694 10.3301 16.4827 10.2785 16.4077C10.2269 16.3312 10.1637 16.2663 10.0887 16.2132C10.0137 16.1601 9.92771 16.1202 9.83084 16.0937C9.73396 16.0655 9.62771 16.0515 9.51209 16.0515C9.27928 16.0515 9.07771 16.1077 8.9074 16.2202C8.73865 16.3327 8.60818 16.4968 8.516 16.7124C8.42381 16.9265 8.37771 17.1866 8.37771 17.4929C8.37771 17.8007 8.42225 18.0632 8.51131 18.2804C8.60037 18.4976 8.72928 18.6632 8.89803 18.7772C9.06678 18.8913 9.27146 18.9483 9.51209 18.9483C9.72459 18.9483 9.90428 18.914 10.0512 18.8452C10.1996 18.7749 10.3121 18.6757 10.3887 18.5476C10.4652 18.4194 10.5035 18.2687 10.5035 18.0952L10.7191 18.121H9.55193V17.2749H11.6215V17.9101C11.6215 18.3397 11.5301 18.7077 11.3472 19.014C11.166 19.3202 10.916 19.5554 10.5972 19.7194C10.2801 19.8835 9.91521 19.9655 9.50271 19.9655C9.0449 19.9655 8.64256 19.8663 8.29568 19.6679C7.94881 19.4694 7.6785 19.1866 7.48475 18.8194C7.291 18.4507 7.19412 18.0132 7.19412 17.5069C7.19412 17.1132 7.25271 16.764 7.3699 16.4593C7.48709 16.153 7.65037 15.8937 7.85975 15.6812C8.07068 15.4687 8.31443 15.3077 8.591 15.1983C8.86912 15.089 9.16834 15.0343 9.48865 15.0343C9.76678 15.0343 10.0254 15.0741 10.2644 15.1538C10.5051 15.2335 10.7176 15.346 10.9019 15.4913C11.0879 15.6366 11.2387 15.8093 11.3543 16.0093C11.4699 16.2093 11.5418 16.4288 11.5699 16.6679H10.3957ZM12.2228 19.8999V15.0999H13.3829V18.9577H15.3798V19.8999H12.2228ZM15.8979 19.8999V15.0999H17.8994C18.2588 15.0999 18.5596 15.1507 18.8018 15.2522C19.0455 15.3538 19.2283 15.496 19.3502 15.6788C19.4737 15.8616 19.5354 16.0733 19.5354 16.314C19.5354 16.4968 19.4971 16.6601 19.4205 16.8038C19.344 16.946 19.2385 17.064 19.1041 17.1577C18.9697 17.2515 18.8143 17.3171 18.6377 17.3546V17.4015C18.8315 17.4108 19.0104 17.4632 19.1744 17.5585C19.3401 17.6538 19.4729 17.7866 19.5729 17.9569C19.6729 18.1257 19.7229 18.3257 19.7229 18.5569C19.7229 18.8147 19.6572 19.0452 19.526 19.2483C19.3947 19.4499 19.2049 19.6093 18.9565 19.7265C18.708 19.8421 18.4065 19.8999 18.0518 19.8999H15.8979ZM17.058 18.9647H17.7752C18.0268 18.9647 18.2119 18.9171 18.3307 18.8218C18.451 18.7265 18.5112 18.5937 18.5112 18.4233C18.5112 18.2999 18.4822 18.1937 18.4244 18.1046C18.3666 18.014 18.2846 17.9444 18.1783 17.896C18.0721 17.846 17.9447 17.821 17.7963 17.821H17.058V18.9647ZM17.058 17.0733H17.7002C17.8268 17.0733 17.9393 17.0522 18.0377 17.0101C18.1362 16.9679 18.2127 16.9069 18.2674 16.8272C18.3237 16.7476 18.3518 16.6515 18.3518 16.539C18.3518 16.378 18.2947 16.2515 18.1807 16.1593C18.0666 16.0671 17.9127 16.021 17.719 16.021H17.058V17.0733Z" fill="url(#paint3_linear_4113_10835)" shape-rendering="crispEdges"/>
</g>
</g>
<defs>
<filter id="filter0_dd_4113_10835" x="0.8" y="0" width="26.4" height="28.6" filterUnits="userSpaceOnUse" color-interpolation-filters="sRGB">
<feFlood flood-opacity="0" result="BackgroundImageFix"/>
<feColorMatrix in="SourceAlpha" type="matrix" values="0 0 0 0 0 0 0 0 0 0 0 0 0 0 0 0 0 0 127 0" result="hardAlpha"/>
<feMorphology radius="2.4" operator="erode" in="SourceAlpha" result="effect1_dropShadow_4113_10835"/>
<feOffset dy="2.4"/>
<feGaussianBlur stdDeviation="1.8"/>
<feComposite in2="hardAlpha" operator="out"/>
<feColorMatrix type="matrix" values="0 0 0 0 0 0 0 0 0 0 0 0 0 0 0 0 0 0 0.2 0"/>
<feBlend mode="normal" in2="BackgroundImageFix" result="effect1_dropShadow_4113_10835"/>
<feColorMatrix in="SourceAlpha" type="matrix" values="0 0 0 0 0 0 0 0 0 0 0 0 0 0 0 0 0 0 127 0" result="hardAlpha"/>
<feMorphology radius="1" operator="dilate" in="SourceAlpha" result="effect2_dropShadow_4113_10835"/>
<feOffset/>
<feComposite in2="hardAlpha" operator="out"/>
<feColorMatrix type="matrix" values="0 0 0 0 0.727754 0 0 0 0 0.726176 0 0 0 0 0.726176 0 0 0 1 0"/>
<feBlend mode="normal" in2="effect1_dropShadow_4113_10835" result="effect2_dropShadow_4113_10835"/>
<feBlend mode="normal" in="SourceGraphic" in2="effect2_dropShadow_4113_10835" result="shape"/>
</filter>
<filter id="filter1_di_4113_10835" x="7.19434" y="14.4342" width="12.5283" height="6.13115" filterUnits="userSpaceOnUse" color-interpolation-filters="sRGB">
<feFlood flood-opacity="0" result="BackgroundImageFix"/>
<feColorMatrix in="SourceAlpha" type="matrix" values="0 0 0 0 0 0 0 0 0 0 0 0 0 0 0 0 0 0 127 0" result="hardAlpha"/>
<feOffset dy="0.6"/>
<feComposite in2="hardAlpha" operator="out"/>
<feColorMatrix type="matrix" values="0 0 0 0 0.129412 0 0 0 0 0.45098 0 0 0 0 0.27451 0 0 0 1 0"/>
<feBlend mode="normal" in2="BackgroundImageFix" result="effect1_dropShadow_4113_10835"/>
<feBlend mode="normal" in="SourceGraphic" in2="effect1_dropShadow_4113_10835" result="shape"/>
<feColorMatrix in="SourceAlpha" type="matrix" values="0 0 0 0 0 0 0 0 0 0 0 0 0 0 0 0 0 0 127 0" result="hardAlpha"/>
<feOffset dy="-0.6"/>
<feGaussianBlur stdDeviation="0.6"/>
<feComposite in2="hardAlpha" operator="arithmetic" k2="-1" k3="1"/>
<feColorMatrix type="matrix" values="0 0 0 0 1 0 0 0 0 1 0 0 0 0 1 0 0 0 1 0"/>
<feBlend mode="normal" in2="shape" result="effect2_innerShadow_4113_10835"/>
</filter>
<linearGradient id="paint0_linear_4113_10835" x1="14" y1="1" x2="14" y2="25" gradientUnits="userSpaceOnUse">
<stop stop-color="white"/>
<stop offset="1" stop-color="#F1F1F1"/>
</linearGradient>
<linearGradient id="paint1_linear_4113_10835" x1="13.9997" y1="12.3999" x2="13.9997" y2="23.7999" gradientUnits="userSpaceOnUse">
<stop stop-color="#217346"/>
<stop offset="1" stop-color="#2F8C59"/>
</linearGradient>
<linearGradient id="paint2_linear_4113_10835" x1="13.9997" y1="2.1998" x2="13.9997" y2="11.7998" gradientUnits="userSpaceOnUse">
<stop stop-color="#EAEAEA"/>
<stop offset="1" stop-color="#F4F4F4" stop-opacity="0"/>
</linearGradient>
<linearGradient id="paint3_linear_4113_10835" x1="13.3999" y1="14.9666" x2="13.3999" y2="19.4999" gradientUnits="userSpaceOnUse">
<stop stop-color="white"/>
<stop offset="1" stop-color="white" stop-opacity="0.4"/>
</linearGradient>
</defs>
</svg>
