<svg width="22" height="22" viewBox="0 0 22 22" fill="none" xmlns="http://www.w3.org/2000/svg">
<path d="M18.5625 11C18.5625 12.4957 18.119 13.9579 17.288 15.2015C16.457 16.4451 15.2759 17.4145 13.894 17.9868C12.5122 18.5592 10.9916 18.709 9.52463 18.4172C8.05765 18.1254 6.71014 17.4051 5.65251 16.3475C4.59487 15.2899 3.87462 13.9424 3.58281 12.4754C3.29101 11.0084 3.44078 9.48782 4.01316 8.10596C4.58555 6.72409 5.55486 5.54299 6.7985 4.71201C8.04215 3.88103 9.50428 3.4375 11 3.4375C13.0057 3.4375 14.9293 4.23426 16.3475 5.65251C17.7657 7.07075 18.5625 8.9943 18.5625 11Z" fill="#6172F3"/>
<path d="M21.0641 5.21468C20.4067 4.08117 18.6716 3.82593 16.0368 4.47046C14.8169 3.52725 13.357 2.94505 11.8229 2.79001C10.2887 2.63497 8.74184 2.9133 7.35795 3.59339C5.97407 4.27347 4.80865 5.32804 3.99411 6.6373C3.17956 7.94657 2.74853 9.45803 2.74998 11C2.75009 11.3537 2.77248 11.707 2.81701 12.0579C0.437404 14.5234 0.471779 15.9844 0.936701 16.7853C1.37498 17.545 2.28936 17.875 3.49248 17.875C4.32781 17.8577 5.15822 17.7423 5.96662 17.5312C7.1866 18.4735 8.64634 19.0549 10.1801 19.2093C11.7139 19.3638 13.2602 19.0851 14.6435 18.4049C16.0269 17.7247 17.1918 16.6703 18.0061 15.3614C18.8203 14.0525 19.2513 12.5415 19.25 11C19.2502 10.648 19.2281 10.2964 19.1838 9.94726C20.258 8.83007 20.973 7.76875 21.2162 6.86039C21.3838 6.23132 21.3331 5.67789 21.0641 5.21468ZM11 4.125C12.5571 4.12659 14.0677 4.65603 15.2852 5.62686C16.5026 6.5977 17.355 7.95258 17.7031 9.47031C16.237 10.8505 14.2527 12.2659 12.369 13.3487C10.0014 14.7073 7.94748 15.5547 6.30951 16.0187C5.30067 15.0778 4.59847 13.855 4.29433 12.5094C3.99019 11.1638 4.09821 9.75785 4.60431 8.47452C5.11041 7.19119 5.99115 6.08995 7.13188 5.31417C8.2726 4.5384 9.62046 4.12402 11 4.125ZM2.12608 16.0952C2.00061 15.8795 2.07022 15.473 2.31686 14.978C2.56075 14.5143 2.85749 14.0803 3.20115 13.6847C3.54181 14.6717 4.06673 15.585 4.74803 16.3762C3.26561 16.6255 2.34092 16.4665 2.12608 16.0952ZM11 17.875C9.8408 17.8762 8.70039 17.5822 7.68623 17.0208C9.54772 16.3624 11.3438 15.5321 13.0513 14.5406C14.9058 13.4759 16.5472 12.3217 17.8698 11.1822C17.8208 12.9724 17.0758 14.673 15.7931 15.9227C14.5103 17.1724 12.7909 17.8728 11 17.875ZM19.8876 6.5046C19.7415 7.04687 19.3557 7.66734 18.8022 8.32046C18.4625 7.33229 17.9375 6.41793 17.2554 5.62632C18.4765 5.42437 19.6075 5.43984 19.8765 5.90476C19.9538 6.03968 19.9581 6.24164 19.8876 6.5046Z" fill="#C7D7FE"/>
</svg>
