<svg width="22" height="22" viewBox="0 0 22 22" fill="none" xmlns="http://www.w3.org/2000/svg">
<path d="M18.5625 11C18.5625 12.4957 18.119 13.9579 17.288 15.2015C16.457 16.4451 15.2759 17.4145 13.894 17.9868C12.5122 18.5592 10.9916 18.709 9.52463 18.4172C8.05765 18.1254 6.71014 17.4051 5.65251 16.3475C4.59487 15.2899 3.87462 13.9424 3.58281 12.4754C3.29101 11.0084 3.44078 9.48782 4.01316 8.10596C4.58555 6.72409 5.55486 5.54299 6.7985 4.71201C8.04215 3.88103 9.50428 3.4375 11 3.4375C13.0057 3.4375 14.9293 4.23426 16.3475 5.65251C17.7657 7.07075 18.5625 8.9943 18.5625 11Z" fill="#D0D5DD"/>
<path d="M21.0641 5.2145C20.4067 4.08098 18.6716 3.82575 16.0368 4.47028C14.8169 3.52707 13.357 2.94487 11.8229 2.78983C10.2887 2.63479 8.74184 2.91312 7.35795 3.5932C5.97407 4.27329 4.80865 5.32786 3.99411 6.63712C3.17956 7.94638 2.74853 9.45785 2.74998 10.9998C2.75009 11.3535 2.77248 11.7068 2.81701 12.0577C0.437404 14.5232 0.471779 15.9842 0.936701 16.7851C1.37498 17.5448 2.28936 17.8748 3.49248 17.8748C4.32781 17.8575 5.15822 17.7422 5.96662 17.5311C7.1866 18.4734 8.64634 19.0547 10.1801 19.2092C11.7139 19.3636 13.2602 19.0849 14.6435 18.4047C16.0269 17.7246 17.1918 16.6702 18.0061 15.3612C18.8203 14.0523 19.2513 12.5413 19.25 10.9998C19.2502 10.6479 19.2281 10.2962 19.1838 9.94708C20.258 8.82989 20.973 7.76856 21.2162 6.8602C21.3838 6.23114 21.3331 5.6777 21.0641 5.2145ZM11 4.12481C12.5571 4.12641 14.0677 4.65585 15.2852 5.62668C16.5026 6.59752 17.355 7.9524 17.7031 9.47012C16.237 10.8503 14.2527 12.2657 12.369 13.3485C10.0014 14.7072 7.94748 15.5545 6.30951 16.0186C5.30067 15.0776 4.59847 13.8548 4.29433 12.5092C3.99019 11.1636 4.09821 9.75767 4.60431 8.47434C5.11041 7.19101 5.99115 6.08977 7.13188 5.31399C8.2726 4.53822 9.62046 4.12384 11 4.12481ZM2.12608 16.095C2.00061 15.8793 2.07022 15.4729 2.31686 14.9779C2.56075 14.5141 2.85749 14.0801 3.20115 13.6845C3.54181 14.6715 4.06673 15.5848 4.74803 16.3761C3.26561 16.6253 2.34092 16.4663 2.12608 16.095ZM11 17.8748C9.8408 17.876 8.70039 17.582 7.68623 17.0206C9.54772 16.3622 11.3438 15.5319 13.0513 14.5404C14.9058 13.4757 16.5472 12.3215 17.8698 11.182C17.8208 12.9722 17.0758 14.6728 15.7931 15.9225C14.5103 17.1722 12.7909 17.8726 11 17.8748ZM19.8876 6.50442C19.7415 7.04669 19.3557 7.66716 18.8022 8.32028C18.4625 7.33211 17.9375 6.41775 17.2554 5.62614C18.4765 5.42419 19.6075 5.43966 19.8765 5.90458C19.9538 6.0395 19.9581 6.24145 19.8876 6.50442Z" fill="#101828"/>
</svg>
