<svg width="128" height="40" viewBox="0 0 128 40" fill="none" xmlns="http://www.w3.org/2000/svg">
<g clip-path="url(#clip0_6780_60205)">
<path d="M16.0114 14.2727V18.5455H26.3503C26.0758 20.9091 25.2523 22.7273 23.9714 23.9091C22.5075 25.3636 20.1287 27 16.0114 27C9.69836 27 4.75768 21.9091 4.75768 15.6364C4.75768 9.36364 9.60686 4.27273 16.0114 4.27273C19.3967 4.27273 21.9585 5.63636 23.7884 7.36364L26.8077 4.36364C24.2459 1.90909 20.7691 0 16.0114 0C7.31951 0 0 7 0 15.6364C0 24.2727 7.31951 31.2727 16.0114 31.2727C20.6776 31.2727 24.2459 29.7273 26.9907 26.9091C29.827 24.0909 30.742 20.0909 30.742 16.9091C30.742 15.9091 30.6505 15 30.559 14.2727H16.0114Z" fill="#4285F4"/>
<path d="M43.5501 10.7285C37.9689 10.7285 33.3027 15.0012 33.3027 20.8194C33.3027 26.6376 37.8774 30.9103 43.5501 30.9103C49.2227 30.9103 53.7974 26.7285 53.7974 20.9103C53.7974 15.0012 49.2227 10.7285 43.5501 10.7285ZM43.5501 27.0012C40.4393 27.0012 37.7859 24.4558 37.7859 20.9103C37.7859 17.274 40.4393 14.8194 43.5501 14.8194C46.6608 14.8194 49.3142 17.274 49.3142 20.9103C49.3142 24.4558 46.6608 27.0012 43.5501 27.0012Z" fill="#EA4335"/>
<path d="M93.5985 13.0012H93.4155C92.409 11.8194 90.4877 10.7285 88.0173 10.7285C82.8937 10.7285 78.502 15.0922 78.502 20.8194C78.502 26.4558 82.8937 30.9103 88.0173 30.9103C90.4877 30.9103 92.409 29.8194 93.4155 28.6376H93.5985V30.0922C93.5985 33.9103 91.4941 36.0012 88.2003 36.0012C85.4555 36.0012 83.8086 34.0922 83.0766 32.3649L79.2339 34.0012C80.3318 36.6376 83.3511 40.0012 88.2918 40.0012C93.507 40.0012 97.9902 36.9103 97.9902 29.4558V11.274H93.7814V13.0012H93.5985ZM88.4748 27.0012C85.364 27.0012 83.0766 24.3649 83.0766 20.9103C83.0766 17.3649 85.4555 14.8194 88.4748 14.8194C91.4941 14.8194 93.8729 17.4558 93.8729 21.0012C93.9644 24.4558 91.5856 27.0012 88.4748 27.0012Z" fill="#4285F4"/>
<path d="M66.3333 10.7285C60.7521 10.7285 56.0859 15.0012 56.0859 20.8194C56.0859 26.6376 60.6606 30.9103 66.3333 30.9103C72.0059 30.9103 76.5806 26.7285 76.5806 20.9103C76.5806 15.0012 72.0059 10.7285 66.3333 10.7285ZM66.3333 27.0012C63.2225 27.0012 60.5691 24.4558 60.5691 20.9103C60.5691 17.274 63.2225 14.8194 66.3333 14.8194C69.4441 14.8194 72.0974 17.274 72.0974 20.9103C72.0974 24.4558 69.4441 27.0012 66.3333 27.0012Z" fill="#FBBC05"/>
<path d="M101.375 0.454102H105.767V30.9996H101.375V0.454102Z" fill="#34A853"/>
<path d="M119.307 27.0012C117.019 27.0012 115.464 26.0012 114.366 23.9103L127.998 18.3649L127.541 17.1831C126.718 14.9103 124.064 10.7285 118.849 10.7285C113.634 10.7285 109.242 14.8194 109.242 20.8194C109.242 26.4558 113.542 30.9103 119.307 30.9103C123.973 30.9103 126.626 28.0921 127.815 26.4558L124.339 24.1831C123.149 25.9103 121.594 27.0012 119.307 27.0012ZM119.032 14.5467C120.862 14.5467 122.417 15.4558 122.875 16.7285L113.725 20.5467C113.634 16.3649 116.745 14.5467 119.032 14.5467Z" fill="#EA4335"/>
</g>
<defs>
<clipPath id="clip0_6780_60205">
<rect width="128" height="40" fill="white"/>
</clipPath>
</defs>
</svg>
