<svg width="22" height="22" viewBox="0 0 22 22" fill="none" xmlns="http://www.w3.org/2000/svg">
<path d="M13.75 16.5L17.1875 13.0625L18.2188 12.0312L21.3125 9.96875L18.5625 4.8125L15.7541 6.06977L11 4.8125L6.24594 6.06977L3.09375 4.8125L0.6875 10.3125L3.4375 11.6875L8.25 15.125L13.75 16.5Z" fill="#6172F3"/>
<path d="M21.8537 9.27286L19.6606 4.88489C19.5798 4.72339 19.468 4.57938 19.3315 4.46109C19.195 4.3428 19.0366 4.25255 18.8653 4.19549C18.694 4.13843 18.5131 4.11568 18.3329 4.12854C18.1528 4.1414 17.977 4.18962 17.8155 4.27044L15.6782 5.33864L11.176 4.14755C11.0604 4.11748 10.9391 4.11748 10.8236 4.14755L6.32134 5.33864L4.18408 4.27044C4.02258 4.18962 3.84675 4.1414 3.66663 4.12854C3.4865 4.11568 3.3056 4.13843 3.13426 4.19549C2.96293 4.25255 2.80451 4.3428 2.66806 4.46109C2.53161 4.57938 2.41979 4.72339 2.339 4.88489L0.145873 9.272C0.065054 9.43349 0.0168381 9.60932 0.00397886 9.78945C-0.00888041 9.96958 0.0138688 10.1505 0.0709274 10.3218C0.127986 10.4931 0.218236 10.6516 0.336524 10.788C0.454812 10.9245 0.598821 11.0363 0.760326 11.1171L3.08064 12.2781L7.84931 15.6838C7.91958 15.7338 7.99856 15.7702 8.0822 15.7912L13.5822 17.1662C13.6974 17.1951 13.8181 17.1937 13.9325 17.162C14.047 17.1304 14.1513 17.0697 14.2353 16.9858L18.9679 12.2523L21.2384 11.1171C21.5643 10.9539 21.8121 10.668 21.9274 10.3222C22.0426 9.97634 22.0158 9.59892 21.8528 9.27286H21.8537ZM17.1366 12.1406L14.1795 9.77216C14.047 9.66606 13.88 9.61272 13.7105 9.6224C13.5411 9.63208 13.3812 9.70409 13.2617 9.82458C11.7311 11.3663 10.0252 11.1712 8.93728 10.4837L12.6532 6.87434H15.3869L17.7252 11.5502L17.1366 12.1406ZM3.56876 5.49934L5.3279 6.37763L3.13048 10.7647L1.37478 9.88731L3.56876 5.49934ZM13.5375 15.7371L8.54369 14.4893L4.31556 11.4694L6.72181 6.65692L10.9998 5.52341L11.842 5.74598L7.97478 9.49973L7.9679 9.50747C7.82233 9.65304 7.7113 9.82944 7.64302 10.0237C7.57473 10.2179 7.55093 10.4249 7.57336 10.6296C7.5958 10.8342 7.6639 11.0312 7.77264 11.206C7.88139 11.3808 8.028 11.529 8.20165 11.6396C9.96853 12.7679 12.1006 12.5849 13.7799 11.2099L16.156 13.1186L13.5375 15.7371ZM18.8656 10.7639L16.6725 6.38106L18.4308 5.49934L20.6248 9.88731L18.8656 10.7639Z" fill="#C7D7FE"/>
</svg>
