<svg width="22" height="22" viewBox="0 0 22 22" fill="none" xmlns="http://www.w3.org/2000/svg">
<path d="M13.75 16.5L17.1875 13.0625L18.2188 12.0312L21.3125 9.96875L18.5625 4.8125L15.7541 6.06977L11 4.8125L6.24594 6.06977L3.09375 4.8125L0.6875 10.3125L3.4375 11.6875L8.25 15.125L13.75 16.5Z" fill="#D0D5DD"/>
<path d="M21.8537 9.27335L19.6606 4.88538C19.5798 4.72387 19.468 4.57986 19.3315 4.46158C19.195 4.34329 19.0366 4.25304 18.8653 4.19598C18.694 4.13892 18.5131 4.11617 18.3329 4.12903C18.1528 4.14189 17.977 4.19011 17.8155 4.27093L15.6782 5.33913L11.176 4.14804C11.0604 4.11797 10.9391 4.11797 10.8236 4.14804L6.32134 5.33913L4.18408 4.27093C4.02258 4.19011 3.84675 4.14189 3.66663 4.12903C3.4865 4.11617 3.3056 4.13892 3.13426 4.19598C2.96293 4.25304 2.80451 4.34329 2.66806 4.46158C2.53161 4.57986 2.41979 4.72387 2.339 4.88538L0.145873 9.27249C0.065054 9.43398 0.0168381 9.60981 0.00397886 9.78994C-0.00888041 9.97007 0.0138688 10.151 0.0709274 10.3223C0.127986 10.4936 0.218236 10.6521 0.336524 10.7885C0.454812 10.925 0.598821 11.0368 0.760326 11.1176L3.08064 12.2786L7.84931 15.6843C7.91958 15.7343 7.99856 15.7707 8.0822 15.7917L13.5822 17.1667C13.6974 17.1956 13.8181 17.1942 13.9325 17.1625C14.047 17.1309 14.1513 17.0702 14.2353 16.9862L18.9679 12.2528L21.2384 11.1176C21.5643 10.9544 21.8121 10.6685 21.9274 10.3227C22.0426 9.97683 22.0158 9.59941 21.8528 9.27335H21.8537ZM17.1366 12.1411L14.1795 9.77264C14.047 9.66655 13.88 9.61321 13.7105 9.62289C13.5411 9.63257 13.3812 9.70458 13.2617 9.82507C11.7311 11.3668 10.0252 11.1717 8.93728 10.4842L12.6532 6.87483H15.3869L17.7252 11.5507L17.1366 12.1411ZM3.56876 5.49983L5.3279 6.37811L3.13048 10.7652L1.37478 9.8878L3.56876 5.49983ZM13.5375 15.7376L8.54369 14.4898L4.31556 11.4699L6.72181 6.65741L10.9998 5.52389L11.842 5.74647L7.97478 9.50022L7.9679 9.50796C7.82233 9.65353 7.7113 9.82993 7.64302 10.0241C7.57473 10.2184 7.55093 10.4254 7.57336 10.6301C7.5958 10.8347 7.6639 11.0317 7.77264 11.2065C7.88139 11.3813 8.028 11.5295 8.20165 11.6401C9.96853 12.7684 12.1006 12.5854 13.7799 11.2104L16.156 13.1191L13.5375 15.7376ZM18.8656 10.7644L16.6725 6.38155L18.4308 5.49983L20.6248 9.8878L18.8656 10.7644Z" fill="#667085"/>
</svg>
