<svg width="816" height="465" viewBox="0 0 816 465" fill="none" xmlns="http://www.w3.org/2000/svg">
<mask id="mask0_6139_40265" style="mask-type:alpha" maskUnits="userSpaceOnUse" x="0" y="0" width="816" height="465">
<rect width="815.59" height="464.433" fill="url(#paint0_radial_6139_40265)"/>
</mask>
<g mask="url(#mask0_6139_40265)">
<path fill-rule="evenodd" clip-rule="evenodd" d="M45.2133 11.5664H5.56662V51.2131H45.2133V11.5664ZM5.00024 11V51.7795H45.7797V11H5.00024Z" fill="white"/>
<path fill-rule="evenodd" clip-rule="evenodd" d="M85.4264 11.5664H45.7797V51.2131H85.4264V11.5664ZM45.2133 11V51.7795H85.9928V11H45.2133Z" fill="white"/>
<path fill-rule="evenodd" clip-rule="evenodd" d="M125.64 11.5664H85.9928V51.2131H125.64V11.5664ZM85.4264 11V51.7795H126.206V11H85.4264Z" fill="white"/>
<path fill-rule="evenodd" clip-rule="evenodd" d="M165.853 11.5664H126.206V51.2131H165.853V11.5664ZM125.64 11V51.7795H166.419V11H125.64Z" fill="white"/>
<path fill-rule="evenodd" clip-rule="evenodd" d="M206.066 11.5664H166.419V51.2131H206.066V11.5664ZM165.853 11V51.7795H206.632V11H165.853Z" fill="white"/>
<path fill-rule="evenodd" clip-rule="evenodd" d="M246.279 11.5664H206.632V51.2131H246.279V11.5664ZM206.066 11V51.7795H246.845V11H206.066Z" fill="white"/>
<path fill-rule="evenodd" clip-rule="evenodd" d="M286.492 11.5664H246.845V51.2131H286.492V11.5664ZM246.279 11V51.7795H287.058V11H246.279Z" fill="white"/>
<path fill-rule="evenodd" clip-rule="evenodd" d="M326.705 11.5664H287.058V51.2131H326.705V11.5664ZM286.492 11V51.7795H327.271V11H286.492Z" fill="white"/>
<path fill-rule="evenodd" clip-rule="evenodd" d="M366.918 11.5664H327.271V51.2131H366.918V11.5664ZM326.705 11V51.7795H367.484V11H326.705Z" fill="white"/>
<path fill-rule="evenodd" clip-rule="evenodd" d="M407.131 11.5664H367.484V51.2131H407.131V11.5664ZM366.918 11V51.7795H407.698V11H366.918Z" fill="white"/>
<path fill-rule="evenodd" clip-rule="evenodd" d="M447.344 11.5664H407.698V51.2131H447.344V11.5664ZM407.131 11V51.7795H447.911V11H407.131Z" fill="white"/>
<path fill-rule="evenodd" clip-rule="evenodd" d="M487.557 11.5664H447.911V51.2131H487.557V11.5664ZM447.344 11V51.7795H488.124V11H447.344Z" fill="white"/>
<path fill-rule="evenodd" clip-rule="evenodd" d="M527.77 11.5664H488.124V51.2131H527.77V11.5664ZM487.557 11V51.7795H528.337V11H487.557Z" fill="white"/>
<path fill-rule="evenodd" clip-rule="evenodd" d="M567.984 11.5664H528.337V51.2131H567.984V11.5664ZM527.77 11V51.7795H568.55V11H527.77Z" fill="white"/>
<path fill-rule="evenodd" clip-rule="evenodd" d="M608.197 11.5664H568.55V51.2131H608.197V11.5664ZM567.984 11V51.7795H608.763V11H567.984Z" fill="white"/>
<path fill-rule="evenodd" clip-rule="evenodd" d="M648.41 11.5664H608.763V51.2131H648.41V11.5664ZM608.197 11V51.7795H648.976V11H608.197Z" fill="white"/>
<path fill-rule="evenodd" clip-rule="evenodd" d="M688.623 11.5664H648.976V51.2131H688.623V11.5664ZM648.41 11V51.7795H689.189V11H648.41Z" fill="white"/>
<path fill-rule="evenodd" clip-rule="evenodd" d="M728.836 11.5664H689.189V51.2131H728.836V11.5664ZM688.623 11V51.7795H729.402V11H688.623Z" fill="white"/>
<path fill-rule="evenodd" clip-rule="evenodd" d="M769.049 11.5664H729.402V51.2131H769.049V11.5664ZM728.836 11V51.7795H769.615V11H728.836Z" fill="white"/>
<path fill-rule="evenodd" clip-rule="evenodd" d="M809.262 11.5664H769.615V51.2131H809.262V11.5664ZM769.049 11V51.7795H809.828V11H769.049Z" fill="white"/>
<path fill-rule="evenodd" clip-rule="evenodd" d="M45.2133 51.7795H5.56662V91.4262H45.2133V51.7795ZM5.00024 51.2131V91.9926H45.7797V51.2131H5.00024Z" fill="white"/>
<path fill-rule="evenodd" clip-rule="evenodd" d="M85.4264 51.7795H45.7797V91.4262H85.4264V51.7795ZM45.2133 51.2131V91.9926H85.9928V51.2131H45.2133Z" fill="white"/>
<path fill-rule="evenodd" clip-rule="evenodd" d="M125.64 51.7795H85.9928V91.4262H125.64V51.7795ZM85.4264 51.2131V91.9926H126.206V51.2131H85.4264Z" fill="white"/>
<path fill-rule="evenodd" clip-rule="evenodd" d="M165.853 51.7795H126.206V91.4262H165.853V51.7795ZM125.64 51.2131V91.9926H166.419V51.2131H125.64Z" fill="white"/>
<path fill-rule="evenodd" clip-rule="evenodd" d="M206.066 51.7795H166.419V91.4262H206.066V51.7795ZM165.853 51.2131V91.9926H206.632V51.2131H165.853Z" fill="white"/>
<path fill-rule="evenodd" clip-rule="evenodd" d="M246.279 51.7795H206.632V91.4262H246.279V51.7795ZM206.066 51.2131V91.9926H246.845V51.2131H206.066Z" fill="white"/>
<path fill-rule="evenodd" clip-rule="evenodd" d="M286.492 51.7795H246.845V91.4262H286.492V51.7795ZM246.279 51.2131V91.9926H287.058V51.2131H246.279Z" fill="white"/>
<path fill-rule="evenodd" clip-rule="evenodd" d="M326.705 51.7795H287.058V91.4262H326.705V51.7795ZM286.492 51.2131V91.9926H327.271V51.2131H286.492Z" fill="white"/>
<path fill-rule="evenodd" clip-rule="evenodd" d="M366.918 51.7795H327.271V91.4262H366.918V51.7795ZM326.705 51.2131V91.9926H367.484V51.2131H326.705Z" fill="white"/>
<path fill-rule="evenodd" clip-rule="evenodd" d="M407.131 51.7795H367.484V91.4262H407.131V51.7795ZM366.918 51.2131V91.9926H407.698V51.2131H366.918Z" fill="white"/>
<path fill-rule="evenodd" clip-rule="evenodd" d="M447.344 51.7795H407.698V91.4262H447.344V51.7795ZM407.131 51.2131V91.9926H447.911V51.2131H407.131Z" fill="white"/>
<path fill-rule="evenodd" clip-rule="evenodd" d="M487.557 51.7795H447.911V91.4262H487.557V51.7795ZM447.344 51.2131V91.9926H488.124V51.2131H447.344Z" fill="white"/>
<path fill-rule="evenodd" clip-rule="evenodd" d="M527.77 51.7795H488.124V91.4262H527.77V51.7795ZM487.557 51.2131V91.9926H528.337V51.2131H487.557Z" fill="white"/>
<path fill-rule="evenodd" clip-rule="evenodd" d="M567.984 51.7795H528.337V91.4262H567.984V51.7795ZM527.77 51.2131V91.9926H568.55V51.2131H527.77Z" fill="white"/>
<path fill-rule="evenodd" clip-rule="evenodd" d="M608.197 51.7795H568.55V91.4262H608.197V51.7795ZM567.984 51.2131V91.9926H608.763V51.2131H567.984Z" fill="white"/>
<path fill-rule="evenodd" clip-rule="evenodd" d="M648.41 51.7795H608.763V91.4262H648.41V51.7795ZM608.197 51.2131V91.9926H648.976V51.2131H608.197Z" fill="white"/>
<path fill-rule="evenodd" clip-rule="evenodd" d="M688.623 51.7795H648.976V91.4262H688.623V51.7795ZM648.41 51.2131V91.9926H689.189V51.2131H648.41Z" fill="white"/>
<path fill-rule="evenodd" clip-rule="evenodd" d="M728.836 51.7795H689.189V91.4262H728.836V51.7795ZM688.623 51.2131V91.9926H729.402V51.2131H688.623Z" fill="white"/>
<path fill-rule="evenodd" clip-rule="evenodd" d="M769.049 51.7795H729.402V91.4262H769.049V51.7795ZM728.836 51.2131V91.9926H769.615V51.2131H728.836Z" fill="white"/>
<path fill-rule="evenodd" clip-rule="evenodd" d="M809.262 51.7795H769.615V91.4262H809.262V51.7795ZM769.049 51.2131V91.9926H809.828V51.2131H769.049Z" fill="white"/>
<path fill-rule="evenodd" clip-rule="evenodd" d="M45.2133 91.9926H5.56662V131.639H45.2133V91.9926ZM5.00024 91.4262V132.206H45.7797V91.4262H5.00024Z" fill="white"/>
<path fill-rule="evenodd" clip-rule="evenodd" d="M85.4264 91.9926H45.7797V131.639H85.4264V91.9926ZM45.2133 91.4262V132.206H85.9928V91.4262H45.2133Z" fill="white"/>
<path fill-rule="evenodd" clip-rule="evenodd" d="M125.64 91.9926H85.9928V131.639H125.64V91.9926ZM85.4264 91.4262V132.206H126.206V91.4262H85.4264Z" fill="white"/>
<path fill-rule="evenodd" clip-rule="evenodd" d="M165.853 91.9926H126.206V131.639H165.853V91.9926ZM125.64 91.4262V132.206H166.419V91.4262H125.64Z" fill="white"/>
<path fill-rule="evenodd" clip-rule="evenodd" d="M206.066 91.9926H166.419V131.639H206.066V91.9926ZM165.853 91.4262V132.206H206.632V91.4262H165.853Z" fill="white"/>
<path fill-rule="evenodd" clip-rule="evenodd" d="M246.279 91.9926H206.632V131.639H246.279V91.9926ZM206.066 91.4262V132.206H246.845V91.4262H206.066Z" fill="white"/>
<path fill-rule="evenodd" clip-rule="evenodd" d="M286.492 91.9926H246.845V131.639H286.492V91.9926ZM246.279 91.4262V132.206H287.058V91.4262H246.279Z" fill="white"/>
<path fill-rule="evenodd" clip-rule="evenodd" d="M326.705 91.9926H287.058V131.639H326.705V91.9926ZM286.492 91.4262V132.206H327.271V91.4262H286.492Z" fill="white"/>
<path fill-rule="evenodd" clip-rule="evenodd" d="M366.918 91.9926H327.271V131.639H366.918V91.9926ZM326.705 91.4262V132.206H367.484V91.4262H326.705Z" fill="white"/>
<path fill-rule="evenodd" clip-rule="evenodd" d="M407.131 91.9926H367.484V131.639H407.131V91.9926ZM366.918 91.4262V132.206H407.698V91.4262H366.918Z" fill="white"/>
<path fill-rule="evenodd" clip-rule="evenodd" d="M447.344 91.9926H407.698V131.639H447.344V91.9926ZM407.131 91.4262V132.206H447.911V91.4262H407.131Z" fill="white"/>
<path fill-rule="evenodd" clip-rule="evenodd" d="M487.557 91.9926H447.911V131.639H487.557V91.9926ZM447.344 91.4262V132.206H488.124V91.4262H447.344Z" fill="white"/>
<path fill-rule="evenodd" clip-rule="evenodd" d="M527.77 91.9926H488.124V131.639H527.77V91.9926ZM487.557 91.4262V132.206H528.337V91.4262H487.557Z" fill="white"/>
<path fill-rule="evenodd" clip-rule="evenodd" d="M567.984 91.9926H528.337V131.639H567.984V91.9926ZM527.77 91.4262V132.206H568.55V91.4262H527.77Z" fill="white"/>
<path fill-rule="evenodd" clip-rule="evenodd" d="M608.197 91.9926H568.55V131.639H608.197V91.9926ZM567.984 91.4262V132.206H608.763V91.4262H567.984Z" fill="white"/>
<path fill-rule="evenodd" clip-rule="evenodd" d="M648.41 91.9926H608.763V131.639H648.41V91.9926ZM608.197 91.4262V132.206H648.976V91.4262H608.197Z" fill="white"/>
<path fill-rule="evenodd" clip-rule="evenodd" d="M688.623 91.9926H648.976V131.639H688.623V91.9926ZM648.41 91.4262V132.206H689.189V91.4262H648.41Z" fill="white"/>
<path fill-rule="evenodd" clip-rule="evenodd" d="M728.836 91.9926H689.189V131.639H728.836V91.9926ZM688.623 91.4262V132.206H729.402V91.4262H688.623Z" fill="white"/>
<path fill-rule="evenodd" clip-rule="evenodd" d="M769.049 91.9926H729.402V131.639H769.049V91.9926ZM728.836 91.4262V132.206H769.615V91.4262H728.836Z" fill="white"/>
<path fill-rule="evenodd" clip-rule="evenodd" d="M809.262 91.9926H769.615V131.639H809.262V91.9926ZM769.049 91.4262V132.206H809.828V91.4262H769.049Z" fill="white"/>
<path fill-rule="evenodd" clip-rule="evenodd" d="M45.2133 132.206H5.56662V171.852H45.2133V132.206ZM5.00024 131.639V172.419H45.7797V131.639H5.00024Z" fill="white"/>
<path fill-rule="evenodd" clip-rule="evenodd" d="M85.4264 132.206H45.7797V171.852H85.4264V132.206ZM45.2133 131.639V172.419H85.9928V131.639H45.2133Z" fill="white"/>
<path fill-rule="evenodd" clip-rule="evenodd" d="M125.64 132.206H85.9928V171.852H125.64V132.206ZM85.4264 131.639V172.419H126.206V131.639H85.4264Z" fill="white"/>
<path fill-rule="evenodd" clip-rule="evenodd" d="M165.853 132.206H126.206V171.852H165.853V132.206ZM125.64 131.639V172.419H166.419V131.639H125.64Z" fill="white"/>
<path fill-rule="evenodd" clip-rule="evenodd" d="M206.066 132.206H166.419V171.852H206.066V132.206ZM165.853 131.639V172.419H206.632V131.639H165.853Z" fill="white"/>
<path fill-rule="evenodd" clip-rule="evenodd" d="M246.279 132.206H206.632V171.852H246.279V132.206ZM206.066 131.639V172.419H246.845V131.639H206.066Z" fill="white"/>
<path fill-rule="evenodd" clip-rule="evenodd" d="M286.492 132.206H246.845V171.852H286.492V132.206ZM246.279 131.639V172.419H287.058V131.639H246.279Z" fill="white"/>
<path fill-rule="evenodd" clip-rule="evenodd" d="M326.705 132.206H287.058V171.852H326.705V132.206ZM286.492 131.639V172.419H327.271V131.639H286.492Z" fill="white"/>
<path fill-rule="evenodd" clip-rule="evenodd" d="M366.918 132.206H327.271V171.852H366.918V132.206ZM326.705 131.639V172.419H367.484V131.639H326.705Z" fill="white"/>
<path fill-rule="evenodd" clip-rule="evenodd" d="M407.131 132.206H367.484V171.852H407.131V132.206ZM366.918 131.639V172.419H407.698V131.639H366.918Z" fill="white"/>
<path fill-rule="evenodd" clip-rule="evenodd" d="M447.344 132.206H407.698V171.852H447.344V132.206ZM407.131 131.639V172.419H447.911V131.639H407.131Z" fill="white"/>
<path fill-rule="evenodd" clip-rule="evenodd" d="M487.557 132.206H447.911V171.852H487.557V132.206ZM447.344 131.639V172.419H488.124V131.639H447.344Z" fill="white"/>
<path fill-rule="evenodd" clip-rule="evenodd" d="M527.77 132.206H488.124V171.852H527.77V132.206ZM487.557 131.639V172.419H528.337V131.639H487.557Z" fill="white"/>
<path fill-rule="evenodd" clip-rule="evenodd" d="M567.984 132.206H528.337V171.852H567.984V132.206ZM527.77 131.639V172.419H568.55V131.639H527.77Z" fill="white"/>
<path fill-rule="evenodd" clip-rule="evenodd" d="M608.197 132.206H568.55V171.852H608.197V132.206ZM567.984 131.639V172.419H608.763V131.639H567.984Z" fill="white"/>
<path fill-rule="evenodd" clip-rule="evenodd" d="M648.41 132.206H608.763V171.852H648.41V132.206ZM608.197 131.639V172.419H648.976V131.639H608.197Z" fill="white"/>
<path fill-rule="evenodd" clip-rule="evenodd" d="M688.623 132.206H648.976V171.852H688.623V132.206ZM648.41 131.639V172.419H689.189V131.639H648.41Z" fill="white"/>
<path fill-rule="evenodd" clip-rule="evenodd" d="M728.836 132.206H689.189V171.852H728.836V132.206ZM688.623 131.639V172.419H729.402V131.639H688.623Z" fill="white"/>
<path fill-rule="evenodd" clip-rule="evenodd" d="M769.049 132.206H729.402V171.852H769.049V132.206ZM728.836 131.639V172.419H769.615V131.639H728.836Z" fill="white"/>
<path fill-rule="evenodd" clip-rule="evenodd" d="M809.262 132.206H769.615V171.852H809.262V132.206ZM769.049 131.639V172.419H809.828V131.639H769.049Z" fill="white"/>
<path fill-rule="evenodd" clip-rule="evenodd" d="M45.2133 172.419H5.56662V212.065H45.2133V172.419ZM5.00024 171.852V212.632H45.7797V171.852H5.00024Z" fill="white"/>
<path fill-rule="evenodd" clip-rule="evenodd" d="M85.4264 172.419H45.7797V212.065H85.4264V172.419ZM45.2133 171.852V212.632H85.9928V171.852H45.2133Z" fill="white"/>
<path fill-rule="evenodd" clip-rule="evenodd" d="M125.64 172.419H85.9928V212.065H125.64V172.419ZM85.4264 171.852V212.632H126.206V171.852H85.4264Z" fill="white"/>
<path fill-rule="evenodd" clip-rule="evenodd" d="M165.853 172.419H126.206V212.065H165.853V172.419ZM125.64 171.852V212.632H166.419V171.852H125.64Z" fill="white"/>
<path fill-rule="evenodd" clip-rule="evenodd" d="M206.066 172.419H166.419V212.065H206.066V172.419ZM165.853 171.852V212.632H206.632V171.852H165.853Z" fill="white"/>
<path fill-rule="evenodd" clip-rule="evenodd" d="M246.279 172.419H206.632V212.065H246.279V172.419ZM206.066 171.852V212.632H246.845V171.852H206.066Z" fill="white"/>
<path fill-rule="evenodd" clip-rule="evenodd" d="M286.492 172.419H246.845V212.065H286.492V172.419ZM246.279 171.852V212.632H287.058V171.852H246.279Z" fill="white"/>
<path fill-rule="evenodd" clip-rule="evenodd" d="M326.705 172.419H287.058V212.065H326.705V172.419ZM286.492 171.852V212.632H327.271V171.852H286.492Z" fill="white"/>
<path fill-rule="evenodd" clip-rule="evenodd" d="M366.918 172.419H327.271V212.065H366.918V172.419ZM326.705 171.852V212.632H367.484V171.852H326.705Z" fill="white"/>
<path fill-rule="evenodd" clip-rule="evenodd" d="M407.131 172.419H367.484V212.065H407.131V172.419ZM366.918 171.852V212.632H407.698V171.852H366.918Z" fill="white"/>
<path fill-rule="evenodd" clip-rule="evenodd" d="M447.344 172.419H407.698V212.065H447.344V172.419ZM407.131 171.852V212.632H447.911V171.852H407.131Z" fill="white"/>
<path fill-rule="evenodd" clip-rule="evenodd" d="M487.557 172.419H447.911V212.065H487.557V172.419ZM447.344 171.852V212.632H488.124V171.852H447.344Z" fill="white"/>
<path fill-rule="evenodd" clip-rule="evenodd" d="M527.77 172.419H488.124V212.065H527.77V172.419ZM487.557 171.852V212.632H528.337V171.852H487.557Z" fill="white"/>
<path fill-rule="evenodd" clip-rule="evenodd" d="M567.984 172.419H528.337V212.065H567.984V172.419ZM527.77 171.852V212.632H568.55V171.852H527.77Z" fill="white"/>
<path fill-rule="evenodd" clip-rule="evenodd" d="M608.197 172.419H568.55V212.065H608.197V172.419ZM567.984 171.852V212.632H608.763V171.852H567.984Z" fill="white"/>
<path fill-rule="evenodd" clip-rule="evenodd" d="M648.41 172.419H608.763V212.065H648.41V172.419ZM608.197 171.852V212.632H648.976V171.852H608.197Z" fill="white"/>
<path fill-rule="evenodd" clip-rule="evenodd" d="M688.623 172.419H648.976V212.065H688.623V172.419ZM648.41 171.852V212.632H689.189V171.852H648.41Z" fill="white"/>
<path fill-rule="evenodd" clip-rule="evenodd" d="M728.836 172.419H689.189V212.065H728.836V172.419ZM688.623 171.852V212.632H729.402V171.852H688.623Z" fill="white"/>
<path fill-rule="evenodd" clip-rule="evenodd" d="M769.049 172.419H729.402V212.065H769.049V172.419ZM728.836 171.852V212.632H769.615V171.852H728.836Z" fill="white"/>
<path fill-rule="evenodd" clip-rule="evenodd" d="M809.262 172.419H769.615V212.065H809.262V172.419ZM769.049 171.852V212.632H809.828V171.852H769.049Z" fill="white"/>
<path fill-rule="evenodd" clip-rule="evenodd" d="M45.2133 212.632H5.56662V252.279H45.2133V212.632ZM5.00024 212.065V252.845H45.7797V212.065H5.00024Z" fill="white"/>
<path fill-rule="evenodd" clip-rule="evenodd" d="M85.4264 212.632H45.7797V252.279H85.4264V212.632ZM45.2133 212.065V252.845H85.9928V212.065H45.2133Z" fill="white"/>
<path fill-rule="evenodd" clip-rule="evenodd" d="M125.64 212.632H85.9928V252.279H125.64V212.632ZM85.4264 212.065V252.845H126.206V212.065H85.4264Z" fill="white"/>
<path fill-rule="evenodd" clip-rule="evenodd" d="M165.853 212.632H126.206V252.279H165.853V212.632ZM125.64 212.065V252.845H166.419V212.065H125.64Z" fill="white"/>
<path fill-rule="evenodd" clip-rule="evenodd" d="M206.066 212.632H166.419V252.279H206.066V212.632ZM165.853 212.065V252.845H206.632V212.065H165.853Z" fill="white"/>
<path fill-rule="evenodd" clip-rule="evenodd" d="M246.279 212.632H206.632V252.279H246.279V212.632ZM206.066 212.065V252.845H246.845V212.065H206.066Z" fill="white"/>
<path fill-rule="evenodd" clip-rule="evenodd" d="M286.492 212.632H246.845V252.279H286.492V212.632ZM246.279 212.065V252.845H287.058V212.065H246.279Z" fill="white"/>
<path fill-rule="evenodd" clip-rule="evenodd" d="M326.705 212.632H287.058V252.279H326.705V212.632ZM286.492 212.065V252.845H327.271V212.065H286.492Z" fill="white"/>
<path fill-rule="evenodd" clip-rule="evenodd" d="M366.918 212.632H327.271V252.279H366.918V212.632ZM326.705 212.065V252.845H367.484V212.065H326.705Z" fill="white"/>
<path fill-rule="evenodd" clip-rule="evenodd" d="M407.131 212.632H367.484V252.279H407.131V212.632ZM366.918 212.065V252.845H407.698V212.065H366.918Z" fill="white"/>
<path fill-rule="evenodd" clip-rule="evenodd" d="M447.344 212.632H407.698V252.279H447.344V212.632ZM407.131 212.065V252.845H447.911V212.065H407.131Z" fill="white"/>
<path fill-rule="evenodd" clip-rule="evenodd" d="M487.557 212.632H447.911V252.279H487.557V212.632ZM447.344 212.065V252.845H488.124V212.065H447.344Z" fill="white"/>
<path fill-rule="evenodd" clip-rule="evenodd" d="M527.77 212.632H488.124V252.279H527.77V212.632ZM487.557 212.065V252.845H528.337V212.065H487.557Z" fill="white"/>
<path fill-rule="evenodd" clip-rule="evenodd" d="M567.984 212.632H528.337V252.279H567.984V212.632ZM527.77 212.065V252.845H568.55V212.065H527.77Z" fill="white"/>
<path fill-rule="evenodd" clip-rule="evenodd" d="M608.197 212.632H568.55V252.279H608.197V212.632ZM567.984 212.065V252.845H608.763V212.065H567.984Z" fill="white"/>
<path fill-rule="evenodd" clip-rule="evenodd" d="M648.41 212.632H608.763V252.279H648.41V212.632ZM608.197 212.065V252.845H648.976V212.065H608.197Z" fill="white"/>
<path fill-rule="evenodd" clip-rule="evenodd" d="M688.623 212.632H648.976V252.279H688.623V212.632ZM648.41 212.065V252.845H689.189V212.065H648.41Z" fill="white"/>
<path fill-rule="evenodd" clip-rule="evenodd" d="M728.836 212.632H689.189V252.279H728.836V212.632ZM688.623 212.065V252.845H729.402V212.065H688.623Z" fill="white"/>
<path fill-rule="evenodd" clip-rule="evenodd" d="M769.049 212.632H729.402V252.279H769.049V212.632ZM728.836 212.065V252.845H769.615V212.065H728.836Z" fill="white"/>
<path fill-rule="evenodd" clip-rule="evenodd" d="M809.262 212.632H769.615V252.279H809.262V212.632ZM769.049 212.065V252.845H809.828V212.065H769.049Z" fill="white"/>
<path fill-rule="evenodd" clip-rule="evenodd" d="M45.2133 252.845H5.56662V292.492H45.2133V252.845ZM5.00024 252.279V293.058H45.7797V252.279H5.00024Z" fill="white"/>
<path fill-rule="evenodd" clip-rule="evenodd" d="M85.4264 252.845H45.7797V292.492H85.4264V252.845ZM45.2133 252.279V293.058H85.9928V252.279H45.2133Z" fill="white"/>
<path fill-rule="evenodd" clip-rule="evenodd" d="M125.64 252.845H85.9928V292.492H125.64V252.845ZM85.4264 252.279V293.058H126.206V252.279H85.4264Z" fill="white"/>
<path fill-rule="evenodd" clip-rule="evenodd" d="M165.853 252.845H126.206V292.492H165.853V252.845ZM125.64 252.279V293.058H166.419V252.279H125.64Z" fill="white"/>
<path fill-rule="evenodd" clip-rule="evenodd" d="M206.066 252.845H166.419V292.492H206.066V252.845ZM165.853 252.279V293.058H206.632V252.279H165.853Z" fill="white"/>
<path fill-rule="evenodd" clip-rule="evenodd" d="M246.279 252.845H206.632V292.492H246.279V252.845ZM206.066 252.279V293.058H246.845V252.279H206.066Z" fill="white"/>
<path fill-rule="evenodd" clip-rule="evenodd" d="M286.492 252.845H246.845V292.492H286.492V252.845ZM246.279 252.279V293.058H287.058V252.279H246.279Z" fill="white"/>
<path fill-rule="evenodd" clip-rule="evenodd" d="M326.705 252.845H287.058V292.492H326.705V252.845ZM286.492 252.279V293.058H327.271V252.279H286.492Z" fill="white"/>
<path fill-rule="evenodd" clip-rule="evenodd" d="M366.918 252.845H327.271V292.492H366.918V252.845ZM326.705 252.279V293.058H367.484V252.279H326.705Z" fill="white"/>
<path fill-rule="evenodd" clip-rule="evenodd" d="M407.131 252.845H367.484V292.492H407.131V252.845ZM366.918 252.279V293.058H407.698V252.279H366.918Z" fill="white"/>
<path fill-rule="evenodd" clip-rule="evenodd" d="M447.344 252.845H407.698V292.492H447.344V252.845ZM407.131 252.279V293.058H447.911V252.279H407.131Z" fill="white"/>
<path fill-rule="evenodd" clip-rule="evenodd" d="M487.557 252.845H447.911V292.492H487.557V252.845ZM447.344 252.279V293.058H488.124V252.279H447.344Z" fill="white"/>
<path fill-rule="evenodd" clip-rule="evenodd" d="M527.77 252.845H488.124V292.492H527.77V252.845ZM487.557 252.279V293.058H528.337V252.279H487.557Z" fill="white"/>
<path fill-rule="evenodd" clip-rule="evenodd" d="M567.984 252.845H528.337V292.492H567.984V252.845ZM527.77 252.279V293.058H568.55V252.279H527.77Z" fill="white"/>
<path fill-rule="evenodd" clip-rule="evenodd" d="M608.197 252.845H568.55V292.492H608.197V252.845ZM567.984 252.279V293.058H608.763V252.279H567.984Z" fill="white"/>
<path fill-rule="evenodd" clip-rule="evenodd" d="M648.41 252.845H608.763V292.492H648.41V252.845ZM608.197 252.279V293.058H648.976V252.279H608.197Z" fill="white"/>
<path fill-rule="evenodd" clip-rule="evenodd" d="M688.623 252.845H648.976V292.492H688.623V252.845ZM648.41 252.279V293.058H689.189V252.279H648.41Z" fill="white"/>
<path fill-rule="evenodd" clip-rule="evenodd" d="M728.836 252.845H689.189V292.492H728.836V252.845ZM688.623 252.279V293.058H729.402V252.279H688.623Z" fill="white"/>
<path fill-rule="evenodd" clip-rule="evenodd" d="M769.049 252.845H729.402V292.492H769.049V252.845ZM728.836 252.279V293.058H769.615V252.279H728.836Z" fill="white"/>
<path fill-rule="evenodd" clip-rule="evenodd" d="M809.262 252.845H769.615V292.492H809.262V252.845ZM769.049 252.279V293.058H809.828V252.279H769.049Z" fill="white"/>
<path fill-rule="evenodd" clip-rule="evenodd" d="M45.2133 293.058H5.56662V332.705H45.2133V293.058ZM5.00024 292.492V333.271H45.7797V292.492H5.00024Z" fill="white"/>
<path fill-rule="evenodd" clip-rule="evenodd" d="M85.4264 293.058H45.7797V332.705H85.4264V293.058ZM45.2133 292.492V333.271H85.9928V292.492H45.2133Z" fill="white"/>
<path fill-rule="evenodd" clip-rule="evenodd" d="M125.64 293.058H85.9928V332.705H125.64V293.058ZM85.4264 292.492V333.271H126.206V292.492H85.4264Z" fill="white"/>
<path fill-rule="evenodd" clip-rule="evenodd" d="M165.853 293.058H126.206V332.705H165.853V293.058ZM125.64 292.492V333.271H166.419V292.492H125.64Z" fill="white"/>
<path fill-rule="evenodd" clip-rule="evenodd" d="M206.066 293.058H166.419V332.705H206.066V293.058ZM165.853 292.492V333.271H206.632V292.492H165.853Z" fill="white"/>
<path fill-rule="evenodd" clip-rule="evenodd" d="M246.279 293.058H206.632V332.705H246.279V293.058ZM206.066 292.492V333.271H246.845V292.492H206.066Z" fill="white"/>
<path fill-rule="evenodd" clip-rule="evenodd" d="M286.492 293.058H246.845V332.705H286.492V293.058ZM246.279 292.492V333.271H287.058V292.492H246.279Z" fill="white"/>
<path fill-rule="evenodd" clip-rule="evenodd" d="M326.705 293.058H287.058V332.705H326.705V293.058ZM286.492 292.492V333.271H327.271V292.492H286.492Z" fill="white"/>
<path fill-rule="evenodd" clip-rule="evenodd" d="M366.918 293.058H327.271V332.705H366.918V293.058ZM326.705 292.492V333.271H367.484V292.492H326.705Z" fill="white"/>
<path fill-rule="evenodd" clip-rule="evenodd" d="M407.131 293.058H367.484V332.705H407.131V293.058ZM366.918 292.492V333.271H407.698V292.492H366.918Z" fill="white"/>
<path fill-rule="evenodd" clip-rule="evenodd" d="M447.344 293.058H407.698V332.705H447.344V293.058ZM407.131 292.492V333.271H447.911V292.492H407.131Z" fill="white"/>
<path fill-rule="evenodd" clip-rule="evenodd" d="M487.557 293.058H447.911V332.705H487.557V293.058ZM447.344 292.492V333.271H488.124V292.492H447.344Z" fill="white"/>
<path fill-rule="evenodd" clip-rule="evenodd" d="M527.77 293.058H488.124V332.705H527.77V293.058ZM487.557 292.492V333.271H528.337V292.492H487.557Z" fill="white"/>
<path fill-rule="evenodd" clip-rule="evenodd" d="M567.984 293.058H528.337V332.705H567.984V293.058ZM527.77 292.492V333.271H568.55V292.492H527.77Z" fill="white"/>
<path fill-rule="evenodd" clip-rule="evenodd" d="M608.197 293.058H568.55V332.705H608.197V293.058ZM567.984 292.492V333.271H608.763V292.492H567.984Z" fill="white"/>
<path fill-rule="evenodd" clip-rule="evenodd" d="M648.41 293.058H608.763V332.705H648.41V293.058ZM608.197 292.492V333.271H648.976V292.492H608.197Z" fill="white"/>
<path fill-rule="evenodd" clip-rule="evenodd" d="M688.623 293.058H648.976V332.705H688.623V293.058ZM648.41 292.492V333.271H689.189V292.492H648.41Z" fill="white"/>
<path fill-rule="evenodd" clip-rule="evenodd" d="M728.836 293.058H689.189V332.705H728.836V293.058ZM688.623 292.492V333.271H729.402V292.492H688.623Z" fill="white"/>
<path fill-rule="evenodd" clip-rule="evenodd" d="M769.049 293.058H729.402V332.705H769.049V293.058ZM728.836 292.492V333.271H769.615V292.492H728.836Z" fill="white"/>
<path fill-rule="evenodd" clip-rule="evenodd" d="M809.262 293.058H769.615V332.705H809.262V293.058ZM769.049 292.492V333.271H809.828V292.492H769.049Z" fill="white"/>
<path fill-rule="evenodd" clip-rule="evenodd" d="M45.2133 333.271H5.56662V372.918H45.2133V333.271ZM5.00024 332.705V373.484H45.7797V332.705H5.00024Z" fill="white"/>
<path fill-rule="evenodd" clip-rule="evenodd" d="M85.4264 333.271H45.7797V372.918H85.4264V333.271ZM45.2133 332.705V373.484H85.9928V332.705H45.2133Z" fill="white"/>
<path fill-rule="evenodd" clip-rule="evenodd" d="M125.64 333.271H85.9928V372.918H125.64V333.271ZM85.4264 332.705V373.484H126.206V332.705H85.4264Z" fill="white"/>
<path fill-rule="evenodd" clip-rule="evenodd" d="M165.853 333.271H126.206V372.918H165.853V333.271ZM125.64 332.705V373.484H166.419V332.705H125.64Z" fill="white"/>
<path fill-rule="evenodd" clip-rule="evenodd" d="M206.066 333.271H166.419V372.918H206.066V333.271ZM165.853 332.705V373.484H206.632V332.705H165.853Z" fill="white"/>
<path fill-rule="evenodd" clip-rule="evenodd" d="M246.279 333.271H206.632V372.918H246.279V333.271ZM206.066 332.705V373.484H246.845V332.705H206.066Z" fill="white"/>
<path fill-rule="evenodd" clip-rule="evenodd" d="M286.492 333.271H246.845V372.918H286.492V333.271ZM246.279 332.705V373.484H287.058V332.705H246.279Z" fill="white"/>
<path fill-rule="evenodd" clip-rule="evenodd" d="M326.705 333.271H287.058V372.918H326.705V333.271ZM286.492 332.705V373.484H327.271V332.705H286.492Z" fill="white"/>
<path fill-rule="evenodd" clip-rule="evenodd" d="M366.918 333.271H327.271V372.918H366.918V333.271ZM326.705 332.705V373.484H367.484V332.705H326.705Z" fill="white"/>
<path fill-rule="evenodd" clip-rule="evenodd" d="M407.131 333.271H367.484V372.918H407.131V333.271ZM366.918 332.705V373.484H407.698V332.705H366.918Z" fill="white"/>
<path fill-rule="evenodd" clip-rule="evenodd" d="M447.344 333.271H407.698V372.918H447.344V333.271ZM407.131 332.705V373.484H447.911V332.705H407.131Z" fill="white"/>
<path fill-rule="evenodd" clip-rule="evenodd" d="M487.557 333.271H447.911V372.918H487.557V333.271ZM447.344 332.705V373.484H488.124V332.705H447.344Z" fill="white"/>
<path fill-rule="evenodd" clip-rule="evenodd" d="M527.77 333.271H488.124V372.918H527.77V333.271ZM487.557 332.705V373.484H528.337V332.705H487.557Z" fill="white"/>
<path fill-rule="evenodd" clip-rule="evenodd" d="M567.984 333.271H528.337V372.918H567.984V333.271ZM527.77 332.705V373.484H568.55V332.705H527.77Z" fill="white"/>
<path fill-rule="evenodd" clip-rule="evenodd" d="M608.197 333.271H568.55V372.918H608.197V333.271ZM567.984 332.705V373.484H608.763V332.705H567.984Z" fill="white"/>
<path fill-rule="evenodd" clip-rule="evenodd" d="M648.41 333.271H608.763V372.918H648.41V333.271ZM608.197 332.705V373.484H648.976V332.705H608.197Z" fill="white"/>
<path fill-rule="evenodd" clip-rule="evenodd" d="M688.623 333.271H648.976V372.918H688.623V333.271ZM648.41 332.705V373.484H689.189V332.705H648.41Z" fill="white"/>
<path fill-rule="evenodd" clip-rule="evenodd" d="M728.836 333.271H689.189V372.918H728.836V333.271ZM688.623 332.705V373.484H729.402V332.705H688.623Z" fill="white"/>
<path fill-rule="evenodd" clip-rule="evenodd" d="M769.049 333.271H729.402V372.918H769.049V333.271ZM728.836 332.705V373.484H769.615V332.705H728.836Z" fill="white"/>
<path fill-rule="evenodd" clip-rule="evenodd" d="M809.262 333.271H769.615V372.918H809.262V333.271ZM769.049 332.705V373.484H809.828V332.705H769.049Z" fill="white"/>
<path fill-rule="evenodd" clip-rule="evenodd" d="M45.2133 373.484H5.56662V413.131H45.2133V373.484ZM5.00024 372.918V413.697H45.7797V372.918H5.00024Z" fill="white"/>
<path fill-rule="evenodd" clip-rule="evenodd" d="M85.4264 373.484H45.7797V413.131H85.4264V373.484ZM45.2133 372.918V413.697H85.9928V372.918H45.2133Z" fill="white"/>
<path fill-rule="evenodd" clip-rule="evenodd" d="M125.64 373.484H85.9928V413.131H125.64V373.484ZM85.4264 372.918V413.697H126.206V372.918H85.4264Z" fill="white"/>
<path fill-rule="evenodd" clip-rule="evenodd" d="M165.853 373.484H126.206V413.131H165.853V373.484ZM125.64 372.918V413.697H166.419V372.918H125.64Z" fill="white"/>
<path fill-rule="evenodd" clip-rule="evenodd" d="M206.066 373.484H166.419V413.131H206.066V373.484ZM165.853 372.918V413.697H206.632V372.918H165.853Z" fill="white"/>
<path fill-rule="evenodd" clip-rule="evenodd" d="M246.279 373.484H206.632V413.131H246.279V373.484ZM206.066 372.918V413.697H246.845V372.918H206.066Z" fill="white"/>
<path fill-rule="evenodd" clip-rule="evenodd" d="M286.492 373.484H246.845V413.131H286.492V373.484ZM246.279 372.918V413.697H287.058V372.918H246.279Z" fill="white"/>
<path fill-rule="evenodd" clip-rule="evenodd" d="M326.705 373.484H287.058V413.131H326.705V373.484ZM286.492 372.918V413.697H327.271V372.918H286.492Z" fill="white"/>
<path fill-rule="evenodd" clip-rule="evenodd" d="M366.918 373.484H327.271V413.131H366.918V373.484ZM326.705 372.918V413.697H367.484V372.918H326.705Z" fill="white"/>
<path fill-rule="evenodd" clip-rule="evenodd" d="M407.131 373.484H367.484V413.131H407.131V373.484ZM366.918 372.918V413.697H407.698V372.918H366.918Z" fill="white"/>
<path fill-rule="evenodd" clip-rule="evenodd" d="M447.344 373.484H407.698V413.131H447.344V373.484ZM407.131 372.918V413.697H447.911V372.918H407.131Z" fill="white"/>
<path fill-rule="evenodd" clip-rule="evenodd" d="M487.557 373.484H447.911V413.131H487.557V373.484ZM447.344 372.918V413.697H488.124V372.918H447.344Z" fill="white"/>
<path fill-rule="evenodd" clip-rule="evenodd" d="M527.77 373.484H488.124V413.131H527.77V373.484ZM487.557 372.918V413.697H528.337V372.918H487.557Z" fill="white"/>
<path fill-rule="evenodd" clip-rule="evenodd" d="M567.984 373.484H528.337V413.131H567.984V373.484ZM527.77 372.918V413.697H568.55V372.918H527.77Z" fill="white"/>
<path fill-rule="evenodd" clip-rule="evenodd" d="M608.197 373.484H568.55V413.131H608.197V373.484ZM567.984 372.918V413.697H608.763V372.918H567.984Z" fill="white"/>
<path fill-rule="evenodd" clip-rule="evenodd" d="M648.41 373.484H608.763V413.131H648.41V373.484ZM608.197 372.918V413.697H648.976V372.918H608.197Z" fill="white"/>
<path fill-rule="evenodd" clip-rule="evenodd" d="M688.623 373.484H648.976V413.131H688.623V373.484ZM648.41 372.918V413.697H689.189V372.918H648.41Z" fill="white"/>
<path fill-rule="evenodd" clip-rule="evenodd" d="M728.836 373.484H689.189V413.131H728.836V373.484ZM688.623 372.918V413.697H729.402V372.918H688.623Z" fill="white"/>
<path fill-rule="evenodd" clip-rule="evenodd" d="M769.049 373.484H729.402V413.131H769.049V373.484ZM728.836 372.918V413.697H769.615V372.918H728.836Z" fill="white"/>
<path fill-rule="evenodd" clip-rule="evenodd" d="M809.262 373.484H769.615V413.131H809.262V373.484ZM769.049 372.918V413.697H809.828V372.918H769.049Z" fill="white"/>
<path fill-rule="evenodd" clip-rule="evenodd" d="M45.2133 413.697H5.56662V453.344H45.2133V413.697ZM5.00024 413.131V453.91H45.7797V413.131H5.00024Z" fill="white"/>
<path fill-rule="evenodd" clip-rule="evenodd" d="M85.4264 413.697H45.7797V453.344H85.4264V413.697ZM45.2133 413.131V453.91H85.9928V413.131H45.2133Z" fill="white"/>
<path fill-rule="evenodd" clip-rule="evenodd" d="M125.64 413.697H85.9928V453.344H125.64V413.697ZM85.4264 413.131V453.91H126.206V413.131H85.4264Z" fill="white"/>
<path fill-rule="evenodd" clip-rule="evenodd" d="M165.853 413.697H126.206V453.344H165.853V413.697ZM125.64 413.131V453.91H166.419V413.131H125.64Z" fill="white"/>
<path fill-rule="evenodd" clip-rule="evenodd" d="M206.066 413.697H166.419V453.344H206.066V413.697ZM165.853 413.131V453.91H206.632V413.131H165.853Z" fill="white"/>
<path fill-rule="evenodd" clip-rule="evenodd" d="M246.279 413.697H206.632V453.344H246.279V413.697ZM206.066 413.131V453.91H246.845V413.131H206.066Z" fill="white"/>
<path fill-rule="evenodd" clip-rule="evenodd" d="M286.492 413.697H246.845V453.344H286.492V413.697ZM246.279 413.131V453.91H287.058V413.131H246.279Z" fill="white"/>
<path fill-rule="evenodd" clip-rule="evenodd" d="M326.705 413.697H287.058V453.344H326.705V413.697ZM286.492 413.131V453.91H327.271V413.131H286.492Z" fill="white"/>
<path fill-rule="evenodd" clip-rule="evenodd" d="M366.918 413.697H327.271V453.344H366.918V413.697ZM326.705 413.131V453.91H367.484V413.131H326.705Z" fill="white"/>
<path fill-rule="evenodd" clip-rule="evenodd" d="M407.131 413.697H367.484V453.344H407.131V413.697ZM366.918 413.131V453.91H407.698V413.131H366.918Z" fill="white"/>
<path fill-rule="evenodd" clip-rule="evenodd" d="M447.344 413.697H407.698V453.344H447.344V413.697ZM407.131 413.131V453.91H447.911V413.131H407.131Z" fill="white"/>
<path fill-rule="evenodd" clip-rule="evenodd" d="M487.557 413.697H447.911V453.344H487.557V413.697ZM447.344 413.131V453.91H488.124V413.131H447.344Z" fill="white"/>
<path fill-rule="evenodd" clip-rule="evenodd" d="M527.77 413.697H488.124V453.344H527.77V413.697ZM487.557 413.131V453.91H528.337V413.131H487.557Z" fill="white"/>
<path fill-rule="evenodd" clip-rule="evenodd" d="M567.984 413.697H528.337V453.344H567.984V413.697ZM527.77 413.131V453.91H568.55V413.131H527.77Z" fill="white"/>
<path fill-rule="evenodd" clip-rule="evenodd" d="M608.197 413.697H568.55V453.344H608.197V413.697ZM567.984 413.131V453.91H608.763V413.131H567.984Z" fill="white"/>
<path fill-rule="evenodd" clip-rule="evenodd" d="M648.41 413.697H608.763V453.344H648.41V413.697ZM608.197 413.131V453.91H648.976V413.131H608.197Z" fill="white"/>
<path fill-rule="evenodd" clip-rule="evenodd" d="M688.623 413.697H648.976V453.344H688.623V413.697ZM648.41 413.131V453.91H689.189V413.131H648.41Z" fill="white"/>
<path fill-rule="evenodd" clip-rule="evenodd" d="M728.836 413.697H689.189V453.344H728.836V413.697ZM688.623 413.131V453.91H729.402V413.131H688.623Z" fill="white"/>
<path fill-rule="evenodd" clip-rule="evenodd" d="M769.049 413.697H729.402V453.344H769.049V413.697ZM728.836 413.131V453.91H769.615V413.131H728.836Z" fill="white"/>
<path fill-rule="evenodd" clip-rule="evenodd" d="M809.262 413.697H769.615V453.344H809.262V413.697ZM769.049 413.131V453.91H809.828V413.131H769.049Z" fill="white"/>
</g>
<defs>
<radialGradient id="paint0_radial_6139_40265" cx="0" cy="0" r="1" gradientUnits="userSpaceOnUse" gradientTransform="translate(407.795 212.5) rotate(90) scale(199 249.851)">
<stop stop-color="#D9D9D9"/>
<stop offset="1" stop-color="#737373" stop-opacity="0"/>
</radialGradient>
</defs>
</svg>
