<svg width="22" height="22" viewBox="0 0 22 22" fill="none" xmlns="http://www.w3.org/2000/svg">
<path d="M19.25 6.1875V17.1875C19.25 17.3698 19.1776 17.5447 19.0486 17.6736C18.9197 17.8026 18.7448 17.875 18.5625 17.875H3.4375C3.25516 17.875 3.0803 17.8026 2.95136 17.6736C2.82243 17.5447 2.75 17.3698 2.75 17.1875V6.1875C2.75 6.00516 2.82243 5.8303 2.95136 5.70136C3.0803 5.57243 3.25516 5.5 3.4375 5.5H18.5625C18.7448 5.5 18.9197 5.57243 19.0486 5.70136C19.1776 5.8303 19.25 6.00516 19.25 6.1875Z" fill="#6172F3"/>
<path d="M18.5625 4.8125H15.125V4.125C15.125 3.57799 14.9077 3.05339 14.5209 2.66659C14.1341 2.2798 13.6095 2.0625 13.0625 2.0625H8.9375C8.39049 2.0625 7.86589 2.2798 7.47909 2.66659C7.0923 3.05339 6.875 3.57799 6.875 4.125V4.8125H3.4375C3.07283 4.8125 2.72309 4.95737 2.46523 5.21523C2.20737 5.47309 2.0625 5.82283 2.0625 6.1875V17.1875C2.0625 17.5522 2.20737 17.9019 2.46523 18.1598C2.72309 18.4176 3.07283 18.5625 3.4375 18.5625H18.5625C18.9272 18.5625 19.2769 18.4176 19.5348 18.1598C19.7926 17.9019 19.9375 17.5522 19.9375 17.1875V6.1875C19.9375 5.82283 19.7926 5.47309 19.5348 5.21523C19.2769 4.95737 18.9272 4.8125 18.5625 4.8125ZM8.25 4.125C8.25 3.94266 8.32243 3.7678 8.45136 3.63886C8.5803 3.50993 8.75516 3.4375 8.9375 3.4375H13.0625C13.2448 3.4375 13.4197 3.50993 13.5486 3.63886C13.6776 3.7678 13.75 3.94266 13.75 4.125V4.8125H8.25V4.125ZM18.5625 17.1875H3.4375V6.1875H18.5625V17.1875ZM13.75 11.6875C13.75 11.8698 13.6776 12.0447 13.5486 12.1736C13.4197 12.3026 13.2448 12.375 13.0625 12.375H11.6875V13.75C11.6875 13.9323 11.6151 14.1072 11.4861 14.2361C11.3572 14.3651 11.1823 14.4375 11 14.4375C10.8177 14.4375 10.6428 14.3651 10.5139 14.2361C10.3849 14.1072 10.3125 13.9323 10.3125 13.75V12.375H8.9375C8.75516 12.375 8.5803 12.3026 8.45136 12.1736C8.32243 12.0447 8.25 11.8698 8.25 11.6875C8.25 11.5052 8.32243 11.3303 8.45136 11.2014C8.5803 11.0724 8.75516 11 8.9375 11H10.3125V9.625C10.3125 9.44266 10.3849 9.2678 10.5139 9.13886C10.6428 9.00993 10.8177 8.9375 11 8.9375C11.1823 8.9375 11.3572 9.00993 11.4861 9.13886C11.6151 9.2678 11.6875 9.44266 11.6875 9.625V11H13.0625C13.2448 11 13.4197 11.0724 13.5486 11.2014C13.6776 11.3303 13.75 11.5052 13.75 11.6875Z" fill="#C7D7FE"/>
</svg>
