<svg width="22" height="22" viewBox="0 0 22 22" fill="none" xmlns="http://www.w3.org/2000/svg">
<path d="M18.5625 10.3126V18.5626H13.0625V13.0626H8.9375V18.5626H3.4375V10.3126C3.43743 10.2222 3.45515 10.1328 3.48966 10.0493C3.52416 9.96588 3.57477 9.89004 3.63859 9.82615L10.5136 2.95115C10.5774 2.88722 10.6533 2.83652 10.7367 2.80192C10.8202 2.76732 10.9097 2.74951 11 2.74951C11.0903 2.74951 11.1798 2.76732 11.2633 2.80192C11.3467 2.83652 11.4226 2.88722 11.4864 2.95115L18.3614 9.82615C18.4252 9.89004 18.4758 9.96588 18.5103 10.0493C18.5448 10.1328 18.5626 10.2222 18.5625 10.3126Z" fill="#6172F3"/>
<path d="M18.847 9.33942L11.972 2.46442C11.7141 2.20675 11.3645 2.06201 11 2.06201C10.6355 2.06201 10.2859 2.20675 10.0281 2.46442L3.15306 9.33942C3.02475 9.46677 2.92305 9.61835 2.85386 9.78536C2.78467 9.95237 2.74937 10.1315 2.75001 10.3122V18.5622C2.75001 18.7446 2.82244 18.9194 2.95137 19.0484C3.0803 19.1773 3.25517 19.2497 3.43751 19.2497H8.93751C9.11984 19.2497 9.29471 19.1773 9.42364 19.0484C9.55258 18.9194 9.62501 18.7446 9.62501 18.5622V13.7497H12.375V18.5622C12.375 18.7446 12.4474 18.9194 12.5764 19.0484C12.7053 19.1773 12.8802 19.2497 13.0625 19.2497H18.5625C18.7448 19.2497 18.9197 19.1773 19.0486 19.0484C19.1776 18.9194 19.25 18.7446 19.25 18.5622V10.3122C19.2507 10.1315 19.2154 9.95237 19.1462 9.78536C19.077 9.61835 18.9753 9.46677 18.847 9.33942ZM17.875 17.8747H13.75V13.0622C13.75 12.8799 13.6776 12.705 13.5486 12.5761C13.4197 12.4472 13.2448 12.3747 13.0625 12.3747H8.93751C8.75517 12.3747 8.5803 12.4472 8.45137 12.5761C8.32244 12.705 8.25001 12.8799 8.25001 13.0622V17.8747H4.12501V10.3122L11 3.43723L17.875 10.3122V17.8747Z" fill="#C7D7FE"/>
</svg>
