<svg width="22" height="22" viewBox="0 0 22 22" fill="none" xmlns="http://www.w3.org/2000/svg">
<path d="M13.75 20.1667L13.75 11.9167L20.1667 11.9167L20.1667 18.3334C20.1667 19.3459 19.3459 20.1667 18.3333 20.1667L13.75 20.1667Z" stroke="#667085" stroke-width="1.5" stroke-linecap="round"/>
<rect x="8.25" y="20.1667" width="8.25" height="5.5" transform="rotate(-90 8.25 20.1667)" stroke="#667085" stroke-width="1.5" stroke-linecap="round"/>
<path d="M3.66658 20.1667C2.65406 20.1667 1.83325 19.3459 1.83325 18.3334L1.83325 11.9167L8.24992 11.9167L8.24992 20.1667L3.66658 20.1667Z" stroke="#667085" stroke-width="1.5" stroke-linecap="round"/>
<rect x="1.83325" y="11.9167" width="4.58333" height="9.16667" transform="rotate(-90 1.83325 11.9167)" stroke="#667085" stroke-width="1.5" stroke-linecap="round"/>
<path d="M11 11.9167L11 1.83341L18.3333 1.83341C19.3459 1.83341 20.1667 2.65423 20.1667 3.66675L20.1667 11.9167L11 11.9167Z" stroke="#667085" stroke-width="1.5" stroke-linecap="round"/>
<path d="M1.83325 11.9167L1.83325 3.66674C1.83325 2.65422 2.65406 1.83341 3.66659 1.83341L18.3332 1.83341C19.3458 1.83341 20.1666 2.65423 20.1666 3.66675L20.1666 11.9168L1.83325 11.9167Z" stroke="#667085" stroke-width="1.5" stroke-linecap="round"/>
</svg>
