<svg width="28" height="28" viewBox="0 0 28 28" fill="none" xmlns="http://www.w3.org/2000/svg">
<path d="M25.25 15.125V5C25.25 3.7625 24.2375 2.75 23 2.75H5C3.7625 2.75 2.75 3.7625 2.75 5V16.25V18.5C2.75 19.7375 3.7625 20.75 5 20.75H16.25" stroke="white" stroke-width="1.6875" stroke-miterlimit="10" stroke-linecap="round" stroke-linejoin="round"/>
<path d="M25.25 15.125L19.625 8.375L12.875 17.375L7.25 12.875L2.75 16.25V18.5C2.75 19.7375 3.7625 20.75 5 20.75H16.25" stroke="white" stroke-width="1.6875" stroke-miterlimit="10" stroke-linecap="round" stroke-linejoin="round"/>
<path d="M8.375 8.375C8.99632 8.375 9.5 7.87132 9.5 7.25C9.5 6.62868 8.99632 6.125 8.375 6.125C7.75368 6.125 7.25 6.62868 7.25 7.25C7.25 7.87132 7.75368 8.375 8.375 8.375Z" fill="white" stroke="white" stroke-width="1.6875" stroke-miterlimit="10" stroke-linecap="round" stroke-linejoin="round"/>
<path d="M22.9179 18.1065C22.8641 18.0752 22.7951 18.0936 22.7639 18.1474L20.0439 22.8527C20.035 22.8681 20.0299 22.8853 20.0289 22.903L19.975 23.9013C19.97 23.9936 20.0724 24.0522 20.1495 24.0011L20.9759 23.4531C20.9904 23.4435 21.0024 23.4307 21.0111 23.4157L23.7317 18.7095C23.7628 18.6558 23.7445 18.5871 23.6909 18.5559L22.9179 18.1065Z" stroke="white" stroke-width="1.6875" stroke-miterlimit="10" stroke-linecap="round"/>
</svg>
