<svg width="20" height="20" viewBox="0 0 20 20" fill="none" xmlns="http://www.w3.org/2000/svg">
<g clip-path="url(#clip0_4049_6773)">
<g clip-path="url(#clip1_4049_6773)">
<path d="M0 8C0 5.1998 0 3.7996 0.545 2.73C1.02436 1.78923 1.78923 1.02436 2.73 0.545C3.7996 0 5.2 0 8 0H12C14.8002 0 16.2004 0 17.27 0.545C18.2108 1.02436 18.9756 1.78923 19.455 2.73C20 3.7996 20 5.2 20 8V12C20 14.8002 20 16.2004 19.455 17.27C18.9756 18.2108 18.2108 18.9756 17.27 19.455C16.2004 20 14.8 20 12 20H8C5.1998 20 3.7996 20 2.73 19.455C1.78923 18.9756 1.02436 18.2108 0.545 17.27C0 16.2004 0 14.8 0 12V8Z" fill="#179DE3"/>
<path d="M15.496 6.924C15.0434 6.75602 14.6323 6.49232 14.2909 6.15091C13.9495 5.80951 13.6858 5.39845 13.5178 4.9458C13.3496 5.39832 13.0859 5.80926 12.7445 6.1506C12.4031 6.49195 11.9921 6.75567 11.5396 6.9238C11.9921 7.09206 12.403 7.35589 12.7444 7.69729C13.0857 8.0387 13.3494 8.44967 13.5176 8.9022C13.6858 8.44962 13.9496 8.03863 14.291 7.69725C14.6324 7.35587 15.0434 7.09212 15.496 6.924Z" fill="white"/>
<path d="M10.0244 5H5.02441V15H15.0224V10L10.0244 14.998V5Z" fill="white"/>
</g>
</g>
<defs>
<clipPath id="clip0_4049_6773">
<rect width="20" height="20" fill="white"/>
</clipPath>
<clipPath id="clip1_4049_6773">
<rect width="20" height="20" fill="white"/>
</clipPath>
</defs>
</svg>
