<svg width="20" height="20" viewBox="0 0 20 20" fill="none" xmlns="http://www.w3.org/2000/svg">
<g clip-path="url(#clip0_4049_6782)">
<path d="M18.1918 5.98901C18.8936 7.26954 19.2929 8.73907 19.2929 10.3023C19.2929 13.6192 17.4954 16.5151 14.8224 18.0735L17.5685 10.1338C18.0814 8.85114 18.2522 7.82552 18.2522 6.91356C18.2522 6.58255 18.2304 6.27536 18.1918 5.98901ZM11.5414 6.08689C12.0826 6.05842 12.5704 6.00149 12.5704 6.00149C13.0548 5.94414 12.9977 5.23218 12.513 5.26054C12.513 5.26054 11.0567 5.37482 10.1166 5.37482C9.23321 5.37482 7.74876 5.26054 7.74876 5.26054C7.26389 5.23218 7.20706 5.97282 7.69172 6.00149C7.69172 6.00149 8.15035 6.05842 8.63479 6.08689L10.0354 9.9249L8.0676 15.8258L4.79372 6.08689C5.33541 6.05842 5.82261 6.00149 5.82261 6.00149C6.30674 5.94414 6.2496 5.23218 5.76515 5.26054C5.76515 5.26054 4.30916 5.37482 3.36895 5.37482C3.20027 5.37482 3.00143 5.3707 2.79032 5.36392C4.39795 2.92328 7.16114 1.31152 10.3023 1.31152C12.6429 1.31152 14.7741 2.20645 16.3736 3.67206C16.3348 3.66973 16.2971 3.66487 16.2572 3.66487C15.374 3.66487 14.7473 4.43418 14.7473 5.26054C14.7473 6.00149 15.1748 6.62838 15.6305 7.36923C15.9724 7.96806 16.3718 8.73728 16.3718 9.84881C16.3718 10.6182 16.0758 11.5113 15.6876 12.7553L14.7906 15.7516L11.5414 6.08689ZM10.3023 19.2937C9.41977 19.2937 8.56802 19.1643 7.7623 18.9274L10.4602 11.0887L13.2236 18.6601C13.2418 18.7045 13.2641 18.7455 13.2879 18.784C12.3534 19.113 11.3493 19.2937 10.3023 19.2937ZM1.31158 10.3023C1.31158 8.99876 1.59116 7.7614 2.0901 6.6433L6.37891 18.3938C3.37942 16.9367 1.31158 13.861 1.31158 10.3023ZM10.3023 0.302521C4.78832 0.302521 0.302368 4.78836 0.302368 10.3023C0.302368 15.8164 4.78832 20.3027 10.3023 20.3027C15.8162 20.3027 20.3024 15.8164 20.3024 10.3023C20.3024 4.78836 15.8162 0.302521 10.3023 0.302521Z" fill="#3F3C3C"/>
</g>
<defs>
<clipPath id="clip0_4049_6782">
<rect width="20" height="20" fill="white"/>
</clipPath>
</defs>
</svg>
