<svg width="20" height="20" viewBox="0 0 20 20" fill="none" xmlns="http://www.w3.org/2000/svg">
<path d="M10 10.0001C10 8.17791 11.4772 6.70068 13.2994 6.70068C15.1216 6.70068 16.5988 8.17791 16.5988 10.0001C16.5988 11.8223 15.1216 13.2995 13.2994 13.2995C11.4772 13.2995 10 11.8223 10 10.0001Z" fill="#1ABCFE"/>
<path d="M3.4012 16.5987C3.4012 14.7765 4.87839 13.2993 6.7006 13.2993H9.99999V16.5987C9.99999 18.4209 8.52282 19.8981 6.7006 19.8981C4.87839 19.8981 3.4012 18.4209 3.4012 16.5987Z" fill="#0ACF83"/>
<path d="M10 0.102051V6.70083H13.2994C15.1216 6.70083 16.5988 5.22365 16.5988 3.40145C16.5988 1.57924 15.1216 0.102051 13.2994 0.102051H10Z" fill="#FF7262"/>
<path d="M3.4012 3.40145C3.4012 5.22365 4.87839 6.70083 6.7006 6.70083H9.99999V0.102051H6.7006C4.87839 0.102051 3.4012 1.57924 3.4012 3.40145Z" fill="#F24E1E"/>
<path d="M3.4012 10.0001C3.4012 11.8223 4.87839 13.2995 6.7006 13.2995H9.99999V6.70068H6.7006C4.87839 6.70068 3.4012 8.17791 3.4012 10.0001Z" fill="#A259FF"/>
</svg>
