<svg width="20" height="20" viewBox="0 0 20 20" fill="none" xmlns="http://www.w3.org/2000/svg">
<path d="M4.36363 1.42937L9.99999 0.833496L15.6364 1.42937L20 7.28717L9.99999 18.9321L0 7.28717L4.36363 1.42937Z" fill="#FDB300"/>
<path d="M4.0505 7.28711L10 18.932L0 7.28711H4.0505Z" fill="#EA6C00"/>
<path d="M15.9495 7.28711L10 18.932L20 7.28711H15.9495Z" fill="#EA6C00"/>
<path d="M4.05054 7.28711H15.9495L10 18.932L4.05054 7.28711Z" fill="#FDAD00"/>
<path d="M10 0.833496L4.36366 1.42937L4.05054 7.28716L10 0.833496Z" fill="#FDD231"/>
<path d="M9.99996 0.833496L15.6363 1.42937L15.9495 7.28716L9.99996 0.833496Z" fill="#FDD231"/>
<path d="M20 7.28699L15.6363 1.4292L15.9495 7.28699H20Z" fill="#FDAD00"/>
<path d="M0 7.28699L4.36362 1.4292L4.0505 7.28699H0Z" fill="#FDAD00"/>
<path d="M10 0.833496L4.05054 7.28716H15.9495L10 0.833496Z" fill="#FEEEB7"/>
</svg>
