<svg width="22" height="22" viewBox="0 0 22 22" fill="none" xmlns="http://www.w3.org/2000/svg">
<path d="M19.25 4.8125V17.5312H2.75V4.8125C2.75 4.63016 2.82243 4.4553 2.95136 4.32636C3.0803 4.19743 3.25516 4.125 3.4375 4.125H18.5625C18.7448 4.125 18.9197 4.19743 19.0486 4.32636C19.1776 4.4553 19.25 4.63016 19.25 4.8125Z" fill="#D0D5DD"/>
<path d="M18.5625 3.4375H3.4375C3.07283 3.4375 2.72309 3.58237 2.46523 3.84023C2.20737 4.09809 2.0625 4.44783 2.0625 4.8125V17.1875C2.0625 17.5522 2.20737 17.9019 2.46523 18.1598C2.72309 18.4176 3.07283 18.5625 3.4375 18.5625H18.5625C18.9272 18.5625 19.2769 18.4176 19.5348 18.1598C19.7926 17.9019 19.9375 17.5522 19.9375 17.1875V4.8125C19.9375 4.44783 19.7926 4.09809 19.5348 3.84023C19.2769 3.58237 18.9272 3.4375 18.5625 3.4375ZM18.5625 4.8125V7.5625H3.4375V4.8125H18.5625ZM18.5625 17.1875H3.4375V8.9375H18.5625V17.1875Z" fill="#101828"/>
</svg>
