<svg width="121" height="24" viewBox="0 0 121 24" fill="none" xmlns="http://www.w3.org/2000/svg">
<g clip-path="url(#clip0_6698_59322)">
<g clip-path="url(#clip1_6698_59322)">
<path fill-rule="evenodd" clip-rule="evenodd" d="M8.34605 0.302246C7.02523 0.302246 5.75856 0.826931 4.82461 1.76088L0.317993 6.26747V8.3303C0.317993 9.78768 0.944007 11.0988 1.9418 12.0096C0.944007 12.9203 0.317993 14.2314 0.317993 15.6888V17.7516L4.82461 22.2583C5.75856 23.1922 7.02523 23.7169 8.34605 23.7169C9.80344 23.7169 11.1146 23.0909 12.0253 22.0931C12.936 23.0909 14.2472 23.7169 15.7046 23.7169C17.0254 23.7169 18.2921 23.1922 19.226 22.2583L23.7326 17.7516V15.6888C23.7326 14.2314 23.1066 12.9203 22.1088 12.0096C23.1066 11.0988 23.7326 9.78768 23.7326 8.3303V6.26747L19.226 1.76088C18.2921 0.826931 17.0254 0.302246 15.7046 0.302246C14.2472 0.302246 12.936 0.928258 12.0253 1.92606C11.1146 0.928258 9.80344 0.302246 8.34605 0.302246ZM15.3963 12.0096C15.3402 11.9583 15.2851 11.9057 15.2311 11.8517L12.0253 8.64593L8.8195 11.8517C8.76553 11.9057 8.71044 11.9583 8.65431 12.0096C8.71044 12.0608 8.76553 12.1134 8.8195 12.1674L12.0253 15.3732L15.2311 12.1674C15.2851 12.1134 15.3402 12.0608 15.3963 12.0096ZM13.3261 17.7516V18.7368C13.3261 20.0504 14.391 21.1153 15.7046 21.1153C16.3354 21.1153 16.9403 20.8647 17.3864 20.4186L21.131 16.674V15.6888C21.131 14.3753 20.0661 13.3104 18.7526 13.3104C18.1218 13.3104 17.5168 13.561 17.0708 14.007L13.3261 17.7516ZM10.7245 17.7516L6.97987 14.007C6.53382 13.561 5.92887 13.3104 5.29806 13.3104C3.98448 13.3104 2.91962 14.3753 2.91962 15.6888V16.674L6.66424 20.4186C7.11029 20.8647 7.71526 21.1153 8.34605 21.1153C9.65961 21.1153 10.7245 20.0504 10.7245 18.7368V17.7516ZM10.7245 5.28231V6.26747L6.97987 10.0121C6.53382 10.4582 5.92887 10.7088 5.29806 10.7088C3.98448 10.7088 2.91962 9.64386 2.91962 8.3303V7.34513L6.66424 3.6005C7.11029 3.15446 7.71526 2.90387 8.34605 2.90387C9.65961 2.90387 10.7245 3.96874 10.7245 5.28231ZM17.0708 10.0121L13.3261 6.26747V5.28231C13.3261 3.96874 14.391 2.90387 15.7046 2.90387C16.3354 2.90387 16.9403 3.15446 17.3864 3.6005L21.131 7.34513V8.3303C21.131 9.64386 20.0661 10.7088 18.7526 10.7088C18.1218 10.7088 17.5168 10.4582 17.0708 10.0121Z" fill="#667085"/>
</g>
<path d="M75.0103 7.53815H72.0991V16.7855H75.0103V7.53815Z" fill="#667085"/>
<path d="M72.4231 5.80661C72.7273 6.11105 73.1077 6.26327 73.5643 6.26327C74.0209 6.26327 74.3953 6.11105 74.6869 5.80661C74.9791 5.48951 75.1249 5.10893 75.1249 4.66496C75.1249 4.20831 74.9791 3.82774 74.6869 3.52332C74.3953 3.21886 74.0209 3.06665 73.5643 3.06665C73.1077 3.06665 72.7273 3.21886 72.4231 3.52332C72.1309 3.82774 71.9851 4.20831 71.9851 4.66496C71.9851 5.10893 72.1309 5.48951 72.4231 5.80661Z" fill="#667085"/>
<path d="M30.3326 16.7855V3.35206H33.32V14.1598H39.2756V16.7855H30.3326Z" fill="#667085"/>
<path fill-rule="evenodd" clip-rule="evenodd" d="M44.6554 16.9948C43.704 16.9948 42.8414 16.7855 42.0676 16.3669C41.3065 15.9356 40.704 15.3521 40.26 14.6164C39.8161 13.8806 39.5941 13.0561 39.5941 12.1428C39.5941 11.2295 39.8161 10.4113 40.26 9.68825C40.704 8.96519 41.3065 8.39435 42.0676 7.97579C42.8287 7.54445 43.6913 7.32881 44.6554 7.32881C45.6194 7.32881 46.482 7.53815 47.2431 7.95671C48.0042 8.37533 48.6068 8.95253 49.0507 9.68825C49.4947 10.4113 49.7167 11.2295 49.7167 12.1428C49.7167 13.0561 49.4947 13.8806 49.0507 14.6164C48.6068 15.3521 48.0042 15.9356 47.2431 16.3669C46.482 16.7855 45.6194 16.9948 44.6554 16.9948ZM44.6554 14.35C45.074 14.35 45.4418 14.2612 45.759 14.0836C46.0761 13.8934 46.3171 13.6333 46.482 13.3035C46.6596 12.961 46.7484 12.5741 46.7484 12.1428C46.7484 11.7115 46.6596 11.3373 46.482 11.0202C46.3044 10.6904 46.0571 10.4367 45.7399 10.2591C45.4355 10.0688 45.074 9.97367 44.6554 9.97367C44.2495 9.97367 43.888 10.0688 43.5708 10.2591C43.2537 10.4367 43.0063 10.6904 42.8287 11.0202C42.6511 11.35 42.5624 11.7305 42.5624 12.1618C42.5624 12.5804 42.6511 12.961 42.8287 13.3035C43.0063 13.6333 43.2537 13.8934 43.5708 14.0836C43.888 14.2612 44.2495 14.35 44.6554 14.35Z" fill="#667085"/>
<path fill-rule="evenodd" clip-rule="evenodd" d="M52.0223 20.4008C52.7961 20.7559 53.6904 20.9335 54.7052 20.9335C55.6946 20.9335 56.5763 20.7369 57.35 20.3437C58.1239 19.9504 58.7327 19.405 59.1767 18.7073C59.6206 18.0097 59.8429 17.1851 59.8429 16.2337V7.53815H56.9885V8.15945C56.7762 7.98077 56.5351 7.83077 56.2655 7.70939C55.7707 7.46837 55.2062 7.34783 54.572 7.34783C53.7221 7.34783 52.9673 7.55081 52.3078 7.95671C51.6481 8.34995 51.128 8.89541 50.7475 9.59309C50.3669 10.2781 50.1767 11.0519 50.1767 11.9145C50.1767 12.7644 50.3669 13.5382 50.7475 14.2358C51.128 14.9335 51.6481 15.4853 52.3078 15.8912C52.9673 16.2971 53.7221 16.5001 54.572 16.5001C55.1936 16.5001 55.7581 16.3796 56.2655 16.1386C56.5112 16.0219 56.7332 15.8843 56.9314 15.7258V16.3099C56.9314 16.9568 56.7221 17.4578 56.3035 17.813C55.8976 18.1682 55.3331 18.3458 54.6101 18.3458C54.0266 18.3458 53.5255 18.2443 53.1069 18.0413C52.701 17.8384 52.3331 17.5403 52.0033 17.147L50.2147 18.9356C50.6587 19.5699 51.2612 20.0583 52.0223 20.4008ZM56.1703 13.646C55.8785 13.8236 55.5298 13.9124 55.1238 13.9124C54.7179 13.9124 54.3627 13.8236 54.0583 13.646C53.7665 13.4684 53.5382 13.2274 53.3733 12.9229C53.2084 12.6058 53.1259 12.2696 53.1259 11.9145C53.1259 11.5339 53.2084 11.1914 53.3733 10.887C53.5382 10.5826 53.7728 10.3415 54.0773 10.1639C54.3817 9.98633 54.7306 9.89753 55.1238 9.89753C55.5298 9.89753 55.8785 9.98633 56.1703 10.1639C56.4748 10.3415 56.7031 10.5826 56.8553 10.887C57.0202 11.1914 57.1027 11.5339 57.1027 11.9145C57.1027 12.295 57.0202 12.6375 56.8553 12.9419C56.7031 13.2337 56.4748 13.4684 56.1703 13.646Z" fill="#667085"/>
<path fill-rule="evenodd" clip-rule="evenodd" d="M65.9695 16.9948C65.0179 16.9948 64.1551 16.7855 63.3817 16.3669C62.6203 15.9356 62.0179 15.3521 61.5739 14.6164C61.1299 13.8806 60.9079 13.0561 60.9079 12.1428C60.9079 11.2295 61.1299 10.4113 61.5739 9.68825C62.0179 8.96519 62.6203 8.39435 63.3817 7.97579C64.1425 7.54445 65.0053 7.32881 65.9695 7.32881C66.9331 7.32881 67.7959 7.53815 68.5567 7.95671C69.3181 8.37533 69.9205 8.95253 70.3645 9.68825C70.8085 10.4113 71.0305 11.2295 71.0305 12.1428C71.0305 13.0561 70.8085 13.8806 70.3645 14.6164C69.9205 15.3521 69.3181 15.9356 68.5567 16.3669C67.7959 16.7855 66.9331 16.9948 65.9695 16.9948ZM65.9695 14.35C66.3877 14.35 66.7555 14.2612 67.0729 14.0836C67.3897 13.8934 67.6309 13.6333 67.7959 13.3035C67.9735 12.961 68.0623 12.5741 68.0623 12.1428C68.0623 11.7115 67.9735 11.3373 67.7959 11.0202C67.6183 10.6904 67.3711 10.4367 67.0537 10.2591C66.7495 10.0688 66.3877 9.97367 65.9695 9.97367C65.5633 9.97367 65.2015 10.0688 64.8847 10.2591C64.5673 10.4367 64.3201 10.6904 64.1425 11.0202C63.9649 11.35 63.8761 11.7305 63.8761 12.1618C63.8761 12.5804 63.9649 12.961 64.1425 13.3035C64.3201 13.6333 64.5673 13.8934 64.8847 14.0836C65.2015 14.2612 65.5633 14.35 65.9695 14.35Z" fill="#667085"/>
<path fill-rule="evenodd" clip-rule="evenodd" d="M82.0075 16.9758C81.3865 16.9758 80.8153 16.8553 80.2951 16.6143C80.0215 16.4875 79.7743 16.336 79.5535 16.16V20.6862H76.6801V7.53815H79.5913V8.17637C79.8025 8.00363 80.0371 7.85429 80.2951 7.72841C80.8153 7.47467 81.3865 7.34783 82.0075 7.34783C82.8829 7.34783 83.6569 7.55717 84.3289 7.97579C85.0141 8.39435 85.5469 8.96519 85.9273 9.68825C86.3209 10.4113 86.5171 11.2358 86.5171 12.1618C86.5171 13.0879 86.3209 13.9124 85.9273 14.6354C85.5469 15.3585 85.0141 15.9293 84.3289 16.3479C83.6569 16.7665 82.8829 16.9758 82.0075 16.9758ZM81.4753 14.35C81.8935 14.35 82.2553 14.2549 82.5595 14.0646C82.8769 13.8743 83.1241 13.6142 83.3017 13.2845C83.4793 12.9546 83.5681 12.5804 83.5681 12.1618C83.5681 11.7305 83.4793 11.35 83.3017 11.0202C83.1241 10.6904 82.8769 10.4367 82.5595 10.2591C82.2553 10.0688 81.9001 9.97367 81.4939 9.97367C81.0883 9.97367 80.7265 10.0688 80.4097 10.2591C80.1049 10.4367 79.8643 10.6904 79.6867 11.0202C79.5091 11.35 79.4203 11.7305 79.4203 12.1618C79.4203 12.5804 79.5025 12.9546 79.6675 13.2845C79.8451 13.6142 80.0923 13.8743 80.4097 14.0646C80.7265 14.2549 81.0817 14.35 81.4753 14.35Z" fill="#667085"/>
<path d="M89.3665 16.8046C89.8993 16.9441 90.4381 17.0138 90.9835 17.0138C92.1379 17.0138 93.0511 16.7475 93.7237 16.2147C94.4083 15.682 94.7509 14.9653 94.7509 14.0646C94.7509 13.4811 94.6435 13.0117 94.4275 12.6566C94.2121 12.2887 93.9331 11.9969 93.5905 11.7813C93.2479 11.5657 92.8861 11.3944 92.5057 11.2675C92.1253 11.1407 91.7635 11.0329 91.4215 10.9441C91.0789 10.8553 90.7999 10.7538 90.5839 10.6396C90.3685 10.5254 90.2605 10.3732 90.2605 10.183C90.2605 10.0054 90.3433 9.87215 90.5077 9.78335C90.6727 9.68189 90.9199 9.63119 91.2499 9.63119C91.5925 9.63119 91.9411 9.70091 92.2963 9.84047C92.6641 9.97997 92.9941 10.2211 93.2857 10.5635L94.9411 8.88911C94.5229 8.35631 93.9775 7.95671 93.3049 7.69037C92.6455 7.41131 91.9225 7.27175 91.1359 7.27175C90.3877 7.27175 89.7343 7.39859 89.1763 7.65227C88.6177 7.90601 88.1863 8.25485 87.8821 8.69879C87.5779 9.13007 87.4255 9.64385 87.4255 10.2401C87.4255 10.7982 87.5335 11.2612 87.7489 11.6291C87.9643 11.9842 88.2439 12.2633 88.5859 12.4663C88.9285 12.6692 89.2903 12.8278 89.6707 12.9419C90.0511 13.0561 90.4129 13.1639 90.7555 13.2655C91.0975 13.3542 91.3771 13.4621 91.5925 13.5889C91.8211 13.7031 91.9351 13.8743 91.9351 14.1026C91.9351 14.2802 91.8397 14.4197 91.6495 14.5213C91.4719 14.6227 91.2121 14.6735 90.8695 14.6735C90.3745 14.6735 89.9179 14.5847 89.4997 14.4071C89.0809 14.2168 88.7191 13.9568 88.4149 13.627L86.7595 15.3014C87.0769 15.6439 87.4573 15.9484 87.9013 16.2147C88.3579 16.4684 88.8463 16.665 89.3665 16.8046Z" fill="#667085"/>
<path d="M100.06 16.9948C99.2101 16.9948 98.4553 16.8236 97.7959 16.4811C97.1485 16.1259 96.6415 15.6439 96.2737 15.035C95.9053 14.4134 95.7217 13.7031 95.7217 12.9039V7.53815H98.6329V12.8659C98.6329 13.183 98.6833 13.4557 98.7853 13.684C98.8993 13.9124 99.0643 14.09 99.2797 14.2168C99.4957 14.3436 99.7555 14.4071 100.06 14.4071C100.491 14.4071 100.834 14.2739 101.088 14.0075C101.341 13.7284 101.468 13.3479 101.468 12.8659V7.53815H104.379V12.8849C104.379 13.6967 104.196 14.4134 103.827 15.035C103.459 15.6439 102.952 16.1259 102.305 16.4811C101.658 16.8236 100.91 16.9948 100.06 16.9948Z" fill="#667085"/>
<path d="M108.738 7.53815H105.826V16.7855H108.738V11.3817C108.738 11.0646 108.801 10.7982 108.928 10.5826C109.068 10.3669 109.252 10.202 109.48 10.0879C109.708 9.96095 109.968 9.89753 110.26 9.89753C110.679 9.89753 111.027 10.0307 111.306 10.2971C111.598 10.5508 111.744 10.9124 111.744 11.3817V16.7855H114.655V11.3817C114.655 11.0646 114.719 10.7982 114.846 10.5826C114.985 10.3669 115.169 10.202 115.398 10.0879C115.626 9.96095 115.886 9.89753 116.178 9.89753C116.596 9.89753 116.945 10.0307 117.224 10.2971C117.516 10.5508 117.661 10.9124 117.661 11.3817V16.7855H120.573V11.0582C120.573 10.2845 120.408 9.62483 120.078 9.07937C119.761 8.52119 119.323 8.09627 118.765 7.80455C118.22 7.50005 117.592 7.34783 116.881 7.34783C116.158 7.34783 115.505 7.50641 114.922 7.82357C114.543 8.02559 114.211 8.28635 113.928 8.60579C113.663 8.27165 113.341 7.99823 112.962 7.78547C112.455 7.49375 111.877 7.34783 111.231 7.34783C110.545 7.34783 109.93 7.49375 109.385 7.78547C109.147 7.90685 108.932 8.05223 108.738 8.22161V7.53815Z" fill="#667085"/>
</g>
<defs>
<clipPath id="clip0_6698_59322">
<rect width="120.255" height="24" fill="white" transform="translate(0.317993)"/>
</clipPath>
<clipPath id="clip1_6698_59322">
<rect width="23.4146" height="24" fill="white" transform="translate(0.317993)"/>
</clipPath>
</defs>
</svg>
