<svg width="122" height="24" viewBox="0 0 122 24" fill="none" xmlns="http://www.w3.org/2000/svg">
<g clip-path="url(#clip0_6698_59303)">
<path fill-rule="evenodd" clip-rule="evenodd" d="M16.1198 7.01118C15.1331 6.3519 13.9731 6 12.7864 6V0C15.1598 0 17.4798 0.703788 19.4532 2.02237C21.4266 3.34094 22.9647 5.21509 23.873 7.40778C24.7812 9.60048 25.0188 12.0133 24.5558 14.3411C24.0928 16.6688 22.9499 18.8071 21.2717 20.4853C19.5935 22.1635 17.4552 23.3064 15.1275 23.7694C12.7997 24.2324 10.3869 23.9948 8.19419 23.0866C6.00149 22.1783 4.12735 20.6402 2.80877 18.6668C1.4902 16.6934 0.786407 14.3734 0.786407 12H6.78641C6.78641 13.1867 7.13831 14.3467 7.79759 15.3334C8.45687 16.3201 9.39395 17.0891 10.4903 17.5433C11.5866 17.9974 12.7931 18.1162 13.9569 17.8847C15.1208 17.6532 16.1899 17.0818 17.0291 16.2427C17.8682 15.4035 18.4396 14.3344 18.6711 13.1705C18.9026 12.0067 18.7838 10.8002 18.3297 9.70392C17.8755 8.60754 17.1065 7.67046 16.1198 7.01118Z" fill="#667085"/>
<path fill-rule="evenodd" clip-rule="evenodd" d="M6.7864 3.17096e-06C6.7864 0.787934 6.63121 1.56815 6.32968 2.29611C6.02815 3.02406 5.5862 3.68549 5.02905 4.24264C4.4719 4.7998 3.81046 5.24175 3.08251 5.54328C2.35455 5.84481 1.57434 6 0.786408 6L0.786407 12C2.36227 12 3.9227 11.6896 5.37861 11.0866C6.83452 10.4835 8.1574 9.59958 9.27166 8.48526C10.386 7.371 11.2699 6.04812 11.873 4.5922C12.476 3.13629 12.7864 1.57586 12.7864 0L6.7864 3.17096e-06Z" fill="#667085"/>
<path d="M76.0641 7.53815H73.1529V16.7855H76.0641V7.53815Z" fill="#667085"/>
<path d="M73.4769 5.80661C73.7811 6.11105 74.1615 6.26327 74.6181 6.26327C75.0747 6.26327 75.4491 6.11105 75.7407 5.80661C76.0329 5.48951 76.1787 5.10893 76.1787 4.66496C76.1787 4.20831 76.0329 3.82774 75.7407 3.52332C75.4491 3.21886 75.0747 3.06665 74.6181 3.06665C74.1615 3.06665 73.7811 3.21886 73.4769 3.52332C73.1847 3.82774 73.0389 4.20831 73.0389 4.66496C73.0389 5.10893 73.1847 5.48951 73.4769 5.80661Z" fill="#667085"/>
<path d="M31.3864 16.7855V3.35206H34.3738V14.1598H40.3294V16.7855H31.3864Z" fill="#667085"/>
<path fill-rule="evenodd" clip-rule="evenodd" d="M45.7091 16.9948C44.7578 16.9948 43.8952 16.7855 43.1214 16.3669C42.3603 15.9356 41.7578 15.3521 41.3138 14.6164C40.8698 13.8806 40.6478 13.0561 40.6478 12.1428C40.6478 11.2295 40.8698 10.4113 41.3138 9.68825C41.7578 8.96519 42.3603 8.39435 43.1214 7.97579C43.8825 7.54445 44.7451 7.32881 45.7091 7.32881C46.6732 7.32881 47.5358 7.53815 48.2969 7.95671C49.058 8.37533 49.6606 8.95253 50.1045 9.68825C50.5485 10.4113 50.7705 11.2295 50.7705 12.1428C50.7705 13.0561 50.5485 13.8806 50.1045 14.6164C49.6606 15.3521 49.058 15.9356 48.2969 16.3669C47.5358 16.7855 46.6732 16.9948 45.7091 16.9948ZM45.7091 14.35C46.1278 14.35 46.4956 14.2612 46.8128 14.0836C47.1299 13.8934 47.3709 13.6333 47.5358 13.3035C47.7134 12.961 47.8022 12.5741 47.8022 12.1428C47.8022 11.7115 47.7134 11.3373 47.5358 11.0202C47.3582 10.6904 47.1109 10.4367 46.7937 10.2591C46.4893 10.0688 46.1278 9.97367 45.7091 9.97367C45.3032 9.97367 44.9417 10.0688 44.6246 10.2591C44.3075 10.4367 44.0601 10.6904 43.8825 11.0202C43.7049 11.35 43.6162 11.7305 43.6162 12.1618C43.6162 12.5804 43.7049 12.961 43.8825 13.3035C44.0601 13.6333 44.3075 13.8934 44.6246 14.0836C44.9417 14.2612 45.3032 14.35 45.7091 14.35Z" fill="#667085"/>
<path fill-rule="evenodd" clip-rule="evenodd" d="M53.0761 20.4008C53.8499 20.7559 54.7442 20.9335 55.759 20.9335C56.7484 20.9335 57.6301 20.7369 58.4038 20.3437C59.1776 19.9504 59.7865 19.405 60.2305 18.7073C60.6744 18.0097 60.8967 17.1851 60.8967 16.2337V7.53815H58.0423V8.15945C57.83 7.98077 57.5889 7.83077 57.3193 7.70939C56.8245 7.46837 56.26 7.34783 55.6258 7.34783C54.7759 7.34783 54.0211 7.55081 53.3615 7.95671C52.7018 8.34995 52.1818 8.89541 51.8012 9.59309C51.4207 10.2781 51.2305 11.0519 51.2305 11.9145C51.2305 12.7644 51.4207 13.5382 51.8012 14.2358C52.1818 14.9335 52.7018 15.4853 53.3615 15.8912C54.0211 16.2971 54.7759 16.5001 55.6258 16.5001C56.2474 16.5001 56.8118 16.3796 57.3193 16.1386C57.565 16.0219 57.787 15.8843 57.9852 15.7258V16.3099C57.9852 16.9568 57.7759 17.4578 57.3573 17.813C56.9514 18.1682 56.3869 18.3458 55.6639 18.3458C55.0804 18.3458 54.5793 18.2443 54.1607 18.0413C53.7548 17.8384 53.3869 17.5403 53.057 17.147L51.2685 18.9356C51.7124 19.5699 52.315 20.0583 53.0761 20.4008ZM57.2241 13.646C56.9323 13.8236 56.5835 13.9124 56.1776 13.9124C55.7717 13.9124 55.4165 13.8236 55.112 13.646C54.8203 13.4684 54.592 13.2274 54.4271 12.9229C54.2621 12.6058 54.1797 12.2696 54.1797 11.9145C54.1797 11.5339 54.2621 11.1914 54.4271 10.887C54.592 10.5826 54.8266 10.3415 55.1311 10.1639C55.4355 9.98633 55.7843 9.89753 56.1776 9.89753C56.5835 9.89753 56.9323 9.98633 57.2241 10.1639C57.5285 10.3415 57.7568 10.5826 57.9091 10.887C58.074 11.1914 58.1564 11.5339 58.1564 11.9145C58.1564 12.295 58.074 12.6375 57.9091 12.9419C57.7568 13.2337 57.5285 13.4684 57.2241 13.646Z" fill="#667085"/>
<path fill-rule="evenodd" clip-rule="evenodd" d="M67.0233 16.9948C66.0717 16.9948 65.2089 16.7855 64.4355 16.3669C63.6741 15.9356 63.0717 15.3521 62.6277 14.6164C62.1837 13.8806 61.9617 13.0561 61.9617 12.1428C61.9617 11.2295 62.1837 10.4113 62.6277 9.68825C63.0717 8.96519 63.6741 8.39435 64.4355 7.97579C65.1963 7.54445 66.0591 7.32881 67.0233 7.32881C67.9869 7.32881 68.8497 7.53815 69.6105 7.95671C70.3719 8.37533 70.9743 8.95253 71.4183 9.68825C71.8623 10.4113 72.0843 11.2295 72.0843 12.1428C72.0843 13.0561 71.8623 13.8806 71.4183 14.6164C70.9743 15.3521 70.3719 15.9356 69.6105 16.3669C68.8497 16.7855 67.9869 16.9948 67.0233 16.9948ZM67.0233 14.35C67.4415 14.35 67.8093 14.2612 68.1267 14.0836C68.4435 13.8934 68.6847 13.6333 68.8497 13.3035C69.0273 12.961 69.1161 12.5741 69.1161 12.1428C69.1161 11.7115 69.0273 11.3373 68.8497 11.0202C68.6721 10.6904 68.4249 10.4367 68.1075 10.2591C67.8033 10.0688 67.4415 9.97367 67.0233 9.97367C66.6171 9.97367 66.2553 10.0688 65.9385 10.2591C65.6211 10.4367 65.3739 10.6904 65.1963 11.0202C65.0187 11.35 64.9299 11.7305 64.9299 12.1618C64.9299 12.5804 65.0187 12.961 65.1963 13.3035C65.3739 13.6333 65.6211 13.8934 65.9385 14.0836C66.2553 14.2612 66.6171 14.35 67.0233 14.35Z" fill="#667085"/>
<path fill-rule="evenodd" clip-rule="evenodd" d="M83.0613 16.9758C82.4403 16.9758 81.8691 16.8553 81.3489 16.6143C81.0753 16.4875 80.8281 16.336 80.6073 16.16V20.6862H77.7339V7.53815H80.6451V8.17637C80.8563 8.00363 81.0909 7.85429 81.3489 7.72841C81.8691 7.47467 82.4403 7.34783 83.0613 7.34783C83.9367 7.34783 84.7107 7.55717 85.3827 7.97579C86.0679 8.39435 86.6007 8.96519 86.9811 9.68825C87.3747 10.4113 87.5709 11.2358 87.5709 12.1618C87.5709 13.0879 87.3747 13.9124 86.9811 14.6354C86.6007 15.3585 86.0679 15.9293 85.3827 16.3479C84.7107 16.7665 83.9367 16.9758 83.0613 16.9758ZM82.5291 14.35C82.9473 14.35 83.3091 14.2549 83.6133 14.0646C83.9307 13.8743 84.1779 13.6142 84.3555 13.2845C84.5331 12.9546 84.6219 12.5804 84.6219 12.1618C84.6219 11.7305 84.5331 11.35 84.3555 11.0202C84.1779 10.6904 83.9307 10.4367 83.6133 10.2591C83.3091 10.0688 82.9539 9.97367 82.5477 9.97367C82.1421 9.97367 81.7803 10.0688 81.4635 10.2591C81.1587 10.4367 80.9181 10.6904 80.7405 11.0202C80.5629 11.35 80.4741 11.7305 80.4741 12.1618C80.4741 12.5804 80.5563 12.9546 80.7213 13.2845C80.8989 13.6142 81.1461 13.8743 81.4635 14.0646C81.7803 14.2549 82.1355 14.35 82.5291 14.35Z" fill="#667085"/>
<path d="M90.4203 16.8046C90.9531 16.9441 91.4919 17.0138 92.0373 17.0138C93.1917 17.0138 94.1049 16.7475 94.7775 16.2147C95.4621 15.682 95.8047 14.9653 95.8047 14.0646C95.8047 13.4811 95.6973 13.0117 95.4813 12.6566C95.2659 12.2887 94.9869 11.9969 94.6443 11.7813C94.3017 11.5657 93.9399 11.3944 93.5595 11.2675C93.1791 11.1407 92.8173 11.0329 92.4753 10.9441C92.1327 10.8553 91.8537 10.7538 91.6377 10.6396C91.4223 10.5254 91.3143 10.3732 91.3143 10.183C91.3143 10.0054 91.3971 9.87215 91.5615 9.78335C91.7265 9.68189 91.9737 9.63119 92.3037 9.63119C92.6463 9.63119 92.9949 9.70091 93.3501 9.84047C93.7179 9.97997 94.0479 10.2211 94.3395 10.5635L95.9949 8.88911C95.5767 8.35631 95.0313 7.95671 94.3587 7.69037C93.6993 7.41131 92.9763 7.27175 92.1897 7.27175C91.4415 7.27175 90.7881 7.39859 90.2301 7.65227C89.6715 7.90601 89.2401 8.25485 88.9359 8.69879C88.6317 9.13007 88.4793 9.64385 88.4793 10.2401C88.4793 10.7982 88.5873 11.2612 88.8027 11.6291C89.0181 11.9842 89.2977 12.2633 89.6397 12.4663C89.9823 12.6692 90.3441 12.8278 90.7245 12.9419C91.1049 13.0561 91.4667 13.1639 91.8093 13.2655C92.1513 13.3542 92.4309 13.4621 92.6463 13.5889C92.8749 13.7031 92.9889 13.8743 92.9889 14.1026C92.9889 14.2802 92.8935 14.4197 92.7033 14.5213C92.5257 14.6227 92.2659 14.6735 91.9233 14.6735C91.4283 14.6735 90.9717 14.5847 90.5535 14.4071C90.1347 14.2168 89.7729 13.9568 89.4687 13.627L87.8133 15.3014C88.1307 15.6439 88.5111 15.9484 88.9551 16.2147C89.4117 16.4684 89.9001 16.665 90.4203 16.8046Z" fill="#667085"/>
<path d="M101.113 16.9948C100.264 16.9948 99.5091 16.8236 98.8497 16.4811C98.2023 16.1259 97.6953 15.6439 97.3275 15.035C96.9591 14.4134 96.7755 13.7031 96.7755 12.9039V7.53815H99.6867V12.8659C99.6867 13.183 99.7371 13.4557 99.8391 13.684C99.9531 13.9124 100.118 14.09 100.333 14.2168C100.549 14.3436 100.809 14.4071 101.113 14.4071C101.545 14.4071 101.887 14.2739 102.141 14.0075C102.395 13.7284 102.522 13.3479 102.522 12.8659V7.53815H105.433V12.8849C105.433 13.6967 105.249 14.4134 104.881 15.035C104.513 15.6439 104.006 16.1259 103.359 16.4811C102.712 16.8236 101.964 16.9948 101.113 16.9948Z" fill="#667085"/>
<path d="M109.791 7.53815H106.88V16.7855H109.791V11.3817C109.791 11.0646 109.855 10.7982 109.981 10.5826C110.121 10.3669 110.305 10.202 110.533 10.0879C110.762 9.96095 111.022 9.89753 111.313 9.89753C111.732 9.89753 112.081 10.0307 112.36 10.2971C112.652 10.5508 112.798 10.9124 112.798 11.3817V16.7855H115.709V11.3817C115.709 11.0646 115.773 10.7982 115.899 10.5826C116.039 10.3669 116.223 10.202 116.451 10.0879C116.679 9.96095 116.94 9.89753 117.231 9.89753C117.65 9.89753 117.999 10.0307 118.278 10.2971C118.569 10.5508 118.715 10.9124 118.715 11.3817V16.7855H121.627V11.0582C121.627 10.2845 121.462 9.62483 121.132 9.07937C120.814 8.52119 120.377 8.09627 119.819 7.80455C119.274 7.50005 118.646 7.34783 117.935 7.34783C117.212 7.34783 116.559 7.50641 115.975 7.82357C115.596 8.02559 115.265 8.28635 114.981 8.60579C114.717 8.27165 114.395 7.99823 114.015 7.78547C113.508 7.49375 112.931 7.34783 112.284 7.34783C111.599 7.34783 110.984 7.49375 110.439 7.78547C110.201 7.90685 109.986 8.05223 109.791 8.22161V7.53815Z" fill="#667085"/>
</g>
<defs>
<clipPath id="clip0_6698_59303">
<rect width="120.84" height="24" fill="white" transform="translate(0.786407)"/>
</clipPath>
</defs>
</svg>
