<svg width="124" height="24" viewBox="0 0 124 24" fill="none" xmlns="http://www.w3.org/2000/svg">
<g clip-path="url(#clip0_6698_59311)">
<g clip-path="url(#clip1_6698_59311)">
<path d="M6.81512 1.7998L12.0855 6.30253C12.3984 6.56984 12.5788 6.96213 12.5788 7.37528V10.7688L7.30835 6.26605C6.99546 5.99873 6.81512 5.60644 6.81512 5.19327V1.7998Z" fill="#667085"/>
<path d="M6.81512 22.1997L12.0855 17.6969C12.3984 17.4296 12.5788 17.0374 12.5788 16.6242V13.2307L7.30835 17.7335C6.99546 18.0007 6.81512 18.393 6.81512 18.8062V22.1997Z" fill="#667085"/>
<path d="M0.527283 6.5481L5.72602 10.9648C5.97807 11.1789 6.29722 11.2964 6.62704 11.2964H10.8196L5.63366 6.88071C5.38144 6.66594 5.06178 6.5481 4.73145 6.5481H0.527283Z" fill="#667085"/>
<path d="M0.527283 17.4517L5.69405 13.0375C5.94655 12.8218 6.26688 12.7034 6.59802 12.7034H10.8321L5.63336 17.12C5.3813 17.3342 5.06213 17.4517 4.73232 17.4517H0.527283Z" fill="#667085"/>
<path d="M19.7396 1.7998L14.4692 6.30253C14.1563 6.56984 13.976 6.96213 13.976 7.37528V10.7688L19.2463 6.26605C19.5592 5.99873 19.7396 5.60644 19.7396 5.19327V1.7998Z" fill="#667085"/>
<path d="M19.7396 22.1997L14.4692 17.6969C14.1563 17.4296 13.976 17.0374 13.976 16.6242V13.2307L19.2463 17.7335C19.5592 18.0007 19.7396 18.393 19.7396 18.8062V22.1997Z" fill="#667085"/>
<path d="M26.0273 6.5481L20.8285 10.9648C20.5765 11.1789 20.2573 11.2964 19.9275 11.2964H15.7349L20.9209 6.88071C21.1731 6.66594 21.4928 6.5481 21.8231 6.5481H26.0273Z" fill="#667085"/>
<path d="M26.0274 17.4517L20.8606 13.0375C20.6081 12.8218 20.2878 12.7034 19.9566 12.7034H15.7226L20.9213 17.12C21.1734 17.3342 21.4925 17.4517 21.8223 17.4517H26.0274Z" fill="#667085"/>
</g>
<path d="M77.7552 7.53815H74.844V16.7855H77.7552V7.53815Z" fill="#667085"/>
<path d="M75.168 5.80661C75.4722 6.11105 75.8526 6.26327 76.3092 6.26327C76.7658 6.26327 77.1402 6.11105 77.4318 5.80661C77.724 5.48951 77.8698 5.10893 77.8698 4.66496C77.8698 4.20831 77.724 3.82774 77.4318 3.52332C77.1402 3.21886 76.7658 3.06665 76.3092 3.06665C75.8526 3.06665 75.4722 3.21886 75.168 3.52332C74.8758 3.82774 74.73 4.20831 74.73 4.66496C74.73 5.10893 74.8758 5.48951 75.168 5.80661Z" fill="#667085"/>
<path d="M33.0775 16.7855V3.35206H36.0649V14.1598H42.0205V16.7855H33.0775Z" fill="#667085"/>
<path fill-rule="evenodd" clip-rule="evenodd" d="M47.4002 16.9948C46.4489 16.9948 45.5863 16.7855 44.8125 16.3669C44.0514 15.9356 43.4489 15.3521 43.0049 14.6164C42.5609 13.8806 42.3389 13.0561 42.3389 12.1428C42.3389 11.2295 42.5609 10.4113 43.0049 9.68825C43.4489 8.96519 44.0514 8.39435 44.8125 7.97579C45.5736 7.54445 46.4362 7.32881 47.4002 7.32881C48.3643 7.32881 49.2269 7.53815 49.988 7.95671C50.7491 8.37533 51.3517 8.95253 51.7956 9.68825C52.2396 10.4113 52.4616 11.2295 52.4616 12.1428C52.4616 13.0561 52.2396 13.8806 51.7956 14.6164C51.3517 15.3521 50.7491 15.9356 49.988 16.3669C49.2269 16.7855 48.3643 16.9948 47.4002 16.9948ZM47.4002 14.35C47.8189 14.35 48.1867 14.2612 48.5039 14.0836C48.821 13.8934 49.062 13.6333 49.2269 13.3035C49.4045 12.961 49.4933 12.5741 49.4933 12.1428C49.4933 11.7115 49.4045 11.3373 49.2269 11.0202C49.0493 10.6904 48.802 10.4367 48.4848 10.2591C48.1804 10.0688 47.8189 9.97367 47.4002 9.97367C46.9943 9.97367 46.6328 10.0688 46.3157 10.2591C45.9986 10.4367 45.7512 10.6904 45.5736 11.0202C45.396 11.35 45.3073 11.7305 45.3073 12.1618C45.3073 12.5804 45.396 12.961 45.5736 13.3035C45.7512 13.6333 45.9986 13.8934 46.3157 14.0836C46.6328 14.2612 46.9943 14.35 47.4002 14.35Z" fill="#667085"/>
<path fill-rule="evenodd" clip-rule="evenodd" d="M54.7672 20.4008C55.541 20.7559 56.4353 20.9335 57.4501 20.9335C58.4395 20.9335 59.3212 20.7369 60.0949 20.3437C60.8687 19.9504 61.4776 19.405 61.9216 18.7073C62.3655 18.0097 62.5878 17.1851 62.5878 16.2337V7.53815H59.7334V8.15945C59.5211 7.98077 59.28 7.83077 59.0104 7.70939C58.5156 7.46837 57.9511 7.34783 57.3169 7.34783C56.467 7.34783 55.7122 7.55081 55.0526 7.95671C54.3929 8.34995 53.8729 8.89541 53.4923 9.59309C53.1118 10.2781 52.9216 11.0519 52.9216 11.9145C52.9216 12.7644 53.1118 13.5382 53.4923 14.2358C53.8729 14.9335 54.3929 15.4853 55.0526 15.8912C55.7122 16.2971 56.467 16.5001 57.3169 16.5001C57.9385 16.5001 58.5029 16.3796 59.0104 16.1386C59.2561 16.0219 59.4781 15.8843 59.6763 15.7258V16.3099C59.6763 16.9568 59.467 17.4578 59.0484 17.813C58.6425 18.1682 58.078 18.3458 57.355 18.3458C56.7715 18.3458 56.2704 18.2443 55.8518 18.0413C55.4459 17.8384 55.078 17.5403 54.7481 17.147L52.9596 18.9356C53.4035 19.5699 54.0061 20.0583 54.7672 20.4008ZM58.9152 13.646C58.6234 13.8236 58.2746 13.9124 57.8687 13.9124C57.4628 13.9124 57.1076 13.8236 56.8031 13.646C56.5114 13.4684 56.2831 13.2274 56.1182 12.9229C55.9532 12.6058 55.8708 12.2696 55.8708 11.9145C55.8708 11.5339 55.9532 11.1914 56.1182 10.887C56.2831 10.5826 56.5177 10.3415 56.8222 10.1639C57.1266 9.98633 57.4754 9.89753 57.8687 9.89753C58.2746 9.89753 58.6234 9.98633 58.9152 10.1639C59.2196 10.3415 59.4479 10.5826 59.6002 10.887C59.7651 11.1914 59.8475 11.5339 59.8475 11.9145C59.8475 12.295 59.7651 12.6375 59.6002 12.9419C59.4479 13.2337 59.2196 13.4684 58.9152 13.646Z" fill="#667085"/>
<path fill-rule="evenodd" clip-rule="evenodd" d="M68.7144 16.9948C67.7628 16.9948 66.9 16.7855 66.1266 16.3669C65.3652 15.9356 64.7628 15.3521 64.3188 14.6164C63.8748 13.8806 63.6528 13.0561 63.6528 12.1428C63.6528 11.2295 63.8748 10.4113 64.3188 9.68825C64.7628 8.96519 65.3652 8.39435 66.1266 7.97579C66.8874 7.54445 67.7502 7.32881 68.7144 7.32881C69.678 7.32881 70.5408 7.53815 71.3016 7.95671C72.063 8.37533 72.6654 8.95253 73.1094 9.68825C73.5534 10.4113 73.7754 11.2295 73.7754 12.1428C73.7754 13.0561 73.5534 13.8806 73.1094 14.6164C72.6654 15.3521 72.063 15.9356 71.3016 16.3669C70.5408 16.7855 69.678 16.9948 68.7144 16.9948ZM68.7144 14.35C69.1326 14.35 69.5004 14.2612 69.8178 14.0836C70.1346 13.8934 70.3758 13.6333 70.5408 13.3035C70.7184 12.961 70.8072 12.5741 70.8072 12.1428C70.8072 11.7115 70.7184 11.3373 70.5408 11.0202C70.3632 10.6904 70.116 10.4367 69.7986 10.2591C69.4944 10.0688 69.1326 9.97367 68.7144 9.97367C68.3082 9.97367 67.9464 10.0688 67.6296 10.2591C67.3122 10.4367 67.065 10.6904 66.8874 11.0202C66.7098 11.35 66.621 11.7305 66.621 12.1618C66.621 12.5804 66.7098 12.961 66.8874 13.3035C67.065 13.6333 67.3122 13.8934 67.6296 14.0836C67.9464 14.2612 68.3082 14.35 68.7144 14.35Z" fill="#667085"/>
<path fill-rule="evenodd" clip-rule="evenodd" d="M84.7524 16.9758C84.1314 16.9758 83.5602 16.8553 83.04 16.6143C82.7664 16.4875 82.5192 16.336 82.2984 16.16V20.6862H79.425V7.53815H82.3362V8.17637C82.5474 8.00363 82.782 7.85429 83.04 7.72841C83.5602 7.47467 84.1314 7.34783 84.7524 7.34783C85.6278 7.34783 86.4018 7.55717 87.0738 7.97579C87.759 8.39435 88.2918 8.96519 88.6722 9.68825C89.0658 10.4113 89.262 11.2358 89.262 12.1618C89.262 13.0879 89.0658 13.9124 88.6722 14.6354C88.2918 15.3585 87.759 15.9293 87.0738 16.3479C86.4018 16.7665 85.6278 16.9758 84.7524 16.9758ZM84.2202 14.35C84.6384 14.35 85.0002 14.2549 85.3044 14.0646C85.6218 13.8743 85.869 13.6142 86.0466 13.2845C86.2242 12.9546 86.313 12.5804 86.313 12.1618C86.313 11.7305 86.2242 11.35 86.0466 11.0202C85.869 10.6904 85.6218 10.4367 85.3044 10.2591C85.0002 10.0688 84.645 9.97367 84.2388 9.97367C83.8332 9.97367 83.4714 10.0688 83.1546 10.2591C82.8498 10.4367 82.6092 10.6904 82.4316 11.0202C82.254 11.35 82.1652 11.7305 82.1652 12.1618C82.1652 12.5804 82.2474 12.9546 82.4124 13.2845C82.59 13.6142 82.8372 13.8743 83.1546 14.0646C83.4714 14.2549 83.8266 14.35 84.2202 14.35Z" fill="#667085"/>
<path d="M92.1114 16.8046C92.6442 16.9441 93.183 17.0138 93.7284 17.0138C94.8828 17.0138 95.796 16.7475 96.4686 16.2147C97.1532 15.682 97.4958 14.9653 97.4958 14.0646C97.4958 13.4811 97.3884 13.0117 97.1724 12.6566C96.957 12.2887 96.678 11.9969 96.3354 11.7813C95.9928 11.5657 95.631 11.3944 95.2506 11.2675C94.8702 11.1407 94.5084 11.0329 94.1664 10.9441C93.8238 10.8553 93.5448 10.7538 93.3288 10.6396C93.1134 10.5254 93.0054 10.3732 93.0054 10.183C93.0054 10.0054 93.0882 9.87215 93.2526 9.78335C93.4176 9.68189 93.6648 9.63119 93.9948 9.63119C94.3374 9.63119 94.686 9.70091 95.0412 9.84047C95.409 9.97997 95.739 10.2211 96.0306 10.5635L97.686 8.88911C97.2678 8.35631 96.7224 7.95671 96.0498 7.69037C95.3904 7.41131 94.6674 7.27175 93.8808 7.27175C93.1326 7.27175 92.4792 7.39859 91.9212 7.65227C91.3626 7.90601 90.9312 8.25485 90.627 8.69879C90.3228 9.13007 90.1704 9.64385 90.1704 10.2401C90.1704 10.7982 90.2784 11.2612 90.4938 11.6291C90.7092 11.9842 90.9888 12.2633 91.3308 12.4663C91.6734 12.6692 92.0352 12.8278 92.4156 12.9419C92.796 13.0561 93.1578 13.1639 93.5004 13.2655C93.8424 13.3542 94.122 13.4621 94.3374 13.5889C94.566 13.7031 94.68 13.8743 94.68 14.1026C94.68 14.2802 94.5846 14.4197 94.3944 14.5213C94.2168 14.6227 93.957 14.6735 93.6144 14.6735C93.1194 14.6735 92.6628 14.5847 92.2446 14.4071C91.8258 14.2168 91.464 13.9568 91.1598 13.627L89.5044 15.3014C89.8218 15.6439 90.2022 15.9484 90.6462 16.2147C91.1028 16.4684 91.5912 16.665 92.1114 16.8046Z" fill="#667085"/>
<path d="M102.805 16.9948C101.955 16.9948 101.2 16.8236 100.541 16.4811C99.8934 16.1259 99.3864 15.6439 99.0186 15.035C98.6502 14.4134 98.4666 13.7031 98.4666 12.9039V7.53815H101.378V12.8659C101.378 13.183 101.428 13.4557 101.53 13.684C101.644 13.9124 101.809 14.09 102.025 14.2168C102.241 14.3436 102.5 14.4071 102.805 14.4071C103.236 14.4071 103.579 14.2739 103.832 14.0075C104.086 13.7284 104.213 13.3479 104.213 12.8659V7.53815H107.124V12.8849C107.124 13.6967 106.94 14.4134 106.572 15.035C106.204 15.6439 105.697 16.1259 105.05 16.4811C104.403 16.8236 103.655 16.9948 102.805 16.9948Z" fill="#667085"/>
<path d="M111.482 7.53815H108.571V16.7855H111.482V11.3817C111.482 11.0646 111.546 10.7982 111.673 10.5826C111.812 10.3669 111.997 10.202 112.225 10.0879C112.453 9.96095 112.713 9.89753 113.005 9.89753C113.423 9.89753 113.772 10.0307 114.051 10.2971C114.343 10.5508 114.489 10.9124 114.489 11.3817V16.7855H117.4V11.3817C117.4 11.0646 117.464 10.7982 117.59 10.5826C117.73 10.3669 117.914 10.202 118.142 10.0879C118.37 9.96095 118.631 9.89753 118.922 9.89753C119.341 9.89753 119.69 10.0307 119.969 10.2971C120.26 10.5508 120.406 10.9124 120.406 11.3817V16.7855H123.318V11.0582C123.318 10.2845 123.153 9.62483 122.823 9.07937C122.506 8.52119 122.068 8.09627 121.51 7.80455C120.965 7.50005 120.337 7.34783 119.626 7.34783C118.903 7.34783 118.25 7.50641 117.667 7.82357C117.287 8.02559 116.956 8.28635 116.672 8.60579C116.408 8.27165 116.086 7.99823 115.706 7.78547C115.199 7.49375 114.622 7.34783 113.975 7.34783C113.29 7.34783 112.675 7.49375 112.13 7.78547C111.892 7.90685 111.677 8.05223 111.482 8.22161V7.53815Z" fill="#667085"/>
</g>
<defs>
<clipPath id="clip0_6698_59311">
<rect width="122.85" height="24" fill="white" transform="translate(0.467529)"/>
</clipPath>
<clipPath id="clip1_6698_59311">
<rect width="26.01" height="20.4" fill="white" transform="translate(0.467529 1.80005)"/>
</clipPath>
</defs>
</svg>
