<svg width="71" height="14" viewBox="0 0 71 14" fill="none" xmlns="http://www.w3.org/2000/svg">
<g clip-path="url(#clip0_6742_12422)">
<path fill-rule="evenodd" clip-rule="evenodd" d="M7 0C10.8659 0 14.0001 3.13401 14.0001 7C14.0001 10.866 10.8659 14 7 14C3.13401 14 0 10.866 0 7C0 3.13401 3.13401 0 7 0ZM6.74699 0.523807C5.94839 0.636191 5.18798 1.27788 4.5977 2.35109C4.42649 2.66239 4.27199 3.00631 4.13738 3.37765C4.94 3.17596 5.82169 3.05705 6.74699 3.03865V0.523807ZM3.54574 3.54578C3.71319 3.02035 3.91797 2.53694 4.15433 2.10723C4.44693 1.57521 4.79419 1.11578 5.18546 0.762919C3.05784 1.38083 1.38082 3.05788 0.762896 5.18549C1.11577 4.79423 1.57517 4.44696 2.10721 4.15436C2.53694 3.918 3.02032 3.71319 3.54574 3.54578ZM3.37764 4.13738C3.17593 4.94 3.05704 5.82169 3.03863 6.74698H0.523774C0.636159 5.94839 1.27785 5.18798 2.35109 4.59774C2.66238 4.42652 3.00629 4.27203 3.37764 4.13738ZM3.54476 6.74698C3.56566 5.7372 3.71105 4.78919 3.95157 3.95157C4.78919 3.71105 5.7372 3.56566 6.74699 3.54476V4.63778C6.37028 5.60217 5.60196 6.37042 4.63754 6.74698H3.54476ZM3.03863 7.25302H0.523774C0.636159 8.05161 1.27785 8.81199 2.35109 9.40226C2.66238 9.57348 3.00629 9.72797 3.37764 9.86261C3.17593 9.05999 3.05704 8.17831 3.03863 7.25302ZM3.95157 10.0484C3.71105 9.21081 3.56566 8.2628 3.54476 7.25302H4.63754C5.60196 7.62958 6.37028 8.39783 6.74699 9.36222V10.4552C5.7372 10.4343 4.78919 10.2889 3.95157 10.0484ZM3.54574 10.4542C3.02032 10.2868 2.53694 10.082 2.10721 9.84564C1.57517 9.55304 1.11577 9.20577 0.762896 8.8145C1.38082 10.9421 3.05784 12.6192 5.18546 13.2371C4.79419 12.8842 4.44693 12.4248 4.15433 11.8928C3.91797 11.4631 3.71319 10.9796 3.54574 10.4542ZM6.74699 13.4762C5.94839 13.3638 5.18798 12.7221 4.5977 11.6489C4.42649 11.3376 4.27199 10.9937 4.13738 10.6224C4.94 10.824 5.82169 10.943 6.74699 10.9613V13.4762ZM8.81451 13.2371C9.20577 12.8842 9.55301 12.4248 9.84561 11.8928C10.0819 11.4631 10.287 10.9796 10.4543 10.4542C10.9796 10.2868 11.463 10.082 11.8928 9.84564C12.4248 9.55304 12.8843 9.20577 13.2371 8.8145C12.619 10.9421 10.9422 12.6192 8.81451 13.2371ZM9.86275 10.6224C9.72801 10.9937 9.57331 11.3376 9.40216 11.6489C8.81199 12.7221 8.05158 13.3638 7.25298 13.4762V10.9613C8.17828 10.943 9.05996 10.824 9.86275 10.6224ZM10.6223 9.86261C10.9936 9.72797 11.3377 9.57348 11.6488 9.40226C12.7223 8.81202 13.3638 8.05161 13.4762 7.25302H10.9614C10.9429 8.17831 10.8239 9.05999 10.6223 9.86261ZM10.4553 7.25302C10.4343 8.2628 10.2891 9.21081 10.0483 10.0484C9.21077 10.2889 8.26277 10.4343 7.25298 10.4552V9.36302C7.62958 8.39828 8.39808 7.62968 9.36275 7.25302H10.4553ZM10.9614 6.74698H13.4762C13.3638 5.94839 12.7223 5.18798 11.6488 4.59774C11.3377 4.42652 10.9936 4.27203 10.6223 4.13738C10.8239 4.94 10.9429 5.82169 10.9614 6.74698ZM10.0483 3.95157C10.2891 4.78919 10.4343 5.7372 10.4553 6.74698H9.36278C8.39808 6.37031 7.62958 5.60172 7.25298 4.63697V3.54476C8.26277 3.56566 9.21077 3.71105 10.0483 3.95157ZM10.4543 3.54578C10.9796 3.71319 11.463 3.918 11.8928 4.15436C12.4248 4.44696 12.8843 4.79423 13.2371 5.18549C12.619 3.05788 10.9422 1.38083 8.81451 0.762919C9.20577 1.11578 9.55301 1.57521 9.84561 2.10723C10.0819 2.53694 10.287 3.02035 10.4543 3.54578ZM7.25298 0.523807C8.05158 0.636191 8.81199 1.27788 9.40216 2.35109C9.57331 2.66239 9.72801 3.00631 9.86275 3.37765C9.05996 3.17596 8.17828 3.05705 7.25298 3.03865V0.523807Z" fill="white"/>
<path d="M43.9121 4.39719H42.2139V9.7915H43.9121V4.39719Z" fill="white"/>
<path d="M42.4029 3.38713C42.5803 3.56472 42.8022 3.65351 43.0686 3.65351C43.3349 3.65351 43.5533 3.56472 43.7234 3.38713C43.8939 3.20215 43.9789 2.98015 43.9789 2.72117C43.9789 2.45479 43.8939 2.23279 43.7234 2.05521C43.5533 1.87761 43.3349 1.78882 43.0686 1.78882C42.8022 1.78882 42.5803 1.87761 42.4029 2.05521C42.2324 2.23279 42.1474 2.45479 42.1474 2.72117C42.1474 2.98015 42.2324 3.20215 42.4029 3.38713Z" fill="white"/>
<path d="M17.8501 9.7915V1.95531H19.5927V8.25979H23.0668V9.7915H17.8501Z" fill="white"/>
<path fill-rule="evenodd" clip-rule="evenodd" d="M26.205 9.91358C25.6501 9.91358 25.1469 9.7915 24.6955 9.5473C24.2515 9.29572 23.9001 8.95535 23.6411 8.52614C23.3821 8.09697 23.2526 7.616 23.2526 7.08323C23.2526 6.55046 23.3821 6.0732 23.6411 5.65142C23.9001 5.22963 24.2515 4.89664 24.6955 4.65248C25.1395 4.40087 25.6427 4.27508 26.205 4.27508C26.7674 4.27508 27.2706 4.39719 27.7145 4.64135C28.1585 4.88555 28.51 5.22225 28.769 5.65142C29.028 6.0732 29.1575 6.55046 29.1575 7.08323C29.1575 7.616 29.028 8.09697 28.769 8.52614C28.51 8.95535 28.1585 9.29572 27.7145 9.5473C27.2706 9.7915 26.7674 9.91358 26.205 9.91358ZM26.205 8.37078C26.4492 8.37078 26.6638 8.31898 26.8488 8.21538C27.0338 8.10439 27.1744 7.9527 27.2706 7.76031C27.3742 7.56053 27.426 7.33481 27.426 7.08323C27.426 6.83165 27.3742 6.61336 27.2706 6.42838C27.167 6.23599 27.0227 6.08801 26.8377 5.98441C26.6601 5.87339 26.4492 5.81791 26.205 5.81791C25.9682 5.81791 25.7574 5.87339 25.5724 5.98441C25.3874 6.08801 25.2431 6.23599 25.1395 6.42838C25.0359 6.62078 24.9841 6.84275 24.9841 7.09433C24.9841 7.33852 25.0359 7.56053 25.1395 7.76031C25.2431 7.9527 25.3874 8.10439 25.5724 8.21538C25.7574 8.31898 25.9682 8.37078 26.205 8.37078Z" fill="white"/>
<path fill-rule="evenodd" clip-rule="evenodd" d="M30.5024 11.9004C30.9538 12.1076 31.4755 12.2112 32.0674 12.2112C32.6446 12.2112 33.1589 12.0965 33.6102 11.8671C34.0616 11.6377 34.4168 11.3195 34.6758 10.9125C34.9348 10.5056 35.0644 10.0246 35.0644 9.4696V4.39719H33.3993V4.75962C33.2755 4.65539 33.1349 4.56789 32.9776 4.49708C32.689 4.35649 32.3597 4.28617 31.9897 4.28617C31.494 4.28617 31.0537 4.40458 30.6689 4.64135C30.2841 4.87074 29.9807 5.18893 29.7587 5.59591C29.5367 5.9955 29.4258 6.44686 29.4258 6.95006C29.4258 7.44583 29.5367 7.89719 29.7587 8.30417C29.9807 8.71115 30.2841 9.03305 30.6689 9.26982C31.0537 9.5066 31.494 9.625 31.9897 9.625C32.3523 9.625 32.6816 9.55472 32.9776 9.41413C33.1209 9.34602 33.2504 9.26576 33.3661 9.17333V9.51402C33.3661 9.89139 33.244 10.1837 32.9998 10.3909C32.763 10.5981 32.4337 10.7016 32.0119 10.7016C31.6716 10.7016 31.3793 10.6425 31.1351 10.524C30.8983 10.4057 30.6837 10.2318 30.4913 10.0024L29.448 11.0457C29.7069 11.4157 30.0584 11.7006 30.5024 11.9004ZM32.9221 7.96009C32.7519 8.06369 32.5484 8.11549 32.3116 8.11549C32.0748 8.11549 31.8676 8.06369 31.69 7.96009C31.5198 7.85649 31.3867 7.71589 31.2905 7.5383C31.1943 7.35333 31.1462 7.15722 31.1462 6.95006C31.1462 6.72805 31.1943 6.52827 31.2905 6.35068C31.3867 6.17309 31.5235 6.0325 31.7011 5.9289C31.8787 5.8253 32.0822 5.7735 32.3116 5.7735C32.5484 5.7735 32.7519 5.8253 32.9221 5.9289C33.0997 6.0325 33.2328 6.17309 33.3217 6.35068C33.4179 6.52827 33.4659 6.72805 33.4659 6.95006C33.4659 7.17203 33.4179 7.37181 33.3217 7.5494C33.2328 7.7196 33.0997 7.85649 32.9221 7.96009Z" fill="white"/>
<path fill-rule="evenodd" clip-rule="evenodd" d="M38.6383 9.91358C38.0832 9.91358 37.5799 9.7915 37.1287 9.5473C36.6846 9.29572 36.3332 8.95535 36.0742 8.52614C35.8152 8.09697 35.6857 7.616 35.6857 7.08323C35.6857 6.55046 35.8152 6.0732 36.0742 5.65142C36.3332 5.22963 36.6846 4.89664 37.1287 4.65248C37.5725 4.40087 38.0758 4.27508 38.6383 4.27508C39.2004 4.27508 39.7037 4.39719 40.1475 4.64135C40.5916 4.88555 40.943 5.22225 41.202 5.65142C41.461 6.0732 41.5905 6.55046 41.5905 7.08323C41.5905 7.616 41.461 8.09697 41.202 8.52614C40.943 8.95535 40.5916 9.29572 40.1475 9.5473C39.7037 9.7915 39.2004 9.91358 38.6383 9.91358ZM38.6383 8.37078C38.8822 8.37078 39.0968 8.31898 39.2819 8.21538C39.4667 8.10439 39.6074 7.9527 39.7037 7.76031C39.8073 7.56053 39.8591 7.33481 39.8591 7.08323C39.8591 6.83165 39.8073 6.61336 39.7037 6.42838C39.6001 6.23599 39.4559 6.08801 39.2707 5.98441C39.0933 5.87339 38.8822 5.81791 38.6383 5.81791C38.4013 5.81791 38.1903 5.87339 38.0055 5.98441C37.8203 6.08801 37.6761 6.23599 37.5725 6.42838C37.4689 6.62078 37.4171 6.84275 37.4171 7.09433C37.4171 7.33852 37.4689 7.56053 37.5725 7.76031C37.6761 7.9527 37.8203 8.10439 38.0055 8.21538C38.1903 8.31898 38.4013 8.37078 38.6383 8.37078Z" fill="white"/>
<path fill-rule="evenodd" clip-rule="evenodd" d="M47.9938 9.90248C47.6315 9.90248 47.2983 9.8322 46.9949 9.69161C46.8353 9.61762 46.6911 9.52928 46.5623 9.42659V12.0669H44.8861V4.39719H46.5843V4.76949C46.7075 4.66872 46.8444 4.58161 46.9949 4.50818C47.2983 4.36016 47.6315 4.28617 47.9938 4.28617C48.5044 4.28617 48.9559 4.40829 49.3479 4.65248C49.7476 4.89664 50.0584 5.22963 50.2803 5.65142C50.5099 6.0732 50.6244 6.55417 50.6244 7.09433C50.6244 7.63452 50.5099 8.11549 50.2803 8.53727C50.0584 8.95906 49.7476 9.29201 49.3479 9.53621C48.9559 9.7804 48.5044 9.90248 47.9938 9.90248ZM47.6833 8.37078C47.9273 8.37078 48.1383 8.31527 48.3158 8.20428C48.5009 8.0933 48.6451 7.94157 48.7487 7.74921C48.8523 7.55682 48.9041 7.33852 48.9041 7.09433C48.9041 6.84275 48.8523 6.62078 48.7487 6.42838C48.6451 6.23599 48.5009 6.08801 48.3158 5.98441C48.1383 5.87339 47.9311 5.81791 47.6942 5.81791C47.4576 5.81791 47.2465 5.87339 47.0617 5.98441C46.8839 6.08801 46.7436 6.23599 46.64 6.42838C46.5364 6.62078 46.4846 6.84275 46.4846 7.09433C46.4846 7.33852 46.5325 7.55682 46.6288 7.74921C46.7324 7.94157 46.8766 8.0933 47.0617 8.20428C47.2465 8.31527 47.4537 8.37078 47.6833 8.37078Z" fill="white"/>
<path d="M52.2865 9.80259C52.5973 9.884 52.9116 9.92467 53.2298 9.92467C53.9032 9.92467 54.4359 9.76931 54.8282 9.45851C55.2276 9.14774 55.4274 8.72967 55.4274 8.20428C55.4274 7.86391 55.3648 7.5901 55.2388 7.38294C55.1131 7.16835 54.9504 6.99815 54.7505 6.87236C54.5507 6.74657 54.3396 6.64664 54.1177 6.57265C53.8958 6.49866 53.6848 6.43577 53.4853 6.38397C53.2854 6.33217 53.1227 6.27298 52.9967 6.20638C52.871 6.13977 52.808 6.05098 52.808 5.93999C52.808 5.83639 52.8563 5.75869 52.9522 5.70689C53.0485 5.64771 53.1927 5.61813 53.3852 5.61813C53.585 5.61813 53.7884 5.6588 53.9956 5.74021C54.2101 5.82159 54.4026 5.96222 54.5727 6.162L55.5384 5.18525C55.2944 4.87445 54.9763 4.64135 54.5839 4.48599C54.1993 4.3232 53.7775 4.24179 53.3187 4.24179C52.8822 4.24179 52.5011 4.31578 52.1756 4.46376C51.8497 4.61178 51.5981 4.81527 51.4206 5.07423C51.2432 5.32581 51.1543 5.62552 51.1543 5.97331C51.1543 6.29888 51.2173 6.56898 51.3429 6.78356C51.4686 6.99073 51.6317 7.15355 51.8312 7.27192C52.031 7.39032 52.2421 7.48283 52.464 7.5494C52.6859 7.616 52.8969 7.6789 53.0968 7.73812C53.2963 7.78992 53.4594 7.85281 53.585 7.9268C53.7184 7.99341 53.7849 8.0933 53.7849 8.22647C53.7849 8.33007 53.7292 8.41145 53.6183 8.47067C53.5147 8.52985 53.3631 8.55946 53.1633 8.55946C52.8745 8.55946 52.6082 8.50766 52.3642 8.40406C52.1199 8.29308 51.9089 8.14139 51.7314 7.94899L50.7658 8.92574C50.9509 9.12552 51.1728 9.30314 51.4318 9.45851C51.6982 9.60649 51.9831 9.72118 52.2865 9.80259Z" fill="white"/>
<path d="M58.5242 9.91358C58.0286 9.91358 57.5883 9.81369 57.2037 9.61391C56.826 9.40671 56.5303 9.12552 56.3157 8.77034C56.1008 8.40777 55.9937 7.99341 55.9937 7.52721V4.39719H57.6919V7.50502C57.6919 7.68999 57.7213 7.8491 57.7808 7.98228C57.8473 8.11549 57.9436 8.21909 58.0692 8.29308C58.1952 8.36707 58.3468 8.40406 58.5242 8.40406C58.7759 8.40406 58.9757 8.32636 59.1238 8.17096C59.2718 8.00818 59.3457 7.78621 59.3457 7.50502V4.39719H61.0439V7.51611C61.0439 7.9897 60.9368 8.40777 60.7219 8.77034C60.5073 9.12552 60.2116 9.40671 59.8339 9.61391C59.4566 9.81369 59.0202 9.91358 58.5242 9.91358Z" fill="white"/>
<path d="M63.5863 4.39719H61.8881V9.7915H63.5863V6.63926C63.5863 6.45428 63.6234 6.29888 63.6972 6.17309C63.7788 6.0473 63.8862 5.95109 64.0192 5.88452C64.1526 5.81049 64.3041 5.7735 64.4742 5.7735C64.7185 5.7735 64.9219 5.8512 65.0846 6.0066C65.2551 6.15458 65.3401 6.36549 65.3401 6.63926V9.7915H67.0383V6.63926C67.0383 6.45428 67.0754 6.29888 67.1493 6.17309C67.2308 6.0473 67.3379 5.95109 67.4713 5.88452C67.6043 5.81049 67.7562 5.7735 67.9263 5.7735C68.1706 5.7735 68.3739 5.8512 68.5367 6.0066C68.7068 6.15458 68.7918 6.36549 68.7918 6.63926V9.7915H70.4904V6.45057C70.4904 5.99921 70.3941 5.61442 70.2016 5.29624C70.0165 4.97063 69.7613 4.72276 69.4358 4.55259C69.1177 4.37497 68.7512 4.28617 68.3368 4.28617C67.9151 4.28617 67.5339 4.37868 67.1937 4.56369C66.9725 4.68153 66.7793 4.83364 66.6138 5.01998C66.4594 4.82507 66.2718 4.66557 66.0503 4.54146C65.7545 4.37129 65.4178 4.28617 65.0405 4.28617C64.6408 4.28617 64.2821 4.37129 63.9639 4.54146C63.8253 4.61227 63.6997 4.69707 63.5863 4.79588V4.39719Z" fill="white"/>
</g>
<defs>
<clipPath id="clip0_6742_12422">
<rect width="70.4904" height="14" fill="white"/>
</clipPath>
</defs>
</svg>
