<svg width="122" height="24" viewBox="0 0 122 24" fill="none" xmlns="http://www.w3.org/2000/svg">
<g clip-path="url(#clip0_6698_59308)">
<path fill-rule="evenodd" clip-rule="evenodd" d="M12.6269 0C19.254 0 24.627 5.37259 24.627 12C24.627 18.6274 19.254 24 12.6269 24C5.99944 24 0.626862 18.6274 0.626862 12C0.626862 5.37259 5.99944 0 12.6269 0ZM12.1931 0.897954C10.8241 1.09061 9.52054 2.19065 8.50864 4.03044C8.21512 4.5641 7.95028 5.15368 7.71952 5.79026C9.09544 5.4445 10.6069 5.24065 12.1931 5.20912V0.897954ZM6.70528 6.07848C6.99232 5.17775 7.34338 4.34904 7.74856 3.61239C8.25016 2.70035 8.84548 1.91277 9.51622 1.30786C5.86888 2.36714 2.99398 5.24207 1.93468 8.88942C2.5396 8.21868 3.32716 7.62336 4.23922 7.12176C4.9759 6.71658 5.80456 6.36546 6.70528 6.07848ZM6.4171 7.09266C6.07132 8.46858 5.8675 9.98004 5.83594 11.5663H1.52476C1.71742 10.1972 2.81746 8.89368 4.6573 7.88184C5.19094 7.58832 5.7805 7.32348 6.4171 7.09266ZM6.7036 11.5663C6.73942 9.8352 6.98866 8.21004 7.40098 6.77412C8.8369 6.3618 10.4621 6.11256 12.1931 6.07674V7.95048C11.5473 9.60372 10.2302 10.9207 8.57692 11.5663H6.7036ZM5.83594 12.4337H1.52476C1.71742 13.8028 2.81746 15.1063 4.6573 16.1182C5.19094 16.4117 5.7805 16.6765 6.4171 16.9073C6.07132 15.5314 5.8675 14.02 5.83594 12.4337ZM7.40098 17.2259C6.98866 15.79 6.73942 14.1648 6.7036 12.4337H8.57692C10.2302 13.0793 11.5473 14.3963 12.1931 16.0495V17.9233C10.4621 17.8874 8.8369 17.6382 7.40098 17.2259ZM6.70528 17.9215C5.80456 17.6345 4.9759 17.2834 4.23922 16.8782C3.32716 16.3766 2.5396 15.7813 1.93468 15.1106C2.99398 18.7579 5.86888 21.6329 9.51622 22.6921C8.84548 22.0872 8.25016 21.2996 7.74856 20.3876C7.34338 19.651 6.99232 18.8222 6.70528 17.9215ZM12.1931 23.102C10.8241 22.9094 9.52054 21.8093 8.50864 19.9696C8.21512 19.4359 7.95028 18.8463 7.71952 18.2098C9.09544 18.5555 10.6069 18.7594 12.1931 18.7909V23.102ZM15.7374 22.6921C16.4082 22.0872 17.0034 21.2996 17.505 20.3876C17.91 19.651 18.2616 18.8222 18.5484 17.9215C19.449 17.6345 20.2776 17.2834 21.0144 16.8782C21.9264 16.3766 22.7142 15.7813 23.319 15.1106C22.2594 18.7579 19.3848 21.6329 15.7374 22.6921ZM17.5344 18.2098C17.3034 18.8463 17.0382 19.4359 16.7448 19.9696C15.7331 21.8093 14.4296 22.9094 13.0605 23.102V18.7909C14.6468 18.7594 16.1582 18.5555 17.5344 18.2098ZM18.8364 16.9073C19.473 16.6765 20.0628 16.4117 20.5962 16.1182C22.4364 15.1063 23.5362 13.8028 23.7288 12.4337H19.4178C19.386 14.02 19.182 15.5314 18.8364 16.9073ZM18.5502 12.4337C18.5142 14.1648 18.2652 15.79 17.8524 17.2259C16.4168 17.6382 14.7916 17.8874 13.0605 17.9233V16.0509C13.7061 14.3971 15.0236 13.0795 16.6773 12.4337H18.5502ZM19.4178 11.5663H23.7288C23.5362 10.1972 22.4364 8.89368 20.5962 7.88184C20.0628 7.58832 19.473 7.32348 18.8364 7.09266C19.182 8.46858 19.386 9.98004 19.4178 11.5663ZM17.8524 6.77412C18.2652 8.21004 18.5142 9.8352 18.5502 11.5663H16.6773C15.0236 10.9205 13.7061 9.60294 13.0605 7.9491V6.07674C14.7916 6.11256 16.4168 6.3618 17.8524 6.77412ZM18.5484 6.07848C19.449 6.36546 20.2776 6.71658 21.0144 7.12176C21.9264 7.62336 22.7142 8.21868 23.319 8.88942C22.2594 5.24207 19.3848 2.36714 15.7374 1.30786C16.4082 1.91277 17.0034 2.70035 17.505 3.61239C17.91 4.34904 18.2616 5.17775 18.5484 6.07848ZM13.0605 0.897954C14.4296 1.09061 15.7331 2.19065 16.7448 4.03044C17.0382 4.5641 17.3034 5.15368 17.5344 5.79026C16.1582 5.4445 14.6468 5.24065 13.0605 5.20912V0.897954Z" fill="#667085"/>
<path d="M75.9047 7.53815H72.9935V16.7855H75.9047V7.53815Z" fill="#667085"/>
<path d="M73.3175 5.80661C73.6217 6.11105 74.0021 6.26327 74.4587 6.26327C74.9153 6.26327 75.2897 6.11105 75.5813 5.80661C75.8735 5.48951 76.0193 5.10893 76.0193 4.66496C76.0193 4.20831 75.8735 3.82774 75.5813 3.52332C75.2897 3.21886 74.9153 3.06665 74.4587 3.06665C74.0021 3.06665 73.6217 3.21886 73.3175 3.52332C73.0253 3.82774 72.8795 4.20831 72.8795 4.66496C72.8795 5.10893 73.0253 5.48951 73.3175 5.80661Z" fill="#667085"/>
<path d="M31.2271 16.7855V3.35206H34.2144V14.1598H40.1701V16.7855H31.2271Z" fill="#667085"/>
<path fill-rule="evenodd" clip-rule="evenodd" d="M45.5498 16.9948C44.5984 16.9948 43.7359 16.7855 42.962 16.3669C42.2009 15.9356 41.5984 15.3521 41.1544 14.6164C40.7105 13.8806 40.4885 13.0561 40.4885 12.1428C40.4885 11.2295 40.7105 10.4113 41.1544 9.68825C41.5984 8.96519 42.2009 8.39435 42.962 7.97579C43.7231 7.54445 44.5857 7.32881 45.5498 7.32881C46.5138 7.32881 47.3764 7.53815 48.1375 7.95671C48.8986 8.37533 49.5012 8.95253 49.9451 9.68825C50.3891 10.4113 50.6111 11.2295 50.6111 12.1428C50.6111 13.0561 50.3891 13.8806 49.9451 14.6164C49.5012 15.3521 48.8986 15.9356 48.1375 16.3669C47.3764 16.7855 46.5138 16.9948 45.5498 16.9948ZM45.5498 14.35C45.9684 14.35 46.3363 14.2612 46.6534 14.0836C46.9705 13.8934 47.2115 13.6333 47.3764 13.3035C47.554 12.961 47.6428 12.5741 47.6428 12.1428C47.6428 11.7115 47.554 11.3373 47.3764 11.0202C47.1988 10.6904 46.9515 10.4367 46.6343 10.2591C46.3299 10.0688 45.9684 9.97367 45.5498 9.97367C45.1439 9.97367 44.7824 10.0688 44.4652 10.2591C44.1481 10.4367 43.9007 10.6904 43.7231 11.0202C43.5455 11.35 43.4568 11.7305 43.4568 12.1618C43.4568 12.5804 43.5455 12.961 43.7231 13.3035C43.9007 13.6333 44.1481 13.8934 44.4652 14.0836C44.7824 14.2612 45.1439 14.35 45.5498 14.35Z" fill="#667085"/>
<path fill-rule="evenodd" clip-rule="evenodd" d="M52.9168 20.4008C53.6905 20.7559 54.5848 20.9335 55.5997 20.9335C56.5891 20.9335 57.4707 20.7369 58.2445 20.3437C59.0183 19.9504 59.6271 19.405 60.0711 18.7073C60.515 18.0097 60.7373 17.1851 60.7373 16.2337V7.53815H57.8829V8.15945C57.6706 7.98077 57.4295 7.83077 57.1599 7.70939C56.6651 7.46837 56.1007 7.34783 55.4665 7.34783C54.6166 7.34783 53.8618 7.55081 53.2022 7.95671C52.5425 8.34995 52.0225 8.89541 51.6419 9.59309C51.2613 10.2781 51.0711 11.0519 51.0711 11.9145C51.0711 12.7644 51.2613 13.5382 51.6419 14.2358C52.0225 14.9335 52.5425 15.4853 53.2022 15.8912C53.8618 16.2971 54.6166 16.5001 55.4665 16.5001C56.088 16.5001 56.6525 16.3796 57.1599 16.1386C57.4057 16.0219 57.6277 15.8843 57.8258 15.7258V16.3099C57.8258 16.9568 57.6166 17.4578 57.1979 17.813C56.792 18.1682 56.2276 18.3458 55.5045 18.3458C54.921 18.3458 54.4199 18.2443 54.0013 18.0413C53.5954 17.8384 53.2275 17.5403 52.8977 17.147L51.1091 18.9356C51.5531 19.5699 52.1557 20.0583 52.9168 20.4008ZM57.0647 13.646C56.773 13.8236 56.4242 13.9124 56.0182 13.9124C55.6123 13.9124 55.2571 13.8236 54.9527 13.646C54.6609 13.4684 54.4326 13.2274 54.2677 12.9229C54.1028 12.6058 54.0203 12.2696 54.0203 11.9145C54.0203 11.5339 54.1028 11.1914 54.2677 10.887C54.4326 10.5826 54.6672 10.3415 54.9717 10.1639C55.2761 9.98633 55.625 9.89753 56.0182 9.89753C56.4242 9.89753 56.773 9.98633 57.0647 10.1639C57.3692 10.3415 57.5975 10.5826 57.7498 10.887C57.9146 11.1914 57.9971 11.5339 57.9971 11.9145C57.9971 12.295 57.9146 12.6375 57.7498 12.9419C57.5975 13.2337 57.3692 13.4684 57.0647 13.646Z" fill="#667085"/>
<path fill-rule="evenodd" clip-rule="evenodd" d="M66.8639 16.9948C65.9123 16.9948 65.0495 16.7855 64.2761 16.3669C63.5147 15.9356 62.9123 15.3521 62.4683 14.6164C62.0243 13.8806 61.8023 13.0561 61.8023 12.1428C61.8023 11.2295 62.0243 10.4113 62.4683 9.68825C62.9123 8.96519 63.5147 8.39435 64.2761 7.97579C65.0369 7.54445 65.8997 7.32881 66.8639 7.32881C67.8275 7.32881 68.6903 7.53815 69.4511 7.95671C70.2125 8.37533 70.8149 8.95253 71.2589 9.68825C71.7029 10.4113 71.9249 11.2295 71.9249 12.1428C71.9249 13.0561 71.7029 13.8806 71.2589 14.6164C70.8149 15.3521 70.2125 15.9356 69.4511 16.3669C68.6903 16.7855 67.8275 16.9948 66.8639 16.9948ZM66.8639 14.35C67.2821 14.35 67.6499 14.2612 67.9673 14.0836C68.2841 13.8934 68.5253 13.6333 68.6903 13.3035C68.8679 12.961 68.9567 12.5741 68.9567 12.1428C68.9567 11.7115 68.8679 11.3373 68.6903 11.0202C68.5127 10.6904 68.2655 10.4367 67.9481 10.2591C67.6439 10.0688 67.2821 9.97367 66.8639 9.97367C66.4577 9.97367 66.0959 10.0688 65.7791 10.2591C65.4617 10.4367 65.2145 10.6904 65.0369 11.0202C64.8593 11.35 64.7705 11.7305 64.7705 12.1618C64.7705 12.5804 64.8593 12.961 65.0369 13.3035C65.2145 13.6333 65.4617 13.8934 65.7791 14.0836C66.0959 14.2612 66.4577 14.35 66.8639 14.35Z" fill="#667085"/>
<path fill-rule="evenodd" clip-rule="evenodd" d="M82.9019 16.9758C82.2809 16.9758 81.7097 16.8553 81.1895 16.6143C80.9159 16.4875 80.6687 16.336 80.4479 16.16V20.6862H77.5745V7.53815H80.4857V8.17637C80.6969 8.00363 80.9315 7.85429 81.1895 7.72841C81.7097 7.47467 82.2809 7.34783 82.9019 7.34783C83.7773 7.34783 84.5513 7.55717 85.2233 7.97579C85.9085 8.39435 86.4413 8.96519 86.8217 9.68825C87.2153 10.4113 87.4115 11.2358 87.4115 12.1618C87.4115 13.0879 87.2153 13.9124 86.8217 14.6354C86.4413 15.3585 85.9085 15.9293 85.2233 16.3479C84.5513 16.7665 83.7773 16.9758 82.9019 16.9758ZM82.3697 14.35C82.7879 14.35 83.1497 14.2549 83.4539 14.0646C83.7713 13.8743 84.0185 13.6142 84.1961 13.2845C84.3737 12.9546 84.4625 12.5804 84.4625 12.1618C84.4625 11.7305 84.3737 11.35 84.1961 11.0202C84.0185 10.6904 83.7713 10.4367 83.4539 10.2591C83.1497 10.0688 82.7945 9.97367 82.3883 9.97367C81.9827 9.97367 81.6209 10.0688 81.3041 10.2591C80.9993 10.4367 80.7587 10.6904 80.5811 11.0202C80.4035 11.35 80.3147 11.7305 80.3147 12.1618C80.3147 12.5804 80.3969 12.9546 80.5619 13.2845C80.7395 13.6142 80.9867 13.8743 81.3041 14.0646C81.6209 14.2549 81.9761 14.35 82.3697 14.35Z" fill="#667085"/>
<path d="M90.2609 16.8046C90.7937 16.9441 91.3325 17.0138 91.8779 17.0138C93.0323 17.0138 93.9455 16.7475 94.6181 16.2147C95.3027 15.682 95.6453 14.9653 95.6453 14.0646C95.6453 13.4811 95.5379 13.0117 95.3219 12.6566C95.1065 12.2887 94.8275 11.9969 94.4849 11.7813C94.1423 11.5657 93.7805 11.3944 93.4001 11.2675C93.0197 11.1407 92.6579 11.0329 92.3159 10.9441C91.9733 10.8553 91.6943 10.7538 91.4783 10.6396C91.2629 10.5254 91.1549 10.3732 91.1549 10.183C91.1549 10.0054 91.2377 9.87215 91.4021 9.78335C91.5671 9.68189 91.8143 9.63119 92.1443 9.63119C92.4869 9.63119 92.8355 9.70091 93.1907 9.84047C93.5585 9.97997 93.8885 10.2211 94.1801 10.5635L95.8355 8.88911C95.4173 8.35631 94.8719 7.95671 94.1993 7.69037C93.5399 7.41131 92.8169 7.27175 92.0303 7.27175C91.2821 7.27175 90.6287 7.39859 90.0707 7.65227C89.5121 7.90601 89.0807 8.25485 88.7765 8.69879C88.4723 9.13007 88.3199 9.64385 88.3199 10.2401C88.3199 10.7982 88.4279 11.2612 88.6433 11.6291C88.8587 11.9842 89.1383 12.2633 89.4803 12.4663C89.8229 12.6692 90.1847 12.8278 90.5651 12.9419C90.9455 13.0561 91.3073 13.1639 91.6499 13.2655C91.9919 13.3542 92.2715 13.4621 92.4869 13.5889C92.7155 13.7031 92.8295 13.8743 92.8295 14.1026C92.8295 14.2802 92.7341 14.4197 92.5439 14.5213C92.3663 14.6227 92.1065 14.6735 91.7639 14.6735C91.2689 14.6735 90.8123 14.5847 90.3941 14.4071C89.9753 14.2168 89.6135 13.9568 89.3093 13.627L87.6539 15.3014C87.9713 15.6439 88.3517 15.9484 88.7957 16.2147C89.2523 16.4684 89.7407 16.665 90.2609 16.8046Z" fill="#667085"/>
<path d="M100.954 16.9948C100.105 16.9948 99.3497 16.8236 98.6903 16.4811C98.0429 16.1259 97.5359 15.6439 97.1681 15.035C96.7997 14.4134 96.6161 13.7031 96.6161 12.9039V7.53815H99.5273V12.8659C99.5273 13.183 99.5777 13.4557 99.6797 13.684C99.7937 13.9124 99.9587 14.09 100.174 14.2168C100.39 14.3436 100.65 14.4071 100.954 14.4071C101.386 14.4071 101.728 14.2739 101.982 14.0075C102.236 13.7284 102.362 13.3479 102.362 12.8659V7.53815H105.274V12.8849C105.274 13.6967 105.09 14.4134 104.722 15.035C104.354 15.6439 103.847 16.1259 103.199 16.4811C102.553 16.8236 101.804 16.9948 100.954 16.9948Z" fill="#667085"/>
<path d="M109.632 7.53815H106.721V16.7855H109.632V11.3817C109.632 11.0646 109.696 10.7982 109.822 10.5826C109.962 10.3669 110.146 10.202 110.374 10.0879C110.603 9.96095 110.863 9.89753 111.154 9.89753C111.573 9.89753 111.922 10.0307 112.201 10.2971C112.493 10.5508 112.639 10.9124 112.639 11.3817V16.7855H115.55V11.3817C115.55 11.0646 115.613 10.7982 115.74 10.5826C115.88 10.3669 116.063 10.202 116.292 10.0879C116.52 9.96095 116.78 9.89753 117.072 9.89753C117.491 9.89753 117.839 10.0307 118.118 10.2971C118.41 10.5508 118.556 10.9124 118.556 11.3817V16.7855H121.468V11.0582C121.468 10.2845 121.303 9.62483 120.973 9.07937C120.655 8.52119 120.218 8.09627 119.66 7.80455C119.114 7.50005 118.486 7.34783 117.776 7.34783C117.053 7.34783 116.399 7.50641 115.816 7.82357C115.437 8.02559 115.106 8.28635 114.822 8.60579C114.557 8.27165 114.236 7.99823 113.856 7.78547C113.349 7.49375 112.772 7.34783 112.125 7.34783C111.44 7.34783 110.825 7.49375 110.279 7.78547C110.042 7.90685 109.826 8.05223 109.632 8.22161V7.53815Z" fill="#667085"/>
</g>
<defs>
<clipPath id="clip0_6698_59308">
<rect width="120.841" height="24" fill="white" transform="translate(0.626862)"/>
</clipPath>
</defs>
</svg>
