<svg width="127" height="24" viewBox="0 0 127 24" fill="none" xmlns="http://www.w3.org/2000/svg">
<g clip-path="url(#clip0_6698_59326)">
<g clip-path="url(#clip1_6698_59326)">
<path d="M19.3892 17.7599C22.5703 17.7599 25.1492 15.1811 25.1492 11.9999C25.1492 8.81875 22.5703 6.2399 19.3892 6.2399C16.4036 6.2399 13.9486 8.51131 13.658 11.4203C12.4812 10.888 11.2098 10.5699 9.90782 10.4862C10.6337 5.90348 14.6023 2.3999 19.3892 2.3999C24.6911 2.3999 28.9892 6.69797 28.9892 11.9999C28.9892 17.1084 24.9989 21.285 19.9651 21.5829V21.5999H13.6385V20.7621C13.6385 19.6737 13.1896 18.6153 12.367 17.824C11.5419 17.0305 10.4087 16.573 9.21312 16.573C8.01754 16.573 6.8843 17.0305 6.05928 17.824C5.23663 18.6153 4.78776 19.6737 4.78776 20.7621V21.5999H0.57312V20.7416C0.57312 18.4977 1.50434 16.3634 3.13316 14.803C4.70987 13.2925 6.81538 12.4368 9.00725 12.3863C9.07579 12.3847 9.14443 12.3839 9.21312 12.3839C9.2663 12.3839 9.31944 12.3844 9.37258 12.3853C11.5811 12.4247 13.7052 13.2818 15.2931 14.803C16.1727 15.6456 16.8489 16.6557 17.2848 17.7599H19.3892Z" fill="#667085"/>
<path d="M10.9781 19.1643C11.4462 19.5714 11.7092 20.1235 11.7092 20.6991V21.6006H6.71716V20.6991C6.71716 20.1235 6.98015 19.5714 7.4482 19.1643C7.9163 18.7572 8.5512 18.5286 9.21316 18.5286C9.87513 18.5286 10.51 18.7572 10.9781 19.1643Z" fill="#667085"/>
<path d="M21.5882 11.0576C20.8942 11.0576 20.3316 10.495 20.3316 9.80093V9.48672C20.3316 8.96621 19.9095 8.54419 19.389 8.54419C18.8684 8.54419 18.4465 8.96616 18.4465 9.48672V9.80093C18.4465 10.495 17.8838 11.0576 17.1897 11.0576H16.8755C16.355 11.0576 15.933 11.4796 15.933 12.0002C15.933 12.5207 16.355 12.9427 16.8755 12.9427H17.1897C17.8838 12.9427 18.4465 13.5054 18.4465 14.1995V14.5137C18.4465 15.0342 18.8684 15.4562 19.389 15.4562C19.9095 15.4562 20.3316 15.0342 20.3316 14.5137V14.1995C20.3316 13.5054 20.8942 12.9427 21.5882 12.9427H21.9025C22.423 12.9427 22.845 12.5207 22.845 12.0002C22.845 11.4796 22.423 11.0576 21.9025 11.0576H21.5882Z" fill="#667085"/>
<path d="M5.94917 3.93592C5.94917 4.78422 6.63686 5.4719 7.48517 5.4719H7.86912C8.50536 5.4719 9.02112 5.98767 9.02112 6.6239C9.02112 7.26014 8.50536 7.7759 7.86912 7.7759H7.48517C6.63686 7.7759 5.94917 8.4636 5.94917 9.31186V9.6959C5.94917 10.3321 5.43341 10.8479 4.79717 10.8479C4.16094 10.8479 3.64517 10.3321 3.64517 9.6959V9.3119C3.64517 8.4636 2.95748 7.7759 2.10917 7.7759H1.72512C1.08889 7.7759 0.57312 7.26014 0.57312 6.6239C0.57312 5.98767 1.08889 5.4719 1.72512 5.4719H2.10918C2.95748 5.4719 3.64517 4.78421 3.64517 3.9359V3.5519C3.64517 2.91567 4.16094 2.3999 4.79717 2.3999C5.43341 2.3999 5.94917 2.91567 5.94917 3.5519V3.93592Z" fill="#667085"/>
</g>
<path d="M80.6508 7.53815H77.7396V16.7855H80.6508V7.53815Z" fill="#667085"/>
<path d="M78.0636 5.80661C78.3678 6.11105 78.7482 6.26327 79.2048 6.26327C79.6614 6.26327 80.0358 6.11105 80.3274 5.80661C80.6196 5.48951 80.7654 5.10893 80.7654 4.66496C80.7654 4.20831 80.6196 3.82774 80.3274 3.52332C80.0358 3.21886 79.6614 3.06665 79.2048 3.06665C78.7482 3.06665 78.3678 3.21886 78.0636 3.52332C77.7714 3.82774 77.6256 4.20831 77.6256 4.66496C77.6256 5.10893 77.7714 5.48951 78.0636 5.80661Z" fill="#667085"/>
<path d="M35.9731 16.7855V3.35206H38.9605V14.1598H44.9161V16.7855H35.9731Z" fill="#667085"/>
<path fill-rule="evenodd" clip-rule="evenodd" d="M50.2959 16.9948C49.3445 16.9948 48.4819 16.7855 47.7081 16.3669C46.947 15.9356 46.3445 15.3521 45.9005 14.6164C45.4566 13.8806 45.2346 13.0561 45.2346 12.1428C45.2346 11.2295 45.4566 10.4113 45.9005 9.68825C46.3445 8.96519 46.947 8.39435 47.7081 7.97579C48.4692 7.54445 49.3318 7.32881 50.2959 7.32881C51.2599 7.32881 52.1225 7.53815 52.8836 7.95671C53.6447 8.37533 54.2473 8.95253 54.6912 9.68825C55.1352 10.4113 55.3572 11.2295 55.3572 12.1428C55.3572 13.0561 55.1352 13.8806 54.6912 14.6164C54.2473 15.3521 53.6447 15.9356 52.8836 16.3669C52.1225 16.7855 51.2599 16.9948 50.2959 16.9948ZM50.2959 14.35C50.7145 14.35 51.0823 14.2612 51.3995 14.0836C51.7166 13.8934 51.9576 13.6333 52.1225 13.3035C52.3001 12.961 52.3889 12.5741 52.3889 12.1428C52.3889 11.7115 52.3001 11.3373 52.1225 11.0202C51.9449 10.6904 51.6976 10.4367 51.3804 10.2591C51.076 10.0688 50.7145 9.97367 50.2959 9.97367C49.89 9.97367 49.5285 10.0688 49.2113 10.2591C48.8942 10.4367 48.6468 10.6904 48.4692 11.0202C48.2916 11.35 48.2029 11.7305 48.2029 12.1618C48.2029 12.5804 48.2916 12.961 48.4692 13.3035C48.6468 13.6333 48.8942 13.8934 49.2113 14.0836C49.5285 14.2612 49.89 14.35 50.2959 14.35Z" fill="#667085"/>
<path fill-rule="evenodd" clip-rule="evenodd" d="M57.6628 20.4008C58.4366 20.7559 59.3309 20.9335 60.3457 20.9335C61.3351 20.9335 62.2168 20.7369 62.9905 20.3437C63.7644 19.9504 64.3732 19.405 64.8172 18.7073C65.2611 18.0097 65.4834 17.1851 65.4834 16.2337V7.53815H62.629V8.15945C62.4167 7.98077 62.1756 7.83077 61.906 7.70939C61.4112 7.46837 60.8467 7.34783 60.2125 7.34783C59.3626 7.34783 58.6078 7.55081 57.9483 7.95671C57.2886 8.34995 56.7685 8.89541 56.388 9.59309C56.0074 10.2781 55.8172 11.0519 55.8172 11.9145C55.8172 12.7644 56.0074 13.5382 56.388 14.2358C56.7685 14.9335 57.2886 15.4853 57.9483 15.8912C58.6078 16.2971 59.3626 16.5001 60.2125 16.5001C60.8341 16.5001 61.3986 16.3796 61.906 16.1386C62.1517 16.0219 62.3737 15.8843 62.5719 15.7258V16.3099C62.5719 16.9568 62.3626 17.4578 61.944 17.813C61.5381 18.1682 60.9736 18.3458 60.2506 18.3458C59.6671 18.3458 59.166 18.2443 58.7474 18.0413C58.3415 17.8384 57.9736 17.5403 57.6438 17.147L55.8552 18.9356C56.2992 19.5699 56.9017 20.0583 57.6628 20.4008ZM61.8108 13.646C61.519 13.8236 61.1703 13.9124 60.7643 13.9124C60.3584 13.9124 60.0032 13.8236 59.6988 13.646C59.407 13.4684 59.1787 13.2274 59.0138 12.9229C58.8489 12.6058 58.7664 12.2696 58.7664 11.9145C58.7664 11.5339 58.8489 11.1914 59.0138 10.887C59.1787 10.5826 59.4133 10.3415 59.7178 10.1639C60.0222 9.98633 60.3711 9.89753 60.7643 9.89753C61.1703 9.89753 61.519 9.98633 61.8108 10.1639C62.1153 10.3415 62.3436 10.5826 62.4958 10.887C62.6607 11.1914 62.7432 11.5339 62.7432 11.9145C62.7432 12.295 62.6607 12.6375 62.4958 12.9419C62.3436 13.2337 62.1153 13.4684 61.8108 13.646Z" fill="#667085"/>
<path fill-rule="evenodd" clip-rule="evenodd" d="M71.61 16.9948C70.6584 16.9948 69.7956 16.7855 69.0222 16.3669C68.2608 15.9356 67.6584 15.3521 67.2144 14.6164C66.7704 13.8806 66.5484 13.0561 66.5484 12.1428C66.5484 11.2295 66.7704 10.4113 67.2144 9.68825C67.6584 8.96519 68.2608 8.39435 69.0222 7.97579C69.783 7.54445 70.6458 7.32881 71.61 7.32881C72.5736 7.32881 73.4364 7.53815 74.1972 7.95671C74.9586 8.37533 75.561 8.95253 76.005 9.68825C76.449 10.4113 76.671 11.2295 76.671 12.1428C76.671 13.0561 76.449 13.8806 76.005 14.6164C75.561 15.3521 74.9586 15.9356 74.1972 16.3669C73.4364 16.7855 72.5736 16.9948 71.61 16.9948ZM71.61 14.35C72.0282 14.35 72.396 14.2612 72.7134 14.0836C73.0302 13.8934 73.2714 13.6333 73.4364 13.3035C73.614 12.961 73.7028 12.5741 73.7028 12.1428C73.7028 11.7115 73.614 11.3373 73.4364 11.0202C73.2588 10.6904 73.0116 10.4367 72.6942 10.2591C72.39 10.0688 72.0282 9.97367 71.61 9.97367C71.2038 9.97367 70.842 10.0688 70.5252 10.2591C70.2078 10.4367 69.9606 10.6904 69.783 11.0202C69.6054 11.35 69.5166 11.7305 69.5166 12.1618C69.5166 12.5804 69.6054 12.961 69.783 13.3035C69.9606 13.6333 70.2078 13.8934 70.5252 14.0836C70.842 14.2612 71.2038 14.35 71.61 14.35Z" fill="#667085"/>
<path fill-rule="evenodd" clip-rule="evenodd" d="M87.648 16.9758C87.027 16.9758 86.4558 16.8553 85.9356 16.6143C85.662 16.4875 85.4148 16.336 85.194 16.16V20.6862H82.3206V7.53815H85.2318V8.17637C85.443 8.00363 85.6776 7.85429 85.9356 7.72841C86.4558 7.47467 87.027 7.34783 87.648 7.34783C88.5234 7.34783 89.2974 7.55717 89.9694 7.97579C90.6546 8.39435 91.1874 8.96519 91.5678 9.68825C91.9614 10.4113 92.1576 11.2358 92.1576 12.1618C92.1576 13.0879 91.9614 13.9124 91.5678 14.6354C91.1874 15.3585 90.6546 15.9293 89.9694 16.3479C89.2974 16.7665 88.5234 16.9758 87.648 16.9758ZM87.1158 14.35C87.534 14.35 87.8958 14.2549 88.2 14.0646C88.5174 13.8743 88.7646 13.6142 88.9422 13.2845C89.1198 12.9546 89.2086 12.5804 89.2086 12.1618C89.2086 11.7305 89.1198 11.35 88.9422 11.0202C88.7646 10.6904 88.5174 10.4367 88.2 10.2591C87.8958 10.0688 87.5406 9.97367 87.1344 9.97367C86.7288 9.97367 86.367 10.0688 86.0502 10.2591C85.7454 10.4367 85.5048 10.6904 85.3272 11.0202C85.1496 11.35 85.0608 11.7305 85.0608 12.1618C85.0608 12.5804 85.143 12.9546 85.308 13.2845C85.4856 13.6142 85.7328 13.8743 86.0502 14.0646C86.367 14.2549 86.7222 14.35 87.1158 14.35Z" fill="#667085"/>
<path d="M95.007 16.8046C95.5398 16.9441 96.0786 17.0138 96.624 17.0138C97.7784 17.0138 98.6916 16.7475 99.3642 16.2147C100.049 15.682 100.391 14.9653 100.391 14.0646C100.391 13.4811 100.284 13.0117 100.068 12.6566C99.8526 12.2887 99.5736 11.9969 99.231 11.7813C98.8884 11.5657 98.5266 11.3944 98.1462 11.2675C97.7658 11.1407 97.404 11.0329 97.062 10.9441C96.7194 10.8553 96.4404 10.7538 96.2244 10.6396C96.009 10.5254 95.901 10.3732 95.901 10.183C95.901 10.0054 95.9838 9.87215 96.1482 9.78335C96.3132 9.68189 96.5604 9.63119 96.8904 9.63119C97.233 9.63119 97.5816 9.70091 97.9368 9.84047C98.3046 9.97997 98.6346 10.2211 98.9262 10.5635L100.582 8.88911C100.163 8.35631 99.618 7.95671 98.9454 7.69037C98.286 7.41131 97.563 7.27175 96.7764 7.27175C96.0282 7.27175 95.3748 7.39859 94.8168 7.65227C94.2582 7.90601 93.8268 8.25485 93.5226 8.69879C93.2184 9.13007 93.066 9.64385 93.066 10.2401C93.066 10.7982 93.174 11.2612 93.3894 11.6291C93.6048 11.9842 93.8844 12.2633 94.2264 12.4663C94.569 12.6692 94.9308 12.8278 95.3112 12.9419C95.6916 13.0561 96.0534 13.1639 96.396 13.2655C96.738 13.3542 97.0176 13.4621 97.233 13.5889C97.4616 13.7031 97.5756 13.8743 97.5756 14.1026C97.5756 14.2802 97.4802 14.4197 97.29 14.5213C97.1124 14.6227 96.8526 14.6735 96.51 14.6735C96.015 14.6735 95.5584 14.5847 95.1402 14.4071C94.7214 14.2168 94.3596 13.9568 94.0554 13.627L92.4 15.3014C92.7174 15.6439 93.0978 15.9484 93.5418 16.2147C93.9984 16.4684 94.4868 16.665 95.007 16.8046Z" fill="#667085"/>
<path d="M105.7 16.9948C104.851 16.9948 104.096 16.8236 103.436 16.4811C102.789 16.1259 102.282 15.6439 101.914 15.035C101.546 14.4134 101.362 13.7031 101.362 12.9039V7.53815H104.273V12.8659C104.273 13.183 104.324 13.4557 104.426 13.684C104.54 13.9124 104.705 14.09 104.92 14.2168C105.136 14.3436 105.396 14.4071 105.7 14.4071C106.132 14.4071 106.474 14.2739 106.728 14.0075C106.982 13.7284 107.108 13.3479 107.108 12.8659V7.53815H110.02V12.8849C110.02 13.6967 109.836 14.4134 109.468 15.035C109.1 15.6439 108.593 16.1259 107.945 16.4811C107.299 16.8236 106.55 16.9948 105.7 16.9948Z" fill="#667085"/>
<path d="M114.378 7.53815H111.467V16.7855H114.378V11.3817C114.378 11.0646 114.442 10.7982 114.568 10.5826C114.708 10.3669 114.892 10.202 115.12 10.0879C115.349 9.96095 115.609 9.89753 115.9 9.89753C116.319 9.89753 116.668 10.0307 116.947 10.2971C117.239 10.5508 117.385 10.9124 117.385 11.3817V16.7855H120.296V11.3817C120.296 11.0646 120.359 10.7982 120.486 10.5826C120.626 10.3669 120.809 10.202 121.038 10.0879C121.266 9.96095 121.526 9.89753 121.818 9.89753C122.237 9.89753 122.585 10.0307 122.864 10.2971C123.156 10.5508 123.302 10.9124 123.302 11.3817V16.7855H126.214V11.0582C126.214 10.2845 126.049 9.62483 125.719 9.07937C125.401 8.52119 124.964 8.09627 124.406 7.80455C123.86 7.50005 123.232 7.34783 122.522 7.34783C121.799 7.34783 121.145 7.50641 120.562 7.82357C120.183 8.02559 119.852 8.28635 119.568 8.60579C119.303 8.27165 118.982 7.99823 118.602 7.78547C118.095 7.49375 117.518 7.34783 116.871 7.34783C116.186 7.34783 115.571 7.49375 115.025 7.78547C114.788 7.90685 114.572 8.05223 114.378 8.22161V7.53815Z" fill="#667085"/>
</g>
<defs>
<clipPath id="clip0_6698_59326">
<rect width="125.64" height="24" fill="white" transform="translate(0.57312)"/>
</clipPath>
<clipPath id="clip1_6698_59326">
<rect width="28.8" height="19.2" fill="white" transform="translate(0.57312 2.3999)"/>
</clipPath>
</defs>
</svg>
