<svg width="166" height="35" viewBox="0 0 166 35" fill="none" xmlns="http://www.w3.org/2000/svg">
<path d="M0 34.3811V0.020471H7.01133V28.1947H23.457V34.3811H0Z" fill="url(#paint0_radial_6698_59123)"/>
<path d="M37.4265 34.9998C35.2612 34.9998 33.3709 34.5186 31.7556 33.5563C30.1746 32.5939 28.9545 31.2535 28.0953 29.5351C27.2704 27.8166 26.858 25.806 26.858 23.5033V6.33582H33.6115V22.9362C33.6115 24.1047 33.8349 25.1358 34.2817 26.0294C34.7629 26.8886 35.4331 27.576 36.2923 28.0916C37.1859 28.5727 38.1826 28.8133 39.2824 28.8133C40.3823 28.8133 41.3618 28.5727 42.221 28.0916C43.0802 27.576 43.7505 26.8714 44.2316 25.9778C44.7128 25.0842 44.9534 24.0188 44.9534 22.7815V6.33582H51.7069V34.3811H45.3142V28.8649L45.8813 29.8444C45.2283 31.5628 44.1457 32.8517 42.6334 33.7109C41.1556 34.5702 39.4199 34.9998 37.4265 34.9998Z" fill="url(#paint1_radial_6698_59123)"/>
<path d="M57.9848 34.3811V6.33582H64.326V12.8316L63.6042 11.749C64.1197 9.72119 65.1508 8.20894 66.6974 7.21223C68.244 6.21552 70.0656 5.71717 72.1621 5.71717C74.4649 5.71717 76.4927 6.31863 78.2455 7.52156C79.9983 8.72448 81.1325 10.3055 81.648 12.2645L79.7406 12.4192C80.5998 10.1852 81.8886 8.51827 83.6071 7.41845C85.3256 6.28426 87.3018 5.71717 89.5358 5.71717C91.5292 5.71717 93.2992 6.16397 94.8458 7.05757C96.4268 7.95117 97.6641 9.20565 98.5577 10.821C99.4513 12.402 99.8981 14.2407 99.8981 16.3373V34.3811H93.1446V17.9354C93.1446 16.6981 92.9212 15.6327 92.4744 14.7391C92.0276 13.8455 91.4089 13.1581 90.6184 12.6769C89.8279 12.1614 88.8656 11.9036 87.7314 11.9036C86.666 11.9036 85.7208 12.1614 84.8959 12.6769C84.0711 13.1581 83.4352 13.8455 82.9884 14.7391C82.5416 15.6327 82.3183 16.6981 82.3183 17.9354V34.3811H75.5647V17.9354C75.5647 16.6981 75.3413 15.6327 74.8945 14.7391C74.4477 13.8455 73.8119 13.1581 72.987 12.6769C72.1965 12.1614 71.2514 11.9036 70.1515 11.9036C69.0861 11.9036 68.1409 12.1614 67.3161 12.6769C66.4912 13.1581 65.8554 13.8455 65.4086 14.7391C64.9618 15.6327 64.7384 16.6981 64.7384 17.9354V34.3811H57.9848Z" fill="url(#paint2_radial_6698_59123)"/>
<path d="M106.652 35L110.07 7.16374H116.823L113.405 35H106.652ZM103.316 7.16375L104.196 0H110.949L110.07 7.16374L103.316 7.16375Z" fill="url(#paint3_radial_6698_59123)"/>
<path d="M122.858 34.3812V6.33585H129.199V12.5739L128.684 11.6459C129.337 9.54938 130.351 8.08869 131.725 7.26382C133.135 6.43896 134.819 6.02653 136.778 6.02653H138.427V12.0068H136.004C134.08 12.0068 132.533 12.6082 131.365 13.8112C130.196 14.9797 129.612 16.6294 129.612 18.7603V34.3812H122.858Z" fill="url(#paint4_radial_6698_59123)"/>
<path d="M150.647 34.9998C148.688 34.9998 146.987 34.6733 145.543 34.0203C144.1 33.3673 142.983 32.4393 142.192 31.2364C141.402 29.9991 141.006 28.5728 141.006 26.9574C141.006 25.4108 141.35 24.036 142.037 22.8331C142.725 21.5958 143.79 20.5647 145.234 19.7399C146.677 18.915 148.499 18.3307 150.698 17.987L159.875 16.492V21.6474L151.987 22.9878C150.647 23.2283 149.65 23.658 148.997 24.2766C148.344 24.8953 148.018 25.7029 148.018 26.6996C148.018 27.662 148.379 28.4353 149.1 29.0196C149.856 29.5695 150.784 29.8444 151.884 29.8444C153.293 29.8444 154.531 29.5523 155.596 28.968C156.696 28.3494 157.538 27.5073 158.122 26.4419C158.741 25.3764 159.05 24.2079 159.05 22.9362V15.7187C159.05 14.5157 158.569 13.519 157.607 12.7285C156.679 11.9037 155.441 11.4912 153.895 11.4912C152.451 11.4912 151.162 11.8865 150.028 12.677C148.928 13.4331 148.121 14.447 147.605 15.7187L142.089 13.0379C142.639 11.56 143.498 10.2883 144.667 9.22287C145.87 8.12305 147.279 7.26382 148.894 6.64517C150.509 6.02653 152.262 5.7172 154.153 5.7172C156.455 5.7172 158.483 6.14682 160.236 7.00605C161.989 7.83091 163.346 8.99947 164.309 10.5117C165.305 11.9896 165.804 13.7252 165.804 15.7187V34.3812H159.411V29.5867L160.855 29.4835C160.133 30.6865 159.274 31.7004 158.277 32.5252C157.28 33.3157 156.146 33.9344 154.874 34.3812C153.603 34.7936 152.194 34.9998 150.647 34.9998Z" fill="url(#paint5_radial_6698_59123)"/>
<defs>
<radialGradient id="paint0_radial_6698_59123" cx="0" cy="0" r="1" gradientUnits="userSpaceOnUse" gradientTransform="translate(-23 -15) rotate(12.9399) scale(235.733 424.51)">
<stop stop-color="#444CE7"/>
<stop offset="1" stop-color="#FF008B"/>
</radialGradient>
<radialGradient id="paint1_radial_6698_59123" cx="0" cy="0" r="1" gradientUnits="userSpaceOnUse" gradientTransform="translate(-23 -15) rotate(12.9399) scale(235.733 424.51)">
<stop stop-color="#444CE7"/>
<stop offset="1" stop-color="#FF008B"/>
</radialGradient>
<radialGradient id="paint2_radial_6698_59123" cx="0" cy="0" r="1" gradientUnits="userSpaceOnUse" gradientTransform="translate(-23 -15) rotate(12.9399) scale(235.733 424.51)">
<stop stop-color="#444CE7"/>
<stop offset="1" stop-color="#FF008B"/>
</radialGradient>
<radialGradient id="paint3_radial_6698_59123" cx="0" cy="0" r="1" gradientUnits="userSpaceOnUse" gradientTransform="translate(-23 -15) rotate(12.9399) scale(235.733 424.51)">
<stop stop-color="#444CE7"/>
<stop offset="1" stop-color="#FF008B"/>
</radialGradient>
<radialGradient id="paint4_radial_6698_59123" cx="0" cy="0" r="1" gradientUnits="userSpaceOnUse" gradientTransform="translate(-23 -15) rotate(12.9399) scale(235.733 424.51)">
<stop stop-color="#444CE7"/>
<stop offset="1" stop-color="#FF008B"/>
</radialGradient>
<radialGradient id="paint5_radial_6698_59123" cx="0" cy="0" r="1" gradientUnits="userSpaceOnUse" gradientTransform="translate(-23 -15) rotate(12.9399) scale(235.733 424.51)">
<stop stop-color="#444CE7"/>
<stop offset="1" stop-color="#FF008B"/>
</radialGradient>
</defs>
</svg>
