<svg width="24" height="24" viewBox="0 0 24 24" fill="none" xmlns="http://www.w3.org/2000/svg">
<g clip-path="url(#clip0_4104_9643)">
<g clip-path="url(#clip1_4104_9643)">
<path d="M0 9.6C0 6.23976 0 4.55952 0.654 3.276C1.22923 2.14708 2.14708 1.22923 3.276 0.654C4.55952 0 6.24 0 9.6 0H14.4C17.7602 0 19.4405 0 20.724 0.654C21.8529 1.22923 22.7708 2.14708 23.346 3.276C24 4.55952 24 6.24 24 9.6V14.4C24 17.7602 24 19.4405 23.346 20.724C22.7708 21.8529 21.8529 22.7708 20.724 23.346C19.4405 24 17.76 24 14.4 24H9.6C6.23976 24 4.55952 24 3.276 23.346C2.14708 22.7708 1.22923 21.8529 0.654 20.724C0 19.4405 0 17.76 0 14.4V9.6Z" fill="#179DE3"/>
<path d="M18.5953 8.30841C18.0522 8.10683 17.5589 7.79039 17.1492 7.38071C16.7395 6.97102 16.4231 6.47775 16.2215 5.93457C16.0197 6.47759 15.7032 6.97072 15.2935 7.38034C14.8839 7.78995 14.3907 8.10642 13.8477 8.30817C14.3907 8.51009 14.8838 8.82667 15.2934 9.23636C15.703 9.64605 16.0195 10.1392 16.2213 10.6823C16.4231 10.1392 16.7396 9.64597 17.1493 9.23631C17.559 8.82665 18.0522 8.51016 18.5953 8.30841Z" fill="white"/>
<path d="M12.0293 6H6.0293V18H18.0269V12L12.0293 17.9976V6Z" fill="white"/>
</g>
</g>
<defs>
<clipPath id="clip0_4104_9643">
<rect width="24" height="24" fill="white"/>
</clipPath>
<clipPath id="clip1_4104_9643">
<rect width="24" height="24" fill="white"/>
</clipPath>
</defs>
</svg>
