<svg width="16" height="16" viewBox="0 0 16 16" fill="none" xmlns="http://www.w3.org/2000/svg">
<path d="M13.333 13.3333H2.66634C1.93301 13.3333 1.33301 12.7333 1.33301 12V3.99999C1.33301 3.26666 1.93301 2.66666 2.66634 2.66666H13.333C14.0663 2.66666 14.6663 3.26666 14.6663 3.99999V12C14.6663 12.7333 14.0663 13.3333 13.333 13.3333Z" stroke="#444CE7" stroke-miterlimit="10" stroke-linecap="round" stroke-linejoin="round"/>
<path d="M13.333 2.66666H2.66634C2.29779 2.66666 1.96292 2.8182 1.72096 3.06206C1.26128 3.52533 1.65143 4.22289 2.18608 4.59714L6.85275 7.86381C7.54139 8.34586 8.45796 8.34586 9.1466 7.86381L13.8133 4.59714C14.3479 4.22289 14.7381 3.52533 14.2784 3.06206C14.0364 2.8182 13.7016 2.66666 13.333 2.66666Z" stroke="#444CE7" stroke-miterlimit="10" stroke-linecap="round"/>
</svg>
