<svg width="22" height="22" viewBox="0 0 22 22" fill="none" xmlns="http://www.w3.org/2000/svg">
<path d="M1.375 5.94765V16.2601C9.25031 12.4127 12.7497 19.8996 20.625 16.0522V5.73968C12.7497 9.5871 9.25031 2.10022 1.375 5.94765Z" fill="#D0D5DD"/>
<path d="M20.9894 5.1563C20.8904 5.09452 20.7773 5.05896 20.6608 5.05294C20.5443 5.04693 20.4282 5.07067 20.3234 5.12192C16.6341 6.92661 13.9992 6.08098 11.214 5.18895C8.29211 4.25309 5.26281 3.2863 1.07766 5.32989C0.960721 5.38598 0.862037 5.474 0.793 5.5838C0.723962 5.69359 0.687388 5.82066 0.6875 5.95036V16.2568C0.687484 16.3735 0.717147 16.4882 0.773699 16.5902C0.830251 16.6923 0.911831 16.7782 1.01076 16.84C1.10969 16.9018 1.22272 16.9374 1.33921 16.9435C1.4557 16.9496 1.57182 16.9259 1.67664 16.8747C5.36594 15.07 8.00078 15.9157 10.7903 16.8077C12.4437 17.3362 14.1281 17.875 16.0325 17.875C17.5012 17.875 19.103 17.5554 20.9232 16.6668C21.0388 16.6103 21.1363 16.5226 21.2045 16.4135C21.2727 16.3044 21.3089 16.1784 21.3091 16.0497V5.74325C21.3101 5.6263 21.2813 5.51102 21.2253 5.40831C21.1694 5.3056 21.0882 5.21886 20.9894 5.1563ZM19.9375 15.6123C16.4484 17.1738 13.9004 16.3591 11.2097 15.4989C9.55625 14.9704 7.87187 14.4315 5.9675 14.4315C4.62954 14.438 3.30519 14.7006 2.06594 15.205V6.38778C5.555 4.8263 8.10305 5.64098 10.7937 6.50122C13.4845 7.36145 16.2542 8.25004 19.9375 6.79684V15.6123ZM11 8.25005C10.4561 8.25005 9.92442 8.41133 9.47218 8.7135C9.01995 9.01568 8.66747 9.44517 8.45933 9.94767C8.25119 10.4502 8.19673 11.0031 8.30284 11.5365C8.40895 12.07 8.67086 12.56 9.05546 12.9446C9.44005 13.3292 9.93005 13.5911 10.4635 13.6972C10.9969 13.8033 11.5499 13.7489 12.0524 13.5407C12.5549 13.3326 12.9844 12.9801 13.2865 12.5279C13.5887 12.0756 13.75 11.5439 13.75 11C13.75 10.2707 13.4603 9.57123 12.9445 9.0555C12.4288 8.53978 11.7293 8.25005 11 8.25005ZM11 12.375C10.7281 12.375 10.4622 12.2944 10.2361 12.1433C10.01 11.9922 9.83374 11.7775 9.72966 11.5262C9.62559 11.275 9.59836 10.9985 9.65142 10.7318C9.70447 10.4651 9.83543 10.2201 10.0277 10.0278C10.22 9.83548 10.465 9.70452 10.7317 9.65147C10.9985 9.59841 11.2749 9.62564 11.5262 9.72971C11.7774 9.83378 11.9922 10.01 12.1433 10.2361C12.2944 10.4623 12.375 10.7281 12.375 11C12.375 11.3647 12.2301 11.7145 11.9723 11.9723C11.7144 12.2302 11.3647 12.375 11 12.375ZM4.8125 8.25005V12.375C4.8125 12.5574 4.74007 12.7323 4.61114 12.8612C4.4822 12.9901 4.30734 13.0625 4.125 13.0625C3.94266 13.0625 3.7678 12.9901 3.63886 12.8612C3.50993 12.7323 3.4375 12.5574 3.4375 12.375V8.25005C3.4375 8.06771 3.50993 7.89284 3.63886 7.76391C3.7678 7.63498 3.94266 7.56255 4.125 7.56255C4.30734 7.56255 4.4822 7.63498 4.61114 7.76391C4.74007 7.89284 4.8125 8.06771 4.8125 8.25005ZM17.1875 13.75V9.62505C17.1875 9.44271 17.2599 9.26784 17.3889 9.13891C17.5178 9.00998 17.6927 8.93755 17.875 8.93755C18.0573 8.93755 18.2322 9.00998 18.3611 9.13891C18.4901 9.26784 18.5625 9.44271 18.5625 9.62505V13.75C18.5625 13.9324 18.4901 14.1073 18.3611 14.2362C18.2322 14.3651 18.0573 14.4375 17.875 14.4375C17.6927 14.4375 17.5178 14.3651 17.3889 14.2362C17.2599 14.1073 17.1875 13.9324 17.1875 13.75Z" fill="#101828"/>
</svg>
