<svg width="22" height="22" viewBox="0 0 22 22" fill="none" xmlns="http://www.w3.org/2000/svg">
<path d="M1.375 5.94765V16.2601C9.25031 12.4127 12.7497 19.8996 20.625 16.0522V5.73968C12.7497 9.5871 9.25031 2.10022 1.375 5.94765Z" fill="#6172F3"/>
<path d="M20.9894 5.15581C20.8904 5.09404 20.7773 5.05847 20.6608 5.05245C20.5443 5.04644 20.4282 5.07018 20.3234 5.12143C16.6341 6.92612 13.9992 6.08049 11.214 5.18846C8.29211 4.2526 5.26281 3.28581 1.07766 5.3294C0.960721 5.38549 0.862037 5.47352 0.793 5.58331C0.723962 5.6931 0.687388 5.82018 0.6875 5.94987V16.2564C0.687484 16.373 0.717147 16.4877 0.773699 16.5898C0.830251 16.6918 0.911831 16.7777 1.01076 16.8395C1.10969 16.9013 1.22272 16.9369 1.33921 16.943C1.4557 16.9491 1.57182 16.9254 1.67664 16.8742C5.36594 15.0696 8.00078 15.9152 10.7903 16.8072C12.4437 17.3357 14.1281 17.8746 16.0325 17.8746C17.5012 17.8746 19.103 17.5549 20.9232 16.6663C21.0388 16.6098 21.1363 16.5221 21.2045 16.413C21.2727 16.3039 21.3089 16.1779 21.3091 16.0492V5.74276C21.3101 5.62581 21.2813 5.51053 21.2253 5.40782C21.1694 5.30511 21.0882 5.21837 20.9894 5.15581ZM19.9375 15.6118C16.4484 17.1733 13.9004 16.3586 11.2097 15.4984C9.55625 14.9699 7.87187 14.431 5.9675 14.431C4.62954 14.4375 3.30519 14.7001 2.06594 15.2045V6.38729C5.555 4.82581 8.10305 5.64049 10.7937 6.50073C13.4845 7.36096 16.2542 8.24956 19.9375 6.79635V15.6118ZM11 8.24956C10.4561 8.24956 9.92442 8.41084 9.47218 8.71302C9.01995 9.01519 8.66747 9.44468 8.45933 9.94718C8.25119 10.4497 8.19673 11.0026 8.30284 11.5361C8.40895 12.0695 8.67086 12.5595 9.05546 12.9441C9.44005 13.3287 9.93005 13.5906 10.4635 13.6967C10.9969 13.8028 11.5499 13.7484 12.0524 13.5402C12.5549 13.3321 12.9844 12.9796 13.2865 12.5274C13.5887 12.0751 13.75 11.5435 13.75 10.9996C13.75 10.2702 13.4603 9.57074 12.9445 9.05501C12.4288 8.53929 11.7293 8.24956 11 8.24956ZM11 12.3746C10.7281 12.3746 10.4622 12.2939 10.2361 12.1428C10.01 11.9917 9.83374 11.777 9.72966 11.5257C9.62559 11.2745 9.59836 10.998 9.65142 10.7313C9.70447 10.4646 9.83543 10.2196 10.0277 10.0273C10.22 9.83499 10.465 9.70403 10.7317 9.65098C10.9985 9.59792 11.2749 9.62515 11.5262 9.72922C11.7774 9.83329 11.9922 10.0095 12.1433 10.2356C12.2944 10.4618 12.375 10.7276 12.375 10.9996C12.375 11.3642 12.2301 11.714 11.9723 11.9718C11.7144 12.2297 11.3647 12.3746 11 12.3746ZM4.8125 8.24956V12.3746C4.8125 12.5569 4.74007 12.7318 4.61114 12.8607C4.4822 12.9896 4.30734 13.0621 4.125 13.0621C3.94266 13.0621 3.7678 12.9896 3.63886 12.8607C3.50993 12.7318 3.4375 12.5569 3.4375 12.3746V8.24956C3.4375 8.06722 3.50993 7.89235 3.63886 7.76342C3.7678 7.63449 3.94266 7.56206 4.125 7.56206C4.30734 7.56206 4.4822 7.63449 4.61114 7.76342C4.74007 7.89235 4.8125 8.06722 4.8125 8.24956ZM17.1875 13.7496V9.62456C17.1875 9.44222 17.2599 9.26735 17.3889 9.13842C17.5178 9.00949 17.6927 8.93706 17.875 8.93706C18.0573 8.93706 18.2322 9.00949 18.3611 9.13842C18.4901 9.26735 18.5625 9.44222 18.5625 9.62456V13.7496C18.5625 13.9319 18.4901 14.1068 18.3611 14.2357C18.2322 14.3646 18.0573 14.4371 17.875 14.4371C17.6927 14.4371 17.5178 14.3646 17.3889 14.2357C17.2599 14.1068 17.1875 13.9319 17.1875 13.7496Z" fill="#C7D7FE"/>
</svg>
