<svg width="24" height="24" viewBox="0 0 24 24" fill="none" xmlns="http://www.w3.org/2000/svg">
<mask id="path-1-inside-1_4567_62047" fill="white">
<path d="M3.96967 3.53033C4.26665 3.23335 4.73335 3.23335 5.03033 3.53033L20.9402 19.4402C21.2372 19.7372 21.2372 20.2039 20.9402 20.5009C20.6432 20.7979 20.1766 20.7979 19.8796 20.5009L3.96967 4.59099C3.67268 4.29401 3.67268 3.82732 3.96967 3.53033Z"/>
</mask>
<path d="M3.96967 3.53033L5.03033 4.59099C4.74153 4.87979 4.25847 4.87979 3.96967 4.59099L5.03033 3.53033L6.09099 2.46967C5.20822 1.5869 3.79178 1.5869 2.90901 2.46967L3.96967 3.53033ZM5.03033 3.53033L3.96967 4.59099L19.8796 20.5009L20.9402 19.4402L22.0009 18.3796L6.09099 2.46967L5.03033 3.53033ZM20.9402 19.4402L19.8796 20.5009C19.5908 20.2121 19.5908 19.729 19.8796 19.4402L20.9402 20.5009L22.0009 21.5616C22.8837 20.6788 22.8837 19.2623 22.0009 18.3796L20.9402 19.4402ZM20.9402 20.5009L19.8796 19.4402C20.1684 19.1514 20.6514 19.1514 20.9402 19.4402L19.8796 20.5009L18.8189 21.5616C19.7017 22.4443 21.1181 22.4443 22.0009 21.5616L20.9402 20.5009ZM19.8796 20.5009L20.9402 19.4402L5.03033 3.53033L3.96967 4.59099L2.90901 5.65165L18.8189 21.5616L19.8796 20.5009ZM3.96967 4.59099L5.03033 3.53033C5.31913 3.81913 5.31913 4.30219 5.03033 4.59099L3.96967 3.53033L2.90901 2.46967C2.02624 3.35244 2.02624 4.76888 2.90901 5.65165L3.96967 4.59099Z" fill="#D0D5DD" mask="url(#path-1-inside-1_4567_62047)"/>
<mask id="path-3-inside-2_4567_62047" fill="white">
<path d="M3.53033 20.0303C3.23335 19.7333 3.23335 19.2667 3.53033 18.9697L19.4402 3.05977C19.7372 2.76278 20.2039 2.76278 20.5009 3.05977C20.7979 3.35675 20.7979 3.82344 20.5009 4.12043L4.59099 20.0303C4.29401 20.3273 3.82731 20.3273 3.53033 20.0303Z"/>
</mask>
<path d="M3.53033 20.0303L4.59099 18.9697C4.87979 19.2585 4.87979 19.7415 4.59099 20.0303L3.53033 18.9697L2.46967 17.909C1.5869 18.7918 1.5869 20.2082 2.46967 21.091L3.53033 20.0303ZM3.53033 18.9697L4.59099 20.0303L20.5009 4.12043L19.4402 3.05977L18.3796 1.99911L2.46967 17.909L3.53033 18.9697ZM19.4402 3.05977L20.5009 4.12043C20.2121 4.40923 19.729 4.40923 19.4402 4.12043L20.5009 3.05977L21.5616 1.99911C20.6788 1.11634 19.2623 1.11634 18.3796 1.99911L19.4402 3.05977ZM20.5009 3.05977L19.4402 4.12043C19.1514 3.83163 19.1514 3.34857 19.4402 3.05977L20.5009 4.12043L21.5616 5.18109C22.4443 4.29832 22.4443 2.88188 21.5616 1.99911L20.5009 3.05977ZM20.5009 4.12043L19.4402 3.05977L3.53033 18.9697L4.59099 20.0303L5.65165 21.091L21.5616 5.18109L20.5009 4.12043ZM4.59099 20.0303L3.53033 18.9697C3.81913 18.6809 4.30219 18.6809 4.59099 18.9697L3.53033 20.0303L2.46967 21.091C3.35244 21.9738 4.76888 21.9738 5.65165 21.091L4.59099 20.0303Z" fill="#D0D5DD" mask="url(#path-3-inside-2_4567_62047)"/>
</svg>
