<svg width="28" height="29" viewBox="0 0 28 29" fill="none" xmlns="http://www.w3.org/2000/svg">
<g opacity="0.9" filter="url(#filter0_dd_4113_10832)">
<rect x="2" y="1" width="24" height="24" rx="6" fill="url(#paint0_linear_4113_10832)"/>
<rect x="2.3" y="1.3" width="23.4" height="23.4" rx="5.7" stroke="white" stroke-width="0.6"/>
<path d="M5.11963 12.6997H22.8794C23.2202 12.6997 23.4581 12.7002 23.6431 12.7153C23.7794 12.7265 23.8726 12.7445 23.9438 12.77L24.0083 12.7983C24.1353 12.8631 24.2446 12.9565 24.3276 13.0708L24.4019 13.1909C24.4421 13.2699 24.4691 13.3746 24.4839 13.5562C24.499 13.7412 24.4995 13.9789 24.4995 14.3198V16.1196C24.4995 17.4687 24.4992 18.4632 24.4351 19.2485C24.3792 19.9324 24.2766 20.4382 24.0933 20.8647L24.0093 21.0425C23.6319 21.7832 23.0577 22.4031 22.353 22.8354L22.0425 23.0093C21.5785 23.2457 21.0294 23.3712 20.2476 23.4351C19.4622 23.4992 18.4685 23.4995 17.1196 23.4995H10.8794C9.53048 23.4995 8.53676 23.4992 7.75146 23.4351C7.06753 23.3792 6.5618 23.2765 6.13525 23.0933L5.95654 23.0093C5.21578 22.6318 4.5959 22.0578 4.16357 21.353L3.98975 21.0425C3.7535 20.5786 3.62783 20.0299 3.56396 19.2485C3.4998 18.4632 3.49951 17.4687 3.49951 16.1196V14.3198C3.49951 13.9789 3.50002 13.7412 3.51514 13.5562C3.52625 13.4202 3.54442 13.3275 3.56982 13.2563L3.59814 13.1909C3.66292 13.064 3.75636 12.9546 3.87061 12.8716L3.99072 12.7983C4.06973 12.7581 4.17442 12.7302 4.35596 12.7153C4.541 12.7002 4.77869 12.6997 5.11963 12.6997Z" fill="url(#paint1_linear_4113_10832)" stroke="#BE2929" stroke-width="0.6"/>
<path d="M3.19971 9.8798C3.19971 10.5519 3.19971 10.8879 3.3305 11.1446C3.44555 11.3704 3.62912 11.554 3.85492 11.669C4.11161 11.7998 4.44764 11.7998 5.11971 11.7998H22.8797C23.5518 11.7998 23.8878 11.7998 24.1445 11.669C24.3703 11.554 24.5539 11.3704 24.6689 11.1446C24.7997 10.8879 24.7997 10.5519 24.7997 9.8798C24.7997 7.19155 24.7997 5.84743 24.2765 4.82065C23.8163 3.91747 23.082 3.18317 22.1789 2.72297C21.1521 2.1998 19.808 2.1998 17.1197 2.1998H10.8797C8.19146 2.1998 6.84733 2.1998 5.82055 2.72297C4.91737 3.18317 4.18307 3.91747 3.72288 4.82065C3.19971 5.84743 3.19971 7.19155 3.19971 9.8798Z" fill="url(#paint2_linear_4113_10832)"/>
<g filter="url(#filter1_di_4113_10832)">
<path d="M11.6698 17.4999C11.6698 18.028 11.5682 18.4757 11.3651 18.8429C11.162 19.2101 10.887 19.489 10.5401 19.6796C10.1948 19.8702 9.8073 19.9655 9.37762 19.9655C8.94637 19.9655 8.55809 19.8694 8.21277 19.6772C7.86746 19.4851 7.59324 19.2062 7.39012 18.8405C7.18855 18.4733 7.08777 18.0265 7.08777 17.4999C7.08777 16.9718 7.18855 16.5241 7.39012 16.1569C7.59324 15.7897 7.86746 15.5108 8.21277 15.3202C8.55809 15.1296 8.94637 15.0343 9.37762 15.0343C9.8073 15.0343 10.1948 15.1296 10.5401 15.3202C10.887 15.5108 11.162 15.7897 11.3651 16.1569C11.5682 16.5241 11.6698 16.9718 11.6698 17.4999ZM10.4839 17.4999C10.4839 17.1874 10.4393 16.9233 10.3503 16.7077C10.2628 16.4921 10.1362 16.3288 9.97059 16.2179C9.80652 16.1069 9.60887 16.0515 9.37762 16.0515C9.14793 16.0515 8.95027 16.1069 8.78465 16.2179C8.61902 16.3288 8.49168 16.4921 8.40262 16.7077C8.31512 16.9233 8.27137 17.1874 8.27137 17.4999C8.27137 17.8124 8.31512 18.0765 8.40262 18.2921C8.49168 18.5077 8.61902 18.671 8.78465 18.7819C8.95027 18.8929 9.14793 18.9483 9.37762 18.9483C9.60887 18.9483 9.80652 18.8929 9.97059 18.7819C10.1362 18.671 10.2628 18.5077 10.3503 18.2921C10.4393 18.0765 10.4839 17.8124 10.4839 17.4999ZM12.2646 19.8999V15.0999H14.2662C14.6256 15.0999 14.9264 15.1507 15.1686 15.2522C15.4123 15.3538 15.5951 15.496 15.717 15.6788C15.8404 15.8616 15.9021 16.0733 15.9021 16.314C15.9021 16.4968 15.8639 16.6601 15.7873 16.8038C15.7107 16.946 15.6053 17.064 15.4709 17.1577C15.3365 17.2515 15.1811 17.3171 15.0045 17.3546V17.4015C15.1982 17.4108 15.3771 17.4632 15.5412 17.5585C15.7068 17.6538 15.8396 17.7866 15.9396 17.9569C16.0396 18.1257 16.0896 18.3257 16.0896 18.5569C16.0896 18.8147 16.024 19.0452 15.8928 19.2483C15.7615 19.4499 15.5717 19.6093 15.3232 19.7265C15.0748 19.8421 14.7732 19.8999 14.4186 19.8999H12.2646ZM13.4248 18.9647H14.142C14.3936 18.9647 14.5787 18.9171 14.6975 18.8218C14.8178 18.7265 14.8779 18.5937 14.8779 18.4233C14.8779 18.2999 14.849 18.1937 14.7912 18.1046C14.7334 18.014 14.6514 17.9444 14.5451 17.896C14.4389 17.846 14.3115 17.821 14.1631 17.821H13.4248V18.9647ZM13.4248 17.0733H14.067C14.1936 17.0733 14.3061 17.0522 14.4045 17.0101C14.5029 16.9679 14.5795 16.9069 14.6342 16.8272C14.6904 16.7476 14.7186 16.6515 14.7186 16.539C14.7186 16.378 14.6615 16.2515 14.5475 16.1593C14.4334 16.0671 14.2795 16.021 14.0857 16.021H13.4248V17.0733ZM18.515 15.0999H19.6587V18.4187C19.6571 18.7296 19.5829 19.0015 19.4361 19.2343C19.2892 19.4655 19.0861 19.6452 18.8267 19.7733C18.5689 19.9015 18.2704 19.9655 17.9314 19.9655C17.6314 19.9655 17.3587 19.9132 17.1134 19.8085C16.8696 19.7038 16.6751 19.5413 16.5298 19.321C16.3861 19.1007 16.315 18.8187 16.3165 18.4749H17.472C17.4767 18.5983 17.5001 18.7038 17.5423 18.7913C17.5861 18.8772 17.6462 18.9421 17.7228 18.9858C17.7993 19.0296 17.8907 19.0515 17.997 19.0515C18.1079 19.0515 18.2017 19.028 18.2782 18.9812C18.3548 18.9327 18.4126 18.8616 18.4517 18.7679C18.4923 18.6741 18.5134 18.5577 18.515 18.4187V15.0999Z" fill="url(#paint3_linear_4113_10832)" shape-rendering="crispEdges"/>
</g>
</g>
<defs>
<filter id="filter0_dd_4113_10832" x="0.8" y="0" width="26.4" height="28.6" filterUnits="userSpaceOnUse" color-interpolation-filters="sRGB">
<feFlood flood-opacity="0" result="BackgroundImageFix"/>
<feColorMatrix in="SourceAlpha" type="matrix" values="0 0 0 0 0 0 0 0 0 0 0 0 0 0 0 0 0 0 127 0" result="hardAlpha"/>
<feMorphology radius="2.4" operator="erode" in="SourceAlpha" result="effect1_dropShadow_4113_10832"/>
<feOffset dy="2.4"/>
<feGaussianBlur stdDeviation="1.8"/>
<feComposite in2="hardAlpha" operator="out"/>
<feColorMatrix type="matrix" values="0 0 0 0 0 0 0 0 0 0 0 0 0 0 0 0 0 0 0.2 0"/>
<feBlend mode="normal" in2="BackgroundImageFix" result="effect1_dropShadow_4113_10832"/>
<feColorMatrix in="SourceAlpha" type="matrix" values="0 0 0 0 0 0 0 0 0 0 0 0 0 0 0 0 0 0 127 0" result="hardAlpha"/>
<feMorphology radius="1" operator="dilate" in="SourceAlpha" result="effect2_dropShadow_4113_10832"/>
<feOffset/>
<feComposite in2="hardAlpha" operator="out"/>
<feColorMatrix type="matrix" values="0 0 0 0 0.727754 0 0 0 0 0.726176 0 0 0 0 0.726176 0 0 0 1 0"/>
<feBlend mode="normal" in2="effect1_dropShadow_4113_10832" result="effect2_dropShadow_4113_10832"/>
<feBlend mode="normal" in="SourceGraphic" in2="effect2_dropShadow_4113_10832" result="shape"/>
</filter>
<filter id="filter1_di_4113_10832" x="7.08789" y="14.4342" width="12.5708" height="6.13115" filterUnits="userSpaceOnUse" color-interpolation-filters="sRGB">
<feFlood flood-opacity="0" result="BackgroundImageFix"/>
<feColorMatrix in="SourceAlpha" type="matrix" values="0 0 0 0 0 0 0 0 0 0 0 0 0 0 0 0 0 0 127 0" result="hardAlpha"/>
<feOffset dy="0.6"/>
<feComposite in2="hardAlpha" operator="out"/>
<feColorMatrix type="matrix" values="0 0 0 0 0.745098 0 0 0 0 0.160784 0 0 0 0 0.160784 0 0 0 1 0"/>
<feBlend mode="normal" in2="BackgroundImageFix" result="effect1_dropShadow_4113_10832"/>
<feBlend mode="normal" in="SourceGraphic" in2="effect1_dropShadow_4113_10832" result="shape"/>
<feColorMatrix in="SourceAlpha" type="matrix" values="0 0 0 0 0 0 0 0 0 0 0 0 0 0 0 0 0 0 127 0" result="hardAlpha"/>
<feOffset dy="-0.6"/>
<feGaussianBlur stdDeviation="0.6"/>
<feComposite in2="hardAlpha" operator="arithmetic" k2="-1" k3="1"/>
<feColorMatrix type="matrix" values="0 0 0 0 1 0 0 0 0 1 0 0 0 0 1 0 0 0 1 0"/>
<feBlend mode="normal" in2="shape" result="effect2_innerShadow_4113_10832"/>
</filter>
<linearGradient id="paint0_linear_4113_10832" x1="14" y1="1" x2="14" y2="25" gradientUnits="userSpaceOnUse">
<stop stop-color="white"/>
<stop offset="1" stop-color="#F1F1F1"/>
</linearGradient>
<linearGradient id="paint1_linear_4113_10832" x1="13.9997" y1="13.4856" x2="13.9997" y2="23.7999" gradientUnits="userSpaceOnUse">
<stop stop-color="#BE2929"/>
<stop offset="1" stop-color="#DD4A4A"/>
</linearGradient>
<linearGradient id="paint2_linear_4113_10832" x1="13.9997" y1="2.1998" x2="13.9997" y2="11.7998" gradientUnits="userSpaceOnUse">
<stop stop-color="#EAEAEA"/>
<stop offset="1" stop-color="#F4F4F4" stop-opacity="0"/>
</linearGradient>
<linearGradient id="paint3_linear_4113_10832" x1="13.3999" y1="14.9666" x2="13.3999" y2="19.4999" gradientUnits="userSpaceOnUse">
<stop stop-color="white"/>
<stop offset="1" stop-color="white" stop-opacity="0.4"/>
</linearGradient>
</defs>
</svg>
