<svg width="22" height="22" viewBox="0 0 22 22" fill="none" xmlns="http://www.w3.org/2000/svg">
<path d="M17.5318 14.4377C17.8884 14.4381 18.2407 14.3591 18.563 14.2066V17.8752C18.563 18.0576 18.4906 18.2324 18.3617 18.3614C18.2328 18.4903 18.0579 18.5627 17.8755 18.5627H5.50055C5.31821 18.5627 5.14334 18.4903 5.01441 18.3614C4.88548 18.2324 4.81305 18.0576 4.81305 17.8752V14.2066C4.44629 14.3801 4.04161 14.4581 3.63664 14.4332C3.23166 14.4084 2.83954 14.2816 2.49674 14.0645C2.15394 13.8475 1.87158 13.5473 1.67593 13.1918C1.48028 12.8364 1.37769 12.4372 1.37769 12.0315C1.37769 11.6258 1.48028 11.2266 1.67593 10.8712C1.87158 10.5157 2.15394 10.2155 2.49674 9.99847C2.83954 9.78142 3.23166 9.65459 3.63664 9.62975C4.04161 9.60491 4.44629 9.68288 4.81305 9.85641V6.18774C4.81305 6.0054 4.88548 5.83053 5.01441 5.7016C5.14334 5.57267 5.31821 5.50024 5.50055 5.50024H9.51297C9.33925 5.13348 9.26112 4.72874 9.28584 4.32367C9.31055 3.9186 9.43731 3.52637 9.65433 3.18345C9.87135 2.84053 10.1716 2.55806 10.5271 2.36233C10.8826 2.1666 11.2818 2.06396 11.6876 2.06396C12.0934 2.06396 12.4927 2.1666 12.8482 2.36233C13.2037 2.55806 13.5039 2.84053 13.7209 3.18345C13.9379 3.52637 14.0647 3.9186 14.0894 4.32367C14.1141 4.72874 14.036 5.13348 13.8623 5.50024H17.8755C18.0579 5.50024 18.2328 5.57267 18.3617 5.7016C18.4906 5.83053 18.563 6.0054 18.563 6.18774V9.85641C18.237 9.70214 17.8804 9.62315 17.5197 9.62528C17.159 9.62741 16.8034 9.7106 16.4792 9.86871C16.155 10.0268 15.8705 10.2558 15.6467 10.5387C15.423 10.8216 15.2656 11.1512 15.1864 11.5031C15.1072 11.855 15.1081 12.2202 15.1891 12.5717C15.2701 12.9232 15.429 13.252 15.6542 13.5337C15.8794 13.8155 16.1651 14.043 16.4901 14.1995C16.8151 14.356 17.1711 14.4374 17.5318 14.4377Z" fill="#D0D5DD"/>
<path d="M18.9292 13.6248C18.8312 13.5629 18.7192 13.5269 18.6035 13.52C18.4878 13.5131 18.3722 13.5355 18.2675 13.5852C18.0056 13.7091 17.7165 13.7648 17.4273 13.747C17.138 13.7292 16.858 13.6386 16.6132 13.4836C16.3683 13.3285 16.1667 13.1141 16.027 12.8602C15.8872 12.6063 15.814 12.3213 15.814 12.0315C15.814 11.7417 15.8872 11.4566 16.027 11.2027C16.1667 10.9489 16.3683 10.7344 16.6132 10.5794C16.858 10.4244 17.138 10.3337 17.4273 10.316C17.7165 10.2982 18.0056 10.3538 18.2675 10.4777C18.3723 10.5275 18.488 10.5499 18.6038 10.5429C18.7196 10.5359 18.8318 10.4997 18.9298 10.4376C19.0279 10.3756 19.1086 10.2898 19.1646 10.1882C19.2205 10.0865 19.2498 9.9724 19.2498 9.85639V6.18772C19.2498 5.82305 19.1049 5.47331 18.8471 5.21545C18.5892 4.95759 18.2395 4.81272 17.8748 4.81272H14.7621C14.7749 4.69859 14.7812 4.58382 14.781 4.46897C14.7803 4.04632 14.6934 3.62826 14.5255 3.24038C14.3577 2.8525 14.1124 2.50294 13.8048 2.21311C13.3787 1.81296 12.848 1.54171 12.2741 1.43076C11.7002 1.31981 11.1067 1.37371 10.5621 1.58621C10.0176 1.79871 9.54444 2.16112 9.19741 2.63146C8.85037 3.10181 8.64368 3.66084 8.60128 4.24381C8.58807 4.43342 8.5921 4.62384 8.61331 4.81272H5.49979C5.13512 4.81272 4.78538 4.95759 4.52752 5.21545C4.26966 5.47331 4.12479 5.82305 4.12479 6.18772V8.95663C4.01066 8.94383 3.89589 8.93752 3.78104 8.93772C3.35852 8.9384 2.94058 9.02534 2.55283 9.19321C2.16508 9.36107 1.81568 9.60634 1.52604 9.91397C1.23433 10.2221 1.0097 10.5874 0.86637 10.9868C0.723036 11.3862 0.664107 11.811 0.693309 12.2343C0.742575 12.9797 1.0593 13.6822 1.58523 14.2127C2.11116 14.7433 2.81094 15.0661 3.55589 15.1218C3.7455 15.135 3.93591 15.131 4.12479 15.1098V17.8752C4.12479 18.2399 4.26966 18.5896 4.52752 18.8475C4.78538 19.1054 5.13512 19.2502 5.49979 19.2502H17.8748C18.2395 19.2502 18.5892 19.1054 18.8471 18.8475C19.1049 18.5896 19.2498 18.2399 19.2498 17.8752V14.2065C19.2499 14.0904 19.2205 13.9761 19.1644 13.8744C19.1084 13.7726 19.0275 13.6868 18.9292 13.6248ZM17.8748 17.8752H5.49979V14.2065C5.49983 14.0905 5.47051 13.9764 5.41456 13.8748C5.35862 13.7731 5.27786 13.6873 5.17982 13.6253C5.08177 13.5633 4.96963 13.5271 4.85383 13.5201C4.73803 13.5131 4.62234 13.5355 4.51753 13.5852C4.25556 13.7091 3.96652 13.7648 3.67728 13.747C3.38804 13.7292 3.10799 13.6386 2.86316 13.4836C2.61834 13.3285 2.41668 13.1141 2.27696 12.8602C2.13723 12.6063 2.06396 12.3213 2.06396 12.0315C2.06396 11.7417 2.13723 11.4566 2.27696 11.2027C2.41668 10.9489 2.61834 10.7344 2.86316 10.5794C3.10799 10.4244 3.38804 10.3337 3.67728 10.316C3.96652 10.2982 4.25556 10.3538 4.51753 10.4777C4.62234 10.5275 4.73803 10.5499 4.85383 10.5429C4.96963 10.5359 5.08177 10.4997 5.17982 10.4376C5.27786 10.3756 5.35862 10.2898 5.41456 10.1882C5.47051 10.0865 5.49983 9.9724 5.49979 9.85639V6.18772H9.51222C9.62823 6.18776 9.74236 6.15844 9.84399 6.10249C9.94562 6.04654 10.0314 5.96579 10.0935 5.86774C10.1555 5.7697 10.1917 5.65755 10.1987 5.54175C10.2057 5.42595 10.1833 5.31026 10.1335 5.20545C10.0097 4.94349 9.954 4.65445 9.97178 4.36521C9.98956 4.07596 10.0802 3.79591 10.2352 3.55109C10.3903 3.30626 10.6047 3.10461 10.8586 2.96488C11.1124 2.82515 11.3975 2.75188 11.6873 2.75188C11.9771 2.75188 12.2622 2.82515 12.516 2.96488C12.7699 3.10461 12.9843 3.30626 13.1394 3.55109C13.2944 3.79591 13.385 4.07596 13.4028 4.36521C13.4206 4.65445 13.3649 4.94349 13.241 5.20545C13.1913 5.31026 13.1689 5.42595 13.1759 5.54175C13.1829 5.65755 13.2191 5.7697 13.2811 5.86774C13.3431 5.96579 13.429 6.04654 13.5306 6.10249C13.6322 6.15844 13.7464 6.18776 13.8624 6.18772H17.8748V8.95749C17.6859 8.93585 17.4955 8.93182 17.3059 8.94545C16.5057 9.00211 15.7589 9.36734 15.2228 9.9641C14.6868 10.5609 14.4035 11.3425 14.4327 12.1441C14.4619 12.9457 14.8013 13.7047 15.3794 14.2609C15.9574 14.817 16.7289 15.1269 17.531 15.1252C17.6459 15.1254 17.7607 15.1191 17.8748 15.1063V17.8752Z" fill="#667085"/>
</svg>
