<svg width="24" height="24" viewBox="0 0 24 24" fill="none" xmlns="http://www.w3.org/2000/svg">
<path d="M7.69502 0L5.19508 3.55461V5.5638L3.01965 6.60839L3 6.59909V19.7078L11.4817 23.753L12 24L12.5183 23.753L21 19.7078V6.59909L20.9841 6.60673L18.8079 5.56179V3.55461L18.7319 3.44645L16.3079 0L13.8077 3.55461V3.55808L11.9886 0.971677L10.1835 3.53817L10.1189 3.44645L7.69502 0ZM8.13739 2.06476L9.10432 3.43951H6.28572L7.24158 2.08093L8.13739 2.06476ZM16.75 2.06476L17.7171 3.43951H14.8986L15.8541 2.08093L16.75 2.06476ZM12.4309 3.03658L13.3978 4.41112H10.5796L11.5351 3.05253L12.4309 3.03658ZM6.01852 4.1323H7.35532V8.67621L6.01852 8.03864V4.1323ZM8.04159 4.1323H9.37165V9.63768L8.04159 9.00345V4.1323ZM14.6314 4.1323H15.9681V8.99873L14.6314 9.63616V4.1323ZM16.6543 4.1323H17.9842V8.03712L16.6543 8.67135V4.1323ZM10.3121 5.10398H11.6489V10.7237L10.3121 10.0861V5.10398ZM12.3352 5.10398H13.6651V10.097L12.3352 10.7315V5.10398ZM18.8077 6.59736L19.9846 7.08313L18.8077 7.64438V6.59736ZM5.19501 6.59909V7.64598L4.01834 7.08473L5.19501 6.59909ZM4.03641 8.25079L11.4817 11.8013V22.5955L4.03648 19.045L4.03641 8.25079ZM19.9633 8.25079V19.045L12.5183 22.5955V11.8013L19.9633 8.25079Z" fill="white"/>
</svg>
