<svg width="21" height="20" viewBox="0 0 21 20" fill="none" xmlns="http://www.w3.org/2000/svg">
<path d="M6.91252 0L4.82923 2.96217V4.6365L3.01638 5.50699L3 5.49925V16.4232L10.0681 19.7942L10.5 20L10.932 19.7942L18 16.4232V5.49925L17.9867 5.50561L16.1733 4.63482V2.96217L16.1099 2.87204L14.0899 0L12.0064 2.96217V2.96506L10.4905 0.809731L8.98623 2.94847L8.93246 2.87204L6.91252 0ZM7.28116 1.72064L8.08693 2.86626H5.7381L6.53465 1.73411L7.28116 1.72064ZM14.4584 1.72064L15.2643 2.86626H12.9155L13.7117 1.73411L14.4584 1.72064ZM10.859 2.53048L11.6648 3.67593H9.31633L10.1125 2.54378L10.859 2.53048ZM5.51543 3.44358H6.62943V7.23017L5.51543 6.69887V3.44358ZM7.20132 3.44358H8.30971V8.0314L7.20132 7.50288V3.44358ZM12.6929 3.44358H13.8068V7.49895L12.6929 8.03013V3.44358ZM14.3786 3.44358H15.4869V6.6976L14.3786 7.22612V3.44358ZM9.09344 4.25331H10.2074V8.93641L9.09344 8.40511V4.25331ZM10.7793 4.25331H11.8876V8.41419L10.7793 8.94289V4.25331ZM16.1731 5.4978L17.1538 5.90261L16.1731 6.37032V5.4978ZM4.82918 5.49925V6.37165L3.84861 5.90394L4.82918 5.49925ZM3.86368 6.87566L10.068 9.83442V18.8296L3.86373 15.8708L3.86368 6.87566ZM17.1361 6.87566V15.8708L10.9319 18.8296V9.83442L17.1361 6.87566Z" fill="white"/>
</svg>
