<svg width="22" height="22" viewBox="0 0 22 22" fill="none" xmlns="http://www.w3.org/2000/svg">
<path d="M17.9609 6.96061L15.125 9.62467L17.875 17.1872L15.8125 19.2497L11.6875 13.0622L9.625 15.1247V17.1872L7.5625 19.2497L6.1875 15.8122L2.75 14.4372L4.8125 12.3747H6.875L8.9375 10.3122L2.75 6.18717L4.8125 4.12467L12.375 6.87467L15.0391 4.03873C15.4265 3.65127 15.952 3.43359 16.5 3.43359C17.048 3.43359 17.5735 3.65127 17.9609 4.03873C18.3484 4.4262 18.5661 4.95171 18.5661 5.49967C18.5661 6.04763 18.3484 6.57314 17.9609 6.96061Z" fill="#6172F3"/>
<path d="M15.9268 9.81512L18.431 7.45785L18.4456 7.4441C18.9614 6.92832 19.2512 6.22877 19.2512 5.49934C19.2512 4.76991 18.9614 4.07036 18.4456 3.55457C17.9298 3.03879 17.2303 2.74902 16.5009 2.74902C15.7714 2.74902 15.0719 3.03879 14.5561 3.55457L14.5424 3.56918L12.1851 6.0734L5.05227 3.47809C4.92934 3.43337 4.79619 3.42466 4.66848 3.45298C4.54076 3.48129 4.42378 3.54545 4.33126 3.63793L2.26876 5.70043C2.19689 5.77236 2.14186 5.85933 2.10766 5.95509C2.07345 6.05084 2.06091 6.15299 2.07094 6.25418C2.08097 6.35536 2.11331 6.45306 2.16565 6.54024C2.21799 6.62742 2.28901 6.7019 2.3736 6.75832L7.86415 10.4184L6.59055 11.6877H4.81251C4.63041 11.6878 4.45579 11.7601 4.32696 11.8888L2.26446 13.9513C2.18402 14.0315 2.12473 14.1305 2.09187 14.2392C2.05902 14.348 2.05363 14.4632 2.07619 14.5745C2.09875 14.6859 2.14855 14.7899 2.22115 14.8773C2.29375 14.9647 2.38687 15.0327 2.49219 15.0754L5.65641 16.3412L6.91969 19.4994L6.92485 19.5132C6.96855 19.619 7.03798 19.7122 7.12682 19.7843C7.21567 19.8565 7.32113 19.9053 7.43363 19.9264C7.54613 19.9475 7.66211 19.9401 7.77106 19.9051C7.88 19.87 7.97846 19.8082 8.05751 19.7254L10.1088 17.6732C10.173 17.6097 10.224 17.5341 10.259 17.4507C10.2939 17.3674 10.3121 17.278 10.3125 17.1877V15.4096L11.5809 14.1412L15.241 19.6318C15.2974 19.7164 15.3719 19.7874 15.4591 19.8397C15.5463 19.892 15.644 19.9244 15.7452 19.9344C15.8464 19.9445 15.9485 19.9319 16.0443 19.8977C16.14 19.8635 16.227 19.8085 16.2989 19.7366L18.3614 17.6741C18.4539 17.5816 18.5181 17.4646 18.5464 17.3369C18.5747 17.2092 18.566 17.076 18.5213 16.9531L15.9268 9.81512ZM15.9208 18.1708L12.2607 12.6803C12.2045 12.5952 12.1301 12.5237 12.0428 12.4709C11.9556 12.4182 11.8577 12.3855 11.7563 12.3752C11.7336 12.3739 11.711 12.3739 11.6884 12.3752C11.5981 12.3751 11.5086 12.3928 11.4252 12.4274C11.3417 12.4619 11.2659 12.5125 11.202 12.5763L9.13946 14.6388C9.07548 14.7026 9.02471 14.7784 8.99006 14.8619C8.95541 14.9454 8.93755 15.0348 8.93751 15.1252V16.9032L7.8143 18.0264L6.82602 15.5549C6.79144 15.4691 6.7399 15.3911 6.67449 15.3257C6.60907 15.2603 6.53113 15.2088 6.44532 15.1742L3.97547 14.1859L5.09782 13.0627H6.87501C6.96532 13.0628 7.05476 13.045 7.13822 13.0105C7.22167 12.976 7.29752 12.9254 7.36141 12.8616L9.42391 10.7991C9.49594 10.7272 9.5511 10.6401 9.5854 10.5443C9.6197 10.4485 9.63228 10.3462 9.62225 10.2449C9.61222 10.1436 9.57982 10.0458 9.52739 9.95854C9.47496 9.87128 9.40381 9.79676 9.31907 9.74035L3.82938 6.07942L4.98954 4.92012L12.1413 7.52059C12.2673 7.56689 12.4041 7.57528 12.5348 7.54474C12.6655 7.5142 12.7844 7.44605 12.8769 7.34871L15.5358 4.52309C15.7969 4.28393 16.1402 4.15472 16.4942 4.16236C16.8482 4.17001 17.1856 4.31392 17.4361 4.56413C17.6867 4.81433 17.831 5.15154 17.8391 5.50553C17.8473 5.85952 17.7185 6.20299 17.4797 6.46442L14.6549 9.12332C14.5576 9.21577 14.4894 9.33469 14.4589 9.46541C14.4284 9.59614 14.4368 9.73294 14.4831 9.85895L17.0835 17.0107L15.9208 18.1708Z" fill="#C7D7FE"/>
</svg>
