<svg width="28" height="29" viewBox="0 0 28 29" fill="none" xmlns="http://www.w3.org/2000/svg">
<g filter="url(#filter0_dd_4113_10987)">
<g clip-path="url(#clip0_4113_10987)">
<rect x="2" y="1" width="24" height="24" rx="6" fill="url(#paint0_linear_4113_10987)"/>
<path d="M5.11963 12.6997H22.8794C23.2202 12.6997 23.4581 12.7002 23.6431 12.7153C23.7794 12.7265 23.8726 12.7445 23.9438 12.77L24.0083 12.7983C24.1353 12.8631 24.2446 12.9565 24.3276 13.0708L24.4019 13.1909C24.4421 13.2699 24.4691 13.3746 24.4839 13.5562C24.499 13.7412 24.4995 13.9789 24.4995 14.3198V16.1196C24.4995 17.4687 24.4992 18.4632 24.4351 19.2485C24.3792 19.9324 24.2766 20.4382 24.0933 20.8647L24.0093 21.0425C23.6319 21.7832 23.0577 22.4031 22.353 22.8354L22.0425 23.0093C21.5785 23.2457 21.0294 23.3712 20.2476 23.4351C19.4622 23.4992 18.4685 23.4995 17.1196 23.4995H10.8794C9.53048 23.4995 8.53676 23.4992 7.75146 23.4351C7.06753 23.3792 6.5618 23.2765 6.13525 23.0933L5.95654 23.0093C5.21578 22.6318 4.5959 22.0578 4.16357 21.353L3.98975 21.0425C3.7535 20.5786 3.62783 20.0299 3.56396 19.2485C3.4998 18.4632 3.49951 17.4687 3.49951 16.1196V14.3198C3.49951 13.9789 3.50002 13.7412 3.51514 13.5562C3.52625 13.4202 3.54442 13.3275 3.56982 13.2563L3.59814 13.1909C3.66292 13.064 3.75636 12.9546 3.87061 12.8716L3.99072 12.7983C4.06973 12.7581 4.17442 12.7302 4.35596 12.7153C4.541 12.7002 4.77869 12.6997 5.11963 12.6997Z" fill="url(#paint1_linear_4113_10987)" stroke="#C335B7" stroke-width="0.6"/>
<path d="M3.19971 9.91555C3.19971 10.5539 3.19971 10.8731 3.31805 11.1194C3.4361 11.3652 3.63433 11.5634 3.88008 11.6815C4.12642 11.7998 4.4456 11.7998 5.08396 11.7998H22.8797C23.5518 11.7998 23.8878 11.7998 24.1445 11.669C24.3703 11.554 24.5539 11.3704 24.6689 11.1446C24.7997 10.8879 24.7997 10.5519 24.7997 9.8798V9.72647C24.7997 6.81233 24.7997 5.35526 24.1862 4.44379C23.6499 3.64705 22.8175 3.09762 21.8741 2.9177C20.7949 2.71188 19.4551 3.28463 16.7755 4.43014L12.8474 6.10943C12.7431 6.15401 12.691 6.17629 12.6427 6.19572C10.9165 6.88975 8.94477 6.52382 7.58262 5.25663C7.5445 5.22116 7.50383 5.18165 7.42251 5.10264C7.29745 4.98113 7.23492 4.92038 7.19618 4.88587C5.6854 3.53994 3.2894 4.55268 3.20195 6.57414C3.19971 6.62598 3.19971 6.71316 3.19971 6.88752V9.91555Z" fill="url(#paint2_linear_4113_10987)"/>
<g filter="url(#filter1_di_4113_10987)">
<path d="M8.25584 19.8999V15.0999H10.2387C10.598 15.0999 10.9082 15.1702 11.1691 15.3108C11.4316 15.4499 11.634 15.6444 11.7762 15.8944C11.9183 16.1429 11.9894 16.4319 11.9894 16.7616C11.9894 17.0929 11.9168 17.3827 11.7715 17.6312C11.6277 17.878 11.4222 18.0694 11.1551 18.2054C10.8879 18.3413 10.5707 18.4093 10.2035 18.4093H8.98006V17.4952H9.98787C10.1629 17.4952 10.309 17.4647 10.4262 17.4038C10.5449 17.3429 10.6347 17.2577 10.6957 17.1483C10.7566 17.0374 10.7871 16.9085 10.7871 16.7616C10.7871 16.6132 10.7566 16.4851 10.6957 16.3772C10.6347 16.2679 10.5449 16.1835 10.4262 16.1241C10.3074 16.0647 10.1613 16.0351 9.98787 16.0351H9.416V19.8999H8.25584ZM16.564 15.0999V19.8999H15.5796L13.6694 17.1296H13.639V19.8999H12.4788V15.0999H13.4772L15.3663 17.8655H15.4062V15.0999H16.564ZM20.361 16.6679C20.3344 16.5694 20.2953 16.4827 20.2438 16.4077C20.1922 16.3312 20.1289 16.2663 20.0539 16.2132C19.9789 16.1601 19.893 16.1202 19.7961 16.0937C19.6992 16.0655 19.593 16.0515 19.4774 16.0515C19.2446 16.0515 19.043 16.1077 18.8727 16.2202C18.7039 16.3327 18.5735 16.4968 18.4813 16.7124C18.3891 16.9265 18.343 17.1866 18.343 17.4929C18.343 17.8007 18.3875 18.0632 18.4766 18.2804C18.5656 18.4976 18.6946 18.6632 18.8633 18.7772C19.0321 18.8913 19.2367 18.9483 19.4774 18.9483C19.6899 18.9483 19.8696 18.914 20.0164 18.8452C20.1649 18.7749 20.2774 18.6757 20.3539 18.5476C20.4305 18.4194 20.4688 18.2687 20.4688 18.0952L20.6844 18.121H19.5172V17.2749H21.5867V17.9101C21.5867 18.3397 21.4953 18.7077 21.3125 19.014C21.1313 19.3202 20.8813 19.5554 20.5625 19.7194C20.2453 19.8835 19.8805 19.9655 19.468 19.9655C19.0102 19.9655 18.6078 19.8663 18.261 19.6679C17.9141 19.4694 17.6438 19.1866 17.45 18.8194C17.2563 18.4507 17.1594 18.0132 17.1594 17.5069C17.1594 17.1132 17.218 16.764 17.3352 16.4593C17.4524 16.153 17.6156 15.8937 17.825 15.6812C18.036 15.4687 18.2797 15.3077 18.5563 15.1983C18.8344 15.089 19.1336 15.0343 19.4539 15.0343C19.7321 15.0343 19.9906 15.0741 20.2297 15.1538C20.4703 15.2335 20.6828 15.346 20.8672 15.4913C21.0531 15.6366 21.2039 15.8093 21.3196 16.0093C21.4352 16.2093 21.5071 16.4288 21.5352 16.6679H20.361Z" fill="url(#paint3_linear_4113_10987)" shape-rendering="crispEdges"/>
</g>
</g>
<rect x="2.3" y="1.3" width="23.4" height="23.4" rx="5.7" stroke="white" stroke-width="0.6"/>
</g>
<defs>
<filter id="filter0_dd_4113_10987" x="0.8" y="0" width="26.4" height="28.6" filterUnits="userSpaceOnUse" color-interpolation-filters="sRGB">
<feFlood flood-opacity="0" result="BackgroundImageFix"/>
<feColorMatrix in="SourceAlpha" type="matrix" values="0 0 0 0 0 0 0 0 0 0 0 0 0 0 0 0 0 0 127 0" result="hardAlpha"/>
<feMorphology radius="2.4" operator="erode" in="SourceAlpha" result="effect1_dropShadow_4113_10987"/>
<feOffset dy="2.4"/>
<feGaussianBlur stdDeviation="1.8"/>
<feComposite in2="hardAlpha" operator="out"/>
<feColorMatrix type="matrix" values="0 0 0 0 0 0 0 0 0 0 0 0 0 0 0 0 0 0 0.2 0"/>
<feBlend mode="normal" in2="BackgroundImageFix" result="effect1_dropShadow_4113_10987"/>
<feColorMatrix in="SourceAlpha" type="matrix" values="0 0 0 0 0 0 0 0 0 0 0 0 0 0 0 0 0 0 127 0" result="hardAlpha"/>
<feMorphology radius="1" operator="dilate" in="SourceAlpha" result="effect2_dropShadow_4113_10987"/>
<feOffset/>
<feComposite in2="hardAlpha" operator="out"/>
<feColorMatrix type="matrix" values="0 0 0 0 0.727754 0 0 0 0 0.726176 0 0 0 0 0.726176 0 0 0 1 0"/>
<feBlend mode="normal" in2="effect1_dropShadow_4113_10987" result="effect2_dropShadow_4113_10987"/>
<feBlend mode="normal" in="SourceGraphic" in2="effect2_dropShadow_4113_10987" result="shape"/>
</filter>
<filter id="filter1_di_4113_10987" x="8.25586" y="14.4342" width="13.3311" height="6.13115" filterUnits="userSpaceOnUse" color-interpolation-filters="sRGB">
<feFlood flood-opacity="0" result="BackgroundImageFix"/>
<feColorMatrix in="SourceAlpha" type="matrix" values="0 0 0 0 0 0 0 0 0 0 0 0 0 0 0 0 0 0 127 0" result="hardAlpha"/>
<feOffset dy="0.6"/>
<feComposite in2="hardAlpha" operator="out"/>
<feColorMatrix type="matrix" values="0 0 0 0 0.764706 0 0 0 0 0.207843 0 0 0 0 0.717647 0 0 0 1 0"/>
<feBlend mode="normal" in2="BackgroundImageFix" result="effect1_dropShadow_4113_10987"/>
<feBlend mode="normal" in="SourceGraphic" in2="effect1_dropShadow_4113_10987" result="shape"/>
<feColorMatrix in="SourceAlpha" type="matrix" values="0 0 0 0 0 0 0 0 0 0 0 0 0 0 0 0 0 0 127 0" result="hardAlpha"/>
<feOffset dy="-0.6"/>
<feGaussianBlur stdDeviation="0.6"/>
<feComposite in2="hardAlpha" operator="arithmetic" k2="-1" k3="1"/>
<feColorMatrix type="matrix" values="0 0 0 0 1 0 0 0 0 1 0 0 0 0 1 0 0 0 1 0"/>
<feBlend mode="normal" in2="shape" result="effect2_innerShadow_4113_10987"/>
</filter>
<linearGradient id="paint0_linear_4113_10987" x1="14" y1="1" x2="14" y2="25" gradientUnits="userSpaceOnUse">
<stop stop-color="white"/>
<stop offset="1" stop-color="#F1F1F1"/>
</linearGradient>
<linearGradient id="paint1_linear_4113_10987" x1="13.9997" y1="12.3999" x2="13.9997" y2="23.7999" gradientUnits="userSpaceOnUse">
<stop stop-color="#C335B7"/>
<stop offset="1" stop-color="#DB66D1"/>
</linearGradient>
<linearGradient id="paint2_linear_4113_10987" x1="13.9997" y1="0.999804" x2="13.9997" y2="11.7998" gradientUnits="userSpaceOnUse">
<stop stop-color="#EAEAEA"/>
<stop offset="1" stop-color="#F4F4F4" stop-opacity="0"/>
</linearGradient>
<linearGradient id="paint3_linear_4113_10987" x1="14.8999" y1="14.9666" x2="14.8999" y2="19.4999" gradientUnits="userSpaceOnUse">
<stop stop-color="white"/>
<stop offset="1" stop-color="white" stop-opacity="0.4"/>
</linearGradient>
<clipPath id="clip0_4113_10987">
<rect x="2" y="1" width="24" height="24" rx="6" fill="white"/>
</clipPath>
</defs>
</svg>
