<svg width="22" height="22" viewBox="0 0 22 22" fill="none" xmlns="http://www.w3.org/2000/svg">
<path d="M17.875 17.1875V7.5625C17.875 6.83315 17.5853 6.13368 17.0695 5.61796C16.5538 5.10223 15.8543 4.8125 15.125 4.8125V2.40625H6.875V4.8125C6.14565 4.8125 5.44618 5.10223 4.93046 5.61796C4.41473 6.13368 4.125 6.83315 4.125 7.5625V17.1875C4.125 17.9168 4.41473 18.6163 4.93046 19.132C5.44618 19.6478 6.14565 19.9375 6.875 19.9375H15.125C15.8543 19.9375 16.5538 19.6478 17.0695 19.132C17.5853 18.6163 17.875 17.9168 17.875 17.1875Z" fill="#D0D5DD"/>
<path fill-rule="evenodd" clip-rule="evenodd" d="M15.8125 2.75V4.19461C16.5884 4.35382 17.2857 4.77578 17.7867 5.38932C18.2876 6.00286 18.5617 6.77041 18.5625 7.5625V17.1875C18.5625 18.0992 18.2003 18.9735 17.5557 19.6182C16.911 20.2628 16.0367 20.625 15.125 20.625H6.875C5.96332 20.625 5.08898 20.2628 4.44432 19.6182C3.79966 18.9735 3.4375 18.0992 3.4375 17.1875V7.5625C3.43834 6.77041 3.71237 6.00286 4.21334 5.38932C4.71431 4.77578 5.41158 4.35382 6.1875 4.19461V2.75C6.1875 2.38533 6.33237 2.03559 6.59023 1.77773C6.84809 1.51987 7.19783 1.375 7.5625 1.375H14.4375C14.8022 1.375 15.1519 1.51987 15.4098 1.77773C15.6676 2.03559 15.8125 2.38533 15.8125 2.75ZM16.5834 18.6459C16.9702 18.2591 17.1875 17.7345 17.1875 17.1875V7.5625C17.1875 7.01549 16.9702 6.49089 16.5834 6.10409C16.1966 5.7173 15.672 5.5 15.125 5.5H6.875C6.32799 5.5 5.80339 5.7173 5.41659 6.10409C5.0298 6.49089 4.8125 7.01549 4.8125 7.5625V17.1875C4.8125 17.7345 5.0298 18.2591 5.41659 18.6459C5.80339 19.0327 6.32799 19.25 6.875 19.25H15.125C15.672 19.25 16.1966 19.0327 16.5834 18.6459ZM13.1459 15.2084C13.5327 14.8216 13.75 14.297 13.75 13.75C13.75 13.203 13.5327 12.6784 13.1459 12.2916C12.7591 11.9048 12.2345 11.6875 11.6875 11.6875H10.3125C10.1302 11.6875 9.9553 11.6151 9.82636 11.4861C9.69743 11.3572 9.625 11.1823 9.625 11C9.625 10.8177 9.69743 10.6428 9.82636 10.5139C9.9553 10.3849 10.1302 10.3125 10.3125 10.3125H12.375C12.5573 10.3125 12.7322 10.2401 12.8611 10.1111C12.9901 9.9822 13.0625 9.80734 13.0625 9.625C13.0625 9.44266 12.9901 9.2678 12.8611 9.13886C12.7322 9.00993 12.5573 8.9375 12.375 8.9375H11.6875V8.25C11.6875 8.06766 11.6151 7.8928 11.4861 7.76386C11.3572 7.63493 11.1823 7.5625 11 7.5625C10.8177 7.5625 10.6428 7.63493 10.5139 7.76386C10.3849 7.8928 10.3125 8.06766 10.3125 8.25V8.9375C9.76549 8.9375 9.24089 9.1548 8.85409 9.54159C8.4673 9.92839 8.25 10.453 8.25 11C8.25 11.547 8.4673 12.0716 8.85409 12.4584C9.24089 12.8452 9.76549 13.0625 10.3125 13.0625H11.6875C11.8698 13.0625 12.0447 13.1349 12.1736 13.2639C12.3026 13.3928 12.375 13.5677 12.375 13.75C12.375 13.9323 12.3026 14.1072 12.1736 14.2361C12.0447 14.3651 11.8698 14.4375 11.6875 14.4375H9.625C9.44266 14.4375 9.2678 14.5099 9.13886 14.6389C9.00993 14.7678 8.9375 14.9427 8.9375 15.125C8.9375 15.3073 9.00993 15.4822 9.13886 15.6111C9.2678 15.7401 9.44266 15.8125 9.625 15.8125H10.3125V16.5C10.3125 16.6823 10.3849 16.8572 10.5139 16.9861C10.6428 17.1151 10.8177 17.1875 11 17.1875C11.1823 17.1875 11.3572 17.1151 11.4861 16.9861C11.6151 16.8572 11.6875 16.6823 11.6875 16.5V15.8125C12.2345 15.8125 12.7591 15.5952 13.1459 15.2084ZM13.0625 4.125H14.4375V2.75H13.0625H11.6875H10.3125H8.9375H7.5625V4.125H8.9375H10.3125H11.6875H13.0625Z" fill="#101828"/>
</svg>
