<svg width="24" height="24" viewBox="0 0 24 24" fill="none" xmlns="http://www.w3.org/2000/svg">
<g clip-path="url(#clip0_4120_16881)">
<path d="M12.042 9.47807C13.3115 9.47807 14.3408 10.5074 14.3408 11.7769C14.3408 13.0465 13.3116 14.0757 12.042 14.0757C10.7725 14.0756 9.74316 13.0464 9.74316 11.7769C9.7432 10.5074 10.7725 9.47817 12.042 9.47807Z" fill="#58C4DC"/>
<path fill-rule="evenodd" clip-rule="evenodd" d="M11.999 2.94096C14.2297 1.15585 16.4361 0.501213 17.998 1.40288C19.3941 2.20911 20.0193 4.0812 19.7568 6.67436C19.734 6.90211 19.7016 7.13417 19.666 7.3687C22.2439 8.37784 23.8927 9.8948 23.9932 11.6294L24 11.7974C24 13.6013 22.3288 15.1871 19.668 16.2271C19.7035 16.4617 19.7359 16.6936 19.7588 16.9214C20.0212 19.5146 19.3961 21.3867 18 22.1929C17.5201 22.4649 16.9763 22.6033 16.4248 22.5953C15.1007 22.5953 13.5551 21.8997 11.999 20.6548C10.4422 21.8996 8.89756 22.5953 7.5752 22.5953C7.0237 22.6034 6.47984 22.465 6 22.1929C4.60392 21.3867 3.97876 19.5146 4.24121 16.9214C4.26407 16.6936 4.29563 16.4617 4.33203 16.2271C1.67115 15.1854 0 13.6021 0 11.7974C0.000223486 10.1851 1.30831 8.70703 3.68359 7.6392C3.89264 7.54523 4.11029 7.45531 4.33203 7.37065C4.29563 7.13527 4.26407 6.90212 4.24121 6.67436C3.97876 4.0812 4.60392 2.20911 6 1.40288C7.56197 0.501066 9.76828 1.15586 11.999 2.94096ZM18.5732 16.606C17.4668 16.9393 16.3336 17.1765 15.1865 17.316C14.4912 18.2409 13.7182 19.1046 12.876 19.898C14.7199 21.3233 16.407 21.7955 17.4297 21.2027C18.3384 20.6778 18.7773 19.3102 18.6543 17.4214L18.625 17.0367C18.6106 16.8945 18.5935 16.7515 18.5732 16.606ZM5.37891 17.0367C5.17808 18.9931 5.55002 20.4507 6.39551 21.0865L6.57324 21.2027C7.59682 21.7937 9.28226 21.3232 11.127 19.898C10.2846 19.1047 9.51094 18.2408 8.81543 17.316C7.66867 17.1764 6.53587 16.9391 5.42969 16.606C5.41024 16.7515 5.39244 16.8945 5.37891 17.0367ZM13.6133 17.4664C13.0858 17.4985 12.5444 17.5171 12 17.5171C11.4557 17.5171 10.9181 17.4985 10.3916 17.4664C10.89 18.0655 11.4274 18.6311 12 19.1597C12.5739 18.6309 13.1132 18.0655 13.6133 17.4664ZM11.999 7.22514C11.1415 7.22461 10.2845 7.26927 9.43164 7.35893C8.93263 8.05222 8.469 8.77087 8.04297 9.51127C7.61486 10.2525 7.22542 11.0155 6.87695 11.7974C7.22546 12.5794 7.6148 13.3432 8.04297 14.0845C8.46961 14.8278 8.93449 15.5484 9.43555 16.2437C10.2869 16.3312 11.1422 16.3751 11.998 16.3746C12.8541 16.3752 13.7099 16.3312 14.5615 16.2437C14.9385 15.7221 15.2954 15.1864 15.6309 14.6373L15.9551 14.0845C16.3829 13.343 16.7723 12.5792 17.1211 11.7974C16.7723 11.0157 16.3828 10.2527 15.9551 9.51127C15.5274 8.76972 15.0622 8.05032 14.5615 7.356C13.7102 7.26862 12.8548 7.22463 11.999 7.22514ZM6.29199 13.2408C6.0243 13.9726 5.80418 14.7215 5.63379 15.482C6.19072 15.6552 6.75612 15.801 7.32715 15.9185L7.90039 16.0279C7.61174 15.5884 7.32797 15.1259 7.05371 14.6568C6.77946 14.1877 6.52731 13.7141 6.29199 13.2408ZM17.707 13.2408C17.4683 13.7141 17.2153 14.1877 16.9453 14.6568C16.6722 15.1315 16.3898 15.5887 16.0986 16.0279C16.8649 15.8956 17.6219 15.7135 18.3643 15.482C18.236 14.9109 18.0798 14.3462 17.8965 13.7906L17.707 13.2408ZM4.15234 8.6812C2.2436 9.54236 1.14285 10.678 1.14258 11.7974C1.14258 12.9788 2.39359 14.2054 4.55078 15.0904C4.81678 13.9642 5.178 12.8623 5.63086 11.7974C5.17896 10.7348 4.81802 9.63585 4.55176 8.51225C4.4163 8.56871 4.28272 8.62474 4.15234 8.6812ZM19.4521 8.50541C19.1858 9.6313 18.8244 10.7326 18.3721 11.7974C18.7682 12.7287 19.0945 13.6883 19.3486 14.6675L19.4512 15.0904C21.6083 14.2054 22.8584 12.9788 22.8584 11.7974C22.8581 10.6162 21.6047 9.3903 19.4521 8.50541ZM16.5254 8.23881L16.9443 8.93999C17.2177 9.40821 17.4707 9.88173 17.7061 10.355C17.9734 9.62303 18.1935 8.87416 18.3643 8.11381C17.62 7.88176 16.861 7.69919 16.0928 7.56694C16.2392 7.78647 16.3836 8.01026 16.5254 8.23881ZM7.89648 7.57377C7.13196 7.70744 6.37663 7.89038 5.63574 8.12163C5.76342 8.68979 5.91843 9.25138 6.10059 9.80424L6.28809 10.354C6.5268 9.87986 6.77639 9.41235 7.0498 8.93901C7.32324 8.46565 7.60697 8.01158 7.89648 7.57377ZM7.58691 2.14409C7.23222 2.13581 6.88101 2.22176 6.57031 2.39311C5.66248 2.91799 5.22089 4.2862 5.3457 6.17436L5.37598 6.55913C5.38951 6.70123 5.40731 6.84418 5.42676 6.98881C6.53363 6.65784 7.66674 6.42098 8.81348 6.28081C9.50933 5.35578 10.2829 4.4918 11.126 3.69877C9.80299 2.67603 8.56124 2.14421 7.58691 2.14409ZM16.4131 2.14311C15.4388 2.14324 14.197 2.67508 12.874 3.6978C13.7167 4.49033 14.4892 5.35429 15.1846 6.27885C16.3315 6.41835 17.4649 6.65555 18.5713 6.98881C18.5916 6.84412 18.6087 6.7003 18.623 6.55815C18.8347 4.47076 18.3999 2.95204 17.4307 2.39213C17.1588 2.24194 16.8559 2.15712 16.5469 2.14409L16.4131 2.14311ZM11.9951 4.4351C11.4225 4.96371 10.8851 5.52935 10.3867 6.12846C10.9149 6.0946 11.4512 6.07768 11.9951 6.07768C12.5435 6.07768 13.081 6.0963 13.6074 6.12846C13.1077 5.52926 12.5691 4.96354 11.9951 4.4351Z" fill="#58C4DC"/>
</g>
<defs>
<clipPath id="clip0_4120_16881">
<rect width="24" height="21.5958" fill="white" transform="translate(0 1)"/>
</clipPath>
</defs>
</svg>
