<svg width="16" height="16" viewBox="0 0 16 16" fill="none" xmlns="http://www.w3.org/2000/svg">
<path d="M0.666016 2.669V6.669M0.666016 6.669H4.66602M0.666016 6.669L3.75935 3.76233C4.47585 3.04547 5.36226 2.5218 6.33589 2.24018C7.30951 1.95856 8.33861 1.92816 9.32716 2.15183C10.3157 2.37551 11.2315 2.84595 11.989 3.51927C12.7466 4.1926 13.3212 5.04685 13.6593 6.00233M15.3327 13.3357V9.33566M15.3327 9.33566H11.3327M15.3327 9.33566L12.2393 12.2423C11.5229 12.9592 10.6364 13.4829 9.66281 13.7645C8.68918 14.0461 7.66009 14.0765 6.67154 13.8528C5.68299 13.6292 4.76722 13.1587 4.00966 12.4854C3.2521 11.8121 2.67746 10.9578 2.33935 10.0023" stroke="white" stroke-width="1.33333" stroke-linecap="round" stroke-linejoin="round"/>
</svg>
