<svg width="22" height="22" viewBox="0 0 22 22" fill="none" xmlns="http://www.w3.org/2000/svg">
<path d="M19.7363 7.7637L7.76346 19.7365C7.63454 19.8654 7.45974 19.9377 7.27748 19.9377C7.09523 19.9377 6.92043 19.8654 6.79151 19.7365L2.26346 15.211C2.13463 15.0821 2.06226 14.9073 2.06226 14.7251C2.06226 14.5428 2.13463 14.368 2.26346 14.2391L14.2363 2.2637C14.3652 2.13487 14.54 2.0625 14.7222 2.0625C14.9045 2.0625 15.0793 2.13487 15.2082 2.2637L19.7363 6.78917C19.8005 6.85306 19.8514 6.92899 19.8861 7.01261C19.9209 7.09623 19.9388 7.18589 19.9388 7.27644C19.9388 7.36699 19.9209 7.45665 19.8861 7.54027C19.8514 7.62389 19.8005 7.69982 19.7363 7.7637Z" fill="#D0D5DD"/>
<path d="M20.2227 6.30503L15.6947 1.77784C15.567 1.65013 15.4154 1.54882 15.2486 1.4797C15.0817 1.41058 14.9029 1.375 14.7223 1.375C14.5417 1.375 14.3629 1.41058 14.196 1.4797C14.0292 1.54882 13.8776 1.65013 13.7499 1.77784L1.77711 13.7498C1.64939 13.8775 1.54808 14.0291 1.47896 14.1959C1.40984 14.3628 1.37427 14.5416 1.37427 14.7222C1.37427 14.9028 1.40984 15.0816 1.47896 15.2484C1.54808 15.4153 1.64939 15.5669 1.77711 15.6946L6.30515 20.2217C6.43284 20.3495 6.58443 20.4508 6.75127 20.5199C6.91812 20.589 7.09694 20.6246 7.27754 20.6246C7.45813 20.6246 7.63696 20.589 7.8038 20.5199C7.97064 20.4508 8.12223 20.3495 8.24992 20.2217L20.2227 8.24979C20.3504 8.12211 20.4518 7.97051 20.5209 7.80367C20.59 7.63683 20.6256 7.458 20.6256 7.27741C20.6256 7.09682 20.59 6.91799 20.5209 6.75115C20.4518 6.5843 20.3504 6.43271 20.2227 6.30503ZM7.27711 19.2498L2.74992 14.7217L5.49992 11.9717L7.76351 14.2362C7.82739 14.3001 7.90322 14.3507 7.98668 14.3853C8.07014 14.4199 8.15959 14.4377 8.24992 14.4377C8.34025 14.4377 8.4297 14.4199 8.51316 14.3853C8.59662 14.3507 8.67245 14.3001 8.73633 14.2362C8.8002 14.1723 8.85087 14.0965 8.88544 14.013C8.92001 13.9296 8.9378 13.8401 8.9378 13.7498C8.9378 13.6595 8.92001 13.57 8.88544 13.4866C8.85087 13.4031 8.8002 13.3273 8.73633 13.2634L6.47187 10.9998L8.24992 9.22175L10.5135 11.4862C10.6425 11.6152 10.8175 11.6877 10.9999 11.6877C11.1824 11.6877 11.3573 11.6152 11.4863 11.4862C11.6153 11.3572 11.6878 11.1822 11.6878 10.9998C11.6878 10.8174 11.6153 10.6424 11.4863 10.5134L9.22187 8.24979L10.9999 6.47175L13.2635 8.7362C13.3274 8.80007 13.4032 8.85074 13.4867 8.88531C13.5701 8.91988 13.6596 8.93767 13.7499 8.93767C13.8403 8.93767 13.9297 8.91988 14.0132 8.88531C14.0966 8.85074 14.1725 8.80007 14.2363 8.7362C14.3002 8.67232 14.3509 8.59649 14.3854 8.51303C14.42 8.42958 14.4378 8.34013 14.4378 8.24979C14.4378 8.15946 14.42 8.07001 14.3854 7.98655C14.3509 7.90309 14.3002 7.82726 14.2363 7.76339L11.9719 5.49979L14.7219 2.74979L19.2499 7.27784L7.27711 19.2498Z" fill="#667085"/>
</svg>
