<svg width="22" height="22" viewBox="0 0 22 22" fill="none" xmlns="http://www.w3.org/2000/svg">
<path d="M19.7365 7.7637L7.7637 19.7365C7.63479 19.8654 7.45999 19.9377 7.27773 19.9377C7.09547 19.9377 6.92067 19.8654 6.79175 19.7365L2.2637 15.211C2.13487 15.0821 2.0625 14.9073 2.0625 14.7251C2.0625 14.5428 2.13487 14.368 2.2637 14.2391L14.2365 2.2637C14.3654 2.13487 14.5402 2.0625 14.7225 2.0625C14.9048 2.0625 15.0796 2.13487 15.2085 2.2637L19.7365 6.78917C19.8007 6.85305 19.8516 6.92899 19.8864 7.01261C19.9211 7.09623 19.939 7.18589 19.939 7.27644C19.939 7.36699 19.9211 7.45665 19.8864 7.54027C19.8516 7.62389 19.8007 7.69982 19.7365 7.7637Z" fill="#6172F3"/>
<path d="M20.2235 6.30503L15.6954 1.77784C15.5677 1.65013 15.4161 1.54882 15.2493 1.4797C15.0825 1.41058 14.9036 1.375 14.723 1.375C14.5424 1.375 14.3636 1.41058 14.1968 1.4797C14.0299 1.54882 13.8783 1.65013 13.7507 1.77784L1.77784 13.7498C1.65013 13.8775 1.54882 14.0291 1.4797 14.1959C1.41058 14.3628 1.375 14.5416 1.375 14.7222C1.375 14.9028 1.41058 15.0816 1.4797 15.2484C1.54882 15.4153 1.65013 15.5669 1.77784 15.6946L6.30589 20.2217C6.43357 20.3495 6.58516 20.4508 6.75201 20.5199C6.91885 20.589 7.09767 20.6246 7.27827 20.6246C7.45886 20.6246 7.63769 20.589 7.80453 20.5199C7.97137 20.4508 8.12297 20.3495 8.25065 20.2217L20.2235 8.24979C20.3512 8.12211 20.4525 7.97051 20.5216 7.80367C20.5907 7.63683 20.6263 7.458 20.6263 7.27741C20.6263 7.09682 20.5907 6.91799 20.5216 6.75115C20.4525 6.5843 20.3512 6.43271 20.2235 6.30503ZM7.27784 19.2498L2.75065 14.7217L5.50065 11.9717L7.76425 14.2362C7.82812 14.3001 7.90395 14.3507 7.98741 14.3853C8.07087 14.4199 8.16032 14.4377 8.25065 14.4377C8.34099 14.4377 8.43044 14.4199 8.51389 14.3853C8.59735 14.3507 8.67318 14.3001 8.73706 14.2362C8.80093 14.1723 8.8516 14.0965 8.88617 14.013C8.92074 13.9296 8.93853 13.8401 8.93853 13.7498C8.93853 13.6595 8.92074 13.57 8.88617 13.4866C8.8516 13.4031 8.80093 13.3273 8.73706 13.2634L6.4726 10.9998L8.25065 9.22175L10.5142 11.4862C10.6432 11.6152 10.8182 11.6877 11.0007 11.6877C11.1831 11.6877 11.3581 11.6152 11.4871 11.4862C11.6161 11.3572 11.6885 11.1822 11.6885 10.9998C11.6885 10.8174 11.6161 10.6424 11.4871 10.5134L9.2226 8.24979L11.0007 6.47175L13.2642 8.7362C13.3281 8.80007 13.404 8.85074 13.4874 8.88531C13.5709 8.91988 13.6603 8.93767 13.7507 8.93767C13.841 8.93767 13.9304 8.91988 14.0139 8.88531C14.0974 8.85074 14.1732 8.80007 14.2371 8.7362C14.3009 8.67232 14.3516 8.59649 14.3862 8.51303C14.4207 8.42958 14.4385 8.34013 14.4385 8.24979C14.4385 8.15946 14.4207 8.07001 14.3862 7.98655C14.3516 7.90309 14.3009 7.82726 14.2371 7.76339L11.9726 5.49979L14.7226 2.74979L19.2507 7.27784L7.27784 19.2498Z" fill="#C7D7FE"/>
</svg>
