<svg width="22" height="22" viewBox="0 0 22 22" fill="none" xmlns="http://www.w3.org/2000/svg">
<path d="M19.9376 15.5495V17.1875C19.9376 17.3698 19.8652 17.5447 19.7362 17.6736C19.6073 17.8026 19.4324 17.875 19.2501 17.875H12.724L2.95119 8.10219C2.88331 8.03385 2.83055 7.952 2.79632 7.86197C2.7621 7.77193 2.74718 7.6757 2.75253 7.57953C2.75787 7.48335 2.78337 7.38937 2.82737 7.30368C2.87136 7.21799 2.93287 7.1425 3.00791 7.08211L9.6251 2.0625C9.6251 3.33885 10.1321 4.56293 11.0346 5.46545C11.9372 6.36797 13.1612 6.875 14.4376 6.875V9.4007C14.4379 10.2949 14.6873 11.1713 15.1579 11.9316C15.6285 12.6919 16.3015 13.3061 17.1017 13.7053L19.5612 14.9351C19.6746 14.9926 19.7699 15.0806 19.8363 15.189C19.9028 15.2975 19.9379 15.4223 19.9376 15.5495Z" fill="#D0D5DD"/>
<path fill-rule="evenodd" clip-rule="evenodd" d="M17.4049 13.0899L19.8653 14.3196C20.0941 14.4332 20.2866 14.6086 20.4208 14.826C20.5551 15.0433 20.6258 15.2939 20.625 15.5494V17.1874C20.625 17.552 20.4801 17.9018 20.2223 18.1596C19.9644 18.4175 19.6147 18.5624 19.25 18.5624H12.7239C12.6336 18.5624 12.5442 18.5447 12.4607 18.5102C12.3772 18.4757 12.3014 18.4251 12.2375 18.3613L2.46555 8.58587C2.32924 8.44964 2.2231 8.28628 2.15399 8.10639C2.08489 7.92649 2.05437 7.73408 2.06442 7.54164C2.07447 7.34919 2.12486 7.161 2.21232 6.98928C2.29978 6.81756 2.42236 6.66615 2.57211 6.54485L2.5893 6.5311L9.20992 1.51493C9.31188 1.43771 9.43335 1.39047 9.56069 1.3785C9.68803 1.36654 9.81617 1.39033 9.93073 1.44721C10.0453 1.50408 10.1417 1.59179 10.2091 1.70046C10.2766 1.80913 10.3124 1.93446 10.3125 2.06235C10.3136 3.15602 10.7486 4.20457 11.5219 4.97791C12.2953 5.75125 13.3438 6.18622 14.4375 6.18735C14.6198 6.18735 14.7947 6.25979 14.9236 6.38872C15.0526 6.51765 15.125 6.69252 15.125 6.87485V9.40056C15.1224 10.1671 15.3347 10.919 15.7376 11.5711C16.1406 12.2232 16.7182 12.7493 17.4049 13.0899ZM2.75 15.8124H6.08437C6.26671 15.8124 6.44158 15.7399 6.57051 15.611C6.69944 15.4821 6.77187 15.3072 6.77187 15.1249C6.77187 14.9425 6.69944 14.7676 6.57051 14.6387C6.44158 14.5098 6.26671 14.4374 6.08437 14.4374H2.75C2.56766 14.4374 2.3928 14.5098 2.26386 14.6387C2.13493 14.7676 2.0625 14.9425 2.0625 15.1249C2.0625 15.3072 2.13493 15.4821 2.26386 15.611C2.3928 15.7399 2.56766 15.8124 2.75 15.8124ZM9.32051 18.361C9.44944 18.2321 9.52187 18.0572 9.52187 17.8749C9.52187 17.6925 9.44944 17.5176 9.32051 17.3887C9.19158 17.2598 9.01671 17.1874 8.83437 17.1874H4.125C3.94266 17.1874 3.7678 17.2598 3.63886 17.3887C3.50993 17.5176 3.4375 17.6925 3.4375 17.8749C3.4375 18.0572 3.50993 18.2321 3.63886 18.361C3.7678 18.4899 3.94266 18.5624 4.125 18.5624H8.83437C9.01671 18.5624 9.19158 18.4899 9.32051 18.361ZM13.0084 17.1874H19.25V15.5494L16.7905 14.3196C15.8747 13.8657 15.1044 13.1642 14.567 12.2947C14.0296 11.4253 13.7466 10.4227 13.75 9.40056V7.51938C12.6398 7.37758 11.5991 6.90123 10.7661 6.15365C9.93322 5.40608 9.34756 4.42269 9.08703 3.33423L5.64953 5.93899L4.54352 6.77774L3.4375 7.61649L13.0084 17.1874Z" fill="#667085"/>
</svg>
