<svg width="22" height="22" viewBox="0 0 22 22" fill="none" xmlns="http://www.w3.org/2000/svg">
<path d="M19.9371 15.5495V17.1875C19.9371 17.3698 19.8647 17.5447 19.7357 17.6736C19.6068 17.8026 19.4319 17.875 19.2496 17.875H12.7235L2.95071 8.10219C2.88282 8.03385 2.83006 7.952 2.79584 7.86197C2.76161 7.77193 2.74669 7.6757 2.75204 7.57953C2.75738 7.48335 2.78288 7.38937 2.82688 7.30368C2.87087 7.21799 2.93238 7.1425 3.00742 7.08211L9.62461 2.0625C9.62461 3.33885 10.1316 4.56293 11.0342 5.46545C11.9367 6.36797 13.1608 6.875 14.4371 6.875V9.4007C14.4374 10.2949 14.6869 11.1713 15.1574 11.9316C15.628 12.6919 16.3011 13.3061 17.1012 13.7053L19.5607 14.9351C19.6742 14.9926 19.7694 15.0806 19.8359 15.189C19.9023 15.2975 19.9374 15.4223 19.9371 15.5495Z" fill="#6172F3"/>
<path fill-rule="evenodd" clip-rule="evenodd" d="M17.4049 13.0894L19.8653 14.3191C20.0941 14.4327 20.2866 14.6082 20.4208 14.8255C20.5551 15.0428 20.6258 15.2934 20.625 15.5489V17.1869C20.625 17.5515 20.4801 17.9013 20.2223 18.1591C19.9644 18.417 19.6147 18.5619 19.25 18.5619H12.7239C12.6336 18.5619 12.5442 18.5442 12.4607 18.5097C12.3772 18.4752 12.3014 18.4246 12.2375 18.3608L2.46555 8.58538C2.32924 8.44915 2.2231 8.28579 2.15399 8.1059C2.08489 7.92601 2.05437 7.7336 2.06442 7.54115C2.07447 7.3487 2.12486 7.16051 2.21232 6.98879C2.29978 6.81708 2.42236 6.66566 2.57211 6.54437L2.5893 6.53062L9.20992 1.51444C9.31188 1.43723 9.43335 1.38998 9.56069 1.37801C9.68803 1.36605 9.81617 1.38984 9.93073 1.44672C10.0453 1.5036 10.1417 1.5913 10.2091 1.69997C10.2766 1.80864 10.3124 1.93397 10.3125 2.06187C10.3136 3.15553 10.7486 4.20408 11.5219 4.97742C12.2953 5.75077 13.3438 6.18573 14.4375 6.18687C14.6198 6.18687 14.7947 6.2593 14.9236 6.38823C15.0526 6.51716 15.125 6.69203 15.125 6.87437V9.40007C15.1224 10.1666 15.3347 10.9185 15.7376 11.5706C16.1406 12.2227 16.7182 12.7488 17.4049 13.0894ZM2.75 15.8119H6.08437C6.26671 15.8119 6.44158 15.7394 6.57051 15.6105C6.69944 15.4816 6.77187 15.3067 6.77187 15.1244C6.77187 14.942 6.69944 14.7672 6.57051 14.6382C6.44158 14.5093 6.26671 14.4369 6.08437 14.4369H2.75C2.56766 14.4369 2.3928 14.5093 2.26386 14.6382C2.13493 14.7672 2.0625 14.942 2.0625 15.1244C2.0625 15.3067 2.13493 15.4816 2.26386 15.6105C2.3928 15.7394 2.56766 15.8119 2.75 15.8119ZM9.32051 18.3605C9.44944 18.2316 9.52187 18.0567 9.52187 17.8744C9.52187 17.692 9.44944 17.5172 9.32051 17.3882C9.19158 17.2593 9.01671 17.1869 8.83437 17.1869H4.125C3.94266 17.1869 3.7678 17.2593 3.63886 17.3882C3.50993 17.5172 3.4375 17.692 3.4375 17.8744C3.4375 18.0567 3.50993 18.2316 3.63886 18.3605C3.7678 18.4894 3.94266 18.5619 4.125 18.5619H8.83437C9.01671 18.5619 9.19158 18.4894 9.32051 18.3605ZM13.0084 17.1869H19.25V15.5489L16.7905 14.3191C15.8747 13.8652 15.1044 13.1637 14.567 12.2942C14.0296 11.4248 13.7466 10.4222 13.75 9.40007V7.5189C12.6398 7.37709 11.5991 6.90074 10.7661 6.15317C9.93322 5.40559 9.34756 4.42221 9.08703 3.33374L5.64953 5.93851L4.54352 6.77726L3.4375 7.61601L13.0084 17.1869Z" fill="#C7D7FE"/>
</svg>
