<svg width="22" height="22" viewBox="0 0 22 22" fill="none" xmlns="http://www.w3.org/2000/svg">
<path d="M2.82506 12.7829C2.34014 11.912 2.09814 11.4757 2.09814 10.9999C2.09814 10.5242 2.34014 10.0888 2.82506 9.21795L4.06073 6.99411L5.36789 4.81153C5.88031 3.95628 6.13606 3.5282 6.54764 3.28986C6.96014 3.05245 7.45789 3.04511 8.45431 3.02861L10.9999 2.98828L13.5436 3.02861C14.541 3.04511 15.0387 3.05245 15.4503 3.29078C15.8619 3.52911 16.1195 3.95628 16.631 4.81153L17.9391 6.99411L19.1766 9.21795C19.6606 10.0888 19.9026 10.5242 19.9026 10.9999C19.9026 11.4757 19.6606 11.9111 19.1756 12.7819L17.9391 15.0058L16.6319 17.1884C16.1195 18.0436 15.8637 18.4717 15.4521 18.71C15.0396 18.9474 14.5419 18.9548 13.5455 18.9713L10.9999 19.0116L8.45614 18.9713C7.45881 18.9548 6.96106 18.9474 6.54948 18.7091C6.13789 18.4708 5.88031 18.0436 5.36881 17.1884L4.06073 15.0058L2.82506 12.7829Z" stroke="#667085" stroke-width="1.5"/>
<path d="M11 13.75C12.5188 13.75 13.75 12.5188 13.75 11C13.75 9.48122 12.5188 8.25 11 8.25C9.48122 8.25 8.25 9.48122 8.25 11C8.25 12.5188 9.48122 13.75 11 13.75Z" stroke="#667085" stroke-width="1.5"/>
</svg>
