<svg width="24" height="24" viewBox="0 0 24 24" fill="none" xmlns="http://www.w3.org/2000/svg">
<path d="M5.23636 1.71505L12 1L18.7636 1.71505L24 8.7444L12 22.7183L0 8.7444L5.23636 1.71505Z" fill="#FDB300"/>
<path d="M4.8606 8.74414L12 22.718L0 8.74414H4.8606Z" fill="#EA6C00"/>
<path d="M19.1394 8.74414L12 22.718L24 8.74414H19.1394Z" fill="#EA6C00"/>
<path d="M4.86084 8.74414H19.1396L12.0002 22.718L4.86084 8.74414Z" fill="#FDAD00"/>
<path d="M12.0002 1L5.23658 1.71505L4.86084 8.7444L12.0002 1Z" fill="#FDD231"/>
<path d="M11.9998 1L18.7634 1.71505L19.1392 8.7444L11.9998 1Z" fill="#FDD231"/>
<path d="M24 8.7442L18.7636 1.71484L19.1394 8.7442H24Z" fill="#FDAD00"/>
<path d="M0 8.7442L5.23634 1.71484L4.8606 8.7442H0Z" fill="#FDAD00"/>
<path d="M12.0002 1L4.86084 8.7444H19.1396L12.0002 1Z" fill="#FEEEB7"/>
</svg>
