<svg width="24" height="24" viewBox="0 0 24 24" fill="none" xmlns="http://www.w3.org/2000/svg">
<path d="M12 0C12.317 0 12.5764 0.249681 12.6056 0.56536C13.1359 6.29946 17.7005 10.8638 23.4346 11.3942C23.7503 11.4234 24 11.6828 24 11.9999C24 12.317 23.7503 12.5764 23.4346 12.6056C17.7004 13.136 13.1359 17.7005 12.6056 23.4346C12.5764 23.7503 12.317 24 12 24C11.683 24 11.4236 23.7503 11.3944 23.4346C10.8641 17.7005 6.29955 13.136 0.565449 12.6056C0.24972 12.5764 0 12.317 0 11.9999C0 11.6828 0.24972 11.4234 0.565449 11.3942C6.29955 10.8638 10.8641 6.29946 11.3944 0.56536C11.4236 0.249681 11.683 0 12 0Z" fill="url(#paint0_linear_4049_6657)"/>
<defs>
<linearGradient id="paint0_linear_4049_6657" x1="12" y1="6" x2="12" y2="35" gradientUnits="userSpaceOnUse">
<stop stop-color="white"/>
<stop offset="1" stop-color="white" stop-opacity="0.4"/>
</linearGradient>
</defs>
</svg>
