<svg width="28" height="29" viewBox="0 0 28 29" fill="none" xmlns="http://www.w3.org/2000/svg">
<g filter="url(#filter0_dd_4113_10841)">
<rect x="2" y="1" width="24" height="24" rx="6" fill="url(#paint0_linear_4113_10841)"/>
<rect x="2.3" y="1.3" width="23.4" height="23.4" rx="5.7" stroke="white" stroke-width="0.6"/>
<path d="M5.12012 12.6997H22.8799C23.2206 12.6997 23.4586 12.7002 23.6436 12.7153C23.7799 12.7265 23.8731 12.7445 23.9443 12.77L24.0088 12.7983C24.1358 12.8631 24.2451 12.9565 24.3281 13.0708L24.4023 13.1909C24.4426 13.2699 24.4695 13.3746 24.4844 13.5562C24.4995 13.7412 24.5 13.9789 24.5 14.3198V16.1196C24.5 17.4687 24.4997 18.4632 24.4355 19.2485C24.3796 19.9324 24.277 20.4382 24.0938 20.8647L24.0098 21.0425C23.6324 21.7832 23.0582 22.4031 22.3535 22.8354L22.043 23.0093C21.5789 23.2457 21.0299 23.3712 20.248 23.4351C19.4627 23.4992 18.469 23.4995 17.1201 23.4995H10.8799C9.53097 23.4995 8.53725 23.4992 7.75195 23.4351C7.06802 23.3792 6.56229 23.2765 6.13574 23.0933L5.95703 23.0093C5.21627 22.6318 4.59638 22.0578 4.16406 21.353L3.99023 21.0425C3.75399 20.5786 3.62832 20.0299 3.56445 19.2485C3.50029 18.4632 3.5 17.4687 3.5 16.1196V14.3198C3.5 13.9789 3.50051 13.7412 3.51562 13.5562C3.52674 13.4202 3.5449 13.3275 3.57031 13.2563L3.59863 13.1909C3.66341 13.064 3.75684 12.9546 3.87109 12.8716L3.99121 12.7983C4.07021 12.7581 4.17491 12.7302 4.35645 12.7153C4.54148 12.7002 4.77918 12.6997 5.12012 12.6997Z" fill="url(#paint1_linear_4113_10841)" stroke="#E26A00" stroke-width="0.6"/>
<path d="M3.2002 9.8798C3.2002 10.5519 3.2002 10.8879 3.33099 11.1446C3.44604 11.3704 3.62961 11.554 3.85541 11.669C4.1121 11.7998 4.44813 11.7998 5.1202 11.7998H22.8802C23.5523 11.7998 23.8883 11.7998 24.145 11.669C24.3708 11.554 24.5544 11.3704 24.6694 11.1446C24.8002 10.8879 24.8002 10.5519 24.8002 9.8798C24.8002 7.19155 24.8002 5.84743 24.277 4.82065C23.8168 3.91747 23.0825 3.18317 22.1793 2.72297C21.1526 2.1998 19.8084 2.1998 17.1202 2.1998H10.8802C8.19195 2.1998 6.84782 2.1998 5.82104 2.72297C4.91786 3.18317 4.18356 3.91747 3.72336 4.82065C3.2002 5.84743 3.2002 7.19155 3.2002 9.8798Z" fill="url(#paint2_linear_4113_10841)"/>
<g filter="url(#filter1_di_4113_10841)">
<path d="M9.82781 16.539C9.81219 16.3671 9.74266 16.2335 9.61922 16.1382C9.49734 16.0413 9.32313 15.9929 9.09656 15.9929C8.94656 15.9929 8.82156 16.0124 8.72156 16.0515C8.62156 16.0905 8.54656 16.1444 8.49656 16.2132C8.44656 16.2804 8.42078 16.3577 8.41922 16.4452C8.41609 16.5171 8.43016 16.5804 8.46141 16.6351C8.49422 16.6897 8.54109 16.7382 8.60203 16.7804C8.66453 16.821 8.73953 16.8569 8.82703 16.8882C8.91453 16.9194 9.01297 16.9468 9.12234 16.9702L9.53484 17.064C9.77234 17.1155 9.98172 17.1843 10.163 17.2702C10.3458 17.3562 10.4989 17.4585 10.6223 17.5772C10.7473 17.696 10.8419 17.8327 10.9059 17.9874C10.97 18.1421 11.0028 18.3155 11.0044 18.5077C11.0028 18.8108 10.9263 19.071 10.7747 19.2882C10.6231 19.5054 10.4052 19.6718 10.1208 19.7874C9.83797 19.903 9.49656 19.9608 9.09656 19.9608C8.695 19.9608 8.345 19.9007 8.04656 19.7804C7.74812 19.6601 7.51609 19.4772 7.35047 19.2319C7.18484 18.9866 7.09969 18.6765 7.095 18.3015H8.20594C8.21531 18.4562 8.25672 18.5851 8.33016 18.6882C8.40359 18.7913 8.50438 18.8694 8.6325 18.9226C8.76219 18.9757 8.91219 19.0022 9.0825 19.0022C9.23875 19.0022 9.37156 18.9812 9.48094 18.939C9.59188 18.8968 9.67703 18.8382 9.73641 18.7632C9.79578 18.6882 9.82625 18.6022 9.82781 18.5054C9.82625 18.4147 9.79813 18.3374 9.74344 18.2733C9.68875 18.2077 9.60438 18.1515 9.49031 18.1046C9.37781 18.0562 9.23406 18.0116 9.05906 17.971L8.5575 17.8538C8.14187 17.7585 7.81453 17.6046 7.57547 17.3921C7.33641 17.178 7.21766 16.889 7.21922 16.5249C7.21766 16.228 7.29734 15.9679 7.45828 15.7444C7.61922 15.521 7.84187 15.3468 8.12625 15.2218C8.41063 15.0968 8.73484 15.0343 9.09891 15.0343C9.47078 15.0343 9.79344 15.0976 10.0669 15.2241C10.3419 15.3491 10.5552 15.5249 10.7067 15.7515C10.8583 15.978 10.9356 16.2405 10.9388 16.539H9.82781ZM12.5977 15.0999L13.6711 18.6155H13.7109L14.7844 15.0999H16.0828L14.4633 19.8999H12.9188L11.2992 15.0999H12.5977ZM19.3835 16.6679C19.357 16.5694 19.3179 16.4827 19.2663 16.4077C19.2148 16.3312 19.1515 16.2663 19.0765 16.2132C19.0015 16.1601 18.9155 16.1202 18.8187 16.0937C18.7218 16.0655 18.6155 16.0515 18.4999 16.0515C18.2671 16.0515 18.0655 16.1077 17.8952 16.2202C17.7265 16.3327 17.596 16.4968 17.5038 16.7124C17.4116 16.9265 17.3655 17.1866 17.3655 17.4929C17.3655 17.8007 17.4101 18.0632 17.4991 18.2804C17.5882 18.4976 17.7171 18.6632 17.8859 18.7772C18.0546 18.8913 18.2593 18.9483 18.4999 18.9483C18.7124 18.9483 18.8921 18.914 19.039 18.8452C19.1874 18.7749 19.2999 18.6757 19.3765 18.5476C19.453 18.4194 19.4913 18.2687 19.4913 18.0952L19.707 18.121H18.5398V17.2749H20.6093V17.9101C20.6093 18.3397 20.5179 18.7077 20.3351 19.014C20.1538 19.3202 19.9038 19.5554 19.5851 19.7194C19.2679 19.8835 18.903 19.9655 18.4905 19.9655C18.0327 19.9655 17.6304 19.8663 17.2835 19.6679C16.9366 19.4694 16.6663 19.1866 16.4726 18.8194C16.2788 18.4507 16.182 18.0132 16.182 17.5069C16.182 17.1132 16.2405 16.764 16.3577 16.4593C16.4749 16.153 16.6382 15.8937 16.8476 15.6812C17.0585 15.4687 17.3023 15.3077 17.5788 15.1983C17.857 15.089 18.1562 15.0343 18.4765 15.0343C18.7546 15.0343 19.0132 15.0741 19.2523 15.1538C19.4929 15.2335 19.7054 15.346 19.8898 15.4913C20.0757 15.6366 20.2265 15.8093 20.3421 16.0093C20.4577 16.2093 20.5296 16.4288 20.5577 16.6679H19.3835Z" fill="url(#paint3_linear_4113_10841)" shape-rendering="crispEdges"/>
</g>
</g>
<defs>
<filter id="filter0_dd_4113_10841" x="0.8" y="0" width="26.4" height="28.6" filterUnits="userSpaceOnUse" color-interpolation-filters="sRGB">
<feFlood flood-opacity="0" result="BackgroundImageFix"/>
<feColorMatrix in="SourceAlpha" type="matrix" values="0 0 0 0 0 0 0 0 0 0 0 0 0 0 0 0 0 0 127 0" result="hardAlpha"/>
<feMorphology radius="2.4" operator="erode" in="SourceAlpha" result="effect1_dropShadow_4113_10841"/>
<feOffset dy="2.4"/>
<feGaussianBlur stdDeviation="1.8"/>
<feComposite in2="hardAlpha" operator="out"/>
<feColorMatrix type="matrix" values="0 0 0 0 0 0 0 0 0 0 0 0 0 0 0 0 0 0 0.2 0"/>
<feBlend mode="normal" in2="BackgroundImageFix" result="effect1_dropShadow_4113_10841"/>
<feColorMatrix in="SourceAlpha" type="matrix" values="0 0 0 0 0 0 0 0 0 0 0 0 0 0 0 0 0 0 127 0" result="hardAlpha"/>
<feMorphology radius="1" operator="dilate" in="SourceAlpha" result="effect2_dropShadow_4113_10841"/>
<feOffset/>
<feComposite in2="hardAlpha" operator="out"/>
<feColorMatrix type="matrix" values="0 0 0 0 0.727754 0 0 0 0 0.726176 0 0 0 0 0.726176 0 0 0 1 0"/>
<feBlend mode="normal" in2="effect1_dropShadow_4113_10841" result="effect2_dropShadow_4113_10841"/>
<feBlend mode="normal" in="SourceGraphic" in2="effect2_dropShadow_4113_10841" result="shape"/>
</filter>
<filter id="filter1_di_4113_10841" x="7.09521" y="14.4342" width="13.5142" height="6.13115" filterUnits="userSpaceOnUse" color-interpolation-filters="sRGB">
<feFlood flood-opacity="0" result="BackgroundImageFix"/>
<feColorMatrix in="SourceAlpha" type="matrix" values="0 0 0 0 0 0 0 0 0 0 0 0 0 0 0 0 0 0 127 0" result="hardAlpha"/>
<feOffset dy="0.6"/>
<feComposite in2="hardAlpha" operator="out"/>
<feColorMatrix type="matrix" values="0 0 0 0 0.886275 0 0 0 0 0.415686 0 0 0 0 0 0 0 0 1 0"/>
<feBlend mode="normal" in2="BackgroundImageFix" result="effect1_dropShadow_4113_10841"/>
<feBlend mode="normal" in="SourceGraphic" in2="effect1_dropShadow_4113_10841" result="shape"/>
<feColorMatrix in="SourceAlpha" type="matrix" values="0 0 0 0 0 0 0 0 0 0 0 0 0 0 0 0 0 0 127 0" result="hardAlpha"/>
<feOffset dy="-0.6"/>
<feGaussianBlur stdDeviation="0.6"/>
<feComposite in2="hardAlpha" operator="arithmetic" k2="-1" k3="1"/>
<feColorMatrix type="matrix" values="0 0 0 0 1 0 0 0 0 1 0 0 0 0 1 0 0 0 1 0"/>
<feBlend mode="normal" in2="shape" result="effect2_innerShadow_4113_10841"/>
</filter>
<linearGradient id="paint0_linear_4113_10841" x1="14" y1="1" x2="14" y2="25" gradientUnits="userSpaceOnUse">
<stop stop-color="white"/>
<stop offset="1" stop-color="#F1F1F1"/>
</linearGradient>
<linearGradient id="paint1_linear_4113_10841" x1="14.0002" y1="12.3999" x2="14.0002" y2="23.7999" gradientUnits="userSpaceOnUse">
<stop stop-color="#E26A00"/>
<stop offset="1" stop-color="#E78834"/>
</linearGradient>
<linearGradient id="paint2_linear_4113_10841" x1="14.0002" y1="2.1998" x2="14.0002" y2="11.7998" gradientUnits="userSpaceOnUse">
<stop stop-color="#EAEAEA"/>
<stop offset="1" stop-color="#F4F4F4" stop-opacity="0"/>
</linearGradient>
<linearGradient id="paint3_linear_4113_10841" x1="13.8999" y1="14.9666" x2="13.8999" y2="19.4999" gradientUnits="userSpaceOnUse">
<stop stop-color="white"/>
<stop offset="1" stop-color="white" stop-opacity="0.4"/>
</linearGradient>
</defs>
</svg>
