<svg width="22" height="22" viewBox="0 0 22 22" fill="none" xmlns="http://www.w3.org/2000/svg">
<g opacity="0.2">
<path d="M4.8125 14.4375C5.95159 14.4375 6.875 15.3609 6.875 16.5C6.875 17.6391 5.95159 18.5625 4.8125 18.5625C3.67341 18.5625 2.75 17.6391 2.75 16.5C2.75 15.3609 3.67341 14.4375 4.8125 14.4375Z" fill="black"/>
<path d="M17.1875 13.75C18.3266 13.75 19.25 14.6734 19.25 15.8125C19.25 16.9516 18.3266 17.875 17.1875 17.875C16.0484 17.875 15.125 16.9516 15.125 15.8125C15.125 14.6734 16.0484 13.75 17.1875 13.75Z" fill="black"/>
<path d="M11 8.9375C11.547 8.9375 12.0715 9.15495 12.4583 9.54175C12.845 9.92854 13.0625 10.453 13.0625 11C13.0625 11.4079 12.9414 11.8069 12.7147 12.1461C12.4882 12.485 12.1662 12.7493 11.7896 12.9054C11.4127 13.0615 10.9979 13.1024 10.5978 13.0229C10.1978 12.9433 9.83019 12.7467 9.54175 12.4583C9.2533 12.1698 9.05669 11.8022 8.97711 11.4022C8.89759 11.0021 8.93853 10.5873 9.0946 10.2104C9.25069 9.83377 9.51495 9.51185 9.85394 9.28528C10.1931 9.05865 10.5921 8.9375 11 8.9375Z" fill="black"/>
<path d="M17.1875 6.875C18.3266 6.875 19.25 7.79841 19.25 8.9375C19.25 10.0766 18.3266 11 17.1875 11C16.0484 11 15.125 10.0766 15.125 8.9375C15.125 7.79841 16.0484 6.875 17.1875 6.875Z" fill="black"/>
<path d="M8.25 2.75C9.38909 2.75 10.3125 3.67341 10.3125 4.8125C10.3125 5.95159 9.38909 6.875 8.25 6.875C7.11091 6.875 6.1875 5.95159 6.1875 4.8125C6.1875 3.67341 7.11091 2.75 8.25 2.75Z" fill="black"/>
</g>
<path d="M17.1871 13.0625C16.5794 13.0622 15.9889 13.2641 15.5087 13.6366L13.5227 12.0897C13.6726 11.746 13.7499 11.375 13.7496 11C13.7496 10.9364 13.7496 10.8728 13.7427 10.8101L14.8796 10.4311C15.2393 10.9858 15.7869 11.3924 16.4219 11.5764C17.057 11.7604 17.7371 11.7094 18.3376 11.4327C18.9381 11.1561 19.4189 10.6724 19.6918 10.0702C19.9648 9.468 20.0116 8.78762 19.8237 8.15369C19.6359 7.51977 19.226 6.97474 18.669 6.61844C18.112 6.26215 17.4454 6.11844 16.7911 6.21364C16.1368 6.30885 15.5387 6.63659 15.1064 7.13683C14.6741 7.63707 14.4365 8.27632 14.4371 8.93749C14.4371 9.00108 14.4371 9.06468 14.4439 9.12741L13.307 9.5064C13.0577 9.12108 12.716 8.80426 12.313 8.58482C11.91 8.36537 11.4585 8.25026 10.9996 8.24999C10.8478 8.25031 10.6964 8.26295 10.5467 8.2878L9.95886 6.96093C10.4664 6.55538 10.814 5.98323 10.94 5.34589C11.066 4.70854 10.9623 4.04717 10.6473 3.47898C10.3322 2.91079 9.82622 2.47249 9.21889 2.24177C8.61156 2.01104 7.94215 2.00278 7.32931 2.21846C6.71648 2.43414 6.19979 2.85982 5.87083 3.42007C5.54187 3.98031 5.42188 4.63893 5.53214 5.27919C5.64239 5.91944 5.97576 6.49999 6.47317 6.91793C6.97057 7.33588 7.59988 7.56422 8.24956 7.56249C8.4013 7.56218 8.55276 7.54953 8.70245 7.52468L9.29027 8.84811C8.79179 9.24264 8.44582 9.79805 8.31149 10.4194C8.17715 11.0408 8.2628 11.6895 8.55378 12.2547L6.34433 14.2175C5.7883 13.8426 5.11464 13.6835 4.44964 13.7698C3.78463 13.8561 3.17393 14.1819 2.732 14.6863C2.29008 15.1907 2.04727 15.8389 2.04908 16.5095C2.0509 17.18 2.29722 17.8269 2.74187 18.3289C3.18653 18.8309 3.79899 19.1534 4.46445 19.2361C5.12991 19.3188 5.80269 19.156 6.35668 18.7781C6.91068 18.4003 7.30784 17.8333 7.47374 17.1836C7.63964 16.5339 7.56288 15.8459 7.25784 15.2487L9.4673 13.2859C9.94568 13.608 10.5134 13.7711 11.0898 13.752C11.6662 13.7329 12.2219 13.5325 12.6779 13.1794L14.6639 14.7262C14.5145 15.0689 14.4372 15.4387 14.4371 15.8125C14.4371 16.3564 14.5983 16.8881 14.9005 17.3403C15.2027 17.7925 15.6322 18.145 16.1347 18.3532C16.6372 18.5613 17.1901 18.6158 17.7236 18.5097C18.257 18.4035 18.747 18.1416 19.1316 17.757C19.5162 17.3724 19.7781 16.8824 19.8842 16.349C19.9903 15.8155 19.9359 15.2626 19.7277 14.7601C19.5196 14.2576 19.1671 13.8281 18.7149 13.5259C18.2626 13.2238 17.731 13.0625 17.1871 13.0625ZM17.1871 7.56249C17.459 7.56249 17.7249 7.64313 17.951 7.79422C18.1771 7.94531 18.3533 8.16005 18.4574 8.4113C18.5615 8.66255 18.5887 8.93902 18.5356 9.20574C18.4826 9.47246 18.3516 9.71746 18.1593 9.90976C17.967 10.1021 17.722 10.233 17.4553 10.2861C17.1886 10.3391 16.9121 10.3119 16.6609 10.2078C16.4096 10.1038 16.1949 9.92752 16.0438 9.7014C15.8927 9.47528 15.8121 9.20944 15.8121 8.93749C15.8121 8.57282 15.9569 8.22308 16.2148 7.96522C16.4727 7.70736 16.8224 7.56249 17.1871 7.56249ZM6.87456 4.81249C6.87456 4.54054 6.95521 4.2747 7.10629 4.04858C7.25738 3.82246 7.47212 3.64623 7.72337 3.54216C7.97462 3.43809 8.25109 3.41086 8.51781 3.46391C8.78454 3.51697 9.02954 3.64792 9.22183 3.84022C9.41413 4.03252 9.54509 4.27752 9.59814 4.54424C9.6512 4.81097 9.62397 5.08743 9.5199 5.33868C9.41583 5.58993 9.23959 5.80467 9.01347 5.95576C8.78735 6.10685 8.52151 6.18749 8.24956 6.18749C7.88489 6.18749 7.53515 6.04262 7.27729 5.78476C7.01943 5.5269 6.87456 5.17716 6.87456 4.81249ZM4.81206 17.875C4.54011 17.875 4.27427 17.7943 4.04815 17.6433C3.82204 17.4922 3.6458 17.2774 3.54173 17.0262C3.43766 16.7749 3.41043 16.4985 3.46348 16.2317C3.51654 15.965 3.64749 15.72 3.83979 15.5277C4.03209 15.3354 4.27709 15.2045 4.54381 15.1514C4.81054 15.0984 5.087 15.1256 5.33825 15.2297C5.5895 15.3337 5.80425 15.51 5.95533 15.7361C6.10642 15.9622 6.18706 16.228 6.18706 16.5C6.18706 16.8647 6.0422 17.2144 5.78433 17.4723C5.52647 17.7301 5.17674 17.875 4.81206 17.875ZM9.62456 11C9.62456 10.728 9.7052 10.4622 9.85629 10.2361C10.0074 10.01 10.2221 9.83373 10.4734 9.72966C10.7246 9.62559 11.0011 9.59836 11.2678 9.65141C11.5345 9.70446 11.7795 9.83542 11.9718 10.0277C12.1641 10.22 12.2951 10.465 12.3481 10.7317C12.4012 10.9985 12.374 11.2749 12.2699 11.5262C12.1658 11.7774 11.9896 11.9922 11.7635 12.1433C11.5374 12.2943 11.2715 12.375 10.9996 12.375C10.6349 12.375 10.2852 12.2301 10.0273 11.9723C9.76943 11.7144 9.62456 11.3647 9.62456 11ZM17.1871 17.1875C16.9151 17.1875 16.6493 17.1068 16.4232 16.9558C16.197 16.8047 16.0208 16.5899 15.9167 16.3387C15.8127 16.0874 15.7854 15.811 15.8385 15.5442C15.8915 15.2775 16.0225 15.0325 16.2148 14.8402C16.4071 14.6479 16.6521 14.517 16.9188 14.4639C17.1855 14.4109 17.462 14.4381 17.7133 14.5422C17.9645 14.6462 18.1792 14.8225 18.3303 15.0486C18.4814 15.2747 18.5621 15.5405 18.5621 15.8125C18.5621 16.1772 18.4172 16.5269 18.1593 16.7848C17.9015 17.0426 17.5517 17.1875 17.1871 17.1875Z" fill="#101828"/>
</svg>
