<svg width="22" height="22" viewBox="0 0 22 22" fill="none" xmlns="http://www.w3.org/2000/svg">
<path d="M16.5 8.25C16.5 9.3378 16.1774 10.4012 15.5731 11.3056C14.9687 12.2101 14.1098 12.9151 13.1048 13.3313C12.0998 13.7476 10.9939 13.8565 9.92701 13.6443C8.86011 13.4321 7.8801 12.9083 7.11091 12.1391C6.34173 11.3699 5.8179 10.3899 5.60568 9.323C5.39346 8.2561 5.50238 7.15024 5.91866 6.14524C6.33495 5.14025 7.0399 4.28127 7.94437 3.67692C8.84884 3.07257 9.91221 2.75 11 2.75C12.4587 2.75 13.8576 3.32946 14.8891 4.36091C15.9205 5.39236 16.5 6.79131 16.5 8.25Z" fill="#D0D5DD"/>
<path d="M2.75 18.5625H19.25C18.3333 16.9936 15.4688 13.8345 11.3438 13.75C7.21875 13.75 3.89583 16.9583 2.75 18.5625Z" fill="#D0D5DD"/>
<path d="M19.8453 18.2186C18.5364 15.9559 16.5195 14.3334 14.1656 13.5643C15.33 12.8711 16.2346 11.815 16.7405 10.558C17.2465 9.30101 17.3258 7.91268 16.9664 6.60622C16.607 5.29976 15.8286 4.14741 14.7509 3.32613C13.6731 2.50485 12.3556 2.06006 11.0006 2.06006C9.64557 2.06006 8.32802 2.50485 7.25028 3.32613C6.17253 4.14741 5.39417 5.29976 5.03474 6.60622C4.6753 7.91268 4.75466 9.30101 5.26062 10.558C5.76659 11.815 6.67118 12.8711 7.83549 13.5643C5.48166 14.3326 3.46471 15.9551 2.15588 18.2186C2.10788 18.2969 2.07605 18.384 2.06225 18.4748C2.04845 18.5655 2.05298 18.6581 2.07555 18.7471C2.09812 18.8361 2.13829 18.9197 2.19369 18.9929C2.24908 19.0661 2.31858 19.1275 2.39807 19.1734C2.47757 19.2193 2.56546 19.2488 2.65656 19.2603C2.74766 19.2717 2.84011 19.2647 2.92848 19.2398C3.01684 19.2149 3.09932 19.1725 3.17105 19.1152C3.24278 19.0579 3.30231 18.9868 3.34612 18.9061C4.96518 16.108 7.8269 14.4374 11.0006 14.4374C14.1742 14.4374 17.036 16.108 18.655 18.9061C18.6988 18.9868 18.7584 19.0579 18.8301 19.1152C18.9018 19.1725 18.9843 19.2149 19.0727 19.2398C19.161 19.2647 19.2535 19.2717 19.3446 19.2603C19.4357 19.2488 19.5236 19.2193 19.6031 19.1734C19.6826 19.1275 19.7521 19.0661 19.8075 18.9929C19.8628 18.9197 19.903 18.8361 19.9256 18.7471C19.9482 18.6581 19.9527 18.5655 19.9389 18.4748C19.9251 18.384 19.8933 18.2969 19.8453 18.2186ZM6.18807 8.2499C6.18807 7.29807 6.47032 6.36763 6.99912 5.57622C7.52793 4.7848 8.27954 4.16797 9.15891 3.80373C10.0383 3.43948 11.0059 3.34418 11.9394 3.52987C12.873 3.71556 13.7305 4.1739 14.4035 4.84694C15.0766 5.51998 15.5349 6.37749 15.7206 7.31102C15.9063 8.24456 15.811 9.21219 15.4467 10.0916C15.0825 10.9709 14.4657 11.7225 13.6743 12.2513C12.8828 12.7801 11.9524 13.0624 11.0006 13.0624C9.72463 13.061 8.50135 12.5536 7.59913 11.6513C6.6969 10.7491 6.18943 9.52583 6.18807 8.2499Z" fill="#667085"/>
</svg>
