<svg width="22" height="22" viewBox="0 0 22 22" fill="none" xmlns="http://www.w3.org/2000/svg">
<path d="M16.5 8.25C16.5 9.3378 16.1774 10.4012 15.5731 11.3056C14.9687 12.2101 14.1098 12.9151 13.1048 13.3313C12.0998 13.7476 10.9939 13.8565 9.92701 13.6443C8.86011 13.4321 7.8801 12.9083 7.11091 12.1391C6.34173 11.3699 5.8179 10.3899 5.60568 9.323C5.39346 8.2561 5.50238 7.15024 5.91866 6.14524C6.33495 5.14025 7.0399 4.28127 7.94437 3.67692C8.84884 3.07257 9.91221 2.75 11 2.75C12.4587 2.75 13.8576 3.32946 14.8891 4.36091C15.9205 5.39236 16.5 6.79131 16.5 8.25Z" fill="#6172F3"/>
<path d="M2.75 18.5625H19.25C18.3333 16.9936 15.4688 13.8345 11.3438 13.75C7.21875 13.75 3.89583 16.9583 2.75 18.5625Z" fill="#6172F3"/>
<path d="M19.8445 18.2191C18.5357 15.9564 16.5187 14.3339 14.1649 13.5648C15.3292 12.8716 16.2338 11.8155 16.7398 10.5585C17.2458 9.3015 17.3251 7.91317 16.9657 6.60671C16.6062 5.30025 15.8279 4.14789 14.7501 3.32662C13.6724 2.50534 12.3548 2.06055 10.9998 2.06055C9.64483 2.06055 8.32729 2.50534 7.24955 3.32662C6.1718 4.14789 5.39344 5.30025 5.034 6.60671C4.67457 7.91317 4.75392 9.3015 5.25989 10.5585C5.76585 11.8155 6.67045 12.8716 7.83476 13.5648C5.48093 14.333 3.46398 15.9555 2.15515 18.2191C2.10715 18.2974 2.07532 18.3845 2.06152 18.4752C2.04772 18.566 2.05224 18.6586 2.07482 18.7476C2.09739 18.8366 2.13756 18.9202 2.19295 18.9934C2.24835 19.0666 2.31784 19.128 2.39734 19.1739C2.47684 19.2198 2.56473 19.2493 2.65583 19.2607C2.74692 19.2721 2.83938 19.2652 2.92775 19.2403C3.01611 19.2154 3.09859 19.173 3.17032 19.1157C3.24205 19.0584 3.30157 18.9873 3.34538 18.9066C4.96445 16.1085 7.82617 14.4379 10.9998 14.4379C14.1735 14.4379 17.0352 16.1085 18.6543 18.9066C18.6981 18.9873 18.7576 19.0584 18.8294 19.1157C18.9011 19.173 18.9836 19.2154 19.0719 19.2403C19.1603 19.2652 19.2528 19.2721 19.3438 19.2607C19.4349 19.2493 19.5228 19.2198 19.6023 19.1739C19.6818 19.128 19.7513 19.0666 19.8067 18.9934C19.8621 18.9202 19.9023 18.8366 19.9249 18.7476C19.9474 18.6586 19.952 18.566 19.9382 18.4752C19.9244 18.3845 19.8925 18.2974 19.8445 18.2191ZM6.18734 8.25038C6.18734 7.29856 6.46958 6.36811 6.99839 5.5767C7.52719 4.78529 8.2788 4.16846 9.15817 3.80421C10.0375 3.43997 11.0052 3.34466 11.9387 3.53036C12.8722 3.71605 13.7297 4.17439 14.4028 4.84743C15.0758 5.52047 15.5342 6.37798 15.7199 7.31151C15.9056 8.24505 15.8103 9.21268 15.446 10.092C15.0818 10.9714 14.4649 11.723 13.6735 12.2518C12.8821 12.7806 11.9517 13.0629 10.9998 13.0629C9.7239 13.0615 8.50062 12.5541 7.59839 11.6518C6.69617 10.7496 6.1887 9.52632 6.18734 8.25038Z" fill="#C7D7FE"/>
</svg>
