<svg width="16" height="16" viewBox="0 0 16 16" fill="none" xmlns="http://www.w3.org/2000/svg">
<g clip-path="url(#clip0_4209_31651)">
<path d="M11.8531 7.82666L13.9064 5.77333C14.4131 5.26666 14.6664 4.6 14.6664 3.93333C14.6664 3.26666 14.4131 2.59999 13.9064 2.09333C12.8864 1.07999 11.2464 1.07999 10.2264 2.09333L7.83974 4.48666L7.30641 5.02L6.83307 5.49333C6.31974 5.99999 6.06641 6.66666 6.06641 7.33333C6.06641 7.48 6.07974 7.62 6.09974 7.76C6.10641 7.76666 6.10641 7.77999 6.10641 7.79333C6.13307 7.92666 6.16641 8.05333 6.21307 8.18C6.33307 8.54 6.53974 8.88 6.83307 9.16666C6.97974 9.31333 7.13974 9.44 7.30641 9.54" stroke="#444CE7" stroke-miterlimit="10" stroke-linecap="round" stroke-linejoin="round"/>
<path d="M4.14634 8.17334L2.09301 10.2267C1.58634 10.7333 1.33301 11.4 1.33301 12.0667C1.33301 12.7333 1.58634 13.4 2.09301 13.9067C3.11301 14.92 4.75301 14.92 5.77301 13.9067L8.15967 11.5133L8.69301 10.98L9.16634 10.5067C9.67967 10 9.93301 9.33334 9.93301 8.66667C9.93301 8.52001 9.91967 8.38001 9.89967 8.24001C9.89301 8.23334 9.89301 8.22001 9.89301 8.20667C9.86634 8.07334 9.83301 7.94667 9.78634 7.82001C9.66634 7.46001 9.45967 7.12001 9.16634 6.83334C9.01967 6.68667 8.85967 6.56001 8.69301 6.46001" stroke="#444CE7" stroke-miterlimit="10" stroke-linecap="round" stroke-linejoin="round"/>
</g>
<defs>
<clipPath id="clip0_4209_31651">
<rect width="16" height="16" fill="white"/>
</clipPath>
</defs>
</svg>
