<svg width="16" height="16" viewBox="0 0 16 16" fill="none" xmlns="http://www.w3.org/2000/svg">
<mask id="path-1-inside-1_4209_31645" fill="white">
<path d="M9.26683 7.46555L13.3952 2.66666H12.4169L8.83224 6.83347L5.96919 2.66666H2.66699L6.99649 8.96761L2.66699 14H3.64534L7.43083 9.5997L10.4544 14H13.7566L9.26659 7.46555H9.26683ZM7.92685 9.02313L7.48818 8.39569L3.99785 3.40314H5.50053L8.31727 7.43229L8.75594 8.05972L12.4174 13.297H10.9147L7.92685 9.02337V9.02313Z"/>
</mask>
<path d="M9.26683 7.46555V8.46555H9.72567L10.0249 8.11771L9.26683 7.46555ZM13.3952 2.66666L14.1533 3.31882L15.5746 1.66666H13.3952V2.66666ZM12.4169 2.66666V1.66666H11.9581L11.6588 2.01449L12.4169 2.66666ZM8.83224 6.83347L8.00805 7.39978L8.74344 8.47005L9.59032 7.48563L8.83224 6.83347ZM5.96919 2.66666L6.79338 2.10035L6.49539 1.66666H5.96919V2.66666ZM2.66699 2.66666V1.66666H0.76656L1.8428 3.23297L2.66699 2.66666ZM6.99649 8.96761L7.75456 9.6198L8.2568 9.03601L7.82068 8.4013L6.99649 8.96761ZM2.66699 14L1.90893 13.3478L0.487509 15H2.66699V14ZM3.64534 14V15H4.10418L4.40342 14.6522L3.64534 14ZM7.43083 9.5997L8.25501 9.03337L7.51961 7.96313L6.67275 8.94753L7.43083 9.5997ZM10.4544 14L9.63024 14.5663L9.92824 15H10.4544V14ZM13.7566 14V15H15.6571L14.5808 13.4337L13.7566 14ZM9.26659 7.46555V6.46555H7.36613L8.4424 8.03187L9.26659 7.46555ZM7.92685 9.02313H8.92685V8.70822L8.74641 8.45013L7.92685 9.02313ZM7.48818 8.39569L6.6686 8.96867L6.66862 8.96869L7.48818 8.39569ZM3.99785 3.40314V2.40314H2.0786L3.17827 3.97611L3.99785 3.40314ZM5.50053 3.40314L6.32011 2.83018L6.02157 2.40314H5.50053V3.40314ZM8.31727 7.43229L7.49769 8.00525L7.49771 8.00528L8.31727 7.43229ZM8.75594 8.05972L9.57551 7.48675L9.5755 7.48673L8.75594 8.05972ZM12.4174 13.297V14.297H14.3366L13.2369 12.724L12.4174 13.297ZM10.9147 13.297L10.0951 13.87L10.3937 14.297H10.9147V13.297ZM7.92685 9.02337H6.92685V9.33827L7.10728 9.59635L7.92685 9.02337ZM9.26683 7.46555L10.0249 8.11771L14.1533 3.31882L13.3952 2.66666L12.6371 2.0145L8.50874 6.81339L9.26683 7.46555ZM13.3952 2.66666V1.66666H12.4169V2.66666V3.66666H13.3952V2.66666ZM12.4169 2.66666L11.6588 2.01449L8.07417 6.1813L8.83224 6.83347L9.59032 7.48563L13.175 3.31882L12.4169 2.66666ZM8.83224 6.83347L9.65644 6.26716L6.79338 2.10035L5.96919 2.66666L5.145 3.23297L8.00805 7.39978L8.83224 6.83347ZM5.96919 2.66666V1.66666H2.66699V2.66666V3.66666H5.96919V2.66666ZM2.66699 2.66666L1.8428 3.23297L6.1723 9.53393L6.99649 8.96761L7.82068 8.4013L3.49118 2.10034L2.66699 2.66666ZM6.99649 8.96761L6.23843 8.31543L1.90893 13.3478L2.66699 14L3.42505 14.6522L7.75456 9.6198L6.99649 8.96761ZM2.66699 14V15H3.64534V14V13H2.66699V14ZM3.64534 14L4.40342 14.6522L8.18891 10.2519L7.43083 9.5997L6.67275 8.94753L2.88726 13.3478L3.64534 14ZM7.43083 9.5997L6.60665 10.166L9.63024 14.5663L10.4544 14L11.2786 13.4337L8.25501 9.03337L7.43083 9.5997ZM10.4544 14V15H13.7566V14V13H10.4544V14ZM13.7566 14L14.5808 13.4337L10.0908 6.89923L9.26659 7.46555L8.4424 8.03187L12.9324 14.5663L13.7566 14ZM9.26659 7.46555V8.46555H9.26683V7.46555V6.46555H9.26659V7.46555ZM7.92685 9.02313L8.74641 8.45013L8.30774 7.8227L7.48818 8.39569L6.66862 8.96869L7.10729 9.59612L7.92685 9.02313ZM7.48818 8.39569L8.30776 7.82272L4.81742 2.83017L3.99785 3.40314L3.17827 3.97611L6.6686 8.96867L7.48818 8.39569ZM3.99785 3.40314V4.40314H5.50053V3.40314V2.40314H3.99785V3.40314ZM5.50053 3.40314L4.68095 3.9761L7.49769 8.00525L8.31727 7.43229L9.13685 6.85933L6.32011 2.83018L5.50053 3.40314ZM8.31727 7.43229L7.49771 8.00528L7.93638 8.63272L8.75594 8.05972L9.5755 7.48673L9.13683 6.8593L8.31727 7.43229ZM8.75594 8.05972L7.93636 8.6327L11.5978 13.87L12.4174 13.297L13.2369 12.724L9.57551 7.48675L8.75594 8.05972ZM12.4174 13.297V12.297H10.9147V13.297V14.297H12.4174V13.297ZM10.9147 13.297L11.7342 12.724L8.74641 8.45038L7.92685 9.02337L7.10728 9.59635L10.0951 13.87L10.9147 13.297ZM7.92685 9.02337H8.92685V9.02313H7.92685H6.92685V9.02337H7.92685Z" fill="#444CE7" mask="url(#path-1-inside-1_4209_31645)"/>
</svg>
