<svg width="816" height="320" viewBox="0 0 816 320" fill="none" xmlns="http://www.w3.org/2000/svg">
<g opacity="0.3">
<mask id="mask0_128_7715" style="mask-type:alpha" maskUnits="userSpaceOnUse" x="0" y="-70" width="816" height="465">
<rect y="-70" width="815.59" height="464.433" fill="url(#paint0_radial_128_7715)"/>
</mask>
<g mask="url(#mask0_128_7715)">
<path fill-rule="evenodd" clip-rule="evenodd" d="M45.2131 -58.4336H5.56638V-18.7869H45.2131V-58.4336ZM5 -59V-18.2205H45.7795V-59H5Z" fill="white"/>
<path fill-rule="evenodd" clip-rule="evenodd" d="M85.4262 -58.4336H45.7795V-18.7869H85.4262V-58.4336ZM45.2131 -59V-18.2205H85.9926V-59H45.2131Z" fill="white"/>
<path fill-rule="evenodd" clip-rule="evenodd" d="M125.639 -58.4336H85.9926V-18.7869H125.639V-58.4336ZM85.4262 -59V-18.2205H126.206V-59H85.4262Z" fill="white"/>
<path fill-rule="evenodd" clip-rule="evenodd" d="M165.852 -58.4336H126.206V-18.7869H165.852V-58.4336ZM125.639 -59V-18.2205H166.419V-59H125.639Z" fill="white"/>
<path fill-rule="evenodd" clip-rule="evenodd" d="M206.065 -58.4336H166.419V-18.7869H206.065V-58.4336ZM165.852 -59V-18.2205H206.632V-59H165.852Z" fill="white"/>
<path fill-rule="evenodd" clip-rule="evenodd" d="M246.279 -58.4336H206.632V-18.7869H246.279V-58.4336ZM206.065 -59V-18.2205H246.845V-59H206.065Z" fill="white"/>
<path fill-rule="evenodd" clip-rule="evenodd" d="M286.492 -58.4336H246.845V-18.7869H286.492V-58.4336ZM246.279 -59V-18.2205H287.058V-59H246.279Z" fill="white"/>
<path fill-rule="evenodd" clip-rule="evenodd" d="M326.705 -58.4336H287.058V-18.7869H326.705V-58.4336ZM286.492 -59V-18.2205H327.271V-59H286.492Z" fill="white"/>
<path fill-rule="evenodd" clip-rule="evenodd" d="M366.918 -58.4336H327.271V-18.7869H366.918V-58.4336ZM326.705 -59V-18.2205H367.484V-59H326.705Z" fill="white"/>
<path fill-rule="evenodd" clip-rule="evenodd" d="M407.131 -58.4336H367.484V-18.7869H407.131V-58.4336ZM366.918 -59V-18.2205H407.697V-59H366.918Z" fill="white"/>
<path fill-rule="evenodd" clip-rule="evenodd" d="M447.344 -58.4336H407.697V-18.7869H447.344V-58.4336ZM407.131 -59V-18.2205H447.91V-59H407.131Z" fill="white"/>
<path fill-rule="evenodd" clip-rule="evenodd" d="M487.557 -58.4336H447.91V-18.7869H487.557V-58.4336ZM447.344 -59V-18.2205H488.123V-59H447.344Z" fill="white"/>
<path fill-rule="evenodd" clip-rule="evenodd" d="M527.77 -58.4336H488.123V-18.7869H527.77V-58.4336ZM487.557 -59V-18.2205H528.337V-59H487.557Z" fill="white"/>
<path fill-rule="evenodd" clip-rule="evenodd" d="M567.983 -58.4336H528.337V-18.7869H567.983V-58.4336ZM527.77 -59V-18.2205H568.55V-59H527.77Z" fill="white"/>
<path fill-rule="evenodd" clip-rule="evenodd" d="M608.196 -58.4336H568.55V-18.7869H608.196V-58.4336ZM567.983 -59V-18.2205H608.763V-59H567.983Z" fill="white"/>
<path fill-rule="evenodd" clip-rule="evenodd" d="M648.409 -58.4336H608.763V-18.7869H648.409V-58.4336ZM608.196 -59V-18.2205H648.976V-59H608.196Z" fill="white"/>
<path fill-rule="evenodd" clip-rule="evenodd" d="M688.623 -58.4336H648.976V-18.7869H688.623V-58.4336ZM648.409 -59V-18.2205H689.189V-59H648.409Z" fill="white"/>
<path fill-rule="evenodd" clip-rule="evenodd" d="M728.836 -58.4336H689.189V-18.7869H728.836V-58.4336ZM688.623 -59V-18.2205H729.402V-59H688.623Z" fill="white"/>
<path fill-rule="evenodd" clip-rule="evenodd" d="M769.049 -58.4336H729.402V-18.7869H769.049V-58.4336ZM728.836 -59V-18.2205H769.615V-59H728.836Z" fill="white"/>
<path fill-rule="evenodd" clip-rule="evenodd" d="M809.262 -58.4336H769.615V-18.7869H809.262V-58.4336ZM769.049 -59V-18.2205H809.828V-59H769.049Z" fill="white"/>
<path fill-rule="evenodd" clip-rule="evenodd" d="M45.2131 -18.2205H5.56638V21.4262H45.2131V-18.2205ZM5 -18.7869V21.9926H45.7795V-18.7869H5Z" fill="white"/>
<path fill-rule="evenodd" clip-rule="evenodd" d="M85.4262 -18.2205H45.7795V21.4262H85.4262V-18.2205ZM45.2131 -18.7869V21.9926H85.9926V-18.7869H45.2131Z" fill="white"/>
<path fill-rule="evenodd" clip-rule="evenodd" d="M125.639 -18.2205H85.9926V21.4262H125.639V-18.2205ZM85.4262 -18.7869V21.9926H126.206V-18.7869H85.4262Z" fill="white"/>
<path fill-rule="evenodd" clip-rule="evenodd" d="M165.852 -18.2205H126.206V21.4262H165.852V-18.2205ZM125.639 -18.7869V21.9926H166.419V-18.7869H125.639Z" fill="white"/>
<path fill-rule="evenodd" clip-rule="evenodd" d="M206.065 -18.2205H166.419V21.4262H206.065V-18.2205ZM165.852 -18.7869V21.9926H206.632V-18.7869H165.852Z" fill="white"/>
<path fill-rule="evenodd" clip-rule="evenodd" d="M246.279 -18.2205H206.632V21.4262H246.279V-18.2205ZM206.065 -18.7869V21.9926H246.845V-18.7869H206.065Z" fill="white"/>
<path fill-rule="evenodd" clip-rule="evenodd" d="M286.492 -18.2205H246.845V21.4262H286.492V-18.2205ZM246.279 -18.7869V21.9926H287.058V-18.7869H246.279Z" fill="white"/>
<path fill-rule="evenodd" clip-rule="evenodd" d="M326.705 -18.2205H287.058V21.4262H326.705V-18.2205ZM286.492 -18.7869V21.9926H327.271V-18.7869H286.492Z" fill="white"/>
<path fill-rule="evenodd" clip-rule="evenodd" d="M366.918 -18.2205H327.271V21.4262H366.918V-18.2205ZM326.705 -18.7869V21.9926H367.484V-18.7869H326.705Z" fill="white"/>
<path fill-rule="evenodd" clip-rule="evenodd" d="M407.131 -18.2205H367.484V21.4262H407.131V-18.2205ZM366.918 -18.7869V21.9926H407.697V-18.7869H366.918Z" fill="white"/>
<path fill-rule="evenodd" clip-rule="evenodd" d="M447.344 -18.2205H407.697V21.4262H447.344V-18.2205ZM407.131 -18.7869V21.9926H447.91V-18.7869H407.131Z" fill="white"/>
<path fill-rule="evenodd" clip-rule="evenodd" d="M487.557 -18.2205H447.91V21.4262H487.557V-18.2205ZM447.344 -18.7869V21.9926H488.123V-18.7869H447.344Z" fill="white"/>
<path fill-rule="evenodd" clip-rule="evenodd" d="M527.77 -18.2205H488.123V21.4262H527.77V-18.2205ZM487.557 -18.7869V21.9926H528.337V-18.7869H487.557Z" fill="white"/>
<path fill-rule="evenodd" clip-rule="evenodd" d="M567.983 -18.2205H528.337V21.4262H567.983V-18.2205ZM527.77 -18.7869V21.9926H568.55V-18.7869H527.77Z" fill="white"/>
<path fill-rule="evenodd" clip-rule="evenodd" d="M608.196 -18.2205H568.55V21.4262H608.196V-18.2205ZM567.983 -18.7869V21.9926H608.763V-18.7869H567.983Z" fill="white"/>
<path fill-rule="evenodd" clip-rule="evenodd" d="M648.409 -18.2205H608.763V21.4262H648.409V-18.2205ZM608.196 -18.7869V21.9926H648.976V-18.7869H608.196Z" fill="white"/>
<path fill-rule="evenodd" clip-rule="evenodd" d="M688.623 -18.2205H648.976V21.4262H688.623V-18.2205ZM648.409 -18.7869V21.9926H689.189V-18.7869H648.409Z" fill="white"/>
<path fill-rule="evenodd" clip-rule="evenodd" d="M728.836 -18.2205H689.189V21.4262H728.836V-18.2205ZM688.623 -18.7869V21.9926H729.402V-18.7869H688.623Z" fill="white"/>
<path fill-rule="evenodd" clip-rule="evenodd" d="M769.049 -18.2205H729.402V21.4262H769.049V-18.2205ZM728.836 -18.7869V21.9926H769.615V-18.7869H728.836Z" fill="white"/>
<path fill-rule="evenodd" clip-rule="evenodd" d="M809.262 -18.2205H769.615V21.4262H809.262V-18.2205ZM769.049 -18.7869V21.9926H809.828V-18.7869H769.049Z" fill="white"/>
<path fill-rule="evenodd" clip-rule="evenodd" d="M45.2131 21.9926H5.56638V61.6393H45.2131V21.9926ZM5 21.4262V62.2057H45.7795V21.4262H5Z" fill="white"/>
<path fill-rule="evenodd" clip-rule="evenodd" d="M85.4262 21.9926H45.7795V61.6393H85.4262V21.9926ZM45.2131 21.4262V62.2057H85.9926V21.4262H45.2131Z" fill="white"/>
<path fill-rule="evenodd" clip-rule="evenodd" d="M125.639 21.9926H85.9926V61.6393H125.639V21.9926ZM85.4262 21.4262V62.2057H126.206V21.4262H85.4262Z" fill="white"/>
<path fill-rule="evenodd" clip-rule="evenodd" d="M165.852 21.9926H126.206V61.6393H165.852V21.9926ZM125.639 21.4262V62.2057H166.419V21.4262H125.639Z" fill="white"/>
<path fill-rule="evenodd" clip-rule="evenodd" d="M206.065 21.9926H166.419V61.6393H206.065V21.9926ZM165.852 21.4262V62.2057H206.632V21.4262H165.852Z" fill="white"/>
<path fill-rule="evenodd" clip-rule="evenodd" d="M246.279 21.9926H206.632V61.6393H246.279V21.9926ZM206.065 21.4262V62.2057H246.845V21.4262H206.065Z" fill="white"/>
<path fill-rule="evenodd" clip-rule="evenodd" d="M286.492 21.9926H246.845V61.6393H286.492V21.9926ZM246.279 21.4262V62.2057H287.058V21.4262H246.279Z" fill="white"/>
<path fill-rule="evenodd" clip-rule="evenodd" d="M326.705 21.9926H287.058V61.6393H326.705V21.9926ZM286.492 21.4262V62.2057H327.271V21.4262H286.492Z" fill="white"/>
<path fill-rule="evenodd" clip-rule="evenodd" d="M366.918 21.9926H327.271V61.6393H366.918V21.9926ZM326.705 21.4262V62.2057H367.484V21.4262H326.705Z" fill="white"/>
<path fill-rule="evenodd" clip-rule="evenodd" d="M407.131 21.9926H367.484V61.6393H407.131V21.9926ZM366.918 21.4262V62.2057H407.697V21.4262H366.918Z" fill="white"/>
<path fill-rule="evenodd" clip-rule="evenodd" d="M447.344 21.9926H407.697V61.6393H447.344V21.9926ZM407.131 21.4262V62.2057H447.91V21.4262H407.131Z" fill="white"/>
<path fill-rule="evenodd" clip-rule="evenodd" d="M487.557 21.9926H447.91V61.6393H487.557V21.9926ZM447.344 21.4262V62.2057H488.123V21.4262H447.344Z" fill="white"/>
<path fill-rule="evenodd" clip-rule="evenodd" d="M527.77 21.9926H488.123V61.6393H527.77V21.9926ZM487.557 21.4262V62.2057H528.337V21.4262H487.557Z" fill="white"/>
<path fill-rule="evenodd" clip-rule="evenodd" d="M567.983 21.9926H528.337V61.6393H567.983V21.9926ZM527.77 21.4262V62.2057H568.55V21.4262H527.77Z" fill="white"/>
<path fill-rule="evenodd" clip-rule="evenodd" d="M608.196 21.9926H568.55V61.6393H608.196V21.9926ZM567.983 21.4262V62.2057H608.763V21.4262H567.983Z" fill="white"/>
<path fill-rule="evenodd" clip-rule="evenodd" d="M648.409 21.9926H608.763V61.6393H648.409V21.9926ZM608.196 21.4262V62.2057H648.976V21.4262H608.196Z" fill="white"/>
<path fill-rule="evenodd" clip-rule="evenodd" d="M688.623 21.9926H648.976V61.6393H688.623V21.9926ZM648.409 21.4262V62.2057H689.189V21.4262H648.409Z" fill="white"/>
<path fill-rule="evenodd" clip-rule="evenodd" d="M728.836 21.9926H689.189V61.6393H728.836V21.9926ZM688.623 21.4262V62.2057H729.402V21.4262H688.623Z" fill="white"/>
<path fill-rule="evenodd" clip-rule="evenodd" d="M769.049 21.9926H729.402V61.6393H769.049V21.9926ZM728.836 21.4262V62.2057H769.615V21.4262H728.836Z" fill="white"/>
<path fill-rule="evenodd" clip-rule="evenodd" d="M809.262 21.9926H769.615V61.6393H809.262V21.9926ZM769.049 21.4262V62.2057H809.828V21.4262H769.049Z" fill="white"/>
<path fill-rule="evenodd" clip-rule="evenodd" d="M45.2131 62.2057H5.56638V101.852H45.2131V62.2057ZM5 61.6393V102.419H45.7795V61.6393H5Z" fill="white"/>
<path fill-rule="evenodd" clip-rule="evenodd" d="M85.4262 62.2057H45.7795V101.852H85.4262V62.2057ZM45.2131 61.6393V102.419H85.9926V61.6393H45.2131Z" fill="white"/>
<path fill-rule="evenodd" clip-rule="evenodd" d="M125.639 62.2057H85.9926V101.852H125.639V62.2057ZM85.4262 61.6393V102.419H126.206V61.6393H85.4262Z" fill="white"/>
<path fill-rule="evenodd" clip-rule="evenodd" d="M165.852 62.2057H126.206V101.852H165.852V62.2057ZM125.639 61.6393V102.419H166.419V61.6393H125.639Z" fill="white"/>
<path fill-rule="evenodd" clip-rule="evenodd" d="M206.065 62.2057H166.419V101.852H206.065V62.2057ZM165.852 61.6393V102.419H206.632V61.6393H165.852Z" fill="white"/>
<path fill-rule="evenodd" clip-rule="evenodd" d="M246.279 62.2057H206.632V101.852H246.279V62.2057ZM206.065 61.6393V102.419H246.845V61.6393H206.065Z" fill="white"/>
<path fill-rule="evenodd" clip-rule="evenodd" d="M286.492 62.2057H246.845V101.852H286.492V62.2057ZM246.279 61.6393V102.419H287.058V61.6393H246.279Z" fill="white"/>
<path fill-rule="evenodd" clip-rule="evenodd" d="M326.705 62.2057H287.058V101.852H326.705V62.2057ZM286.492 61.6393V102.419H327.271V61.6393H286.492Z" fill="white"/>
<path fill-rule="evenodd" clip-rule="evenodd" d="M366.918 62.2057H327.271V101.852H366.918V62.2057ZM326.705 61.6393V102.419H367.484V61.6393H326.705Z" fill="white"/>
<path fill-rule="evenodd" clip-rule="evenodd" d="M407.131 62.2057H367.484V101.852H407.131V62.2057ZM366.918 61.6393V102.419H407.697V61.6393H366.918Z" fill="white"/>
<path fill-rule="evenodd" clip-rule="evenodd" d="M447.344 62.2057H407.697V101.852H447.344V62.2057ZM407.131 61.6393V102.419H447.91V61.6393H407.131Z" fill="white"/>
<path fill-rule="evenodd" clip-rule="evenodd" d="M487.557 62.2057H447.91V101.852H487.557V62.2057ZM447.344 61.6393V102.419H488.123V61.6393H447.344Z" fill="white"/>
<path fill-rule="evenodd" clip-rule="evenodd" d="M527.77 62.2057H488.123V101.852H527.77V62.2057ZM487.557 61.6393V102.419H528.337V61.6393H487.557Z" fill="white"/>
<path fill-rule="evenodd" clip-rule="evenodd" d="M567.983 62.2057H528.337V101.852H567.983V62.2057ZM527.77 61.6393V102.419H568.55V61.6393H527.77Z" fill="white"/>
<path fill-rule="evenodd" clip-rule="evenodd" d="M608.196 62.2057H568.55V101.852H608.196V62.2057ZM567.983 61.6393V102.419H608.763V61.6393H567.983Z" fill="white"/>
<path fill-rule="evenodd" clip-rule="evenodd" d="M648.409 62.2057H608.763V101.852H648.409V62.2057ZM608.196 61.6393V102.419H648.976V61.6393H608.196Z" fill="white"/>
<path fill-rule="evenodd" clip-rule="evenodd" d="M688.623 62.2057H648.976V101.852H688.623V62.2057ZM648.409 61.6393V102.419H689.189V61.6393H648.409Z" fill="white"/>
<path fill-rule="evenodd" clip-rule="evenodd" d="M728.836 62.2057H689.189V101.852H728.836V62.2057ZM688.623 61.6393V102.419H729.402V61.6393H688.623Z" fill="white"/>
<path fill-rule="evenodd" clip-rule="evenodd" d="M769.049 62.2057H729.402V101.852H769.049V62.2057ZM728.836 61.6393V102.419H769.615V61.6393H728.836Z" fill="white"/>
<path fill-rule="evenodd" clip-rule="evenodd" d="M809.262 62.2057H769.615V101.852H809.262V62.2057ZM769.049 61.6393V102.419H809.828V61.6393H769.049Z" fill="white"/>
<path fill-rule="evenodd" clip-rule="evenodd" d="M45.2131 102.419H5.56638V142.065H45.2131V102.419ZM5 101.852V142.632H45.7795V101.852H5Z" fill="white"/>
<path fill-rule="evenodd" clip-rule="evenodd" d="M85.4262 102.419H45.7795V142.065H85.4262V102.419ZM45.2131 101.852V142.632H85.9926V101.852H45.2131Z" fill="white"/>
<path fill-rule="evenodd" clip-rule="evenodd" d="M125.639 102.419H85.9926V142.065H125.639V102.419ZM85.4262 101.852V142.632H126.206V101.852H85.4262Z" fill="white"/>
<path fill-rule="evenodd" clip-rule="evenodd" d="M165.852 102.419H126.206V142.065H165.852V102.419ZM125.639 101.852V142.632H166.419V101.852H125.639Z" fill="white"/>
<path fill-rule="evenodd" clip-rule="evenodd" d="M206.065 102.419H166.419V142.065H206.065V102.419ZM165.852 101.852V142.632H206.632V101.852H165.852Z" fill="white"/>
<path fill-rule="evenodd" clip-rule="evenodd" d="M246.279 102.419H206.632V142.065H246.279V102.419ZM206.065 101.852V142.632H246.845V101.852H206.065Z" fill="white"/>
<path fill-rule="evenodd" clip-rule="evenodd" d="M286.492 102.419H246.845V142.065H286.492V102.419ZM246.279 101.852V142.632H287.058V101.852H246.279Z" fill="white"/>
<path fill-rule="evenodd" clip-rule="evenodd" d="M326.705 102.419H287.058V142.065H326.705V102.419ZM286.492 101.852V142.632H327.271V101.852H286.492Z" fill="white"/>
<path fill-rule="evenodd" clip-rule="evenodd" d="M366.918 102.419H327.271V142.065H366.918V102.419ZM326.705 101.852V142.632H367.484V101.852H326.705Z" fill="white"/>
<path fill-rule="evenodd" clip-rule="evenodd" d="M407.131 102.419H367.484V142.065H407.131V102.419ZM366.918 101.852V142.632H407.697V101.852H366.918Z" fill="white"/>
<path fill-rule="evenodd" clip-rule="evenodd" d="M447.344 102.419H407.697V142.065H447.344V102.419ZM407.131 101.852V142.632H447.91V101.852H407.131Z" fill="white"/>
<path fill-rule="evenodd" clip-rule="evenodd" d="M487.557 102.419H447.91V142.065H487.557V102.419ZM447.344 101.852V142.632H488.123V101.852H447.344Z" fill="white"/>
<path fill-rule="evenodd" clip-rule="evenodd" d="M527.77 102.419H488.123V142.065H527.77V102.419ZM487.557 101.852V142.632H528.337V101.852H487.557Z" fill="white"/>
<path fill-rule="evenodd" clip-rule="evenodd" d="M567.983 102.419H528.337V142.065H567.983V102.419ZM527.77 101.852V142.632H568.55V101.852H527.77Z" fill="white"/>
<path fill-rule="evenodd" clip-rule="evenodd" d="M608.196 102.419H568.55V142.065H608.196V102.419ZM567.983 101.852V142.632H608.763V101.852H567.983Z" fill="white"/>
<path fill-rule="evenodd" clip-rule="evenodd" d="M648.409 102.419H608.763V142.065H648.409V102.419ZM608.196 101.852V142.632H648.976V101.852H608.196Z" fill="white"/>
<path fill-rule="evenodd" clip-rule="evenodd" d="M688.623 102.419H648.976V142.065H688.623V102.419ZM648.409 101.852V142.632H689.189V101.852H648.409Z" fill="white"/>
<path fill-rule="evenodd" clip-rule="evenodd" d="M728.836 102.419H689.189V142.065H728.836V102.419ZM688.623 101.852V142.632H729.402V101.852H688.623Z" fill="white"/>
<path fill-rule="evenodd" clip-rule="evenodd" d="M769.049 102.419H729.402V142.065H769.049V102.419ZM728.836 101.852V142.632H769.615V101.852H728.836Z" fill="white"/>
<path fill-rule="evenodd" clip-rule="evenodd" d="M809.262 102.419H769.615V142.065H809.262V102.419ZM769.049 101.852V142.632H809.828V101.852H769.049Z" fill="white"/>
<path fill-rule="evenodd" clip-rule="evenodd" d="M45.2131 142.632H5.56638V182.279H45.2131V142.632ZM5 142.065V182.845H45.7795V142.065H5Z" fill="white"/>
<path fill-rule="evenodd" clip-rule="evenodd" d="M85.4262 142.632H45.7795V182.279H85.4262V142.632ZM45.2131 142.065V182.845H85.9926V142.065H45.2131Z" fill="white"/>
<path fill-rule="evenodd" clip-rule="evenodd" d="M125.639 142.632H85.9926V182.279H125.639V142.632ZM85.4262 142.065V182.845H126.206V142.065H85.4262Z" fill="white"/>
<path fill-rule="evenodd" clip-rule="evenodd" d="M165.852 142.632H126.206V182.279H165.852V142.632ZM125.639 142.065V182.845H166.419V142.065H125.639Z" fill="white"/>
<path fill-rule="evenodd" clip-rule="evenodd" d="M206.065 142.632H166.419V182.279H206.065V142.632ZM165.852 142.065V182.845H206.632V142.065H165.852Z" fill="white"/>
<path fill-rule="evenodd" clip-rule="evenodd" d="M246.279 142.632H206.632V182.279H246.279V142.632ZM206.065 142.065V182.845H246.845V142.065H206.065Z" fill="white"/>
<path fill-rule="evenodd" clip-rule="evenodd" d="M286.492 142.632H246.845V182.279H286.492V142.632ZM246.279 142.065V182.845H287.058V142.065H246.279Z" fill="white"/>
<path fill-rule="evenodd" clip-rule="evenodd" d="M326.705 142.632H287.058V182.279H326.705V142.632ZM286.492 142.065V182.845H327.271V142.065H286.492Z" fill="white"/>
<path fill-rule="evenodd" clip-rule="evenodd" d="M366.918 142.632H327.271V182.279H366.918V142.632ZM326.705 142.065V182.845H367.484V142.065H326.705Z" fill="white"/>
<path fill-rule="evenodd" clip-rule="evenodd" d="M407.131 142.632H367.484V182.279H407.131V142.632ZM366.918 142.065V182.845H407.697V142.065H366.918Z" fill="white"/>
<path fill-rule="evenodd" clip-rule="evenodd" d="M447.344 142.632H407.697V182.279H447.344V142.632ZM407.131 142.065V182.845H447.91V142.065H407.131Z" fill="white"/>
<path fill-rule="evenodd" clip-rule="evenodd" d="M487.557 142.632H447.91V182.279H487.557V142.632ZM447.344 142.065V182.845H488.123V142.065H447.344Z" fill="white"/>
<path fill-rule="evenodd" clip-rule="evenodd" d="M527.77 142.632H488.123V182.279H527.77V142.632ZM487.557 142.065V182.845H528.337V142.065H487.557Z" fill="white"/>
<path fill-rule="evenodd" clip-rule="evenodd" d="M567.983 142.632H528.337V182.279H567.983V142.632ZM527.77 142.065V182.845H568.55V142.065H527.77Z" fill="white"/>
<path fill-rule="evenodd" clip-rule="evenodd" d="M608.196 142.632H568.55V182.279H608.196V142.632ZM567.983 142.065V182.845H608.763V142.065H567.983Z" fill="white"/>
<path fill-rule="evenodd" clip-rule="evenodd" d="M648.409 142.632H608.763V182.279H648.409V142.632ZM608.196 142.065V182.845H648.976V142.065H608.196Z" fill="white"/>
<path fill-rule="evenodd" clip-rule="evenodd" d="M688.623 142.632H648.976V182.279H688.623V142.632ZM648.409 142.065V182.845H689.189V142.065H648.409Z" fill="white"/>
<path fill-rule="evenodd" clip-rule="evenodd" d="M728.836 142.632H689.189V182.279H728.836V142.632ZM688.623 142.065V182.845H729.402V142.065H688.623Z" fill="white"/>
<path fill-rule="evenodd" clip-rule="evenodd" d="M769.049 142.632H729.402V182.279H769.049V142.632ZM728.836 142.065V182.845H769.615V142.065H728.836Z" fill="white"/>
<path fill-rule="evenodd" clip-rule="evenodd" d="M809.262 142.632H769.615V182.279H809.262V142.632ZM769.049 142.065V182.845H809.828V142.065H769.049Z" fill="white"/>
<path fill-rule="evenodd" clip-rule="evenodd" d="M45.2131 182.845H5.56638V222.492H45.2131V182.845ZM5 182.279V223.058H45.7795V182.279H5Z" fill="white"/>
<path fill-rule="evenodd" clip-rule="evenodd" d="M85.4262 182.845H45.7795V222.492H85.4262V182.845ZM45.2131 182.279V223.058H85.9926V182.279H45.2131Z" fill="white"/>
<path fill-rule="evenodd" clip-rule="evenodd" d="M125.639 182.845H85.9926V222.492H125.639V182.845ZM85.4262 182.279V223.058H126.206V182.279H85.4262Z" fill="white"/>
<path fill-rule="evenodd" clip-rule="evenodd" d="M165.852 182.845H126.206V222.492H165.852V182.845ZM125.639 182.279V223.058H166.419V182.279H125.639Z" fill="white"/>
<path fill-rule="evenodd" clip-rule="evenodd" d="M206.065 182.845H166.419V222.492H206.065V182.845ZM165.852 182.279V223.058H206.632V182.279H165.852Z" fill="white"/>
<path fill-rule="evenodd" clip-rule="evenodd" d="M246.279 182.845H206.632V222.492H246.279V182.845ZM206.065 182.279V223.058H246.845V182.279H206.065Z" fill="white"/>
<path fill-rule="evenodd" clip-rule="evenodd" d="M286.492 182.845H246.845V222.492H286.492V182.845ZM246.279 182.279V223.058H287.058V182.279H246.279Z" fill="white"/>
<path fill-rule="evenodd" clip-rule="evenodd" d="M326.705 182.845H287.058V222.492H326.705V182.845ZM286.492 182.279V223.058H327.271V182.279H286.492Z" fill="white"/>
<path fill-rule="evenodd" clip-rule="evenodd" d="M366.918 182.845H327.271V222.492H366.918V182.845ZM326.705 182.279V223.058H367.484V182.279H326.705Z" fill="white"/>
<path fill-rule="evenodd" clip-rule="evenodd" d="M407.131 182.845H367.484V222.492H407.131V182.845ZM366.918 182.279V223.058H407.697V182.279H366.918Z" fill="white"/>
<path fill-rule="evenodd" clip-rule="evenodd" d="M447.344 182.845H407.697V222.492H447.344V182.845ZM407.131 182.279V223.058H447.91V182.279H407.131Z" fill="white"/>
<path fill-rule="evenodd" clip-rule="evenodd" d="M487.557 182.845H447.91V222.492H487.557V182.845ZM447.344 182.279V223.058H488.123V182.279H447.344Z" fill="white"/>
<path fill-rule="evenodd" clip-rule="evenodd" d="M527.77 182.845H488.123V222.492H527.77V182.845ZM487.557 182.279V223.058H528.337V182.279H487.557Z" fill="white"/>
<path fill-rule="evenodd" clip-rule="evenodd" d="M567.983 182.845H528.337V222.492H567.983V182.845ZM527.77 182.279V223.058H568.55V182.279H527.77Z" fill="white"/>
<path fill-rule="evenodd" clip-rule="evenodd" d="M608.196 182.845H568.55V222.492H608.196V182.845ZM567.983 182.279V223.058H608.763V182.279H567.983Z" fill="white"/>
<path fill-rule="evenodd" clip-rule="evenodd" d="M648.409 182.845H608.763V222.492H648.409V182.845ZM608.196 182.279V223.058H648.976V182.279H608.196Z" fill="white"/>
<path fill-rule="evenodd" clip-rule="evenodd" d="M688.623 182.845H648.976V222.492H688.623V182.845ZM648.409 182.279V223.058H689.189V182.279H648.409Z" fill="white"/>
<path fill-rule="evenodd" clip-rule="evenodd" d="M728.836 182.845H689.189V222.492H728.836V182.845ZM688.623 182.279V223.058H729.402V182.279H688.623Z" fill="white"/>
<path fill-rule="evenodd" clip-rule="evenodd" d="M769.049 182.845H729.402V222.492H769.049V182.845ZM728.836 182.279V223.058H769.615V182.279H728.836Z" fill="white"/>
<path fill-rule="evenodd" clip-rule="evenodd" d="M809.262 182.845H769.615V222.492H809.262V182.845ZM769.049 182.279V223.058H809.828V182.279H769.049Z" fill="white"/>
<path fill-rule="evenodd" clip-rule="evenodd" d="M45.2131 223.058H5.56638V262.705H45.2131V223.058ZM5 222.492V263.271H45.7795V222.492H5Z" fill="white"/>
<path fill-rule="evenodd" clip-rule="evenodd" d="M85.4262 223.058H45.7795V262.705H85.4262V223.058ZM45.2131 222.492V263.271H85.9926V222.492H45.2131Z" fill="white"/>
<path fill-rule="evenodd" clip-rule="evenodd" d="M125.639 223.058H85.9926V262.705H125.639V223.058ZM85.4262 222.492V263.271H126.206V222.492H85.4262Z" fill="white"/>
<path fill-rule="evenodd" clip-rule="evenodd" d="M165.852 223.058H126.206V262.705H165.852V223.058ZM125.639 222.492V263.271H166.419V222.492H125.639Z" fill="white"/>
<path fill-rule="evenodd" clip-rule="evenodd" d="M206.065 223.058H166.419V262.705H206.065V223.058ZM165.852 222.492V263.271H206.632V222.492H165.852Z" fill="white"/>
<path fill-rule="evenodd" clip-rule="evenodd" d="M246.279 223.058H206.632V262.705H246.279V223.058ZM206.065 222.492V263.271H246.845V222.492H206.065Z" fill="white"/>
<path fill-rule="evenodd" clip-rule="evenodd" d="M286.492 223.058H246.845V262.705H286.492V223.058ZM246.279 222.492V263.271H287.058V222.492H246.279Z" fill="white"/>
<path fill-rule="evenodd" clip-rule="evenodd" d="M326.705 223.058H287.058V262.705H326.705V223.058ZM286.492 222.492V263.271H327.271V222.492H286.492Z" fill="white"/>
<path fill-rule="evenodd" clip-rule="evenodd" d="M366.918 223.058H327.271V262.705H366.918V223.058ZM326.705 222.492V263.271H367.484V222.492H326.705Z" fill="white"/>
<path fill-rule="evenodd" clip-rule="evenodd" d="M407.131 223.058H367.484V262.705H407.131V223.058ZM366.918 222.492V263.271H407.697V222.492H366.918Z" fill="white"/>
<path fill-rule="evenodd" clip-rule="evenodd" d="M447.344 223.058H407.697V262.705H447.344V223.058ZM407.131 222.492V263.271H447.91V222.492H407.131Z" fill="white"/>
<path fill-rule="evenodd" clip-rule="evenodd" d="M487.557 223.058H447.91V262.705H487.557V223.058ZM447.344 222.492V263.271H488.123V222.492H447.344Z" fill="white"/>
<path fill-rule="evenodd" clip-rule="evenodd" d="M527.77 223.058H488.123V262.705H527.77V223.058ZM487.557 222.492V263.271H528.337V222.492H487.557Z" fill="white"/>
<path fill-rule="evenodd" clip-rule="evenodd" d="M567.983 223.058H528.337V262.705H567.983V223.058ZM527.77 222.492V263.271H568.55V222.492H527.77Z" fill="white"/>
<path fill-rule="evenodd" clip-rule="evenodd" d="M608.196 223.058H568.55V262.705H608.196V223.058ZM567.983 222.492V263.271H608.763V222.492H567.983Z" fill="white"/>
<path fill-rule="evenodd" clip-rule="evenodd" d="M648.409 223.058H608.763V262.705H648.409V223.058ZM608.196 222.492V263.271H648.976V222.492H608.196Z" fill="white"/>
<path fill-rule="evenodd" clip-rule="evenodd" d="M688.623 223.058H648.976V262.705H688.623V223.058ZM648.409 222.492V263.271H689.189V222.492H648.409Z" fill="white"/>
<path fill-rule="evenodd" clip-rule="evenodd" d="M728.836 223.058H689.189V262.705H728.836V223.058ZM688.623 222.492V263.271H729.402V222.492H688.623Z" fill="white"/>
<path fill-rule="evenodd" clip-rule="evenodd" d="M769.049 223.058H729.402V262.705H769.049V223.058ZM728.836 222.492V263.271H769.615V222.492H728.836Z" fill="white"/>
<path fill-rule="evenodd" clip-rule="evenodd" d="M809.262 223.058H769.615V262.705H809.262V223.058ZM769.049 222.492V263.271H809.828V222.492H769.049Z" fill="white"/>
<path fill-rule="evenodd" clip-rule="evenodd" d="M45.2131 263.271H5.56638V302.918H45.2131V263.271ZM5 262.705V303.484H45.7795V262.705H5Z" fill="white"/>
<path fill-rule="evenodd" clip-rule="evenodd" d="M85.4262 263.271H45.7795V302.918H85.4262V263.271ZM45.2131 262.705V303.484H85.9926V262.705H45.2131Z" fill="white"/>
<path fill-rule="evenodd" clip-rule="evenodd" d="M125.639 263.271H85.9926V302.918H125.639V263.271ZM85.4262 262.705V303.484H126.206V262.705H85.4262Z" fill="white"/>
<path fill-rule="evenodd" clip-rule="evenodd" d="M165.852 263.271H126.206V302.918H165.852V263.271ZM125.639 262.705V303.484H166.419V262.705H125.639Z" fill="white"/>
<path fill-rule="evenodd" clip-rule="evenodd" d="M206.065 263.271H166.419V302.918H206.065V263.271ZM165.852 262.705V303.484H206.632V262.705H165.852Z" fill="white"/>
<path fill-rule="evenodd" clip-rule="evenodd" d="M246.279 263.271H206.632V302.918H246.279V263.271ZM206.065 262.705V303.484H246.845V262.705H206.065Z" fill="white"/>
<path fill-rule="evenodd" clip-rule="evenodd" d="M286.492 263.271H246.845V302.918H286.492V263.271ZM246.279 262.705V303.484H287.058V262.705H246.279Z" fill="white"/>
<path fill-rule="evenodd" clip-rule="evenodd" d="M326.705 263.271H287.058V302.918H326.705V263.271ZM286.492 262.705V303.484H327.271V262.705H286.492Z" fill="white"/>
<path fill-rule="evenodd" clip-rule="evenodd" d="M366.918 263.271H327.271V302.918H366.918V263.271ZM326.705 262.705V303.484H367.484V262.705H326.705Z" fill="white"/>
<path fill-rule="evenodd" clip-rule="evenodd" d="M407.131 263.271H367.484V302.918H407.131V263.271ZM366.918 262.705V303.484H407.697V262.705H366.918Z" fill="white"/>
<path fill-rule="evenodd" clip-rule="evenodd" d="M447.344 263.271H407.697V302.918H447.344V263.271ZM407.131 262.705V303.484H447.91V262.705H407.131Z" fill="white"/>
<path fill-rule="evenodd" clip-rule="evenodd" d="M487.557 263.271H447.91V302.918H487.557V263.271ZM447.344 262.705V303.484H488.123V262.705H447.344Z" fill="white"/>
<path fill-rule="evenodd" clip-rule="evenodd" d="M527.77 263.271H488.123V302.918H527.77V263.271ZM487.557 262.705V303.484H528.337V262.705H487.557Z" fill="white"/>
<path fill-rule="evenodd" clip-rule="evenodd" d="M567.983 263.271H528.337V302.918H567.983V263.271ZM527.77 262.705V303.484H568.55V262.705H527.77Z" fill="white"/>
<path fill-rule="evenodd" clip-rule="evenodd" d="M608.196 263.271H568.55V302.918H608.196V263.271ZM567.983 262.705V303.484H608.763V262.705H567.983Z" fill="white"/>
<path fill-rule="evenodd" clip-rule="evenodd" d="M648.409 263.271H608.763V302.918H648.409V263.271ZM608.196 262.705V303.484H648.976V262.705H608.196Z" fill="white"/>
<path fill-rule="evenodd" clip-rule="evenodd" d="M688.623 263.271H648.976V302.918H688.623V263.271ZM648.409 262.705V303.484H689.189V262.705H648.409Z" fill="white"/>
<path fill-rule="evenodd" clip-rule="evenodd" d="M728.836 263.271H689.189V302.918H728.836V263.271ZM688.623 262.705V303.484H729.402V262.705H688.623Z" fill="white"/>
<path fill-rule="evenodd" clip-rule="evenodd" d="M769.049 263.271H729.402V302.918H769.049V263.271ZM728.836 262.705V303.484H769.615V262.705H728.836Z" fill="white"/>
<path fill-rule="evenodd" clip-rule="evenodd" d="M809.262 263.271H769.615V302.918H809.262V263.271ZM769.049 262.705V303.484H809.828V262.705H769.049Z" fill="white"/>
<path fill-rule="evenodd" clip-rule="evenodd" d="M45.2131 303.484H5.56638V343.131H45.2131V303.484ZM5 302.918V343.697H45.7795V302.918H5Z" fill="white"/>
<path fill-rule="evenodd" clip-rule="evenodd" d="M85.4262 303.484H45.7795V343.131H85.4262V303.484ZM45.2131 302.918V343.697H85.9926V302.918H45.2131Z" fill="white"/>
<path fill-rule="evenodd" clip-rule="evenodd" d="M125.639 303.484H85.9926V343.131H125.639V303.484ZM85.4262 302.918V343.697H126.206V302.918H85.4262Z" fill="white"/>
<path fill-rule="evenodd" clip-rule="evenodd" d="M165.852 303.484H126.206V343.131H165.852V303.484ZM125.639 302.918V343.697H166.419V302.918H125.639Z" fill="white"/>
<path fill-rule="evenodd" clip-rule="evenodd" d="M206.065 303.484H166.419V343.131H206.065V303.484ZM165.852 302.918V343.697H206.632V302.918H165.852Z" fill="white"/>
<path fill-rule="evenodd" clip-rule="evenodd" d="M246.279 303.484H206.632V343.131H246.279V303.484ZM206.065 302.918V343.697H246.845V302.918H206.065Z" fill="white"/>
<path fill-rule="evenodd" clip-rule="evenodd" d="M286.492 303.484H246.845V343.131H286.492V303.484ZM246.279 302.918V343.697H287.058V302.918H246.279Z" fill="white"/>
<path fill-rule="evenodd" clip-rule="evenodd" d="M326.705 303.484H287.058V343.131H326.705V303.484ZM286.492 302.918V343.697H327.271V302.918H286.492Z" fill="white"/>
<path fill-rule="evenodd" clip-rule="evenodd" d="M366.918 303.484H327.271V343.131H366.918V303.484ZM326.705 302.918V343.697H367.484V302.918H326.705Z" fill="white"/>
<path fill-rule="evenodd" clip-rule="evenodd" d="M407.131 303.484H367.484V343.131H407.131V303.484ZM366.918 302.918V343.697H407.697V302.918H366.918Z" fill="white"/>
<path fill-rule="evenodd" clip-rule="evenodd" d="M447.344 303.484H407.697V343.131H447.344V303.484ZM407.131 302.918V343.697H447.91V302.918H407.131Z" fill="white"/>
<path fill-rule="evenodd" clip-rule="evenodd" d="M487.557 303.484H447.91V343.131H487.557V303.484ZM447.344 302.918V343.697H488.123V302.918H447.344Z" fill="white"/>
<path fill-rule="evenodd" clip-rule="evenodd" d="M527.77 303.484H488.123V343.131H527.77V303.484ZM487.557 302.918V343.697H528.337V302.918H487.557Z" fill="white"/>
<path fill-rule="evenodd" clip-rule="evenodd" d="M567.983 303.484H528.337V343.131H567.983V303.484ZM527.77 302.918V343.697H568.55V302.918H527.77Z" fill="white"/>
<path fill-rule="evenodd" clip-rule="evenodd" d="M608.196 303.484H568.55V343.131H608.196V303.484ZM567.983 302.918V343.697H608.763V302.918H567.983Z" fill="white"/>
<path fill-rule="evenodd" clip-rule="evenodd" d="M648.409 303.484H608.763V343.131H648.409V303.484ZM608.196 302.918V343.697H648.976V302.918H608.196Z" fill="white"/>
<path fill-rule="evenodd" clip-rule="evenodd" d="M688.623 303.484H648.976V343.131H688.623V303.484ZM648.409 302.918V343.697H689.189V302.918H648.409Z" fill="white"/>
<path fill-rule="evenodd" clip-rule="evenodd" d="M728.836 303.484H689.189V343.131H728.836V303.484ZM688.623 302.918V343.697H729.402V302.918H688.623Z" fill="white"/>
<path fill-rule="evenodd" clip-rule="evenodd" d="M769.049 303.484H729.402V343.131H769.049V303.484ZM728.836 302.918V343.697H769.615V302.918H728.836Z" fill="white"/>
<path fill-rule="evenodd" clip-rule="evenodd" d="M809.262 303.484H769.615V343.131H809.262V303.484ZM769.049 302.918V343.697H809.828V302.918H769.049Z" fill="white"/>
<path fill-rule="evenodd" clip-rule="evenodd" d="M45.2131 343.697H5.56638V383.344H45.2131V343.697ZM5 343.131V383.91H45.7795V343.131H5Z" fill="white"/>
<path fill-rule="evenodd" clip-rule="evenodd" d="M85.4262 343.697H45.7795V383.344H85.4262V343.697ZM45.2131 343.131V383.91H85.9926V343.131H45.2131Z" fill="white"/>
<path fill-rule="evenodd" clip-rule="evenodd" d="M125.639 343.697H85.9926V383.344H125.639V343.697ZM85.4262 343.131V383.91H126.206V343.131H85.4262Z" fill="white"/>
<path fill-rule="evenodd" clip-rule="evenodd" d="M165.852 343.697H126.206V383.344H165.852V343.697ZM125.639 343.131V383.91H166.419V343.131H125.639Z" fill="white"/>
<path fill-rule="evenodd" clip-rule="evenodd" d="M206.065 343.697H166.419V383.344H206.065V343.697ZM165.852 343.131V383.91H206.632V343.131H165.852Z" fill="white"/>
<path fill-rule="evenodd" clip-rule="evenodd" d="M246.279 343.697H206.632V383.344H246.279V343.697ZM206.065 343.131V383.91H246.845V343.131H206.065Z" fill="white"/>
<path fill-rule="evenodd" clip-rule="evenodd" d="M286.492 343.697H246.845V383.344H286.492V343.697ZM246.279 343.131V383.91H287.058V343.131H246.279Z" fill="white"/>
<path fill-rule="evenodd" clip-rule="evenodd" d="M326.705 343.697H287.058V383.344H326.705V343.697ZM286.492 343.131V383.91H327.271V343.131H286.492Z" fill="white"/>
<path fill-rule="evenodd" clip-rule="evenodd" d="M366.918 343.697H327.271V383.344H366.918V343.697ZM326.705 343.131V383.91H367.484V343.131H326.705Z" fill="white"/>
<path fill-rule="evenodd" clip-rule="evenodd" d="M407.131 343.697H367.484V383.344H407.131V343.697ZM366.918 343.131V383.91H407.697V343.131H366.918Z" fill="white"/>
<path fill-rule="evenodd" clip-rule="evenodd" d="M447.344 343.697H407.697V383.344H447.344V343.697ZM407.131 343.131V383.91H447.91V343.131H407.131Z" fill="white"/>
<path fill-rule="evenodd" clip-rule="evenodd" d="M487.557 343.697H447.91V383.344H487.557V343.697ZM447.344 343.131V383.91H488.123V343.131H447.344Z" fill="white"/>
<path fill-rule="evenodd" clip-rule="evenodd" d="M527.77 343.697H488.123V383.344H527.77V343.697ZM487.557 343.131V383.91H528.337V343.131H487.557Z" fill="white"/>
<path fill-rule="evenodd" clip-rule="evenodd" d="M567.983 343.697H528.337V383.344H567.983V343.697ZM527.77 343.131V383.91H568.55V343.131H527.77Z" fill="white"/>
<path fill-rule="evenodd" clip-rule="evenodd" d="M608.196 343.697H568.55V383.344H608.196V343.697ZM567.983 343.131V383.91H608.763V343.131H567.983Z" fill="white"/>
<path fill-rule="evenodd" clip-rule="evenodd" d="M648.409 343.697H608.763V383.344H648.409V343.697ZM608.196 343.131V383.91H648.976V343.131H608.196Z" fill="white"/>
<path fill-rule="evenodd" clip-rule="evenodd" d="M688.623 343.697H648.976V383.344H688.623V343.697ZM648.409 343.131V383.91H689.189V343.131H648.409Z" fill="white"/>
<path fill-rule="evenodd" clip-rule="evenodd" d="M728.836 343.697H689.189V383.344H728.836V343.697ZM688.623 343.131V383.91H729.402V343.131H688.623Z" fill="white"/>
<path fill-rule="evenodd" clip-rule="evenodd" d="M769.049 343.697H729.402V383.344H769.049V343.697ZM728.836 343.131V383.91H769.615V343.131H728.836Z" fill="white"/>
<path fill-rule="evenodd" clip-rule="evenodd" d="M809.262 343.697H769.615V383.344H809.262V343.697ZM769.049 343.131V383.91H809.828V343.131H769.049Z" fill="white"/>
</g>
</g>
<defs>
<radialGradient id="paint0_radial_128_7715" cx="0" cy="0" r="1" gradientUnits="userSpaceOnUse" gradientTransform="translate(407.795 140.128) rotate(90) scale(171.872 215.791)">
<stop stop-color="#D9D9D9"/>
<stop offset="1" stop-color="#737373" stop-opacity="0"/>
</radialGradient>
</defs>
</svg>
