<svg width="22" height="22" viewBox="0 0 22 22" fill="none" xmlns="http://www.w3.org/2000/svg">
<path d="M7.45599 5.67188C8.59294 3.26562 10.9992 2.0625 10.9992 2.0625C10.9992 2.0625 13.4054 3.26562 14.5424 5.67188C15.5166 4.98438 17.1695 5.04167 17.8742 5.15625C18.5617 8.70833 17.8742 15.125 10.9992 15.125C3.82804 15.125 3.66587 8.02083 4.46798 4.8125L7.45599 5.67188Z" fill="#475467"/>
<path d="M17.875 4.125C16.8287 4.12406 15.7937 4.34154 14.8363 4.76352C13.5386 2.58329 11.4056 1.49789 11.3077 1.44719C11.2121 1.3994 11.1068 1.37451 11 1.37451C10.8932 1.37451 10.7879 1.3994 10.6923 1.44719C10.5944 1.49704 8.45797 2.58329 7.16375 4.76352C6.2063 4.34154 5.17131 4.12406 4.125 4.125C3.94266 4.125 3.7678 4.19744 3.63886 4.32637C3.50993 4.4553 3.4375 4.63017 3.4375 4.8125V8.25C3.43977 10.136 4.14578 11.9532 5.41735 13.3461C6.68893 14.7389 8.43452 15.6071 10.3125 15.7807V18.8255L7.18266 17.2597C7.10185 17.2193 7.01388 17.1952 6.92377 17.1888C6.83365 17.1824 6.74316 17.1938 6.65745 17.2224C6.57175 17.2509 6.49251 17.2961 6.42426 17.3553C6.35601 17.4145 6.30009 17.4865 6.25969 17.5673C6.21929 17.6482 6.19519 17.7361 6.18879 17.8262C6.18239 17.9164 6.19379 18.0068 6.22236 18.0926C6.25093 18.1783 6.2961 18.2575 6.35529 18.3257C6.41448 18.394 6.48654 18.4499 6.56734 18.4903L10.6923 20.5528C10.7879 20.6006 10.8932 20.6255 11 20.6255C11.1068 20.6255 11.2121 20.6006 11.3077 20.5528L15.4327 18.4903C15.5958 18.4087 15.7199 18.2656 15.7776 18.0926C15.8353 17.9195 15.8219 17.7305 15.7403 17.5673C15.6587 17.4042 15.5156 17.2801 15.3425 17.2224C15.1695 17.1647 14.9805 17.1781 14.8173 17.2597L11.6875 18.8255V15.7807C13.5655 15.6071 15.3111 14.7389 16.5826 13.3461C17.8542 11.9532 18.5602 10.136 18.5625 8.25V4.8125C18.5625 4.63017 18.4901 4.4553 18.3611 4.32637C18.2322 4.19744 18.0573 4.125 17.875 4.125ZM11 2.85399C11.5715 3.20461 12.8116 4.07344 13.6331 5.43211C12.4892 6.20892 11.5788 7.28301 11 8.53875C10.4216 7.28224 9.5112 6.20747 8.36688 5.43039C9.1893 4.07344 10.4285 3.20461 11 2.85399ZM4.8125 8.25V5.53782C6.32441 5.70875 7.72056 6.43002 8.73487 7.56414C9.74919 8.69827 10.3107 10.166 10.3125 11.6875V14.3997C8.80059 14.2288 7.40444 13.5075 6.39013 12.3734C5.37581 11.2392 4.81426 9.77154 4.8125 8.25ZM17.1875 8.25C17.1857 9.77154 16.6242 11.2392 15.6099 12.3734C14.5956 13.5075 13.1994 14.2288 11.6875 14.3997V11.6875C11.6893 10.166 12.2508 8.69827 13.2651 7.56414C14.2794 6.43002 15.6756 5.70875 17.1875 5.53782V8.25Z" fill="#D0D5DD"/>
</svg>
