<svg width="22" height="22" viewBox="0 0 22 22" fill="none" xmlns="http://www.w3.org/2000/svg">
<path d="M19.2438 17.875H2.75759C2.66017 17.8757 2.56372 17.8556 2.47464 17.8162C2.38555 17.7767 2.30587 17.7188 2.24086 17.6463C2.17586 17.5737 2.12701 17.4881 2.09757 17.3953C2.06813 17.3024 2.05877 17.2043 2.07009 17.1076L3.2947 6.79508C3.31546 6.62737 3.39681 6.47304 3.52343 6.36114C3.65005 6.24923 3.81322 6.18748 3.9822 6.1875H18.0192C18.1882 6.18748 18.3514 6.24923 18.478 6.36114C18.6046 6.47304 18.686 6.62737 18.7067 6.79508L19.9313 17.1076C19.9427 17.2043 19.9333 17.3024 19.9039 17.3953C19.8744 17.4881 19.8256 17.5737 19.7606 17.6463C19.6956 17.7188 19.6159 17.7767 19.5268 17.8162C19.4377 17.8556 19.3413 17.8757 19.2438 17.875Z" fill="#475467"/>
<path d="M20.6159 17.0259L19.3904 6.71344C19.3507 6.37744 19.1884 6.06789 18.9347 5.84402C18.6811 5.62014 18.3537 5.49766 18.0154 5.5H15.1253C15.1253 4.40598 14.6907 3.35677 13.9171 2.58318C13.1435 1.8096 12.0943 1.375 11.0003 1.375C9.9063 1.375 8.85709 1.8096 8.0835 2.58318C7.30992 3.35677 6.87532 4.40598 6.87532 5.5H3.9818C3.64347 5.49766 3.31615 5.62014 3.06247 5.84402C2.80879 6.06789 2.64655 6.37744 2.6068 6.71344L1.38134 17.0259C1.35888 17.2184 1.37736 17.4135 1.43556 17.5983C1.49377 17.7831 1.59038 17.9536 1.71907 18.0984C1.84869 18.2439 2.00753 18.3605 2.18522 18.4404C2.36291 18.5204 2.55547 18.562 2.75032 18.5625H19.2434C19.4395 18.5629 19.6333 18.5218 19.8123 18.4418C19.9912 18.3618 20.1512 18.2448 20.2816 18.0984C20.4097 17.9533 20.5056 17.7827 20.5632 17.5979C20.6209 17.4131 20.6388 17.2182 20.6159 17.0259ZM11.0003 2.75C11.7297 2.75 12.4291 3.03973 12.9449 3.55546C13.4606 4.07118 13.7503 4.77065 13.7503 5.5H8.25032C8.25032 4.77065 8.54005 4.07118 9.05578 3.55546C9.5715 3.03973 10.271 2.75 11.0003 2.75ZM2.75032 17.1875L3.9818 6.875H6.87532V8.9375C6.87532 9.11984 6.94775 9.2947 7.07668 9.42364C7.20562 9.55257 7.38048 9.625 7.56282 9.625C7.74516 9.625 7.92002 9.55257 8.04896 9.42364C8.17789 9.2947 8.25032 9.11984 8.25032 8.9375V6.875H13.7503V8.9375C13.7503 9.11984 13.8228 9.2947 13.9517 9.42364C14.0806 9.55257 14.2555 9.625 14.4378 9.625C14.6202 9.625 14.795 9.55257 14.924 9.42364C15.0529 9.2947 15.1253 9.11984 15.1253 8.9375V6.875H18.0257L19.2434 17.1875H2.75032Z" fill="#D0D5DD"/>
</svg>
