<svg width="22" height="22" viewBox="0 0 22 22" fill="none" xmlns="http://www.w3.org/2000/svg">
<path d="M2.75 12.0313C2.75 11.6913 2.8508 11.359 3.03966 11.0764C3.22852 10.7937 3.49695 10.5734 3.81101 10.4433C4.12507 10.3132 4.47066 10.2792 4.80406 10.3455C5.13747 10.4118 5.44372 10.5755 5.68409 10.8159C5.92446 11.0563 6.08816 11.3625 6.15447 11.6959C6.22079 12.0293 6.18676 12.3749 6.05667 12.689C5.92658 13.003 5.70628 13.2715 5.42364 13.4603C5.14099 13.6492 4.80869 13.75 4.46875 13.75C4.01291 13.75 3.57574 13.5689 3.25341 13.2466C2.93108 12.9243 2.75 12.4871 2.75 12.0313ZM11 16.5C5.5 16.5 2.0625 19.25 2.0625 19.25H19.9375C19.9375 19.25 16.5 16.5 11 16.5Z" fill="#475467"/>
<path d="M20.4743 19.68C20.4179 19.7506 20.3481 19.8094 20.269 19.853C20.1899 19.8966 20.103 19.9241 20.0132 19.9341C19.9234 19.9441 19.8325 19.9363 19.7457 19.9111C19.659 19.886 19.578 19.8439 19.5075 19.7875C19.4757 19.7617 16.1714 17.1879 10.9997 17.1879C5.82798 17.1879 2.52282 19.766 2.49188 19.7883C2.42129 19.8448 2.34028 19.8867 2.25347 19.9118C2.16666 19.937 2.07575 19.9447 1.98593 19.9347C1.80454 19.9145 1.63862 19.823 1.52466 19.6805C1.4107 19.5379 1.35804 19.3559 1.37826 19.1745C1.39849 18.9931 1.48995 18.8272 1.63251 18.7132C1.77259 18.6015 4.94282 16.1128 10.0793 15.8386C9.81211 14.7741 9.71667 13.6737 9.79657 12.579C9.9461 10.7133 10.735 8.22801 13.4919 6.35028C13.0697 6.24766 12.6372 6.19374 12.2028 6.18958H12.0593C10.4265 6.24286 9.4004 7.19591 8.92259 9.10458C8.88516 9.25432 8.79845 9.38711 8.67639 9.48157C8.55433 9.57604 8.40403 9.62668 8.2497 9.62536C8.19347 9.62565 8.13744 9.61872 8.08298 9.60473C7.90613 9.56049 7.75409 9.44782 7.66029 9.2915C7.5665 9.13518 7.53863 8.948 7.58282 8.77114C8.37774 5.59575 10.4282 4.86786 12.0086 4.81801C12.6363 4.80436 13.2629 4.87517 13.8717 5.02856C13.5426 4.48458 13.0613 3.91739 12.3927 3.63208C11.5334 3.2677 10.4875 3.42669 9.27235 4.10559C9.11281 4.19448 8.92449 4.21635 8.74882 4.16639C8.57315 4.11643 8.42452 3.99873 8.33563 3.83919C8.24675 3.67964 8.22488 3.49132 8.27484 3.31565C8.3248 3.13998 8.4425 2.99136 8.60204 2.90247C10.2125 2.00442 11.6717 1.82481 12.9402 2.36966C14.0135 2.83028 14.7217 3.72575 15.1634 4.51809C15.6945 3.68966 16.3562 3.12848 17.0875 2.89044C18.1067 2.55786 19.205 2.82856 20.3531 3.69567C20.4922 3.80775 20.5822 3.96954 20.604 4.1468C20.6259 4.32405 20.5779 4.50285 20.4702 4.64535C20.3626 4.78785 20.2037 4.88287 20.0272 4.91028C19.8507 4.9377 19.6705 4.89536 19.5247 4.79223C18.759 4.21387 18.0835 4.01364 17.5181 4.19669C16.8916 4.39864 16.412 5.05606 16.1113 5.62411C16.7296 5.74946 17.3246 5.9707 17.8747 6.27981C19.1302 6.99739 20.6247 8.51848 20.6247 11.6887C20.6247 11.8711 20.5523 12.0459 20.4233 12.1749C20.2944 12.3038 20.1195 12.3762 19.9372 12.3762C19.7549 12.3762 19.58 12.3038 19.4511 12.1749C19.3221 12.0459 19.2497 11.8711 19.2497 11.6887C19.2497 9.67262 18.5562 8.25122 17.1872 7.47778C17.0277 7.38721 16.8627 7.30684 16.6931 7.23716C17.1259 8.11718 17.2777 9.10903 17.1279 10.0782C17.0198 10.7953 16.7603 11.4811 16.3665 12.09C16.2611 12.2378 16.1015 12.338 15.9226 12.3686C15.7437 12.3992 15.5599 12.3578 15.4114 12.2534C15.2629 12.149 15.1617 11.9901 15.1299 11.8114C15.0981 11.6327 15.1382 11.4486 15.2416 11.2994C15.3052 11.2057 16.6449 9.20426 14.9614 7.05669C12.6411 8.3638 11.3615 10.2579 11.1664 12.6933C11.0904 13.7484 11.2019 14.8086 11.4956 15.8249C16.8795 15.9804 20.2199 18.6032 20.3643 18.7175C20.506 18.831 20.597 18.9958 20.6176 19.1761C20.6382 19.3564 20.5867 19.5376 20.4743 19.68ZM2.0622 12.0316C2.0622 11.5557 2.20332 11.0905 2.46772 10.6948C2.73213 10.2991 3.10793 9.99065 3.54761 9.80852C3.9873 9.6264 4.47112 9.57875 4.93788 9.67159C5.40465 9.76444 5.8334 9.99361 6.16992 10.3301C6.50644 10.6667 6.73562 11.0954 6.82846 11.5622C6.92131 12.0289 6.87366 12.5128 6.69153 12.9524C6.50941 13.3921 6.20099 13.7679 5.80529 14.0323C5.40958 14.2967 4.94436 14.4379 4.46845 14.4379C3.83027 14.4379 3.21823 14.1843 2.76697 13.7331C2.31571 13.2818 2.0622 12.6698 2.0622 12.0316ZM3.4372 12.0316C3.4372 12.2356 3.49768 12.435 3.61099 12.6045C3.72431 12.7741 3.88537 12.9063 4.0738 12.9844C4.26224 13.0624 4.46959 13.0828 4.66963 13.043C4.86968 13.0033 5.05343 12.905 5.19765 12.7608C5.34187 12.6166 5.44009 12.4328 5.47988 12.2328C5.51967 12.0328 5.49925 11.8254 5.4212 11.637C5.34315 11.4485 5.21097 11.2875 5.04138 11.1742C4.87179 11.0608 4.67241 11.0004 4.46845 11.0004C4.19494 11.0004 3.93264 11.109 3.73924 11.3024C3.54585 11.4958 3.4372 11.7581 3.4372 12.0316Z" fill="#FFFFFF"/>
</svg>
