<svg width="22" height="22" viewBox="0 0 22 22" fill="none" xmlns="http://www.w3.org/2000/svg">
<path d="M17.1875 13.75C17.1875 14.6617 16.8253 15.536 16.1807 16.1807C15.536 16.8253 14.6617 17.1875 13.75 17.1875H7.5625V4.125H12.7188C13.5393 4.125 14.3262 4.45095 14.9064 5.03114C15.4866 5.61133 15.8125 6.39824 15.8125 7.21875C15.8125 8.03926 15.4866 8.82617 14.9064 9.40636C14.3262 9.98655 13.5393 10.3125 12.7188 10.3125H13.75C14.6617 10.3125 15.536 10.6747 16.1807 11.3193C16.8253 11.964 17.1875 12.8383 17.1875 13.75Z" fill="#475467"/>
<path d="M15.3381 9.94297C15.8599 9.44054 16.2264 8.79881 16.3941 8.0941C16.5617 7.38939 16.5234 6.65137 16.2836 5.96781C16.0439 5.28426 15.6129 4.68394 15.0419 4.23826C14.4708 3.79259 13.7838 3.52031 13.0625 3.45383V2.0625C13.0625 1.88016 12.9901 1.7053 12.8611 1.57636C12.7322 1.44743 12.5573 1.375 12.375 1.375C12.1927 1.375 12.0178 1.44743 11.8889 1.57636C11.7599 1.7053 11.6875 1.88016 11.6875 2.0625V3.4375H10.3125V2.0625C10.3125 1.88016 10.2401 1.7053 10.1111 1.57636C9.9822 1.44743 9.80734 1.375 9.625 1.375C9.44266 1.375 9.2678 1.44743 9.13886 1.57636C9.00993 1.7053 8.9375 1.88016 8.9375 2.0625V3.4375H6.1875C6.00516 3.4375 5.8303 3.50993 5.70136 3.63886C5.57243 3.7678 5.5 3.94266 5.5 4.125C5.5 4.30734 5.57243 4.4822 5.70136 4.61114C5.8303 4.74007 6.00516 4.8125 6.1875 4.8125H6.875V16.5H6.1875C6.00516 16.5 5.8303 16.5724 5.70136 16.7014C5.57243 16.8303 5.5 17.0052 5.5 17.1875C5.5 17.3698 5.57243 17.5447 5.70136 17.6736C5.8303 17.8026 6.00516 17.875 6.1875 17.875H8.9375V19.25C8.9375 19.4323 9.00993 19.6072 9.13886 19.7361C9.2678 19.8651 9.44266 19.9375 9.625 19.9375C9.80734 19.9375 9.9822 19.8651 10.1111 19.7361C10.2401 19.6072 10.3125 19.4323 10.3125 19.25V17.875H11.6875V19.25C11.6875 19.4323 11.7599 19.6072 11.8889 19.7361C12.0178 19.8651 12.1927 19.9375 12.375 19.9375C12.5573 19.9375 12.7322 19.8651 12.8611 19.7361C12.9901 19.6072 13.0625 19.4323 13.0625 19.25V17.875H13.75C14.7035 17.875 15.6275 17.5447 16.3649 16.9403C17.1023 16.3359 17.6075 15.4947 17.7947 14.5598C17.9819 13.6249 17.8394 12.654 17.3916 11.8123C16.9437 10.9706 16.2181 10.31 15.3381 9.94297ZM8.25 4.8125H12.7188C13.3569 4.8125 13.969 5.06602 14.4202 5.51727C14.8715 5.96853 15.125 6.58057 15.125 7.21875C15.125 7.85693 14.8715 8.46897 14.4202 8.92023C13.969 9.37148 13.3569 9.625 12.7188 9.625H8.25V4.8125ZM13.75 16.5H8.25V11H13.75C14.4793 11 15.1788 11.2897 15.6945 11.8055C16.2103 12.3212 16.5 13.0207 16.5 13.75C16.5 14.4793 16.2103 15.1788 15.6945 15.6945C15.1788 16.2103 14.4793 16.5 13.75 16.5Z" fill="#D0D5DD"/>
</svg>
