<svg width="22" height="22" viewBox="0 0 22 22" fill="none" xmlns="http://www.w3.org/2000/svg">
<path d="M14.0887 6.88516C15.128 6.9416 16.1366 7.25935 17.0206 7.80899C17.9045 8.35862 18.6351 9.12277 19.1455 10.0299C19.6559 10.9371 19.9296 11.9586 19.9405 12.9995C19.9513 14.0402 19.6993 15.0669 19.208 15.9845L19.9089 18.3672C19.9437 18.4856 19.9461 18.6115 19.9156 18.7311C19.8851 18.8507 19.823 18.96 19.7357 19.0473C19.6484 19.1346 19.5391 19.1967 19.4195 19.2273C19.2999 19.2578 19.174 19.256 19.0556 19.2212L16.6728 18.5196C15.8856 18.9406 15.0167 19.1863 14.1256 19.24C13.2346 19.2938 12.3425 19.1544 11.5105 18.8311C10.6785 18.5078 9.92603 18.0081 9.30503 17.3668C8.68403 16.7256 8.209 15.9577 7.91257 15.1157C8.02506 15.1217 8.1376 15.1251 8.25095 15.1251C9.23986 15.1252 10.2145 14.8884 11.0929 14.4342C11.9715 13.98 12.7287 13.3217 13.3004 12.5147C13.8722 11.7078 14.2422 10.775 14.3794 9.79562C14.5165 8.8163 14.4166 7.81806 14.0887 6.88516Z" fill="#475467"/>
<path d="M4.97257 4.5259C6.03178 3.74023 7.33788 3.36084 8.65311 3.45773C9.96847 3.5547 11.2057 4.12166 12.1383 5.05429C13.0708 5.98688 13.6372 7.22353 13.7342 8.53878C13.8311 9.85411 13.4524 11.1607 12.6667 12.22C11.8809 13.2793 10.7403 14.0205 9.4534 14.3094C8.16648 14.5982 6.81846 14.415 5.65537 13.7931C5.55543 13.7378 5.44327 13.7082 5.32907 13.7071C5.26347 13.7073 5.19812 13.7166 5.13504 13.7346L2.75095 14.4376L3.45322 12.0521C3.50313 11.8798 3.48347 11.6947 3.39884 11.5365C2.77692 10.3734 2.59371 9.0254 2.88254 7.73849C3.17139 6.45164 3.9133 5.31164 4.97257 4.5259Z" fill="#475467"/>
<path d="M19.9429 16.0502C20.4179 15.0649 20.651 13.9805 20.6228 12.887C20.5945 11.7936 20.3058 10.7226 19.7806 9.76317C19.2553 8.8037 18.5087 7.9834 17.6028 7.37042C16.6969 6.75744 15.6578 6.36947 14.5718 6.23873C14.2104 5.39858 13.6851 4.63896 13.0265 4.00437C12.3679 3.36978 11.5893 2.87298 10.7364 2.54304C9.88337 2.2131 8.97313 2.05667 8.05894 2.08291C7.14475 2.10914 6.24498 2.31751 5.41232 2.69582C4.57967 3.07413 3.83086 3.61477 3.20975 4.28608C2.58865 4.9574 2.10772 5.74589 1.79515 6.60538C1.48257 7.46487 1.34463 8.3781 1.38939 9.29157C1.43415 10.205 1.66072 11.1004 2.05584 11.9252L1.43107 14.0487C1.36122 14.2858 1.35654 14.5373 1.41755 14.7768C1.47855 15.0163 1.60298 15.2349 1.77773 15.4096C1.95248 15.5844 2.1711 15.7088 2.41059 15.7698C2.65008 15.8308 2.90159 15.8262 3.13865 15.7563L5.26216 15.1315C5.94402 15.4591 6.67505 15.6725 7.42607 15.7632C7.79094 16.6181 8.32539 17.3901 8.9971 18.0326C9.66881 18.6751 10.4638 19.1748 11.3341 19.5013C12.2044 19.8278 13.1318 19.9745 14.0604 19.9324C14.989 19.8904 15.8994 19.6604 16.7365 19.2565L18.8601 19.8813C19.097 19.9511 19.3484 19.9557 19.5878 19.8948C19.8272 19.8338 20.0457 19.7094 20.2205 19.5348C20.3952 19.3602 20.5196 19.1417 20.5807 18.9023C20.6418 18.663 20.6373 18.4116 20.5676 18.1746L19.9429 16.0502ZM5.32748 13.7076C5.26178 13.7077 5.19642 13.717 5.13326 13.7351L2.74935 14.438L3.45146 12.0524C3.5014 11.88 3.48197 11.695 3.39732 11.5368C2.7754 10.3737 2.59215 9.02583 2.88098 7.73891C3.1698 6.45199 3.91148 5.31172 4.97079 4.52595C6.0301 3.74018 7.33651 3.36125 8.65187 3.45822C9.96723 3.5552 11.2039 4.12162 12.1366 5.05425C13.0692 5.98687 13.6356 7.22359 13.7326 8.53894C13.8296 9.8543 13.4506 11.1607 12.6649 12.22C11.8791 13.2793 10.7388 14.021 9.45191 14.3098C8.16499 14.5987 6.81713 14.4154 5.65404 13.7935C5.55402 13.7381 5.44178 13.7086 5.32748 13.7076ZM18.5438 16.1765L19.2494 18.563L16.8637 17.8609C16.6914 17.811 16.5063 17.8304 16.3481 17.9151C15.0821 18.5911 13.6021 18.7459 12.2236 18.3465C10.8451 17.9471 9.67716 17.025 8.96865 15.7769C9.90999 15.6787 10.8209 15.387 11.6441 14.9201C12.4674 14.4532 13.1853 13.8212 13.7528 13.0637C14.3203 12.3063 14.7252 11.4397 14.942 10.5184C15.1587 9.59716 15.1828 8.64101 15.0126 7.70998C15.8328 7.90331 16.5976 8.28251 17.248 8.81832C17.8983 9.35413 18.4169 10.0322 18.7636 10.8002C19.1103 11.5682 19.276 12.4057 19.2477 13.2478C19.2194 14.09 18.998 14.9144 18.6005 15.6575C18.515 15.8167 18.4955 16.0031 18.5464 16.1765H18.5438Z" fill="#FFFFFF"/>
</svg>
