<svg width="18" height="18" viewBox="0 0 18 18" fill="none" xmlns="http://www.w3.org/2000/svg">
<path d="M9 7.3125L6.1875 4.5L9 1.6875L11.8125 4.5L9 7.3125ZM6.1875 13.5L9 16.3125L11.8125 13.5L9 10.6875L6.1875 13.5ZM13.5 6.1875L10.6875 9L13.5 11.8125L16.3125 9L13.5 6.1875ZM4.5 6.1875L1.6875 9L4.5 11.8125L7.3125 9L4.5 6.1875Z" fill="#475467"/>
<path d="M8.60202 7.71042C8.65426 7.76272 8.7163 7.80421 8.78458 7.83252C8.85287 7.86083 8.92606 7.8754 8.99999 7.8754C9.07391 7.8754 9.1471 7.86083 9.21539 7.83252C9.28368 7.80421 9.34571 7.76272 9.39795 7.71042L12.2105 4.89792C12.2628 4.84568 12.3042 4.78364 12.3326 4.71536C12.3609 4.64707 12.3754 4.57388 12.3754 4.49995C12.3754 4.42603 12.3609 4.35284 12.3326 4.28455C12.3042 4.21626 12.2628 4.15423 12.2105 4.10199L9.39795 1.28949C9.34571 1.23719 9.28368 1.1957 9.21539 1.16739C9.1471 1.13908 9.07391 1.12451 8.99999 1.12451C8.92606 1.12451 8.85287 1.13908 8.78458 1.16739C8.7163 1.1957 8.65426 1.23719 8.60202 1.28949L5.78952 4.10199C5.73722 4.15423 5.69573 4.21626 5.66742 4.28455C5.63911 4.35284 5.62454 4.42603 5.62454 4.49995C5.62454 4.57388 5.63911 4.64707 5.66742 4.71536C5.69573 4.78364 5.73722 4.84568 5.78952 4.89792L8.60202 7.71042ZM8.99999 2.48269L11.0173 4.49995L8.99999 6.51722L6.98272 4.49995L8.99999 2.48269ZM9.39795 10.2874C9.34571 10.2351 9.28368 10.1936 9.21539 10.1653C9.1471 10.137 9.07391 10.1224 8.99999 10.1224C8.92606 10.1224 8.85287 10.137 8.78458 10.1653C8.7163 10.1936 8.65426 10.2351 8.60202 10.2874L5.78952 13.0999C5.73722 13.1521 5.69573 13.2142 5.66742 13.2824C5.63911 13.3507 5.62454 13.4239 5.62454 13.4978C5.62454 13.5718 5.63911 13.645 5.66742 13.7132C5.69573 13.7815 5.73722 13.8436 5.78952 13.8958L8.60202 16.7083C8.65426 16.7606 8.7163 16.8021 8.78458 16.8304C8.85287 16.8587 8.92606 16.8733 8.99999 16.8733C9.07391 16.8733 9.1471 16.8587 9.21539 16.8304C9.28368 16.8021 9.34571 16.7606 9.39795 16.7083L12.2105 13.8958C12.2628 13.8436 12.3042 13.7815 12.3326 13.7132C12.3609 13.645 12.3754 13.5718 12.3754 13.4978C12.3754 13.4239 12.3609 13.3507 12.3326 13.2824C12.3042 13.2142 12.2628 13.1521 12.2105 13.0999L9.39795 10.2874ZM8.99999 15.5172L6.98272 13.5L8.99999 11.4827L11.0173 13.5L8.99999 15.5172ZM16.7105 8.60199L13.898 5.78949C13.8457 5.73719 13.7837 5.6957 13.7154 5.66739C13.6471 5.63908 13.5739 5.62451 13.5 5.62451C13.4261 5.62451 13.3529 5.63908 13.2846 5.66739C13.2163 5.6957 13.1543 5.73719 13.102 5.78949L10.2895 8.60199C10.2372 8.65423 10.1957 8.71626 10.1674 8.78455C10.1391 8.85284 10.1245 8.92603 10.1245 8.99995C10.1245 9.07388 10.1391 9.14707 10.1674 9.21536C10.1957 9.28364 10.2372 9.34568 10.2895 9.39792L13.102 12.2104C13.1543 12.2627 13.2163 12.3042 13.2846 12.3325C13.3529 12.3608 13.4261 12.3754 13.5 12.3754C13.5739 12.3754 13.6471 12.3608 13.7154 12.3325C13.7837 12.3042 13.8457 12.2627 13.898 12.2104L16.7105 9.39792C16.7628 9.34568 16.8042 9.28364 16.8326 9.21536C16.8609 9.14707 16.8754 9.07388 16.8754 8.99995C16.8754 8.92603 16.8609 8.85284 16.8326 8.78455C16.8042 8.71626 16.7628 8.65423 16.7105 8.60199ZM13.5 11.0172L11.4827 8.99995L13.5 6.98269L15.5173 8.99995L13.5 11.0172ZM7.71045 8.60199L4.89795 5.78949C4.84571 5.73719 4.78368 5.6957 4.71539 5.66739C4.6471 5.63908 4.57391 5.62451 4.49999 5.62451C4.42606 5.62451 4.35287 5.63908 4.28458 5.66739C4.21629 5.6957 4.15426 5.73719 4.10202 5.78949L1.28952 8.60199C1.23722 8.65423 1.19573 8.71626 1.16742 8.78455C1.13911 8.85284 1.12454 8.92603 1.12454 8.99995C1.12454 9.07388 1.13911 9.14707 1.16742 9.21536C1.19573 9.28364 1.23722 9.34568 1.28952 9.39792L4.10202 12.2104C4.15426 12.2627 4.21629 12.3042 4.28458 12.3325C4.35287 12.3608 4.42606 12.3754 4.49999 12.3754C4.57391 12.3754 4.6471 12.3608 4.71539 12.3325C4.78368 12.3042 4.84571 12.2627 4.89795 12.2104L7.71045 9.39792C7.76275 9.34568 7.80424 9.28364 7.83255 9.21536C7.86086 9.14707 7.87543 9.07388 7.87543 8.99995C7.87543 8.92603 7.86086 8.85284 7.83255 8.78455C7.80424 8.71626 7.76275 8.65423 7.71045 8.60199ZM4.49999 11.0172L2.48272 8.99995L4.49999 6.98269L6.51725 8.99995L4.49999 11.0172Z" fill="#D0D5DD"/>
</svg>
