<svg width="22" height="22" viewBox="0 0 22 22" fill="none" xmlns="http://www.w3.org/2000/svg">
<path d="M11 8.9375L7.5625 5.5L11 2.0625L14.4375 5.5L11 8.9375ZM7.5625 16.5L11 19.9375L14.4375 16.5L11 13.0625L7.5625 16.5ZM16.5 7.5625L13.0625 11L16.5 14.4375L19.9375 11L16.5 7.5625ZM5.5 7.5625L2.0625 11L5.5 14.4375L8.9375 11L5.5 7.5625Z" fill="#475467"/>
<path d="M10.5132 9.42396C10.577 9.48788 10.6528 9.53859 10.7363 9.57319C10.8198 9.60779 10.9092 9.62559 10.9996 9.62559C11.0899 9.62559 11.1794 9.60779 11.2628 9.57319C11.3463 9.53859 11.4221 9.48788 11.486 9.42396L14.9235 5.98646C14.9874 5.92261 15.0381 5.84679 15.0727 5.76332C15.1073 5.67986 15.1251 5.5904 15.1251 5.50005C15.1251 5.4097 15.1073 5.32024 15.0727 5.23678C15.0381 5.15332 14.9874 5.0775 14.9235 5.01365L11.486 1.57615C11.4221 1.51223 11.3463 1.46152 11.2628 1.42692C11.1794 1.39232 11.0899 1.37451 10.9996 1.37451C10.9092 1.37451 10.8198 1.39232 10.7363 1.42692C10.6528 1.46152 10.577 1.51223 10.5132 1.57615L7.07566 5.01365C7.01174 5.0775 6.96103 5.15332 6.92643 5.23678C6.89183 5.32024 6.87402 5.4097 6.87402 5.50005C6.87402 5.5904 6.89183 5.67986 6.92643 5.76332C6.96103 5.84679 7.01174 5.92261 7.07566 5.98646L10.5132 9.42396ZM10.9996 3.03451L13.4651 5.50005L10.9996 7.9656L8.53402 5.50005L10.9996 3.03451ZM11.486 12.5736C11.4221 12.5096 11.3463 12.4589 11.2628 12.4243C11.1794 12.3897 11.0899 12.3719 10.9996 12.3719C10.9092 12.3719 10.8198 12.3897 10.7363 12.4243C10.6528 12.4589 10.577 12.5096 10.5132 12.5736L7.07566 16.0111C7.01174 16.0749 6.96103 16.1507 6.92643 16.2342C6.89183 16.3177 6.87402 16.4071 6.87402 16.4975C6.87402 16.5878 6.89183 16.6773 6.92643 16.7607C6.96103 16.8442 7.01174 16.92 7.07566 16.9839L10.5132 20.4214C10.577 20.4853 10.6528 20.536 10.7363 20.5706C10.8198 20.6052 10.9092 20.623 10.9996 20.623C11.0899 20.623 11.1794 20.6052 11.2628 20.5706C11.3463 20.536 11.4221 20.4853 11.486 20.4214L14.9235 16.9839C14.9874 16.92 15.0381 16.8442 15.0727 16.7607C15.1073 16.6773 15.1251 16.5878 15.1251 16.4975C15.1251 16.4071 15.1073 16.3177 15.0727 16.2342C15.0381 16.1507 14.9874 16.0749 14.9235 16.0111L11.486 12.5736ZM10.9996 18.9656L8.53402 16.5001L10.9996 14.0345L13.4651 16.5001L10.9996 18.9656ZM20.4235 10.5136L16.986 7.07615C16.9221 7.01222 16.8463 6.96152 16.7628 6.92692C16.6794 6.89232 16.5899 6.87451 16.4996 6.87451C16.4092 6.87451 16.3198 6.89232 16.2363 6.92692C16.1528 6.96152 16.077 7.01222 16.0132 7.07615L12.5757 10.5136C12.5117 10.5775 12.461 10.6533 12.4264 10.7368C12.3918 10.8202 12.374 10.9097 12.374 11.0001C12.374 11.0904 12.3918 11.1799 12.4264 11.2633C12.461 11.3468 12.5117 11.4226 12.5757 11.4865L16.0132 14.924C16.077 14.9879 16.1528 15.0386 16.2363 15.0732C16.3198 15.1078 16.4092 15.1256 16.4996 15.1256C16.5899 15.1256 16.6794 15.1078 16.7628 15.0732C16.8463 15.0386 16.9221 14.9879 16.986 14.924L20.4235 11.4865C20.4874 11.4226 20.5381 11.3468 20.5727 11.2633C20.6073 11.1799 20.6251 11.0904 20.6251 11.0001C20.6251 10.9097 20.6073 10.8202 20.5727 10.7368C20.5381 10.6533 20.4874 10.5775 20.4235 10.5136ZM16.4996 13.4656L14.034 11.0001L16.4996 8.53451L18.9651 11.0001L16.4996 13.4656ZM9.42347 10.5136L5.98597 7.07615C5.92212 7.01222 5.8463 6.96152 5.76284 6.92692C5.67937 6.89232 5.58991 6.87451 5.49956 6.87451C5.40922 6.87451 5.31975 6.89232 5.23629 6.92692C5.15283 6.96152 5.07701 7.01222 5.01316 7.07615L1.57566 10.5136C1.51174 10.5775 1.46103 10.6533 1.42643 10.7368C1.39183 10.8202 1.37402 10.9097 1.37402 11.0001C1.37402 11.0904 1.39183 11.1799 1.42643 11.2633C1.46103 11.3468 1.51174 11.4226 1.57566 11.4865L5.01316 14.924C5.07701 14.9879 5.15283 15.0386 5.23629 15.0732C5.31975 15.1078 5.40922 15.1256 5.49956 15.1256C5.58991 15.1256 5.67937 15.1078 5.76284 15.0732C5.8463 15.0386 5.92212 14.9879 5.98597 14.924L9.42347 11.4865C9.48739 11.4226 9.5381 11.3468 9.5727 11.2633C9.6073 11.1799 9.6251 11.0904 9.6251 11.0001C9.6251 10.9097 9.6073 10.8202 9.5727 10.7368C9.5381 10.6533 9.48739 10.5775 9.42347 10.5136ZM5.49956 13.4656L3.03402 11.0001L5.49956 8.53451L7.96511 11.0001L5.49956 13.4656Z" fill="#D0D5DD"/>
</svg>
