<svg width="22" height="22" viewBox="0 0 22 22" fill="none" xmlns="http://www.w3.org/2000/svg">
<path d="M19.9378 13.0624C19.9389 14.076 19.7674 15.0823 19.4308 16.0384C19.3838 16.1734 19.2959 16.2904 19.1793 16.3731C19.0627 16.4558 18.9232 16.5001 18.7802 16.4999H3.21954C3.07631 16.4992 2.93681 16.4542 2.82029 16.3709C2.70376 16.2876 2.61596 16.1702 2.56899 16.0349C2.22536 15.0578 2.05409 14.0285 2.06282 12.9928C2.10063 8.07799 6.16461 4.08104 11.0863 4.12487C13.4417 4.14752 15.693 5.09913 17.3505 6.77279C19.0081 8.44645 19.9379 10.7068 19.9378 13.0624Z" fill="#475467"/>
<path d="M9.82558 13.2636L18.0756 5.01359C18.1395 4.94972 18.2153 4.89905 18.2987 4.86448C18.3822 4.82991 18.4716 4.81212 18.562 4.81212C18.6523 4.81212 18.7418 4.82991 18.8252 4.86448C18.9087 4.89905 18.9845 4.94972 19.0484 5.01359C19.1123 5.07747 19.1629 5.1533 19.1975 5.23676C19.2321 5.32022 19.2499 5.40967 19.2499 5.5C19.2499 5.59033 19.2321 5.67978 19.1975 5.76324C19.1629 5.8467 19.1123 5.92253 19.0484 5.98641L10.7984 14.2364C10.7345 14.3003 10.6587 14.351 10.5752 14.3855C10.4918 14.4201 10.4023 14.4379 10.312 14.4379C10.2217 14.4379 10.1322 14.4201 10.0487 14.3855C9.96528 14.351 9.88945 14.3003 9.82558 14.2364C9.7617 14.1725 9.71103 14.0967 9.67646 14.0132C9.64189 13.9298 9.6241 13.8403 9.6241 13.75C9.6241 13.6597 9.64189 13.5702 9.67646 13.4868C9.71103 13.4033 9.7617 13.3275 9.82558 13.2636ZM10.9995 7.5625C11.5967 7.56174 12.19 7.6584 12.756 7.84867C12.842 7.87914 12.9331 7.89221 13.0242 7.88712C13.1152 7.88202 13.2043 7.85887 13.2864 7.819C13.3684 7.77914 13.4416 7.72335 13.5019 7.6549C13.5621 7.58645 13.6081 7.5067 13.6373 7.42029C13.6664 7.33388 13.678 7.24254 13.6715 7.15159C13.665 7.06063 13.6405 6.97188 13.5993 6.8905C13.5582 6.80913 13.5013 6.73675 13.4319 6.67758C13.3625 6.61841 13.282 6.57363 13.1952 6.54586C12.0996 6.1765 10.9285 6.08942 9.79036 6.29266C8.65218 6.49591 7.58364 6.98291 6.68359 7.70862C5.78353 8.43434 5.08104 9.37532 4.64109 10.4445C4.20114 11.5137 4.03794 12.6766 4.16659 13.8256C4.18519 13.9937 4.26506 14.149 4.39093 14.2618C4.51681 14.3747 4.67986 14.4373 4.84894 14.4375C4.87386 14.4375 4.89964 14.4375 4.92542 14.4332C5.1066 14.4131 5.27239 14.3219 5.38633 14.1796C5.50027 14.0373 5.55302 13.8556 5.533 13.6744C5.51063 13.4712 5.49944 13.2669 5.49948 13.0625C5.50108 11.6043 6.08105 10.2063 7.11216 9.17517C8.14326 8.14407 9.54128 7.56409 10.9995 7.5625ZM19.5709 8.67969C19.5297 8.59933 19.4731 8.52788 19.4043 8.46941C19.3355 8.41094 19.2558 8.36659 19.1699 8.3389C19.0839 8.31121 18.9934 8.30072 18.9034 8.30802C18.8134 8.31533 18.7257 8.34029 18.6453 8.38148C18.565 8.42268 18.4935 8.47929 18.4351 8.5481C18.3766 8.6169 18.3322 8.69655 18.3046 8.7825C18.2769 8.86844 18.2664 8.959 18.2737 9.049C18.281 9.139 18.3059 9.22668 18.3471 9.30703C18.8558 10.3059 19.1561 11.3976 19.23 12.5161C19.3039 13.6345 19.1497 14.7563 18.7768 15.8134L3.21355 15.8073C2.77933 14.5626 2.64893 13.2322 2.83322 11.9269C3.01751 10.6216 3.51115 9.37921 4.27299 8.30338C5.03483 7.22755 6.0428 6.34941 7.21288 5.74218C8.38295 5.13494 9.68123 4.81619 10.9995 4.8125H11.0751C12.3555 4.82055 13.6161 5.12966 14.755 5.71484C14.8355 5.75919 14.9242 5.78691 15.0157 5.79638C15.1071 5.80585 15.1996 5.79687 15.2875 5.76997C15.3755 5.74307 15.4571 5.6988 15.5277 5.63977C15.5982 5.58075 15.6562 5.50817 15.6981 5.42634C15.7401 5.34451 15.7653 5.25509 15.7721 5.16337C15.7789 5.07166 15.7672 4.97951 15.7377 4.89238C15.7083 4.80526 15.6617 4.72492 15.6006 4.65614C15.5395 4.58736 15.4653 4.53153 15.3823 4.49195C14.0527 3.80797 12.5806 3.44673 11.0854 3.4375H10.9995C9.46046 3.43811 7.94401 3.80761 6.5772 4.51502C5.2104 5.22243 4.03307 6.24715 3.14387 7.50331C2.25468 8.75946 1.67952 10.2104 1.46661 11.7347C1.2537 13.2589 1.40924 14.8119 1.92019 16.2637C2.01466 16.5329 2.19022 16.7663 2.42275 16.9318C2.65527 17.0972 2.93334 17.1865 3.2187 17.1875H18.7794C19.0646 17.1877 19.3427 17.0992 19.5754 16.9343C19.808 16.7694 19.9836 16.5362 20.0779 16.2671C20.5115 15.0338 20.6902 13.7253 20.603 12.4209C20.5159 11.1166 20.1647 9.84346 19.5709 8.67883V8.67969Z" fill="#D0D5DD"/>
</svg>
