<svg width="22" height="22" viewBox="0 0 22 22" fill="none" xmlns="http://www.w3.org/2000/svg">
<path fill-rule="evenodd" clip-rule="evenodd" d="M19.9375 16.5C19.9375 16.8647 19.7925 17.2143 19.5347 17.4722C19.2768 17.73 18.9272 17.875 18.5625 17.875H3.4375C3.07283 17.875 2.7232 17.73 2.46533 17.4722C2.20747 17.2143 2.0625 16.8647 2.0625 16.5V15.125H19.9375V16.5Z" fill="#475467"/>
<path d="M18.5625 6.1875V15.125H3.4375V6.1875C3.4375 5.82283 3.58237 5.47309 3.84023 5.21523C4.09809 4.95737 4.44783 4.8125 4.8125 4.8125H17.1875C17.5522 4.8125 17.9019 4.95737 18.1598 5.21523C18.4176 5.47309 18.5625 5.82283 18.5625 6.1875Z" fill="#475467"/>
<path d="M19.9375 14.4375H19.25V6.1875C19.25 5.64049 19.0327 5.11589 18.6459 4.72909C18.2591 4.3423 17.7345 4.125 17.1875 4.125H4.8125C4.26549 4.125 3.74089 4.3423 3.35409 4.72909C2.9673 5.11589 2.75 5.64049 2.75 6.1875V14.4375H2.0625C1.88016 14.4375 1.7053 14.5099 1.57636 14.6389C1.44743 14.7678 1.375 14.9427 1.375 15.125V16.5C1.375 17.047 1.5923 17.5716 1.97909 17.9584C2.36589 18.3452 2.89049 18.5625 3.4375 18.5625H18.5625C19.1095 18.5625 19.6341 18.3452 20.0209 17.9584C20.4077 17.5716 20.625 17.047 20.625 16.5V15.125C20.625 14.9427 20.5526 14.7678 20.4236 14.6389C20.2947 14.5099 20.1198 14.4375 19.9375 14.4375ZM4.125 6.1875C4.125 6.00516 4.19743 5.8303 4.32636 5.70136C4.4553 5.57243 4.63016 5.5 4.8125 5.5H17.1875C17.3698 5.5 17.5447 5.57243 17.6736 5.70136C17.8026 5.8303 17.875 6.00516 17.875 6.1875V14.4375H4.125V6.1875ZM19.25 16.5C19.25 16.6823 19.1776 16.8572 19.0486 16.9861C18.9197 17.1151 18.7448 17.1875 18.5625 17.1875H3.4375C3.25516 17.1875 3.0803 17.1151 2.95136 16.9861C2.82243 16.8572 2.75 16.6823 2.75 16.5V15.8125H19.25V16.5Z" fill="#D0D5DD"/>
</svg>
