<svg width="21" height="20" viewBox="0 0 21 20" fill="none" xmlns="http://www.w3.org/2000/svg">
<path d="M16.4046 16.1487C16.74 16.2543 17.0959 16.2776 17.4422 16.2165C18.0128 16.1155 18.52 15.7923 18.8524 15.3177C19.1849 14.8431 19.3156 14.256 19.2156 13.6853L17.9375 7.10948C17.3875 4.29698 15.0417 3.69802 13.9375 3.7501H7.375C4.375 3.7501 3.24894 5.98969 3.06091 7.10948L1.78278 13.6853C1.68286 14.256 1.81347 14.8431 2.14596 15.3177C2.47845 15.7923 2.98564 16.1155 3.55622 16.2165C3.90249 16.2776 4.25839 16.2543 4.59376 16.1487C4.92913 16.043 5.23409 15.8581 5.48278 15.6095L8.77263 11.8751H12.2258L15.5156 15.6095C15.7643 15.8581 16.0693 16.043 16.4046 16.1487Z" fill="#475467"/>
<path d="M14.2502 8.75H12.3752C12.2094 8.75 12.0504 8.68415 11.9332 8.56694C11.816 8.44973 11.7502 8.29076 11.7502 8.125C11.7502 7.95924 11.816 7.80027 11.9332 7.68306C12.0504 7.56585 12.2094 7.5 12.3752 7.5H14.2502C14.4159 7.5 14.5749 7.56585 14.6921 7.68306C14.8093 7.80027 14.8752 7.95924 14.8752 8.125C14.8752 8.29076 14.8093 8.44973 14.6921 8.56694C14.5749 8.68415 14.4159 8.75 14.2502 8.75ZM8.62518 7.5H8.00018V6.875C8.00018 6.70924 7.93433 6.55027 7.81712 6.43306C7.69991 6.31585 7.54094 6.25 7.37518 6.25C7.20942 6.25 7.05045 6.31585 6.93324 6.43306C6.81603 6.55027 6.75018 6.70924 6.75018 6.875V7.5H6.12518C5.95942 7.5 5.80045 7.56585 5.68324 7.68306C5.56603 7.80027 5.50018 7.95924 5.50018 8.125C5.50018 8.29076 5.56603 8.44973 5.68324 8.56694C5.80045 8.68415 5.95942 8.75 6.12518 8.75H6.75018V9.375C6.75018 9.54076 6.81603 9.69973 6.93324 9.81694C7.05045 9.93415 7.20942 10 7.37518 10C7.54094 10 7.69991 9.93415 7.81712 9.81694C7.93433 9.69973 8.00018 9.54076 8.00018 9.375V8.75H8.62518C8.79094 8.75 8.94991 8.68415 9.06712 8.56694C9.18433 8.44973 9.25018 8.29076 9.25018 8.125C9.25018 7.95924 9.18433 7.80027 9.06712 7.68306C8.94991 7.56585 8.79094 7.5 8.62518 7.5ZM19.3658 15.6758C19.1303 16.0121 18.8239 16.2929 18.4683 16.4982C18.1127 16.7035 17.7164 16.8285 17.3073 16.8643C16.8982 16.9001 16.4863 16.8459 16.1004 16.7055C15.7145 16.5651 15.364 16.3419 15.0736 16.0516C15.0642 16.0422 15.0549 16.0328 15.0463 16.0227L11.9439 12.5H9.05331L5.95409 16.0227L5.92674 16.0516C5.39878 16.5784 4.68353 16.8745 3.93768 16.875C3.52709 16.8748 3.1215 16.7848 2.74942 16.6112C2.37734 16.4375 2.04779 16.1846 1.78392 15.87C1.52005 15.5554 1.32825 15.1869 1.22201 14.7903C1.11576 14.3936 1.09765 13.9786 1.16893 13.5742C1.16855 13.5706 1.16855 13.5669 1.16893 13.5633L2.44784 6.99375C2.63817 5.91021 3.20429 4.92841 4.04671 4.22087C4.88913 3.51333 5.95396 3.12531 7.05409 3.125H13.9377C15.0345 3.12675 16.0961 3.51255 16.9381 4.21541C17.7801 4.91827 18.3493 5.89381 18.5471 6.97266C18.5471 6.97734 18.5471 6.98203 18.5471 6.98672L19.826 13.5625C19.8263 13.5661 19.8263 13.5698 19.826 13.5734C19.8922 13.9369 19.8856 14.3098 19.8066 14.6707C19.7276 15.0316 19.5778 15.3732 19.3658 15.6758ZM13.9377 11.25C14.8494 11.25 15.7237 10.8878 16.3684 10.2432C17.013 9.59852 17.3752 8.72418 17.3752 7.8125C17.3752 6.90082 17.013 6.02648 16.3684 5.38182C15.7237 4.73716 14.8494 4.375 13.9377 4.375H7.05409C6.24702 4.37572 5.46606 4.66104 4.8486 5.18076C4.23114 5.70048 3.81674 6.4213 3.67831 7.21641V7.22656L2.39862 13.7961C2.34205 14.1218 2.39024 14.457 2.53626 14.7536C2.68227 15.0502 2.91858 15.2928 3.21121 15.4466C3.50383 15.6004 3.83769 15.6574 4.16476 15.6094C4.49184 15.5615 4.79527 15.411 5.03143 15.1797L8.30643 11.4617C8.36507 11.3952 8.4372 11.3419 8.51802 11.3054C8.59884 11.2689 8.6865 11.25 8.77518 11.25H13.9377ZM18.6017 13.7961L17.9189 10.2805C17.499 10.9586 16.9129 11.5183 16.2163 11.9067C15.5196 12.2951 14.7353 12.4993 13.9377 12.5H13.6096L15.9689 15.1805C16.1468 15.3535 16.3632 15.4819 16.6003 15.5551C16.8374 15.6283 17.0885 15.6442 17.333 15.6016C17.7402 15.5297 18.1024 15.2993 18.3401 14.9609C18.5777 14.6224 18.6716 14.2036 18.601 13.7961H18.6017Z" fill="#D0D5DD"/>
</svg>
