<svg width="22" height="22" viewBox="0 0 22 22" fill="none" xmlns="http://www.w3.org/2000/svg">
<path d="M13.75 16.5L17.1875 13.0625L18.2188 12.0312L21.3125 9.96875L18.5625 4.8125L15.7541 6.06977L11 4.8125L6.24594 6.06977L3.09375 4.8125L0.6875 10.3125L3.4375 11.6875L8.25 15.125L13.75 16.5Z" fill="#475467"/>
<path d="M21.8542 9.27335L19.661 4.88538C19.5803 4.72387 19.4684 4.57986 19.332 4.46158C19.1955 4.34329 19.0371 4.25304 18.8658 4.19598C18.6944 4.13892 18.5135 4.11617 18.3334 4.12903C18.1533 4.14189 17.9775 4.19011 17.816 4.27093L15.6787 5.33913L11.1764 4.14804C11.0609 4.11797 10.9396 4.11797 10.8241 4.14804L6.32183 5.33913L4.18456 4.27093C4.02307 4.19011 3.84724 4.14189 3.66711 4.12903C3.48699 4.11617 3.30609 4.13892 3.13475 4.19598C2.96342 4.25304 2.805 4.34329 2.66855 4.46158C2.53209 4.57986 2.42028 4.72387 2.33949 4.88538L0.146361 9.27249C0.0655423 9.43398 0.0173264 9.60981 0.00446715 9.78994C-0.00839213 9.97007 0.0143571 10.151 0.0714156 10.3223C0.128474 10.4936 0.218724 10.6521 0.337012 10.7885C0.4553 10.925 0.599309 11.0368 0.760814 11.1176L3.08113 12.2786L7.8498 15.6843C7.92006 15.7343 7.99905 15.7707 8.08269 15.7917L13.5827 17.1667C13.6979 17.1956 13.8186 17.1942 13.933 17.1625C14.0475 17.1309 14.1518 17.0702 14.2358 16.9862L18.9684 12.2528L21.2389 11.1176C21.5648 10.9544 21.8126 10.6685 21.9279 10.3227C22.0431 9.97683 22.0163 9.59941 21.8533 9.27335H21.8542ZM17.1371 12.1411L14.18 9.77264C14.0475 9.66655 13.8804 9.61321 13.711 9.62289C13.5416 9.63257 13.3817 9.70458 13.2621 9.82507C11.7316 11.3668 10.0257 11.1717 8.93777 10.4842L12.6537 6.87483H15.3874L17.7257 11.5507L17.1371 12.1411ZM3.56925 5.49983L5.32839 6.37811L3.13097 10.7652L1.37527 9.8878L3.56925 5.49983ZM13.538 15.7376L8.54417 14.4898L4.31605 11.4699L6.7223 6.65741L11.0003 5.52389L11.8425 5.74647L7.97527 9.50022L7.96839 9.50796C7.82282 9.65353 7.71179 9.82993 7.64351 10.0241C7.57522 10.2184 7.55141 10.4254 7.57385 10.6301C7.59629 10.8347 7.66439 11.0317 7.77313 11.2065C7.88188 11.3813 8.02849 11.5295 8.20214 11.6401C9.96902 12.7684 12.1011 12.5854 13.7803 11.2104L16.1565 13.1191L13.538 15.7376ZM18.8661 10.7644L16.673 6.38155L18.4313 5.49983L20.6253 9.8878L18.8661 10.7644Z" fill="#D0D5DD"/>
</svg>
