<svg width="22" height="22" viewBox="0 0 22 22" fill="none" xmlns="http://www.w3.org/2000/svg">
<path d="M18.5625 10.3126V18.5626H13.0625V13.0626H8.9375V18.5626H3.4375V10.3126C3.43743 10.2222 3.45515 10.1328 3.48966 10.0493C3.52416 9.96588 3.57477 9.89004 3.63859 9.82615L10.5136 2.95115C10.5774 2.88722 10.6533 2.83652 10.7367 2.80192C10.8202 2.76732 10.9097 2.74951 11 2.74951C11.0903 2.74951 11.1798 2.76732 11.2633 2.80192C11.3467 2.83652 11.4226 2.88722 11.4864 2.95115L18.3614 9.82615C18.4252 9.89004 18.4758 9.96588 18.5103 10.0493C18.5448 10.1328 18.5626 10.2222 18.5625 10.3126Z" fill="#475467"/>
<path d="M18.847 9.33991L11.972 2.46491C11.7141 2.20724 11.3645 2.0625 11 2.0625C10.6355 2.0625 10.2859 2.20724 10.0281 2.46491L3.15306 9.33991C3.02475 9.46726 2.92305 9.61884 2.85386 9.78585C2.78467 9.95286 2.74937 10.132 2.75001 10.3127V18.5627C2.75001 18.7451 2.82244 18.9199 2.95137 19.0489C3.0803 19.1778 3.25517 19.2502 3.43751 19.2502H8.93751C9.11984 19.2502 9.29471 19.1778 9.42364 19.0489C9.55258 18.9199 9.62501 18.7451 9.62501 18.5627V13.7502H12.375V18.5627C12.375 18.7451 12.4474 18.9199 12.5764 19.0489C12.7053 19.1778 12.8802 19.2502 13.0625 19.2502H18.5625C18.7448 19.2502 18.9197 19.1778 19.0486 19.0489C19.1776 18.9199 19.25 18.7451 19.25 18.5627V10.3127C19.2507 10.132 19.2154 9.95286 19.1462 9.78585C19.077 9.61884 18.9753 9.46726 18.847 9.33991ZM17.875 17.8752H13.75V13.0627C13.75 12.8804 13.6776 12.7055 13.5486 12.5766C13.4197 12.4477 13.2448 12.3752 13.0625 12.3752H8.93751C8.75517 12.3752 8.5803 12.4477 8.45137 12.5766C8.32244 12.7055 8.25001 12.8804 8.25001 13.0627V17.8752H4.12501V10.3127L11 3.43772L17.875 10.3127V17.8752Z" fill="#FFFFFF"/>
</svg>
