<svg width="22" height="22" viewBox="0 0 22 22" fill="none" xmlns="http://www.w3.org/2000/svg">
<path d="M13.75 20.1667L13.75 11.9167L20.1667 11.9167L20.1667 18.3334C20.1667 19.3459 19.3459 20.1667 18.3333 20.1667L13.75 20.1667Z" stroke="#D0D5DD" stroke-width="1.5" stroke-linecap="round"/>
<rect x="8.25" y="20.1667" width="8.25" height="5.5" transform="rotate(-90 8.25 20.1667)" stroke="#D0D5DD" stroke-width="1.5" stroke-linecap="round"/>
<path d="M3.66634 20.1667C2.65382 20.1667 1.83301 19.3459 1.83301 18.3334L1.83301 11.9167L8.24967 11.9167L8.24967 20.1667L3.66634 20.1667Z" stroke="#D0D5DD" stroke-width="1.5" stroke-linecap="round"/>
<rect x="1.83301" y="11.9167" width="4.58333" height="9.16667" transform="rotate(-90 1.83301 11.9167)" stroke="#D0D5DD" stroke-width="1.5" stroke-linecap="round"/>
<path d="M11 11.9167L11 1.83341L18.3333 1.83341C19.3459 1.83341 20.1667 2.65423 20.1667 3.66675L20.1667 11.9167L11 11.9167Z" stroke="#D0D5DD" stroke-width="1.5" stroke-linecap="round"/>
<path d="M1.83301 11.9167L1.83301 3.66674C1.83301 2.65422 2.65382 1.83341 3.66634 1.83341L18.333 1.83341C19.3455 1.83341 20.1663 2.65423 20.1663 3.66675L20.1663 11.9168L1.83301 11.9167Z" stroke="#D0D5DD" stroke-width="1.5" stroke-linecap="round"/>
</svg>
