<svg width="22" height="22" viewBox="0 0 22 22" fill="none" xmlns="http://www.w3.org/2000/svg">
<path d="M17.532 14.4377C17.8887 14.4381 18.2409 14.3591 18.5633 14.2066V17.8752C18.5633 18.0576 18.4909 18.2324 18.3619 18.3614C18.233 18.4903 18.0581 18.5627 17.8758 18.5627H5.50079C5.31846 18.5627 5.14359 18.4903 5.01466 18.3614C4.88573 18.2324 4.81329 18.0576 4.81329 17.8752V14.2066C4.44654 14.3801 4.04186 14.4581 3.63688 14.4332C3.23191 14.4084 2.83979 14.2816 2.49699 14.0645C2.15418 13.8475 1.87183 13.5473 1.67618 13.1918C1.48053 12.8364 1.37793 12.4372 1.37793 12.0315C1.37793 11.6258 1.48053 11.2266 1.67618 10.8712C1.87183 10.5157 2.15418 10.2155 2.49699 9.99847C2.83979 9.78142 3.23191 9.65459 3.63688 9.62975C4.04186 9.60491 4.44654 9.68288 4.81329 9.85641V6.18774C4.81329 6.0054 4.88573 5.83053 5.01466 5.7016C5.14359 5.57267 5.31846 5.50024 5.50079 5.50024H9.51322C9.3395 5.13348 9.26136 4.72874 9.28608 4.32367C9.31079 3.9186 9.43756 3.52637 9.65457 3.18345C9.87159 2.84053 10.1718 2.55806 10.5273 2.36233C10.8828 2.1666 11.282 2.06396 11.6879 2.06396C12.0937 2.06396 12.4929 2.1666 12.8484 2.36233C13.2039 2.55806 13.5041 2.84053 13.7212 3.18345C13.9382 3.52637 14.0649 3.9186 14.0896 4.32367C14.1144 4.72874 14.0362 5.13348 13.8625 5.50024H17.8758C18.0581 5.50024 18.233 5.57267 18.3619 5.7016C18.4909 5.83053 18.5633 6.0054 18.5633 6.18774V9.85641C18.2372 9.70214 17.8807 9.62315 17.52 9.62528C17.1593 9.62741 16.8037 9.7106 16.4795 9.86871C16.1553 10.0268 15.8707 10.2558 15.647 10.5387C15.4232 10.8216 15.2659 11.1512 15.1867 11.5031C15.1075 11.855 15.1084 12.2202 15.1893 12.5717C15.2703 12.9232 15.4293 13.252 15.6545 13.5337C15.8797 13.8155 16.1653 14.043 16.4903 14.1995C16.8153 14.356 17.1713 14.4374 17.532 14.4377Z" fill="#475467"/>
<path d="M18.9297 13.6248C18.8317 13.5629 18.7196 13.5269 18.604 13.52C18.4883 13.5131 18.3727 13.5355 18.268 13.5852C18.0061 13.7091 17.717 13.7648 17.4278 13.747C17.1385 13.7292 16.8585 13.6386 16.6136 13.4836C16.3688 13.3285 16.1672 13.1141 16.0274 12.8602C15.8877 12.6063 15.8144 12.3213 15.8144 12.0315C15.8144 11.7417 15.8877 11.4566 16.0274 11.2027C16.1672 10.9489 16.3688 10.7344 16.6136 10.5794C16.8585 10.4244 17.1385 10.3337 17.4278 10.316C17.717 10.2982 18.0061 10.3538 18.268 10.4777C18.3728 10.5275 18.4885 10.5499 18.6043 10.5429C18.7201 10.5359 18.8323 10.4997 18.9303 10.4376C19.0283 10.3756 19.1091 10.2898 19.1651 10.1882C19.221 10.0865 19.2503 9.9724 19.2503 9.85639V6.18772C19.2503 5.82305 19.1054 5.47331 18.8476 5.21545C18.5897 4.95759 18.24 4.81272 17.8753 4.81272H14.7626C14.7754 4.69859 14.7817 4.58382 14.7815 4.46897C14.7808 4.04632 14.6939 3.62826 14.526 3.24038C14.3581 2.8525 14.1129 2.50294 13.8053 2.21311C13.3792 1.81296 12.8485 1.54171 12.2746 1.43076C11.7007 1.31981 11.1071 1.37371 10.5626 1.58621C10.0181 1.79871 9.54493 2.16112 9.1979 2.63146C8.85086 3.10181 8.64417 3.66084 8.60177 4.24381C8.58856 4.43342 8.59259 4.62384 8.6138 4.81272H5.50028C5.13561 4.81272 4.78587 4.95759 4.52801 5.21545C4.27015 5.47331 4.12528 5.82305 4.12528 6.18772V8.95663C4.01115 8.94383 3.89638 8.93752 3.78153 8.93772C3.35901 8.9384 2.94107 9.02534 2.55332 9.19321C2.16557 9.36107 1.81617 9.60634 1.52653 9.91397C1.23482 10.2221 1.01019 10.5874 0.866858 10.9868C0.723524 11.3862 0.664596 11.811 0.693797 12.2343C0.743064 12.9797 1.05978 13.6822 1.58572 14.2127C2.11165 14.7433 2.81143 15.0661 3.55638 15.1218C3.74598 15.135 3.9364 15.131 4.12528 15.1098V17.8752C4.12528 18.2399 4.27015 18.5896 4.52801 18.8475C4.78587 19.1054 5.13561 19.2502 5.50028 19.2502H17.8753C18.24 19.2502 18.5897 19.1054 18.8476 18.8475C19.1054 18.5896 19.2503 18.2399 19.2503 17.8752V14.2065C19.2504 14.0904 19.221 13.9761 19.1649 13.8744C19.1089 13.7726 19.028 13.6868 18.9297 13.6248ZM17.8753 17.8752H5.50028V14.2065C5.50032 14.0905 5.471 13.9764 5.41505 13.8748C5.3591 13.7731 5.27835 13.6873 5.1803 13.6253C5.08226 13.5633 4.97012 13.5271 4.85432 13.5201C4.73852 13.5131 4.62282 13.5355 4.51802 13.5852C4.25605 13.7091 3.96701 13.7648 3.67777 13.747C3.38853 13.7292 3.10848 13.6386 2.86365 13.4836C2.61882 13.3285 2.41717 13.1141 2.27744 12.8602C2.13772 12.6063 2.06444 12.3213 2.06444 12.0315C2.06444 11.7417 2.13772 11.4566 2.27744 11.2027C2.41717 10.9489 2.61882 10.7344 2.86365 10.5794C3.10848 10.4244 3.38853 10.3337 3.67777 10.316C3.96701 10.2982 4.25605 10.3538 4.51802 10.4777C4.62282 10.5275 4.73852 10.5499 4.85432 10.5429C4.97012 10.5359 5.08226 10.4997 5.1803 10.4376C5.27835 10.3756 5.3591 10.2898 5.41505 10.1882C5.471 10.0865 5.50032 9.9724 5.50028 9.85639V6.18772H9.5127C9.62872 6.18776 9.74285 6.15844 9.84448 6.10249C9.94611 6.04654 10.0319 5.96579 10.0939 5.86774C10.156 5.7697 10.1922 5.65755 10.1992 5.54175C10.2062 5.42595 10.1838 5.31026 10.134 5.20545C10.0101 4.94349 9.95449 4.65445 9.97227 4.36521C9.99004 4.07596 10.0807 3.79591 10.2357 3.55109C10.3907 3.30626 10.6052 3.10461 10.859 2.96488C11.1129 2.82515 11.398 2.75188 11.6878 2.75188C11.9776 2.75188 12.2627 2.82515 12.5165 2.96488C12.7704 3.10461 12.9848 3.30626 13.1399 3.55109C13.2949 3.79591 13.3855 4.07596 13.4033 4.36521C13.4211 4.65445 13.3654 4.94349 13.2415 5.20545C13.1918 5.31026 13.1694 5.42595 13.1764 5.54175C13.1834 5.65755 13.2196 5.7697 13.2816 5.86774C13.3436 5.96579 13.4295 6.04654 13.5311 6.10249C13.6327 6.15844 13.7468 6.18776 13.8629 6.18772H17.8753V8.95749C17.6864 8.93585 17.496 8.93182 17.3064 8.94545C16.5062 9.00211 15.7594 9.36734 15.2233 9.9641C14.6873 10.5609 14.404 11.3425 14.4332 12.1441C14.4624 12.9457 14.8018 13.7047 15.3799 14.2609C15.9579 14.817 16.7294 15.1269 17.5315 15.1252C17.6464 15.1254 17.7611 15.1191 17.8753 15.1063V17.8752Z" fill="#D0D5DD"/>
</svg>
