<svg width="22" height="22" viewBox="0 0 22 22" fill="none" xmlns="http://www.w3.org/2000/svg">
<path d="M19.25 10.9286C19.2555 11.5698 19.1865 12.2094 19.0446 12.8347C18.9405 13.2901 18.6848 13.6967 18.3195 13.9878C17.9542 14.279 17.5008 14.4375 17.0337 14.4374H13.0625C12.5155 14.4374 11.9909 14.6547 11.6041 15.0415C11.2173 15.4283 11 15.9529 11 16.4999C10.9998 16.8298 10.9204 17.1547 10.7686 17.4476C10.6169 17.7404 10.3971 17.9926 10.1277 18.1829C9.8583 18.3732 9.5472 18.4962 9.22049 18.5414C8.89377 18.5867 8.56097 18.5529 8.25 18.443C5.04711 17.3112 2.75 14.593 2.75 10.9999C2.74988 8.8267 3.60727 6.7412 5.13591 5.19647C6.66454 3.65174 8.74095 2.77257 10.9141 2.74993C15.455 2.70438 19.2113 6.38938 19.25 10.9286Z" fill="#475467"/>
<path d="M17.2537 4.63118C15.5897 2.9834 13.3418 2.0601 11 2.0625H10.908C8.55365 2.08673 6.30391 3.03904 4.64764 4.71253C2.99137 6.38602 2.06238 8.64548 2.0625 11C2.0625 14.6953 4.34672 17.7942 8.02313 19.0927C8.43778 19.2389 8.88145 19.2836 9.31692 19.2229C9.75239 19.1622 10.167 18.9981 10.5259 18.7441C10.8848 18.4901 11.1776 18.1538 11.3797 17.7634C11.5818 17.3729 11.6874 16.9397 11.6875 16.5C11.6875 16.1353 11.8324 15.7856 12.0902 15.5277C12.3481 15.2699 12.6978 15.125 13.0625 15.125H17.0337C17.6575 15.128 18.2635 14.9176 18.7513 14.5287C19.239 14.1397 19.579 13.5957 19.7149 12.9869C19.8686 12.3103 19.9433 11.6182 19.9375 10.9244C19.9287 9.75001 19.687 8.58906 19.2263 7.50879C18.7656 6.42852 18.0951 5.45043 17.2537 4.63118ZM18.3709 12.6844C18.3026 12.9877 18.1328 13.2586 17.8897 13.4524C17.6466 13.6461 17.3446 13.7511 17.0337 13.75H13.0625C12.3332 13.75 11.6337 14.0397 11.118 14.5555C10.6022 15.0712 10.3125 15.7707 10.3125 16.5C10.3122 16.7196 10.2593 16.936 10.1582 17.131C10.0571 17.3259 9.91073 17.4938 9.73141 17.6207C9.5521 17.7475 9.34501 17.8295 9.12749 17.8598C8.90997 17.8902 8.68835 17.868 8.48117 17.7951C5.37023 16.6977 3.4375 14.0938 3.4375 11C3.43739 9.00778 4.22341 7.09599 5.62478 5.67997C7.02616 4.26395 8.92968 3.45811 10.9218 3.4375H10.9991C12.9913 3.44524 14.9007 4.23567 16.3154 5.63834C17.7301 7.041 18.5369 8.9435 18.5616 10.9356C18.5668 11.5238 18.5039 12.1106 18.3743 12.6844H18.3709ZM12.0312 6.53125C12.0312 6.73522 11.9708 6.9346 11.8575 7.10419C11.7441 7.27377 11.5831 7.40595 11.3946 7.48401C11.2062 7.56206 10.9989 7.58248 10.7988 7.54269C10.5988 7.5029 10.415 7.40468 10.2708 7.26046C10.1266 7.11624 10.0284 6.93248 9.98856 6.73244C9.94877 6.5324 9.9692 6.32505 10.0472 6.13661C10.1253 5.94818 10.2575 5.78712 10.4271 5.6738C10.5967 5.56049 10.796 5.5 11 5.5C11.2735 5.5 11.5358 5.60865 11.7292 5.80205C11.9226 5.99545 12.0312 6.25775 12.0312 6.53125ZM8.25 8.59375C8.25 8.79772 8.18952 8.9971 8.0762 9.16669C7.96289 9.33627 7.80183 9.46845 7.61339 9.54651C7.42496 9.62456 7.21761 9.64498 7.01756 9.60519C6.81752 9.5654 6.63377 9.46718 6.48955 9.32296C6.34532 9.17874 6.24711 8.99498 6.20731 8.79494C6.16752 8.5949 6.18795 8.38755 6.266 8.19911C6.34405 8.01068 6.47623 7.84962 6.64582 7.7363C6.81541 7.62299 7.01479 7.5625 7.21875 7.5625C7.49225 7.5625 7.75456 7.67115 7.94795 7.86455C8.14135 8.05795 8.25 8.32025 8.25 8.59375ZM8.25 13.4063C8.25 13.6102 8.18952 13.8096 8.0762 13.9792C7.96289 14.1488 7.80183 14.281 7.61339 14.359C7.42496 14.4371 7.21761 14.4575 7.01756 14.4177C6.81752 14.3779 6.63377 14.2797 6.48955 14.1355C6.34532 13.9912 6.24711 13.8075 6.20731 13.6074C6.16752 13.4074 6.18795 13.2 6.266 13.0116C6.34405 12.8232 6.47623 12.6621 6.64582 12.5488C6.81541 12.4355 7.01479 12.375 7.21875 12.375C7.49225 12.375 7.75456 12.4837 7.94795 12.6771C8.14135 12.8704 8.25 13.1328 8.25 13.4063ZM15.8125 8.59375C15.8125 8.79772 15.752 8.9971 15.6387 9.16669C15.5254 9.33627 15.3643 9.46845 15.1759 9.54651C14.9875 9.62456 14.7801 9.64498 14.5801 9.60519C14.38 9.5654 14.1963 9.46718 14.052 9.32296C13.9078 9.17874 13.8096 8.99498 13.7698 8.79494C13.73 8.5949 13.7504 8.38755 13.8285 8.19911C13.9066 8.01068 14.0387 7.84962 14.2083 7.7363C14.3779 7.62299 14.5773 7.5625 14.7812 7.5625C15.0548 7.5625 15.3171 7.67115 15.5105 7.86455C15.7038 8.05795 15.8125 8.32025 15.8125 8.59375Z" fill="#FFFFFF"/>
</svg>
