<svg width="22" height="22" viewBox="0 0 22 22" fill="none" xmlns="http://www.w3.org/2000/svg">
<path d="M17.9609 6.9611L15.125 9.62516L17.875 17.1877L15.8125 19.2502L11.6875 13.0627L9.625 15.1252V17.1877L7.5625 19.2502L6.1875 15.8127L2.75 14.4377L4.8125 12.3752H6.875L8.9375 10.3127L2.75 6.18766L4.8125 4.12516L12.375 6.87516L15.0391 4.03922C15.4265 3.65176 15.952 3.43408 16.5 3.43408C17.048 3.43408 17.5735 3.65176 17.9609 4.03922C18.3484 4.42669 18.5661 4.9522 18.5661 5.50016C18.5661 6.04812 18.3484 6.57363 17.9609 6.9611Z" fill="#475467"/>
<path d="M15.9268 9.81463L18.431 7.45736L18.4456 7.44361C18.9614 6.92783 19.2512 6.22828 19.2512 5.49885C19.2512 4.76942 18.9614 4.06987 18.4456 3.55408C17.9298 3.0383 17.2303 2.74854 16.5009 2.74854C15.7714 2.74854 15.0719 3.0383 14.5561 3.55408L14.5424 3.56869L12.1851 6.07291L5.05227 3.4776C4.92934 3.43289 4.79619 3.42417 4.66848 3.45249C4.54076 3.4808 4.42378 3.54496 4.33126 3.63744L2.26876 5.69994C2.19689 5.77187 2.14186 5.85884 2.10766 5.9546C2.07345 6.05035 2.06091 6.1525 2.07094 6.25369C2.08097 6.35487 2.11331 6.45257 2.16565 6.53975C2.21799 6.62693 2.28901 6.70141 2.3736 6.75783L7.86415 10.4179L6.59055 11.6872H4.81251C4.63041 11.6873 4.45579 11.7596 4.32696 11.8883L2.26446 13.9508C2.18402 14.031 2.12473 14.13 2.09187 14.2387C2.05902 14.3475 2.05363 14.4627 2.07619 14.574C2.09875 14.6854 2.14855 14.7894 2.22115 14.8768C2.29375 14.9642 2.38687 15.0323 2.49219 15.0749L5.65641 16.3407L6.91969 19.4989L6.92485 19.5127C6.96855 19.6185 7.03798 19.7117 7.12682 19.7838C7.21567 19.856 7.32113 19.9048 7.43363 19.9259C7.54613 19.947 7.66211 19.9397 7.77106 19.9046C7.88 19.8695 7.97846 19.8077 8.05751 19.7249L10.1088 17.6728C10.173 17.6092 10.224 17.5336 10.259 17.4503C10.2939 17.3669 10.3121 17.2776 10.3125 17.1872V15.4092L11.5809 14.1407L15.241 19.6313C15.2974 19.7159 15.3719 19.7869 15.4591 19.8392C15.5463 19.8916 15.644 19.9239 15.7452 19.9339C15.8464 19.944 15.9485 19.9314 16.0443 19.8972C16.14 19.863 16.227 19.808 16.2989 19.7361L18.3614 17.6736C18.4539 17.5811 18.5181 17.4641 18.5464 17.3364C18.5747 17.2087 18.566 17.0755 18.5213 16.9526L15.9268 9.81463ZM15.9208 18.1703L12.2607 12.6798C12.2045 12.5947 12.1301 12.5232 12.0428 12.4704C11.9556 12.4177 11.8577 12.385 11.7563 12.3747C11.7336 12.3734 11.711 12.3734 11.6884 12.3747C11.5981 12.3746 11.5086 12.3924 11.4252 12.4269C11.3417 12.4614 11.2659 12.512 11.202 12.5758L9.13946 14.6383C9.07548 14.7021 9.02471 14.7779 8.99006 14.8614C8.95541 14.9449 8.93755 15.0343 8.93751 15.1247V16.9028L7.8143 18.026L6.82602 15.5544C6.79144 15.4686 6.7399 15.3906 6.67449 15.3252C6.60907 15.2598 6.53113 15.2083 6.44532 15.1737L3.97547 14.1854L5.09782 13.0622H6.87501C6.96532 13.0623 7.05476 13.0446 7.13822 13.0101C7.22167 12.9755 7.29752 12.9249 7.36141 12.8611L9.42391 10.7986C9.49594 10.7267 9.5511 10.6397 9.5854 10.5438C9.6197 10.448 9.63228 10.3457 9.62225 10.2444C9.61222 10.1431 9.57982 10.0453 9.52739 9.95805C9.47496 9.87079 9.40381 9.79627 9.31907 9.73986L3.82938 6.07893L4.98954 4.91963L12.1413 7.5201C12.2673 7.5664 12.4041 7.5748 12.5348 7.54425C12.6655 7.51371 12.7844 7.44556 12.8769 7.34822L15.5358 4.5226C15.7969 4.28344 16.1402 4.15423 16.4942 4.16188C16.8482 4.16952 17.1856 4.31343 17.4361 4.56364C17.6867 4.81384 17.831 5.15106 17.8391 5.50504C17.8473 5.85903 17.7185 6.2025 17.4797 6.46393L14.6549 9.12283C14.5576 9.21528 14.4894 9.3342 14.4589 9.46492C14.4284 9.59565 14.4368 9.73245 14.4831 9.85846L17.0835 17.0102L15.9208 18.1703Z" fill="#FFFFFF"/>
</svg>
