<svg width="18" height="18" viewBox="0 0 18 18" fill="none" xmlns="http://www.w3.org/2000/svg">
<path d="M14.625 14.0625V6.1875C14.625 5.59076 14.3879 5.01847 13.966 4.59651C13.544 4.17455 12.9717 3.9375 12.375 3.9375V1.96875H5.625V3.9375C5.02826 3.9375 4.45597 4.17455 4.03401 4.59651C3.61205 5.01847 3.375 5.59076 3.375 6.1875V14.0625C3.375 14.6592 3.61205 15.2315 4.03401 15.6535C4.45597 16.0754 5.02826 16.3125 5.625 16.3125H12.375C12.9717 16.3125 13.544 16.0754 13.966 15.6535C14.3879 15.2315 14.625 14.6592 14.625 14.0625Z" fill="#475467"/>
<path fill-rule="evenodd" clip-rule="evenodd" d="M12.9375 2.25V3.43195C13.5723 3.56221 14.1428 3.90746 14.5527 4.40944C14.9626 4.91143 15.1868 5.53943 15.1875 6.1875V14.0625C15.1875 14.8084 14.8912 15.5238 14.3637 16.0512C13.8363 16.5787 13.1209 16.875 12.375 16.875H5.625C4.87908 16.875 4.16371 16.5787 3.63626 16.0512C3.10882 15.5238 2.8125 14.8084 2.8125 14.0625V6.1875C2.81319 5.53943 3.03739 4.91143 3.44728 4.40944C3.85717 3.90746 4.42765 3.56221 5.0625 3.43195V2.25C5.0625 1.95163 5.18103 1.66548 5.392 1.4545C5.60298 1.24353 5.88913 1.125 6.1875 1.125H11.8125C12.1109 1.125 12.397 1.24353 12.608 1.4545C12.819 1.66548 12.9375 1.95163 12.9375 2.25ZM13.5682 15.2557C13.8847 14.9393 14.0625 14.5101 14.0625 14.0625V6.1875C14.0625 5.73995 13.8847 5.31073 13.5682 4.99426C13.2518 4.67779 12.8226 4.5 12.375 4.5H5.625C5.17745 4.5 4.74822 4.67779 4.43176 4.99426C4.11529 5.31073 3.9375 5.73995 3.9375 6.1875V14.0625C3.9375 14.5101 4.11529 14.9393 4.43176 15.2557C4.74822 15.5722 5.17745 15.75 5.625 15.75H12.375C12.8226 15.75 13.2518 15.5722 13.5682 15.2557ZM10.7557 12.4432C11.0722 12.1268 11.25 11.6976 11.25 11.25C11.25 10.8024 11.0722 10.3732 10.7557 10.0568C10.4393 9.74029 10.0101 9.5625 9.5625 9.5625H8.4375C8.28832 9.5625 8.14524 9.50324 8.03975 9.39775C7.93426 9.29226 7.875 9.14919 7.875 9C7.875 8.85082 7.93426 8.70774 8.03975 8.60225C8.14524 8.49676 8.28832 8.4375 8.4375 8.4375H10.125C10.2742 8.4375 10.4173 8.37824 10.5227 8.27275C10.6282 8.16726 10.6875 8.02419 10.6875 7.875C10.6875 7.72582 10.6282 7.58274 10.5227 7.47725C10.4173 7.37176 10.2742 7.3125 10.125 7.3125H9.5625V6.75C9.5625 6.60082 9.50324 6.45774 9.39775 6.35225C9.29226 6.24676 9.14918 6.1875 9 6.1875C8.85082 6.1875 8.70774 6.24676 8.60225 6.35225C8.49676 6.45774 8.4375 6.60082 8.4375 6.75V7.3125C7.98995 7.3125 7.56072 7.49029 7.24426 7.80676C6.92779 8.12323 6.75 8.55245 6.75 9C6.75 9.44755 6.92779 9.87678 7.24426 10.1932C7.56072 10.5097 7.98995 10.6875 8.4375 10.6875H9.5625C9.71168 10.6875 9.85476 10.7468 9.96025 10.8523C10.0657 10.9577 10.125 11.1008 10.125 11.25C10.125 11.3992 10.0657 11.5423 9.96025 11.6477C9.85476 11.7532 9.71168 11.8125 9.5625 11.8125H7.875C7.72582 11.8125 7.58274 11.8718 7.47725 11.9773C7.37176 12.0827 7.3125 12.2258 7.3125 12.375C7.3125 12.5242 7.37176 12.6673 7.47725 12.7727C7.58274 12.8782 7.72582 12.9375 7.875 12.9375H8.4375V13.5C8.4375 13.6492 8.49676 13.7923 8.60225 13.8977C8.70774 14.0032 8.85082 14.0625 9 14.0625C9.14918 14.0625 9.29226 14.0032 9.39775 13.8977C9.50324 13.7923 9.5625 13.6492 9.5625 13.5V12.9375C10.0101 12.9375 10.4393 12.7597 10.7557 12.4432ZM10.6875 3.375H11.8125V2.25H10.6875H9.5625H8.4375H7.3125H6.1875V3.375H7.3125H8.4375H9.5625H10.6875Z" fill="#D0D5DD"/>
</svg>
