<svg width="22" height="22" viewBox="0 0 22 22" fill="none" xmlns="http://www.w3.org/2000/svg">
<path d="M19.7365 7.7637L7.7637 19.7365C7.63479 19.8654 7.45999 19.9377 7.27773 19.9377C7.09547 19.9377 6.92067 19.8654 6.79175 19.7365L2.2637 15.211C2.13487 15.0821 2.0625 14.9073 2.0625 14.7251C2.0625 14.5428 2.13487 14.368 2.2637 14.2391L14.2365 2.2637C14.3654 2.13487 14.5402 2.0625 14.7225 2.0625C14.9048 2.0625 15.0796 2.13487 15.2085 2.2637L19.7365 6.78917C19.8007 6.85306 19.8516 6.92899 19.8864 7.01261C19.9211 7.09623 19.939 7.18589 19.939 7.27644C19.939 7.36699 19.9211 7.45665 19.8864 7.54027C19.8516 7.62389 19.8007 7.69982 19.7365 7.7637Z" fill="#475467"/>
<path d="M20.2225 6.30503L15.6944 1.77784C15.5668 1.65013 15.4152 1.54882 15.2483 1.4797C15.0815 1.41058 14.9027 1.375 14.7221 1.375C14.5415 1.375 14.3626 1.41058 14.1958 1.4797C14.029 1.54882 13.8774 1.65013 13.7497 1.77784L1.77686 13.7498C1.64915 13.8775 1.54784 14.0291 1.47872 14.1959C1.4096 14.3628 1.37402 14.5416 1.37402 14.7222C1.37402 14.9028 1.4096 15.0816 1.47872 15.2484C1.54784 15.4153 1.64915 15.5669 1.77686 15.6946L6.30491 20.2217C6.43259 20.3495 6.58419 20.4508 6.75103 20.5199C6.91787 20.589 7.0967 20.6246 7.27729 20.6246C7.45789 20.6246 7.63671 20.589 7.80355 20.5199C7.9704 20.4508 8.12199 20.3495 8.24968 20.2217L20.2225 8.24979C20.3502 8.12211 20.4515 7.97051 20.5206 7.80367C20.5898 7.63683 20.6253 7.458 20.6253 7.27741C20.6253 7.09682 20.5898 6.91799 20.5206 6.75115C20.4515 6.5843 20.3502 6.43271 20.2225 6.30503ZM7.27686 19.2498L2.74968 14.7217L5.49968 11.9717L7.76327 14.2362C7.82714 14.3001 7.90298 14.3507 7.98643 14.3853C8.06989 14.4199 8.15934 14.4377 8.24968 14.4377C8.34001 14.4377 8.42946 14.4199 8.51292 14.3853C8.59637 14.3507 8.67221 14.3001 8.73608 14.2362C8.79996 14.1723 8.85063 14.0965 8.8852 14.013C8.91976 13.9296 8.93756 13.8401 8.93756 13.7498C8.93756 13.6595 8.91976 13.57 8.8852 13.4866C8.85063 13.4031 8.79996 13.3273 8.73608 13.2634L6.47163 10.9998L8.24968 9.22175L10.5133 11.4862C10.6423 11.6152 10.8172 11.6877 10.9997 11.6877C11.1821 11.6877 11.3571 11.6152 11.4861 11.4862C11.6151 11.3572 11.6876 11.1822 11.6876 10.9998C11.6876 10.8174 11.6151 10.6424 11.4861 10.5134L9.22163 8.24979L10.9997 6.47175L13.2633 8.7362C13.3271 8.80007 13.403 8.85074 13.4864 8.88531C13.5699 8.91988 13.6593 8.93767 13.7497 8.93767C13.84 8.93767 13.9295 8.91988 14.0129 8.88531C14.0964 8.85074 14.1722 8.80007 14.2361 8.7362C14.3 8.67232 14.3506 8.59649 14.3852 8.51303C14.4198 8.42958 14.4376 8.34013 14.4376 8.24979C14.4376 8.15946 14.4198 8.07001 14.3852 7.98655C14.3506 7.90309 14.3 7.82726 14.2361 7.76339L11.9716 5.49979L14.7216 2.74979L19.2497 7.27784L7.27686 19.2498Z" fill="#D0D5DD"/>
</svg>
