<svg width="22" height="22" viewBox="0 0 22 22" fill="none" xmlns="http://www.w3.org/2000/svg">
<path d="M2.82555 12.7829C2.34063 11.912 2.09863 11.4757 2.09863 10.9999C2.09863 10.5242 2.34063 10.0888 2.82555 9.21795L4.06122 6.99411L5.36838 4.81153C5.8808 3.95628 6.13655 3.5282 6.54813 3.28986C6.96063 3.05245 7.45838 3.04511 8.4548 3.02861L11.0004 2.98828L13.5441 3.02861C14.5415 3.04511 15.0392 3.05245 15.4508 3.29078C15.8624 3.52911 16.12 3.95628 16.6315 4.81153L17.9395 6.99411L19.177 9.21795C19.661 10.0888 19.903 10.5242 19.903 10.9999C19.903 11.4757 19.661 11.9111 19.1761 12.7819L17.9395 15.0058L16.6324 17.1884C16.12 18.0436 15.8642 18.4717 15.4526 18.71C15.0401 18.9474 14.5424 18.9548 13.546 18.9713L11.0004 19.0116L8.45663 18.9713C7.4593 18.9548 6.96155 18.9474 6.54997 18.7091C6.13838 18.4708 5.8808 18.0436 5.3693 17.1884L4.06122 15.0058L2.82555 12.7829Z" stroke="#D0D5DD" stroke-width="1.5"/>
<path d="M11 13.75C12.5188 13.75 13.75 12.5188 13.75 11C13.75 9.48122 12.5188 8.25 11 8.25C9.48122 8.25 8.25 9.48122 8.25 11C8.25 12.5188 9.48122 13.75 11 13.75Z" stroke="#D0D5DD" stroke-width="1.5"/>
</svg>
