<svg width="22" height="22" viewBox="0 0 22 22" fill="none" xmlns="http://www.w3.org/2000/svg">
<path d="M4.8125 14.4375C5.95159 14.4375 6.875 15.3609 6.875 16.5C6.875 17.6391 5.95159 18.5625 4.8125 18.5625C3.67341 18.5625 2.75 17.6391 2.75 16.5C2.75 15.3609 3.67341 14.4375 4.8125 14.4375Z" fill="#475467"/>
<path d="M17.1875 13.75C18.3266 13.75 19.25 14.6734 19.25 15.8125C19.25 16.9516 18.3266 17.875 17.1875 17.875C16.0484 17.875 15.125 16.9516 15.125 15.8125C15.125 14.6734 16.0484 13.75 17.1875 13.75Z" fill="#475467"/>
<path d="M11 8.9375C11.547 8.9375 12.0715 9.15495 12.4583 9.54175C12.845 9.92854 13.0625 10.453 13.0625 11C13.0625 11.4079 12.9414 11.8069 12.7147 12.1461C12.4882 12.485 12.1662 12.7493 11.7896 12.9054C11.4127 13.0615 10.9979 13.1024 10.5978 13.0229C10.1978 12.9433 9.83019 12.7467 9.54175 12.4583C9.2533 12.1698 9.05669 11.8022 8.97711 11.4022C8.89759 11.0021 8.93853 10.5873 9.0946 10.2104C9.25069 9.83377 9.51495 9.51185 9.85394 9.28528C10.1931 9.05865 10.5921 8.9375 11 8.9375Z" fill="#475467"/>
<path d="M17.1875 6.875C18.3266 6.875 19.25 7.79841 19.25 8.9375C19.25 10.0766 18.3266 11 17.1875 11C16.0484 11 15.125 10.0766 15.125 8.9375C15.125 7.79841 16.0484 6.875 17.1875 6.875Z" fill="#475467"/>
<path d="M8.25 2.75C9.38909 2.75 10.3125 3.67341 10.3125 4.8125C10.3125 5.95159 9.38909 6.875 8.25 6.875C7.11091 6.875 6.1875 5.95159 6.1875 4.8125C6.1875 3.67341 7.11091 2.75 8.25 2.75Z" fill="#475467"/>
<path d="M17.1868 13.0625C16.5791 13.0622 15.9886 13.2641 15.5085 13.6366L13.5224 12.0897C13.6724 11.746 13.7496 11.375 13.7493 11C13.7493 10.9364 13.7493 10.8728 13.7424 10.8101L14.8794 10.4311C15.2391 10.9858 15.7866 11.3924 16.4217 11.5764C17.0568 11.7604 17.7368 11.7094 18.3374 11.4327C18.9379 11.1561 19.4186 10.6724 19.6916 10.0702C19.9645 9.468 20.0113 8.78762 19.8235 8.15369C19.6357 7.51977 19.2257 6.97474 18.6688 6.61844C18.1118 6.26215 17.4451 6.11844 16.7908 6.21364C16.1366 6.30885 15.5385 6.63659 15.1062 7.13683C14.6738 7.63707 14.4362 8.27632 14.4368 8.93749C14.4368 9.00108 14.4368 9.06468 14.4437 9.12741L13.3067 9.5064C13.0575 9.12108 12.7158 8.80426 12.3128 8.58482C11.9098 8.36537 11.4582 8.25026 10.9993 8.24999C10.8476 8.25031 10.6961 8.26295 10.5464 8.2878L9.95862 6.96093C10.4662 6.55538 10.8138 5.98323 10.9398 5.34589C11.0658 4.70854 10.9621 4.04717 10.647 3.47898C10.332 2.91079 9.82597 2.47249 9.21864 2.24177C8.61131 2.01104 7.94191 2.00278 7.32907 2.21846C6.71623 2.43414 6.19954 2.85982 5.87058 3.42007C5.54162 3.98031 5.42164 4.63893 5.53189 5.27919C5.64215 5.91944 5.97552 6.49999 6.47292 6.91793C6.97033 7.33588 7.59964 7.56422 8.24932 7.56249C8.40106 7.56218 8.55252 7.54953 8.70221 7.52468L9.29002 8.84811C8.79155 9.24264 8.44558 9.79805 8.31124 10.4194C8.17691 11.0408 8.26255 11.6895 8.55354 12.2547L6.34408 14.2175C5.78805 13.8426 5.1144 13.6835 4.44939 13.7698C3.78439 13.8561 3.17369 14.1819 2.73176 14.6863C2.28983 15.1907 2.04702 15.8389 2.04884 16.5095C2.05066 17.18 2.29698 17.8269 2.74163 18.3289C3.18628 18.8309 3.79874 19.1534 4.4642 19.2361C5.12967 19.3188 5.80245 19.156 6.35644 18.7781C6.91043 18.4003 7.3076 17.8333 7.4735 17.1836C7.63939 16.5339 7.56263 15.8459 7.2576 15.2487L9.46705 13.2859C9.94544 13.608 10.5132 13.7711 11.0896 13.752C11.666 13.7329 12.2217 13.5325 12.6777 13.1794L14.6637 14.7262C14.5142 15.0689 14.437 15.4387 14.4368 15.8125C14.4368 16.3564 14.5981 16.8881 14.9003 17.3403C15.2025 17.7925 15.6319 18.145 16.1344 18.3532C16.6369 18.5613 17.1899 18.6158 17.7233 18.5097C18.2568 18.4035 18.7468 18.1416 19.1314 17.757C19.516 17.3724 19.7779 16.8824 19.884 16.349C19.9901 15.8155 19.9356 15.2626 19.7275 14.7601C19.5193 14.2576 19.1669 13.8281 18.7146 13.5259C18.2624 13.2238 17.7307 13.0625 17.1868 13.0625ZM17.1868 7.56249C17.4588 7.56249 17.7246 7.64313 17.9507 7.79422C18.1768 7.94531 18.3531 8.16005 18.4572 8.4113C18.5612 8.66255 18.5885 8.93902 18.5354 9.20574C18.4823 9.47246 18.3514 9.71746 18.1591 9.90976C17.9668 10.1021 17.7218 10.233 17.4551 10.2861C17.1883 10.3391 16.9119 10.3119 16.6606 10.2078C16.4094 10.1038 16.1946 9.92752 16.0435 9.7014C15.8925 9.47528 15.8118 9.20944 15.8118 8.93749C15.8118 8.57282 15.9567 8.22308 16.2145 7.96522C16.4724 7.70736 16.8221 7.56249 17.1868 7.56249ZM6.87432 4.81249C6.87432 4.54054 6.95496 4.2747 7.10605 4.04858C7.25714 3.82246 7.47188 3.64623 7.72313 3.54216C7.97438 3.43809 8.25084 3.41086 8.51757 3.46391C8.78429 3.51697 9.02929 3.64792 9.22159 3.84022C9.41389 4.03252 9.54484 4.27752 9.5979 4.54424C9.65095 4.81097 9.62372 5.08743 9.51965 5.33868C9.41558 5.58993 9.23935 5.80467 9.01323 5.95576C8.78711 6.10685 8.52127 6.18749 8.24932 6.18749C7.88465 6.18749 7.53491 6.04262 7.27705 5.78476C7.01918 5.5269 6.87432 5.17716 6.87432 4.81249ZM4.81182 17.875C4.53987 17.875 4.27403 17.7943 4.04791 17.6433C3.82179 17.4922 3.64555 17.2774 3.54148 17.0262C3.43741 16.7749 3.41018 16.4985 3.46324 16.2317C3.51629 15.965 3.64725 15.72 3.83955 15.5277C4.03184 15.3354 4.27685 15.2045 4.54357 15.1514C4.81029 15.0984 5.08676 15.1256 5.33801 15.2297C5.58926 15.3337 5.804 15.51 5.95509 15.7361C6.10618 15.9622 6.18682 16.228 6.18682 16.5C6.18682 16.8647 6.04195 17.2144 5.78409 17.4723C5.52623 17.7301 5.17649 17.875 4.81182 17.875ZM9.62432 11C9.62432 10.728 9.70496 10.4622 9.85605 10.2361C10.0071 10.01 10.2219 9.83373 10.4731 9.72966C10.7244 9.62559 11.0008 9.59836 11.2676 9.65141C11.5343 9.70446 11.7793 9.83542 11.9716 10.0277C12.1639 10.22 12.2948 10.465 12.3479 10.7317C12.401 10.9985 12.3737 11.2749 12.2697 11.5262C12.1656 11.7774 11.9893 11.9922 11.7632 12.1433C11.5371 12.2943 11.2713 12.375 10.9993 12.375C10.6346 12.375 10.2849 12.2301 10.027 11.9723C9.76918 11.7144 9.62432 11.3647 9.62432 11ZM17.1868 17.1875C16.9149 17.1875 16.649 17.1068 16.4229 16.9558C16.1968 16.8047 16.0206 16.5899 15.9165 16.3387C15.8124 16.0874 15.7852 15.811 15.8382 15.5442C15.8913 15.2775 16.0223 15.0325 16.2145 14.8402C16.4068 14.6479 16.6518 14.517 16.9186 14.4639C17.1853 14.4109 17.4618 14.4381 17.713 14.5422C17.9643 14.6462 18.179 14.8225 18.3301 15.0486C18.4812 15.2747 18.5618 15.5405 18.5618 15.8125C18.5618 16.1772 18.417 16.5269 18.1591 16.7848C17.9012 17.0426 17.5515 17.1875 17.1868 17.1875Z" fill="#D0D5DD"/>
</svg>
