<svg width="22" height="22" viewBox="0 0 22 22" fill="none" xmlns="http://www.w3.org/2000/svg">
<path d="M16.5 8.25C16.5 9.3378 16.1774 10.4012 15.5731 11.3056C14.9687 12.2101 14.1098 12.9151 13.1048 13.3313C12.0998 13.7476 10.9939 13.8565 9.92701 13.6443C8.86011 13.4321 7.8801 12.9083 7.11091 12.1391C6.34173 11.3699 5.8179 10.3899 5.60568 9.323C5.39346 8.2561 5.50238 7.15024 5.91866 6.14524C6.33495 5.14025 7.0399 4.28127 7.94437 3.67692C8.84884 3.07257 9.91221 2.75 11 2.75C12.4587 2.75 13.8576 3.32946 14.8891 4.36091C15.9205 5.39236 16.5 6.79131 16.5 8.25Z" fill="#475467"/>
<path d="M2.75 18.5625H19.25C18.3333 16.9936 15.4688 13.8345 11.3438 13.75C7.21875 13.75 3.89583 16.9583 2.75 18.5625Z" fill="#475467"/>
<path d="M19.8455 18.2191C18.5367 15.9564 16.5197 14.3339 14.1659 13.5648C15.3302 12.8716 16.2348 11.8155 16.7408 10.5585C17.2467 9.3015 17.3261 7.91317 16.9666 6.60671C16.6072 5.30025 15.8289 4.14789 14.7511 3.32662C13.6734 2.50534 12.3558 2.06055 11.0008 2.06055C9.64581 2.06055 8.32827 2.50534 7.25052 3.32662C6.17278 4.14789 5.39442 5.30025 5.03498 6.60671C4.67554 7.91317 4.7549 9.3015 5.26086 10.5585C5.76683 11.8155 6.67143 12.8716 7.83574 13.5648C5.48191 14.333 3.46495 15.9555 2.15613 18.2191C2.10813 18.2974 2.07629 18.3845 2.0625 18.4752C2.0487 18.566 2.05322 18.6586 2.07579 18.7476C2.09837 18.8366 2.13854 18.9202 2.19393 18.9934C2.24932 19.0666 2.31882 19.128 2.39832 19.1739C2.47782 19.2198 2.56571 19.2493 2.6568 19.2607C2.7479 19.2721 2.84036 19.2652 2.92872 19.2403C3.01709 19.2154 3.09957 19.173 3.17129 19.1157C3.24302 19.0584 3.30255 18.9873 3.34636 18.9066C4.96542 16.1085 7.82714 14.4379 11.0008 14.4379C14.1745 14.4379 17.0362 16.1085 18.6553 18.9066C18.6991 18.9873 18.7586 19.0584 18.8303 19.1157C18.9021 19.173 18.9845 19.2154 19.0729 19.2403C19.1613 19.2652 19.2537 19.2721 19.3448 19.2607C19.4359 19.2493 19.5238 19.2198 19.6033 19.1739C19.6828 19.128 19.7523 19.0666 19.8077 18.9934C19.8631 18.9202 19.9033 18.8366 19.9258 18.7476C19.9484 18.6586 19.9529 18.566 19.9391 18.4752C19.9253 18.3845 19.8935 18.2974 19.8455 18.2191ZM6.18831 8.25038C6.18831 7.29856 6.47056 6.36811 6.99937 5.5767C7.52817 4.78529 8.27978 4.16846 9.15915 3.80421C10.0385 3.43997 11.0062 3.34466 11.9397 3.53036C12.8732 3.71605 13.7307 4.17439 14.4038 4.84743C15.0768 5.52047 15.5352 6.37798 15.7208 7.31151C15.9065 8.24505 15.8112 9.21268 15.447 10.092C15.0827 10.9714 14.4659 11.723 13.6745 12.2518C12.8831 12.7806 11.9526 13.0629 11.0008 13.0629C9.72488 13.0615 8.50159 12.5541 7.59937 11.6518C6.69715 10.7496 6.18968 9.52632 6.18831 8.25038Z" fill="#D0D5DD"/>
</svg>
