<svg width="100" height="36" viewBox="0 0 100 36" fill="none" xmlns="http://www.w3.org/2000/svg">
<g clip-path="url(#clip0_4503_46739)">
<path d="M27.7039 9.26285C32.4128 9.26296 34.7707 15.1855 31.4411 18.6495L24.1882 26.1953C23.8553 26.5417 23.2856 26.2963 23.2855 25.8065V19.1604L24.1235 18.2888C24.7895 17.596 24.3182 16.4114 23.3765 16.4113H12.7142L18.966 9.90677C19.3626 9.49429 19.9013 9.26286 20.462 9.26285H27.7039Z" fill="#444CE7"/>
<path d="M11.8115 9.37637C12.1444 9.03002 12.714 9.27545 12.7142 9.76517V16.4113L11.8756 17.2835C11.21 17.9764 11.6816 19.1602 12.6232 19.1604H23.2855L17.0331 25.6649C16.6366 26.0773 16.0983 26.3088 15.5377 26.3088H8.29583C3.5868 26.3087 1.22885 20.3862 4.55862 16.9222L11.8115 9.37637Z" fill="#444CE7"/>
</g>
<path d="M40 24.7781V12.4518H42.5152V22.5588H48.4148V24.7781H40Z" fill="white"/>
<path d="M53.4261 25C52.6494 25 51.9713 24.8274 51.3918 24.4822C50.8246 24.1369 50.3869 23.6561 50.0787 23.0396C49.7828 22.4232 49.6348 21.7019 49.6348 20.8758V14.7173H52.0576V20.6724C52.0576 21.0916 52.1377 21.4615 52.298 21.782C52.4706 22.0903 52.711 22.3369 53.0193 22.5218C53.3398 22.6944 53.6974 22.7807 54.0919 22.7807C54.4865 22.7807 54.8378 22.6944 55.1461 22.5218C55.4543 22.3369 55.6947 22.0841 55.8673 21.7635C56.04 21.443 56.1263 21.0608 56.1263 20.6169V14.7173H58.549V24.7781H56.2557V22.7992L56.4592 23.1506C56.2249 23.7671 55.8365 24.2294 55.294 24.5376C54.7639 24.8459 54.1412 25 53.4261 25Z" fill="white"/>
<path d="M60.8011 24.7781V14.7173H63.0758V17.0476L62.8169 16.6592C63.0019 15.9317 63.3717 15.3893 63.9266 15.0317C64.4814 14.6741 65.1348 14.4954 65.8869 14.4954C66.713 14.4954 67.4404 14.7111 68.0692 15.1427C68.698 15.5742 69.1049 16.1413 69.2898 16.8441L68.6056 16.8996C68.9138 16.0982 69.3761 15.5002 69.9926 15.1057C70.6091 14.6988 71.318 14.4954 72.1194 14.4954C72.8345 14.4954 73.4695 14.6557 74.0243 14.9762C74.5915 15.2968 75.0353 15.7468 75.3559 16.3263C75.6765 16.8934 75.8367 17.5531 75.8367 18.3051V24.7781H73.414V18.8785C73.414 18.4346 73.3339 18.0524 73.1736 17.7318C73.0133 17.4113 72.7914 17.1647 72.5078 16.9921C72.2242 16.8071 71.879 16.7147 71.4721 16.7147C71.0899 16.7147 70.7509 16.8071 70.455 16.9921C70.1591 17.1647 69.931 17.4113 69.7707 17.7318C69.6104 18.0524 69.5303 18.4346 69.5303 18.8785V24.7781H67.1075V18.8785C67.1075 18.4346 67.0274 18.0524 66.8671 17.7318C66.7068 17.4113 66.4787 17.1647 66.1828 16.9921C65.8993 16.8071 65.5602 16.7147 65.1657 16.7147C64.7835 16.7147 64.4444 16.8071 64.1485 16.9921C63.8526 17.1647 63.6245 17.4113 63.4642 17.7318C63.3039 18.0524 63.2238 18.4346 63.2238 18.8785V24.7781H60.8011Z" fill="white"/>
<path d="M78.2589 25L79.485 15.0142H81.9077L80.6816 25H78.2589ZM77.0623 15.0142L77.3778 12.4444H79.8005L79.485 15.0142L77.0623 15.0142Z" fill="#D0D5DD"/>
<path d="M84.073 24.7781V14.7173H86.3478V16.9551L86.1629 16.6222C86.3971 15.8701 86.7608 15.3461 87.254 15.0502C87.7595 14.7543 88.3636 14.6063 89.0664 14.6063H89.6582V16.7517H88.789C88.0986 16.7517 87.5437 16.9674 87.1245 17.3989C86.7053 17.8181 86.4957 18.41 86.4957 19.1744V24.7781H84.073Z" fill="white"/>
<path d="M94.0418 25C93.339 25 92.7287 24.8829 92.2108 24.6486C91.693 24.4144 91.2923 24.0815 91.0087 23.6499C90.7251 23.2061 90.5834 22.6944 90.5834 22.1149C90.5834 21.5601 90.7067 21.0669 90.9532 20.6354C91.1998 20.1915 91.582 19.8217 92.0999 19.5258C92.6177 19.2299 93.2712 19.0203 94.0602 18.897L97.3522 18.3606V20.21L94.5226 20.6909C94.0417 20.7772 93.6842 20.9313 93.4499 21.1532C93.2157 21.3752 93.0986 21.6649 93.0986 22.0225C93.0986 22.3677 93.228 22.6451 93.4869 22.8547C93.7582 23.052 94.0911 23.1506 94.4856 23.1506C94.9911 23.1506 95.435 23.0458 95.8172 22.8362C96.2117 22.6143 96.5138 22.3122 96.7234 21.93C96.9453 21.5478 97.0563 21.1286 97.0563 20.6724V18.0832C97.0563 17.6517 96.8837 17.2941 96.5384 17.0106C96.2056 16.7147 95.7617 16.5667 95.2069 16.5667C94.689 16.5667 94.2267 16.7085 93.8198 16.9921C93.4253 17.2633 93.1355 17.627 92.9506 18.0832L90.9717 17.1215C91.169 16.5914 91.4772 16.1352 91.8964 15.753C92.328 15.3584 92.8335 15.0502 93.413 14.8283C93.9924 14.6063 94.6212 14.4954 95.2993 14.4954C96.1254 14.4954 96.8528 14.6495 97.4816 14.9577C98.1104 15.2536 98.5974 15.6728 98.9427 16.2153C99.3002 16.7455 99.479 17.3681 99.479 18.0832V24.7781H97.1857V23.0581L97.7036 23.0211C97.4447 23.4527 97.1364 23.8164 96.7789 24.1123C96.4213 24.3959 96.0145 24.6178 95.5583 24.7781C95.1021 24.926 94.5966 25 94.0418 25Z" fill="white"/>
<defs>
<clipPath id="clip0_4503_46739">
<rect width="36" height="36" rx="18" fill="white"/>
</clipPath>
</defs>
</svg>
