<svg width="48" height="48" viewBox="0 0 48 48" fill="none" xmlns="http://www.w3.org/2000/svg">
<g clip-path="url(#clip0_4142_27515)">
<path d="M36.9388 12.3504C43.2174 12.3506 46.3612 20.2473 41.9217 24.8659L32.2512 34.927C31.8073 35.3889 31.0477 35.0618 31.0476 34.4086V25.5471L32.165 24.385C33.0529 23.4613 32.4245 21.8819 31.1689 21.8817H16.9525L25.2883 13.209C25.817 12.659 26.5353 12.3504 27.2829 12.3504H36.9388Z" fill="#444CE7"/>
<path d="M15.7489 12.5018C16.1927 12.04 16.9522 12.3672 16.9525 13.0202V21.8817L15.8343 23.0446C14.947 23.9684 15.5757 25.547 16.8312 25.5471H31.0476L22.711 34.2198C22.1824 34.7697 21.4647 35.0784 20.7172 35.0784H11.0613C4.78264 35.0782 1.63872 27.1816 6.07841 22.5629L15.7489 12.5018Z" fill="#444CE7"/>
</g>
<defs>
<clipPath id="clip0_4142_27515">
<rect width="48" height="48" rx="24" fill="white"/>
</clipPath>
</defs>
</svg>
