<svg width="180" height="48" viewBox="0 0 180 48" fill="none" xmlns="http://www.w3.org/2000/svg">
<g clip-path="url(#clip0_4125_20003)">
<path d="M36.9386 12.3504C43.2172 12.3506 46.3611 20.2473 41.9216 24.8659L32.2511 34.927C31.8072 35.3889 31.0476 35.0618 31.0475 34.4086V25.5471L32.1649 24.385C33.0528 23.4613 32.4244 21.8819 31.1688 21.8817H16.9524L25.2882 13.209C25.8169 12.659 26.5352 12.3504 27.2828 12.3504H36.9386Z" fill="#444CE7"/>
<path d="M15.7487 12.5018C16.1926 12.04 16.9521 12.3672 16.9524 13.0202V21.8817L15.8342 23.0446C14.9468 23.9684 15.5756 25.547 16.8311 25.5471H31.0475L22.7109 34.2198C22.1823 34.7697 21.4646 35.0784 20.717 35.0784H11.0612C4.78252 35.0782 1.63859 27.1816 6.07829 22.5629L15.7487 12.5018Z" fill="#444CE7"/>
</g>
<path d="M54 31.33V18H56.72V28.93H63.1V31.33H54Z" fill="white"/>
<path d="M68.5194 31.57C67.6794 31.57 66.946 31.3833 66.3194 31.01C65.706 30.6367 65.2327 30.1167 64.8994 29.45C64.5794 28.7833 64.4194 28.0033 64.4194 27.11V20.45H67.0394V26.89C67.0394 27.3433 67.126 27.7433 67.2994 28.09C67.486 28.4233 67.746 28.69 68.0794 28.89C68.426 29.0767 68.8127 29.17 69.2394 29.17C69.666 29.17 70.046 29.0767 70.3794 28.89C70.7127 28.69 70.9727 28.4167 71.1594 28.07C71.346 27.7233 71.4394 27.31 71.4394 26.83V20.45H74.0594V31.33H71.5794V29.19L71.7994 29.57C71.546 30.2367 71.126 30.7367 70.5394 31.07C69.966 31.4033 69.2927 31.57 68.5194 31.57Z" fill="white"/>
<path d="M76.4948 31.33V20.45H78.9548V22.97L78.6748 22.55C78.8748 21.7633 79.2748 21.1767 79.8748 20.79C80.4748 20.4033 81.1815 20.21 81.9948 20.21C82.8882 20.21 83.6748 20.4433 84.3548 20.91C85.0348 21.3767 85.4748 21.99 85.6748 22.75L84.9348 22.81C85.2682 21.9433 85.7682 21.2967 86.4348 20.87C87.1015 20.43 87.8682 20.21 88.7348 20.21C89.5082 20.21 90.1948 20.3833 90.7948 20.73C91.4082 21.0767 91.8882 21.5633 92.2348 22.19C92.5815 22.8033 92.7548 23.5167 92.7548 24.33V31.33H90.1348V24.95C90.1348 24.47 90.0482 24.0567 89.8748 23.71C89.7015 23.3633 89.4615 23.0967 89.1548 22.91C88.8482 22.71 88.4748 22.61 88.0348 22.61C87.6215 22.61 87.2548 22.71 86.9348 22.91C86.6148 23.0967 86.3682 23.3633 86.1948 23.71C86.0215 24.0567 85.9348 24.47 85.9348 24.95V31.33H83.3148V24.95C83.3148 24.47 83.2282 24.0567 83.0548 23.71C82.8815 23.3633 82.6348 23.0967 82.3148 22.91C82.0082 22.71 81.6415 22.61 81.2148 22.61C80.8015 22.61 80.4348 22.71 80.1148 22.91C79.7948 23.0967 79.5482 23.3633 79.3748 23.71C79.2015 24.0567 79.1148 24.47 79.1148 24.95V31.33H76.4948Z" fill="white"/>
<path d="M95.3748 31.5701L96.7008 20.7712H99.3208L97.9948 31.5701H95.3748ZM94.0808 20.7712L94.422 17.9921H97.042L96.7008 20.7712L94.0808 20.7712Z" fill="#D0D5DD"/>
<path d="M101.662 31.3301V20.4501H104.122V22.8701L103.922 22.5101C104.175 21.6968 104.569 21.1301 105.102 20.8101C105.649 20.4901 106.302 20.3301 107.062 20.3301H107.702V22.6501H106.762C106.015 22.6501 105.415 22.8834 104.962 23.3501C104.509 23.8034 104.282 24.4434 104.282 25.2701V31.3301H101.662Z" fill="white"/>
<path d="M112.442 31.5701C111.682 31.5701 111.022 31.4434 110.462 31.1901C109.902 30.9368 109.469 30.5768 109.162 30.1101C108.856 29.6301 108.702 29.0768 108.702 28.4501C108.702 27.8501 108.836 27.3168 109.102 26.8501C109.369 26.3701 109.782 25.9701 110.342 25.6501C110.902 25.3301 111.609 25.1034 112.462 24.9701L116.022 24.3901V26.3901L112.962 26.9101C112.442 27.0034 112.056 27.1701 111.802 27.4101C111.549 27.6501 111.422 27.9634 111.422 28.3501C111.422 28.7234 111.562 29.0234 111.842 29.2501C112.136 29.4634 112.496 29.5701 112.922 29.5701C113.469 29.5701 113.949 29.4567 114.362 29.2301C114.789 28.9901 115.116 28.6634 115.342 28.2501C115.582 27.8368 115.702 27.3834 115.702 26.8901V24.0901C115.702 23.6234 115.516 23.2368 115.142 22.9301C114.782 22.6101 114.302 22.4501 113.702 22.4501C113.142 22.4501 112.642 22.6034 112.202 22.9101C111.776 23.2034 111.462 23.5968 111.262 24.0901L109.122 23.0501C109.336 22.4768 109.669 21.9834 110.122 21.5701C110.589 21.1434 111.136 20.8101 111.762 20.5701C112.389 20.3301 113.069 20.2101 113.802 20.2101C114.696 20.2101 115.482 20.3767 116.162 20.7101C116.842 21.0301 117.369 21.4834 117.742 22.0701C118.129 22.6434 118.322 23.3168 118.322 24.0901V31.3301H115.842V29.4701L116.402 29.4301C116.122 29.8968 115.789 30.2901 115.402 30.6101C115.016 30.9168 114.576 31.1568 114.082 31.3301C113.589 31.4901 113.042 31.5701 112.442 31.5701Z" fill="white"/>
<defs>
<clipPath id="clip0_4125_20003">
<rect width="48" height="48" rx="24" fill="white"/>
</clipPath>
</defs>
</svg>
