<svg width="108" height="36" viewBox="0 0 108 36" fill="none" xmlns="http://www.w3.org/2000/svg">
<g clip-path="url(#clip0_4567_53927)">
<path d="M35.7039 9.26285C40.4128 9.26296 42.7707 15.1855 39.4411 18.6495L32.1882 26.1953C31.8553 26.5417 31.2856 26.2963 31.2855 25.8065V19.1604L32.1235 18.2888C32.7895 17.596 32.3182 16.4114 31.3765 16.4113H20.7142L26.966 9.90677C27.3626 9.49429 27.9013 9.26286 28.462 9.26285H35.7039Z" fill="#444CE7"/>
<path d="M19.8115 9.37637C20.1444 9.03002 20.714 9.27545 20.7142 9.76517V16.4113L19.8756 17.2835C19.21 17.9764 19.6816 19.1602 20.6232 19.1604H31.2855L25.0331 25.6649C24.6366 26.0773 24.0983 26.3088 23.5377 26.3088H16.2958C11.5868 26.3087 9.22885 20.3862 12.5586 16.9222L19.8115 9.37637Z" fill="#444CE7"/>
</g>
<path d="M48 24.7781V12.4518H50.5152V22.5588H56.4148V24.7781H48Z" fill="white"/>
<path d="M61.4261 25C60.6494 25 59.9713 24.8274 59.3918 24.4822C58.8246 24.1369 58.3869 23.6561 58.0787 23.0396C57.7828 22.4232 57.6348 21.7019 57.6348 20.8758V14.7173H60.0576V20.6724C60.0576 21.0916 60.1377 21.4615 60.298 21.782C60.4706 22.0903 60.711 22.3369 61.0193 22.5218C61.3398 22.6944 61.6974 22.7807 62.0919 22.7807C62.4865 22.7807 62.8378 22.6944 63.1461 22.5218C63.4543 22.3369 63.6947 22.0841 63.8673 21.7635C64.04 21.443 64.1263 21.0608 64.1263 20.6169V14.7173H66.549V24.7781H64.2557V22.7992L64.4592 23.1506C64.2249 23.7671 63.8365 24.2294 63.294 24.5376C62.7639 24.8459 62.1412 25 61.4261 25Z" fill="white"/>
<path d="M68.8011 24.7781V14.7173H71.0758V17.0476L70.8169 16.6592C71.0019 15.9317 71.3717 15.3893 71.9266 15.0317C72.4814 14.6741 73.1348 14.4954 73.8869 14.4954C74.713 14.4954 75.4404 14.7111 76.0692 15.1427C76.698 15.5742 77.1049 16.1413 77.2898 16.8441L76.6056 16.8996C76.9138 16.0982 77.3761 15.5002 77.9926 15.1057C78.6091 14.6988 79.318 14.4954 80.1194 14.4954C80.8345 14.4954 81.4695 14.6557 82.0243 14.9762C82.5915 15.2968 83.0353 15.7468 83.3559 16.3263C83.6765 16.8934 83.8367 17.5531 83.8367 18.3051V24.7781H81.414V18.8785C81.414 18.4346 81.3339 18.0524 81.1736 17.7318C81.0133 17.4113 80.7914 17.1647 80.5078 16.9921C80.2242 16.8071 79.879 16.7147 79.4721 16.7147C79.0899 16.7147 78.7509 16.8071 78.455 16.9921C78.1591 17.1647 77.931 17.4113 77.7707 17.7318C77.6104 18.0524 77.5303 18.4346 77.5303 18.8785V24.7781H75.1075V18.8785C75.1075 18.4346 75.0274 18.0524 74.8671 17.7318C74.7068 17.4113 74.4787 17.1647 74.1828 16.9921C73.8993 16.8071 73.5602 16.7147 73.1657 16.7147C72.7835 16.7147 72.4444 16.8071 72.1485 16.9921C71.8526 17.1647 71.6245 17.4113 71.4642 17.7318C71.3039 18.0524 71.2238 18.4346 71.2238 18.8785V24.7781H68.8011Z" fill="white"/>
<path d="M86.2589 25L87.485 15.0142H89.9077L88.6816 25H86.2589ZM85.0623 15.0142L85.3778 12.4444H87.8005L87.485 15.0142L85.0623 15.0142Z" fill="#D0D5DD"/>
<path d="M92.073 24.7781V14.7173H94.3478V16.9551L94.1629 16.6222C94.3971 15.8701 94.7608 15.3461 95.254 15.0502C95.7595 14.7543 96.3636 14.6063 97.0664 14.6063H97.6582V16.7517H96.789C96.0986 16.7517 95.5437 16.9674 95.1245 17.3989C94.7053 17.8181 94.4957 18.41 94.4957 19.1744V24.7781H92.073Z" fill="white"/>
<path d="M102.042 25C101.339 25 100.729 24.8829 100.211 24.6486C99.693 24.4144 99.2923 24.0815 99.0087 23.6499C98.7251 23.2061 98.5834 22.6944 98.5834 22.1149C98.5834 21.5601 98.7067 21.0669 98.9532 20.6354C99.1998 20.1915 99.582 19.8217 100.1 19.5258C100.618 19.2299 101.271 19.0203 102.06 18.897L105.352 18.3606V20.21L102.523 20.6909C102.042 20.7772 101.684 20.9313 101.45 21.1532C101.216 21.3752 101.099 21.6649 101.099 22.0225C101.099 22.3677 101.228 22.6451 101.487 22.8547C101.758 23.052 102.091 23.1506 102.486 23.1506C102.991 23.1506 103.435 23.0458 103.817 22.8362C104.212 22.6143 104.514 22.3122 104.723 21.93C104.945 21.5478 105.056 21.1286 105.056 20.6724V18.0832C105.056 17.6517 104.884 17.2941 104.538 17.0106C104.206 16.7147 103.762 16.5667 103.207 16.5667C102.689 16.5667 102.227 16.7085 101.82 16.9921C101.425 17.2633 101.136 17.627 100.951 18.0832L98.9717 17.1215C99.169 16.5914 99.4772 16.1352 99.8964 15.753C100.328 15.3584 100.833 15.0502 101.413 14.8283C101.992 14.6063 102.621 14.4954 103.299 14.4954C104.125 14.4954 104.853 14.6495 105.482 14.9577C106.11 15.2536 106.597 15.6728 106.943 16.2153C107.3 16.7455 107.479 17.3681 107.479 18.0832V24.7781H105.186V23.0581L105.704 23.0211C105.445 23.4527 105.136 23.8164 104.779 24.1123C104.421 24.3959 104.014 24.6178 103.558 24.7781C103.102 24.926 102.597 25 102.042 25Z" fill="white"/>
<defs>
<clipPath id="clip0_4567_53927">
<rect x="8" width="36" height="36" rx="18" fill="white"/>
</clipPath>
</defs>
</svg>
