<svg width="180" height="48" viewBox="0 0 180 48" fill="none" xmlns="http://www.w3.org/2000/svg">
<g clip-path="url(#clip0_4049_6605)">
<rect x="1" y="1" width="46" height="46" rx="11" stroke="url(#paint0_linear_4049_6605)" stroke-width="2"/>
<path d="M36.9386 12.3505C43.2172 12.3506 46.3611 20.2473 41.9216 24.866L32.2511 34.9271C31.8072 35.3889 31.0476 35.0618 31.0475 34.4087V25.5471L32.1649 24.385C33.0528 23.4614 32.4244 21.8819 31.1688 21.8818H16.9524L25.2882 13.209C25.8169 12.6591 26.5352 12.3505 27.2828 12.3505H36.9386Z" fill="#444CE7"/>
<path d="M15.7487 12.5018C16.1926 12.04 16.9521 12.3673 16.9524 13.0202V21.8818L15.8342 23.0447C14.9468 23.9685 15.5756 25.547 16.8311 25.5471H31.0475L22.7109 34.2199C22.1823 34.7697 21.4646 35.0784 20.717 35.0784H11.0612C4.78252 35.0783 1.63859 27.1817 6.07829 22.5629L15.7487 12.5018Z" fill="#444CE7"/>
</g>
<path d="M54 31.33V18H56.72V28.93H63.1V31.33H54Z" fill="#101828"/>
<path d="M68.5194 31.57C67.6794 31.57 66.946 31.3833 66.3194 31.01C65.706 30.6367 65.2327 30.1167 64.8994 29.45C64.5794 28.7833 64.4194 28.0033 64.4194 27.11V20.45H67.0394V26.89C67.0394 27.3433 67.126 27.7433 67.2994 28.09C67.486 28.4233 67.746 28.69 68.0794 28.89C68.426 29.0767 68.8127 29.17 69.2394 29.17C69.666 29.17 70.046 29.0767 70.3794 28.89C70.7127 28.69 70.9727 28.4167 71.1594 28.07C71.346 27.7233 71.4394 27.31 71.4394 26.83V20.45H74.0594V31.33H71.5794V29.19L71.7994 29.57C71.546 30.2367 71.126 30.7367 70.5394 31.07C69.966 31.4033 69.2927 31.57 68.5194 31.57Z" fill="#101828"/>
<path d="M76.4948 31.33V20.45H78.9548V22.97L78.6748 22.55C78.8748 21.7633 79.2748 21.1767 79.8748 20.79C80.4748 20.4033 81.1815 20.21 81.9948 20.21C82.8882 20.21 83.6748 20.4433 84.3548 20.91C85.0348 21.3767 85.4748 21.99 85.6748 22.75L84.9348 22.81C85.2682 21.9433 85.7682 21.2967 86.4348 20.87C87.1015 20.43 87.8682 20.21 88.7348 20.21C89.5082 20.21 90.1948 20.3833 90.7948 20.73C91.4082 21.0767 91.8882 21.5633 92.2348 22.19C92.5815 22.8033 92.7548 23.5167 92.7548 24.33V31.33H90.1348V24.95C90.1348 24.47 90.0482 24.0567 89.8748 23.71C89.7015 23.3633 89.4615 23.0967 89.1548 22.91C88.8482 22.71 88.4748 22.61 88.0348 22.61C87.6215 22.61 87.2548 22.71 86.9348 22.91C86.6148 23.0967 86.3682 23.3633 86.1948 23.71C86.0215 24.0567 85.9348 24.47 85.9348 24.95V31.33H83.3148V24.95C83.3148 24.47 83.2282 24.0567 83.0548 23.71C82.8815 23.3633 82.6348 23.0967 82.3148 22.91C82.0082 22.71 81.6415 22.61 81.2148 22.61C80.8015 22.61 80.4348 22.71 80.1148 22.91C79.7948 23.0967 79.5482 23.3633 79.3748 23.71C79.2015 24.0567 79.1148 24.47 79.1148 24.95V31.33H76.4948Z" fill="#101828"/>
<path d="M95.3749 31.57L96.7008 20.7711H99.3208L97.9949 31.57H95.3749ZM94.0808 20.7711L94.422 17.992H97.042L96.7008 20.7711L94.0808 20.7711Z" fill="#475467"/>
<path d="M101.662 31.33V20.45H104.122V22.87L103.922 22.51C104.175 21.6967 104.569 21.13 105.102 20.81C105.649 20.49 106.302 20.33 107.062 20.33H107.702V22.65H106.762C106.015 22.65 105.415 22.8833 104.962 23.35C104.509 23.8033 104.282 24.4433 104.282 25.27V31.33H101.662Z" fill="#101828"/>
<path d="M112.442 31.57C111.682 31.57 111.022 31.4433 110.462 31.19C109.902 30.9367 109.469 30.5767 109.162 30.11C108.856 29.63 108.702 29.0767 108.702 28.45C108.702 27.85 108.836 27.3167 109.102 26.85C109.369 26.37 109.782 25.97 110.342 25.65C110.902 25.33 111.609 25.1033 112.462 24.97L116.022 24.39V26.39L112.962 26.91C112.442 27.0033 112.056 27.17 111.802 27.41C111.549 27.65 111.422 27.9633 111.422 28.35C111.422 28.7233 111.562 29.0233 111.842 29.25C112.136 29.4633 112.496 29.57 112.922 29.57C113.469 29.57 113.949 29.4567 114.362 29.23C114.789 28.99 115.116 28.6633 115.342 28.25C115.582 27.8367 115.702 27.3833 115.702 26.89V24.09C115.702 23.6233 115.516 23.2367 115.142 22.93C114.782 22.61 114.302 22.45 113.702 22.45C113.142 22.45 112.642 22.6033 112.202 22.91C111.776 23.2033 111.462 23.5967 111.262 24.09L109.122 23.05C109.336 22.4767 109.669 21.9833 110.122 21.57C110.589 21.1433 111.136 20.81 111.762 20.57C112.389 20.33 113.069 20.21 113.802 20.21C114.696 20.21 115.482 20.3767 116.162 20.71C116.842 21.03 117.369 21.4833 117.742 22.07C118.129 22.6433 118.322 23.3167 118.322 24.09V31.33H115.842V29.47L116.402 29.43C116.122 29.8967 115.789 30.29 115.402 30.61C115.016 30.9167 114.576 31.1567 114.082 31.33C113.589 31.49 113.042 31.57 112.442 31.57Z" fill="#101828"/>
<defs>
<linearGradient id="paint0_linear_4049_6605" x1="24" y1="0" x2="24" y2="48" gradientUnits="userSpaceOnUse">
<stop stop-color="white" stop-opacity="0.12"/>
<stop offset="1" stop-color="white" stop-opacity="0"/>
</linearGradient>
<clipPath id="clip0_4049_6605">
<rect width="48" height="48" rx="24" fill="white"/>
</clipPath>
</defs>
</svg>
