<svg width="104" height="18" viewBox="0 0 104 18" fill="none" xmlns="http://www.w3.org/2000/svg">
<path d="M26.6028 0.0510052C31.5471 0.0511222 34.0229 6.26965 30.5268 9.90679L22.9115 17.8297C22.5619 18.1935 21.9637 17.9358 21.9637 17.4215V10.4432L22.8436 9.52804C23.5428 8.80067 23.0479 7.55688 22.0591 7.55676H10.864L17.4283 0.727113C17.8446 0.294016 18.4103 0.0510176 18.999 0.0510052H26.6028Z" fill="url(#paint0_linear_6824_70404)"/>
<path d="M9.91612 0.170205C10.2657 -0.193451 10.8637 0.0642355 10.864 0.578433V7.55676L9.98341 8.47255C9.28463 9.20002 9.77979 10.4431 10.7685 10.4432H21.9637L15.3987 17.2728C14.9824 17.7058 14.4172 17.9489 13.8286 17.9489H6.22477C1.28038 17.9488 -1.19541 11.7303 2.30078 8.09316L9.91612 0.170205Z" fill="url(#paint1_linear_6824_70404)"/>
<path d="M40.8047 15.3586V2.41626H43.4456V13.0284H49.6401V15.3586H40.8047Z" fill="url(#paint2_linear_6824_70404)"/>
<path d="M54.9018 15.5916C54.0863 15.5916 53.3742 15.4104 52.7658 15.0479C52.1703 14.6854 51.7107 14.1806 51.3871 13.5333C51.0764 12.886 50.9211 12.1287 50.9211 11.2613V4.79501H53.4649V11.0477C53.4649 11.4879 53.549 11.8762 53.7173 12.2128C53.8985 12.5365 54.151 12.7954 54.4746 12.9896C54.8112 13.1708 55.1866 13.2614 55.6009 13.2614C56.0151 13.2614 56.3841 13.1708 56.7077 12.9896C57.0314 12.7954 57.2838 12.53 57.4651 12.1934C57.6463 11.8568 57.7369 11.4555 57.7369 10.9895V4.79501H60.2807V15.3586H57.8728V13.2808L58.0864 13.6498C57.8405 14.2971 57.4327 14.7825 56.8631 15.1062C56.3064 15.4298 55.6527 15.5916 54.9018 15.5916Z" fill="url(#paint3_linear_6824_70404)"/>
<path d="M62.6454 15.3586V4.79501H65.0338V7.24173L64.762 6.83394C64.9561 6.07015 65.3445 5.50055 65.9271 5.12512C66.5096 4.7497 67.1957 4.56199 67.9854 4.56199C68.8528 4.56199 69.6166 4.78854 70.2768 5.24163C70.937 5.69473 71.3642 6.29023 71.5584 7.02812L70.8399 7.08638C71.1636 6.24492 71.649 5.61706 72.2963 5.2028C72.9436 4.77559 73.688 4.56199 74.5294 4.56199C75.2803 4.56199 75.947 4.73028 76.5295 5.06687C77.125 5.40345 77.591 5.87597 77.9276 6.48441C78.2642 7.07991 78.4325 7.7725 78.4325 8.56218V15.3586H75.8887V9.16415C75.8887 8.69811 75.8046 8.29679 75.6363 7.96021C75.468 7.62362 75.2349 7.36471 74.9372 7.18347C74.6395 6.98929 74.277 6.8922 73.8498 6.8922C73.4485 6.8922 73.0925 6.98929 72.7818 7.18347C72.4711 7.36471 72.2316 7.62362 72.0633 7.96021C71.895 8.29679 71.8108 8.69811 71.8108 9.16415V15.3586H69.267V9.16415C69.267 8.69811 69.1829 8.29679 69.0146 7.96021C68.8463 7.62362 68.6068 7.36471 68.2961 7.18347C67.9984 6.98929 67.6424 6.8922 67.2281 6.8922C66.8268 6.8922 66.4708 6.98929 66.1601 7.18347C65.8494 7.36471 65.6099 7.62362 65.4416 7.96021C65.2733 8.29679 65.1892 8.69811 65.1892 9.16415V15.3586H62.6454Z" fill="url(#paint4_linear_6824_70404)"/>
<path d="M80.9759 15.5916L82.2633 5.10676H84.8071L83.5197 15.5916H80.9759ZM79.7195 5.10676L80.0508 2.40845H82.5946L82.2633 5.10676L79.7195 5.10676Z" fill="url(#paint5_linear_6824_70404)"/>
<path d="M87.0806 15.3586V4.79501H89.4691V7.14464L89.2749 6.79511C89.5209 6.00543 89.9028 5.45524 90.4206 5.14455C90.9514 4.83385 91.5857 4.6785 92.3236 4.6785H92.945V6.93104H92.0323C91.3074 6.93104 90.7248 7.15758 90.2847 7.61068C89.8445 8.05083 89.6245 8.67222 89.6245 9.47484V15.3586H87.0806Z" fill="url(#paint6_linear_6824_70404)"/>
<path d="M97.5476 15.5916C96.8097 15.5916 96.1689 15.4687 95.6252 15.2227C95.0815 14.9767 94.6607 14.6272 94.363 14.1741C94.0652 13.7081 93.9164 13.1708 93.9164 12.5624C93.9164 11.9798 94.0458 11.462 94.3047 11.0089C94.5637 10.5429 94.965 10.1545 95.5087 9.84379C96.0524 9.5331 96.7385 9.31302 97.567 9.18357L101.024 8.62044V10.5623L98.0525 11.0672C97.5476 11.1578 97.1722 11.3196 96.9262 11.5526C96.6803 11.7856 96.5573 12.0899 96.5573 12.4653C96.5573 12.8278 96.6932 13.119 96.9651 13.3391C97.2499 13.5462 97.5994 13.6498 98.0136 13.6498C98.5444 13.6498 99.0105 13.5398 99.4118 13.3197C99.826 13.0867 100.143 12.7695 100.363 12.3682C100.596 11.9669 100.713 11.5267 100.713 11.0477V8.32916C100.713 7.87606 100.532 7.50064 100.169 7.20289C99.8196 6.8922 99.3535 6.73685 98.771 6.73685C98.2272 6.73685 97.7418 6.88573 97.3146 7.18347C96.9003 7.46828 96.5961 7.85017 96.4019 8.32916L94.3242 7.3194C94.5313 6.76274 94.8549 6.28376 95.2951 5.88244C95.7482 5.46818 96.2789 5.14454 96.8874 4.91152C97.4958 4.6785 98.1561 4.56199 98.8681 4.56199C99.7354 4.56199 100.499 4.72381 101.159 5.04745C101.82 5.35815 102.331 5.7983 102.693 6.3679C103.069 6.92456 103.257 7.57832 103.257 8.32916V15.3586H100.849V13.5527L101.392 13.5139C101.121 13.967 100.797 14.3489 100.422 14.6596C100.046 14.9573 99.6189 15.1903 99.1399 15.3586C98.6609 15.514 98.1302 15.5916 97.5476 15.5916Z" fill="url(#paint7_linear_6824_70404)"/>
<defs>
<linearGradient id="paint0_linear_6824_70404" x1="16.4138" y1="5.81818" x2="16.4138" y2="23.0909" gradientUnits="userSpaceOnUse">
<stop stop-color="white"/>
<stop offset="1" stop-color="white" stop-opacity="0.6"/>
</linearGradient>
<linearGradient id="paint1_linear_6824_70404" x1="16.4138" y1="5.81818" x2="16.4138" y2="23.0909" gradientUnits="userSpaceOnUse">
<stop stop-color="white"/>
<stop offset="1" stop-color="white" stop-opacity="0.6"/>
</linearGradient>
<linearGradient id="paint2_linear_6824_70404" x1="72.0307" y1="6.66968" x2="72.0307" y2="19.3202" gradientUnits="userSpaceOnUse">
<stop stop-color="white"/>
<stop offset="1" stop-color="white" stop-opacity="0.6"/>
</linearGradient>
<linearGradient id="paint3_linear_6824_70404" x1="72.0307" y1="6.66968" x2="72.0307" y2="19.3202" gradientUnits="userSpaceOnUse">
<stop stop-color="white"/>
<stop offset="1" stop-color="white" stop-opacity="0.6"/>
</linearGradient>
<linearGradient id="paint4_linear_6824_70404" x1="72.0307" y1="6.66968" x2="72.0307" y2="19.3202" gradientUnits="userSpaceOnUse">
<stop stop-color="white"/>
<stop offset="1" stop-color="white" stop-opacity="0.6"/>
</linearGradient>
<linearGradient id="paint5_linear_6824_70404" x1="72.0307" y1="6.66968" x2="72.0307" y2="19.3202" gradientUnits="userSpaceOnUse">
<stop stop-color="white"/>
<stop offset="1" stop-color="white" stop-opacity="0.6"/>
</linearGradient>
<linearGradient id="paint6_linear_6824_70404" x1="72.0307" y1="6.66968" x2="72.0307" y2="19.3202" gradientUnits="userSpaceOnUse">
<stop stop-color="white"/>
<stop offset="1" stop-color="white" stop-opacity="0.6"/>
</linearGradient>
<linearGradient id="paint7_linear_6824_70404" x1="72.0307" y1="6.66968" x2="72.0307" y2="19.3202" gradientUnits="userSpaceOnUse">
<stop stop-color="white"/>
<stop offset="1" stop-color="white" stop-opacity="0.6"/>
</linearGradient>
</defs>
</svg>
